%TF.GenerationSoftware,KiCad,Pcbnew,(5.1.8)-1*%
%TF.CreationDate,2020-12-23T12:42:43+01:00*%
%TF.ProjectId,Kiwi_EasyBoardv1.0,4b697769-5f45-4617-9379-426f61726476,rev?*%
%TF.SameCoordinates,Original*%
%TF.FileFunction,Copper,L2,Bot*%
%TF.FilePolarity,Positive*%
%FSLAX46Y46*%
G04 Gerber Fmt 4.6, Leading zero omitted, Abs format (unit mm)*
G04 Created by KiCad (PCBNEW (5.1.8)-1) date 2020-12-23 12:42:43*
%MOMM*%
%LPD*%
G01*
G04 APERTURE LIST*
%TA.AperFunction,Profile*%
%ADD10C,0.050000*%
%TD*%
%TA.AperFunction,ComponentPad*%
%ADD11O,2.200000X2.200000*%
%TD*%
%TA.AperFunction,ComponentPad*%
%ADD12R,2.200000X2.200000*%
%TD*%
%TA.AperFunction,ConnectorPad*%
%ADD13C,6.400000*%
%TD*%
%TA.AperFunction,ComponentPad*%
%ADD14C,3.600000*%
%TD*%
%TA.AperFunction,ComponentPad*%
%ADD15C,1.200000*%
%TD*%
%TA.AperFunction,ComponentPad*%
%ADD16C,1.308000*%
%TD*%
%TA.AperFunction,ComponentPad*%
%ADD17R,1.308000X1.308000*%
%TD*%
%TA.AperFunction,ComponentPad*%
%ADD18O,2.000000X1.600000*%
%TD*%
%TA.AperFunction,ComponentPad*%
%ADD19R,2.000000X2.000000*%
%TD*%
%TA.AperFunction,ComponentPad*%
%ADD20R,1.700000X1.700000*%
%TD*%
%TA.AperFunction,ComponentPad*%
%ADD21O,1.700000X1.700000*%
%TD*%
%TA.AperFunction,ViaPad*%
%ADD22C,0.800000*%
%TD*%
%TA.AperFunction,Conductor*%
%ADD23C,0.500000*%
%TD*%
%TA.AperFunction,Conductor*%
%ADD24C,0.250000*%
%TD*%
%TA.AperFunction,Conductor*%
%ADD25C,0.254000*%
%TD*%
%TA.AperFunction,Conductor*%
%ADD26C,0.150000*%
%TD*%
G04 APERTURE END LIST*
D10*
X76200000Y-86360000D02*
X76200000Y-100330000D01*
X180340000Y-83820000D02*
X78740000Y-83820000D01*
X76200000Y-86360000D02*
X78740000Y-83820000D01*
X154940000Y-116840000D02*
X179070000Y-116840000D01*
X144780000Y-116840000D02*
X152400000Y-116840000D01*
X152400000Y-116840000D02*
G75*
G02*
X154940000Y-116840000I1270000J0D01*
G01*
X76200000Y-102870000D02*
X76200000Y-107950000D01*
X76200000Y-100330000D02*
G75*
G02*
X76200000Y-102870000I0J-1270000D01*
G01*
X105410000Y-128270000D02*
X115570000Y-128270000D01*
X81079773Y-119452036D02*
X87630000Y-127000000D01*
X81079773Y-119452036D02*
X76200000Y-107950000D01*
X182880000Y-127000000D02*
X191770000Y-127000000D01*
X135890000Y-116840000D02*
X144780000Y-116840000D01*
X125730000Y-132080000D02*
X135890000Y-128270000D01*
X135890000Y-116840000D02*
X135890000Y-128270000D01*
X95250000Y-130810000D02*
X87630000Y-127000000D01*
X185420000Y-95250000D02*
X163830000Y-95250000D01*
X186690000Y-109220000D02*
X186690000Y-96520000D01*
X163830000Y-110490000D02*
X185420000Y-110490000D01*
X162560000Y-96520000D02*
X162560000Y-109220000D01*
X186690000Y-109220000D02*
G75*
G02*
X185420000Y-110490000I-1270000J0D01*
G01*
X163830000Y-110490000D02*
G75*
G02*
X162560000Y-109220000I0J1270000D01*
G01*
X162560000Y-96520000D02*
G75*
G02*
X163830000Y-95250000I1270000J0D01*
G01*
X185420000Y-95250000D02*
G75*
G02*
X186690000Y-96520000I0J-1270000D01*
G01*
X179070000Y-116840000D02*
X179070000Y-118110000D01*
X191770000Y-93980000D02*
X180340000Y-83820000D01*
X191770000Y-127000000D02*
X191770000Y-93980000D01*
X179070000Y-121920000D02*
X182880000Y-127000000D01*
X179070000Y-118110000D02*
X179070000Y-121920000D01*
X115570000Y-128270000D02*
X115570000Y-134620000D01*
X125730000Y-134620000D02*
X125730000Y-132080000D01*
X95250000Y-134620000D02*
X95250000Y-130810000D01*
X115570000Y-134620000D02*
X125730000Y-134620000D01*
X105410000Y-134620000D02*
X95250000Y-134620000D01*
X105410000Y-128270000D02*
X105410000Y-134620000D01*
X143510000Y-93980000D02*
X151130000Y-93980000D01*
X143510000Y-86360000D02*
X151130000Y-86360000D01*
X143510000Y-93980000D02*
G75*
G02*
X143510000Y-86360000I0J3810000D01*
G01*
X151130000Y-86360000D02*
G75*
G02*
X151130000Y-93980000I0J-3810000D01*
G01*
D11*
%TO.P,D1,2*%
%TO.N,+5V*%
X156210000Y-114300000D03*
D12*
%TO.P,D1,1*%
%TO.N,/VLED*%
X156210000Y-104140000D03*
%TD*%
D13*
%TO.P,H4,1*%
%TO.N,GND*%
X132080000Y-90170000D03*
D14*
X132080000Y-90170000D03*
%TD*%
D15*
%TO.P,U4,5*%
%TO.N,Net-(U4-Pad5)*%
X85892102Y-99892102D03*
%TO.P,U4,4*%
%TO.N,+5V*%
X84096051Y-98096051D03*
%TO.P,U4,3*%
%TO.N,/RCWL-OUT*%
X82300000Y-96300000D03*
%TO.P,U4,2*%
%TO.N,GND*%
X80503949Y-94503949D03*
%TO.P,U4,1*%
%TO.N,Net-(U4-Pad1)*%
X78707898Y-92707898D03*
%TD*%
D16*
%TO.P,U2,9*%
%TO.N,Net-(U2-Pad9)*%
X189230000Y-102870000D03*
%TO.P,U2,8*%
%TO.N,Net-(U2-Pad8)*%
X189230000Y-105410000D03*
%TO.P,U2,7*%
%TO.N,GND*%
X189230000Y-107950000D03*
%TO.P,U2,6*%
%TO.N,+5V*%
X189230000Y-110490000D03*
%TO.P,U2,5*%
%TO.N,Net-(U2-Pad5)*%
X159639000Y-100330000D03*
%TO.P,U2,4*%
%TO.N,Net-(U2-Pad4)*%
X159639000Y-102870000D03*
%TO.P,U2,3*%
%TO.N,/D1mini-UART-Rx*%
X159639000Y-105410000D03*
%TO.P,U2,2*%
%TO.N,/D1mini-UART-Tx*%
X159639000Y-107950000D03*
D17*
%TO.P,U2,1*%
%TO.N,Net-(U2-Pad1)*%
X159639000Y-110490000D03*
%TD*%
D18*
%TO.P,U1,16*%
%TO.N,Net-(U1-Pad16)*%
X121920000Y-107950000D03*
%TO.P,U1,15*%
%TO.N,Net-(U1-Pad15)*%
X121920000Y-110490000D03*
%TO.P,U1,14*%
%TO.N,/I2C-SCL*%
X121920000Y-113030000D03*
%TO.P,U1,13*%
%TO.N,/I2C-SDA*%
X121920000Y-115570000D03*
%TO.P,U1,12*%
%TO.N,Net-(U1-Pad12)*%
X121920000Y-118110000D03*
%TO.P,U1,11*%
%TO.N,/LED-DIN*%
X121920000Y-120650000D03*
%TO.P,U1,10*%
%TO.N,GND*%
X121920000Y-123190000D03*
%TO.P,U1,9*%
%TO.N,+5V*%
X121920000Y-125730000D03*
%TO.P,U1,8*%
%TO.N,+3V3*%
X99060000Y-125730000D03*
%TO.P,U1,7*%
%TO.N,/D1mini-UART-Tx*%
X99060000Y-123190000D03*
%TO.P,U1,6*%
%TO.N,Net-(U1-Pad6)*%
X99060000Y-120650000D03*
%TO.P,U1,5*%
%TO.N,Net-(U1-Pad5)*%
X99060000Y-118110000D03*
%TO.P,U1,4*%
%TO.N,/D1mini-UART-Rx*%
X99060000Y-115570000D03*
%TO.P,U1,3*%
%TO.N,/RCWL-OUT*%
X99060000Y-113030000D03*
D19*
%TO.P,U1,1*%
%TO.N,Net-(U1-Pad1)*%
X99060000Y-107950000D03*
D18*
%TO.P,U1,2*%
%TO.N,Net-(U1-Pad2)*%
X99060000Y-110490000D03*
%TD*%
D13*
%TO.P,H3,1*%
%TO.N,GND*%
X186690000Y-120650000D03*
D14*
X186690000Y-120650000D03*
%TD*%
D20*
%TO.P,J15,1*%
%TO.N,GND*%
X168910000Y-86360000D03*
%TD*%
D21*
%TO.P,J14,3*%
%TO.N,GND*%
X86360000Y-111760000D03*
%TO.P,J14,2*%
%TO.N,+3V3*%
X86360000Y-114300000D03*
D20*
%TO.P,J14,1*%
%TO.N,+5V*%
X86360000Y-116840000D03*
%TD*%
%TO.P,J13,1*%
%TO.N,/RCWL-OUT*%
X83820000Y-106680000D03*
%TD*%
D21*
%TO.P,J12,2*%
%TO.N,/I2C-SCL*%
X177800000Y-86360000D03*
D20*
%TO.P,J12,1*%
%TO.N,/I2C-SDA*%
X175260000Y-86360000D03*
%TD*%
D21*
%TO.P,J10,2*%
%TO.N,/D1mini-UART-Rx*%
X92710000Y-106680000D03*
D20*
%TO.P,J10,1*%
%TO.N,/D1mini-UART-Tx*%
X90170000Y-106680000D03*
%TD*%
D21*
%TO.P,J8,3*%
%TO.N,/VLED*%
X153670000Y-100330000D03*
%TO.P,J8,2*%
%TO.N,/LED-DIN*%
X151130000Y-100330000D03*
D20*
%TO.P,J8,1*%
%TO.N,GND*%
X148590000Y-100330000D03*
%TD*%
D15*
%TO.P,U3,4*%
%TO.N,/I2C-SDA*%
X119380000Y-93980000D03*
%TO.P,U3,3*%
%TO.N,/I2C-SCL*%
X119380000Y-91440000D03*
%TO.P,U3,2*%
%TO.N,+3V3*%
X119380000Y-88900000D03*
%TO.P,U3,1*%
%TO.N,GND*%
X119380000Y-86360000D03*
%TD*%
%TO.P,U5,6*%
%TO.N,Net-(U5-Pad6)*%
X149860000Y-109220000D03*
%TO.P,U5,5*%
%TO.N,Net-(U5-Pad5)*%
X147320000Y-109220000D03*
%TO.P,U5,4*%
%TO.N,/I2C-SDA*%
X144780000Y-109220000D03*
%TO.P,U5,3*%
%TO.N,/I2C-SCL*%
X142240000Y-109220000D03*
%TO.P,U5,2*%
%TO.N,GND*%
X139700000Y-109220000D03*
%TO.P,U5,1*%
%TO.N,+3V3*%
X137160000Y-109220000D03*
%TD*%
D13*
%TO.P,H2,1*%
%TO.N,GND*%
X90170000Y-123190000D03*
D14*
X90170000Y-123190000D03*
%TD*%
D13*
%TO.P,H1,1*%
%TO.N,GND*%
X130810000Y-123190000D03*
D14*
X130810000Y-123190000D03*
%TD*%
D22*
%TO.N,/LED-DIN*%
X128270000Y-102870000D03*
%TO.N,GND*%
X80010000Y-110490000D03*
X82550000Y-110490000D03*
X81280000Y-113030000D03*
X82550000Y-115570000D03*
X83820000Y-118110000D03*
X104140000Y-133350000D03*
X97790000Y-133350000D03*
X97790000Y-130810000D03*
X100330000Y-133350000D03*
X104140000Y-130810000D03*
X116840000Y-129540000D03*
X119380000Y-129540000D03*
X121920000Y-129540000D03*
X124460000Y-129540000D03*
X121920000Y-132080000D03*
X119380000Y-132080000D03*
X125730000Y-127000000D03*
X105410000Y-123190000D03*
X107950000Y-123190000D03*
X110490000Y-123190000D03*
X113030000Y-123190000D03*
X115570000Y-123190000D03*
X135890000Y-95250000D03*
X140970000Y-95250000D03*
X147320000Y-95250000D03*
X153670000Y-95250000D03*
X139700000Y-97790000D03*
X144780000Y-97790000D03*
X151130000Y-97790000D03*
X182880000Y-88900000D03*
X185420000Y-91440000D03*
X187960000Y-93980000D03*
X182880000Y-93980000D03*
X171450000Y-93980000D03*
X166370000Y-93980000D03*
X168910000Y-92710000D03*
X181610000Y-116840000D03*
X181610000Y-120650000D03*
X184150000Y-124460000D03*
X189230000Y-115570000D03*
X166370000Y-111760000D03*
X171450000Y-111760000D03*
X177800000Y-111760000D03*
X181610000Y-111760000D03*
X168910000Y-114300000D03*
X175260000Y-114300000D03*
X180340000Y-114300000D03*
X186690000Y-114300000D03*
X138430000Y-115570000D03*
X143510000Y-115570000D03*
X148590000Y-115570000D03*
X106680000Y-118110000D03*
X109220000Y-118110000D03*
X111760000Y-118110000D03*
X114300000Y-118110000D03*
X107950000Y-120650000D03*
X110490000Y-120650000D03*
X113030000Y-120650000D03*
X109220000Y-115570000D03*
X113030000Y-115570000D03*
X118110000Y-115570000D03*
X118110000Y-118110000D03*
X118110000Y-120650000D03*
X115570000Y-120650000D03*
X158750000Y-86360000D03*
X163830000Y-86360000D03*
X158750000Y-90170000D03*
%TO.N,/I2C-SDA*%
X125730000Y-115570000D03*
%TO.N,/I2C-SCL*%
X127000000Y-107950000D03*
X171450000Y-90170000D03*
%TD*%
D23*
%TO.N,+5V*%
X91440000Y-116840000D02*
X86360000Y-116840000D01*
X96520000Y-121920000D02*
X91440000Y-116840000D01*
X96520000Y-128270000D02*
X96520000Y-121920000D01*
X100330000Y-128270000D02*
X96520000Y-128270000D01*
X102870000Y-125730000D02*
X100330000Y-128270000D01*
X121920000Y-125730000D02*
X102870000Y-125730000D01*
X91440000Y-116840000D02*
X91440000Y-113030000D01*
X91440000Y-113030000D02*
X86360000Y-107950000D01*
X84096051Y-99576053D02*
X84096051Y-98096051D01*
X86360000Y-101840002D02*
X84096051Y-99576053D01*
X86360000Y-107950000D02*
X86360000Y-101840002D01*
X154940000Y-113030000D02*
X156210000Y-114300000D01*
X186690000Y-113030000D02*
X157480000Y-113030000D01*
X156210000Y-114300000D02*
X157480000Y-113030000D01*
X134620000Y-113030000D02*
X121920000Y-125730000D01*
X154940000Y-113030000D02*
X134620000Y-113030000D01*
X189230000Y-110490000D02*
X186690000Y-113030000D01*
D24*
%TO.N,/LED-DIN*%
X128270000Y-102870000D02*
X148590000Y-102870000D01*
X148590000Y-102870000D02*
X151130000Y-100330000D01*
D23*
%TO.N,GND*%
X91370010Y-121989990D02*
X90170000Y-123190000D01*
X115570000Y-123190000D02*
X115570000Y-120650000D01*
X115570000Y-118110000D02*
X114300000Y-118110000D01*
X106680000Y-118110000D02*
X105410000Y-119380000D01*
X105410000Y-119380000D02*
X105410000Y-123190000D01*
X106680000Y-118110000D02*
X106680000Y-118110000D01*
X109220000Y-118110000D02*
X106680000Y-118110000D01*
X111760000Y-118110000D02*
X109220000Y-118110000D01*
X114300000Y-118110000D02*
X111760000Y-118110000D01*
X106680000Y-118110000D02*
X109220000Y-115570000D01*
X109220000Y-115570000D02*
X113030000Y-115570000D01*
X118110000Y-115570000D02*
X118110000Y-115570000D01*
X113030000Y-123190000D02*
X113030000Y-120650000D01*
X113030000Y-120650000D02*
X113030000Y-120650000D01*
X110490000Y-120650000D02*
X110490000Y-120650000D01*
X110490000Y-120650000D02*
X107950000Y-120650000D01*
X107950000Y-120650000D02*
X107950000Y-123190000D01*
X107950000Y-120650000D02*
X107950000Y-120650000D01*
X110490000Y-120650000D02*
X110490000Y-123190000D01*
X113030000Y-120650000D02*
X110490000Y-120650000D01*
X109220000Y-115570000D02*
X109220000Y-115570000D01*
X113030000Y-115570000D02*
X118110000Y-115570000D01*
X118110000Y-115570000D02*
X118110000Y-118110000D01*
X118110000Y-118110000D02*
X118110000Y-120650000D01*
X118110000Y-120650000D02*
X118110000Y-123190000D01*
X115570000Y-120650000D02*
X115570000Y-118110000D01*
D24*
%TO.N,/I2C-SDA*%
X144780000Y-109220000D02*
X142240000Y-111760000D01*
X129540000Y-115570000D02*
X133350000Y-111760000D01*
X142240000Y-111760000D02*
X133350000Y-111760000D01*
X125730000Y-115570000D02*
X129540000Y-115570000D01*
X121920000Y-115570000D02*
X125730000Y-115570000D01*
X146050000Y-110490000D02*
X144780000Y-109220000D01*
X146050000Y-111760000D02*
X146050000Y-110490000D01*
X161290000Y-111760000D02*
X146050000Y-111760000D01*
X161290000Y-93980000D02*
X161290000Y-111760000D01*
X167640000Y-87630000D02*
X161290000Y-93980000D01*
X173990000Y-87630000D02*
X167640000Y-87630000D01*
X175260000Y-86360000D02*
X173990000Y-87630000D01*
%TO.N,/I2C-SCL*%
X142240000Y-109220000D02*
X140970000Y-107950000D01*
X177800000Y-87630000D02*
X177800000Y-86360000D01*
X175260000Y-90170000D02*
X177800000Y-87630000D01*
X171450000Y-90170000D02*
X175260000Y-90170000D01*
X140970000Y-107950000D02*
X127000000Y-107950000D01*
X121920000Y-113030000D02*
X127000000Y-113030000D01*
X127000000Y-113030000D02*
X127000000Y-107950000D01*
%TO.N,/D1mini-UART-Tx*%
X90170000Y-109220000D02*
X90170000Y-106680000D01*
X92710000Y-111760000D02*
X90170000Y-109220000D01*
X92710000Y-116840000D02*
X92710000Y-111760000D01*
X99060000Y-123190000D02*
X92710000Y-116840000D01*
X158369000Y-109220000D02*
X159639000Y-107950000D01*
X151130000Y-106680000D02*
X153670000Y-109220000D01*
X125730000Y-106680000D02*
X151130000Y-106680000D01*
X125730000Y-111760000D02*
X125730000Y-106680000D01*
X153670000Y-109220000D02*
X158369000Y-109220000D01*
X109220000Y-111760000D02*
X125730000Y-111760000D01*
X106680000Y-114300000D02*
X109220000Y-111760000D01*
X106680000Y-115570000D02*
X106680000Y-114300000D01*
X99060000Y-123190000D02*
X106680000Y-115570000D01*
%TO.N,/D1mini-UART-Rx*%
X92710000Y-109220000D02*
X99060000Y-115570000D01*
X92710000Y-106680000D02*
X92710000Y-109220000D01*
X102870000Y-109220000D02*
X124460000Y-109220000D01*
X102870000Y-111760000D02*
X99060000Y-115570000D01*
X102870000Y-109220000D02*
X102870000Y-111760000D01*
X124460000Y-105410000D02*
X124460000Y-109220000D01*
X159639000Y-105410000D02*
X157099000Y-107950000D01*
X157099000Y-107950000D02*
X153670000Y-107950000D01*
X153670000Y-107950000D02*
X151130000Y-105410000D01*
X124460000Y-105410000D02*
X151130000Y-105410000D01*
%TD*%
D25*
%TO.N,GND*%
X82331928Y-107530000D02*
X82344188Y-107654482D01*
X82380498Y-107774180D01*
X82439463Y-107884494D01*
X82518815Y-107981185D01*
X82615506Y-108060537D01*
X82725820Y-108119502D01*
X82845518Y-108155812D01*
X82970000Y-108168072D01*
X84670000Y-108168072D01*
X84794482Y-108155812D01*
X84914180Y-108119502D01*
X85024494Y-108060537D01*
X85121185Y-107981185D01*
X85200537Y-107884494D01*
X85259502Y-107774180D01*
X85295812Y-107654482D01*
X85308072Y-107530000D01*
X85308072Y-106807000D01*
X85475000Y-106807000D01*
X85475000Y-107906531D01*
X85470719Y-107950000D01*
X85475000Y-107993469D01*
X85475000Y-107993476D01*
X85485392Y-108098985D01*
X85487805Y-108123490D01*
X85497610Y-108155812D01*
X85538411Y-108290312D01*
X85620589Y-108444058D01*
X85731183Y-108578817D01*
X85764956Y-108606534D01*
X90555001Y-113396580D01*
X90555000Y-115955000D01*
X87844625Y-115955000D01*
X87835812Y-115865518D01*
X87799502Y-115745820D01*
X87740537Y-115635506D01*
X87661185Y-115538815D01*
X87564494Y-115459463D01*
X87454180Y-115400498D01*
X87381620Y-115378487D01*
X87513475Y-115246632D01*
X87675990Y-115003411D01*
X87787932Y-114733158D01*
X87845000Y-114446260D01*
X87845000Y-114153740D01*
X87787932Y-113866842D01*
X87675990Y-113596589D01*
X87513475Y-113353368D01*
X87306632Y-113146525D01*
X87124466Y-113024805D01*
X87241355Y-112955178D01*
X87457588Y-112760269D01*
X87631641Y-112526920D01*
X87756825Y-112264099D01*
X87801476Y-112116890D01*
X87680155Y-111887000D01*
X86487000Y-111887000D01*
X86487000Y-111907000D01*
X86233000Y-111907000D01*
X86233000Y-111887000D01*
X85039845Y-111887000D01*
X84918524Y-112116890D01*
X84963175Y-112264099D01*
X85088359Y-112526920D01*
X85262412Y-112760269D01*
X85478645Y-112955178D01*
X85595534Y-113024805D01*
X85413368Y-113146525D01*
X85206525Y-113353368D01*
X85044010Y-113596589D01*
X84932068Y-113866842D01*
X84875000Y-114153740D01*
X84875000Y-114446260D01*
X84932068Y-114733158D01*
X85044010Y-115003411D01*
X85206525Y-115246632D01*
X85338380Y-115378487D01*
X85265820Y-115400498D01*
X85155506Y-115459463D01*
X85058815Y-115538815D01*
X84979463Y-115635506D01*
X84920498Y-115745820D01*
X84884188Y-115865518D01*
X84871928Y-115990000D01*
X84871928Y-117690000D01*
X84884188Y-117814482D01*
X84920498Y-117934180D01*
X84979463Y-118044494D01*
X85058815Y-118141185D01*
X85155506Y-118220537D01*
X85265820Y-118279502D01*
X85385518Y-118315812D01*
X85510000Y-118328072D01*
X87210000Y-118328072D01*
X87334482Y-118315812D01*
X87454180Y-118279502D01*
X87564494Y-118220537D01*
X87661185Y-118141185D01*
X87740537Y-118044494D01*
X87799502Y-117934180D01*
X87835812Y-117814482D01*
X87844625Y-117725000D01*
X91073422Y-117725000D01*
X95635001Y-122286580D01*
X95635000Y-128226523D01*
X95630718Y-128270000D01*
X95647805Y-128443490D01*
X95698411Y-128610313D01*
X95780589Y-128764059D01*
X95872946Y-128876595D01*
X95891183Y-128898817D01*
X96025941Y-129009411D01*
X96179687Y-129091589D01*
X96346510Y-129142195D01*
X96520000Y-129159282D01*
X96563476Y-129155000D01*
X100286531Y-129155000D01*
X100330000Y-129159281D01*
X100373469Y-129155000D01*
X100373477Y-129155000D01*
X100503490Y-129142195D01*
X100670313Y-129091589D01*
X100824059Y-129009411D01*
X100958817Y-128898817D01*
X100986534Y-128865044D01*
X103236579Y-126615000D01*
X120589922Y-126615000D01*
X120700392Y-126749608D01*
X120918899Y-126928932D01*
X121168192Y-127062182D01*
X121438691Y-127144236D01*
X121649508Y-127165000D01*
X122190492Y-127165000D01*
X122401309Y-127144236D01*
X122671808Y-127062182D01*
X122921101Y-126928932D01*
X123139608Y-126749608D01*
X123318932Y-126531101D01*
X123452182Y-126281808D01*
X123534236Y-126011309D01*
X123546097Y-125890881D01*
X128288724Y-125890881D01*
X128648912Y-126380548D01*
X129312882Y-126740849D01*
X130034385Y-126964694D01*
X130785695Y-127043480D01*
X131537938Y-126974178D01*
X132262208Y-126759452D01*
X132930670Y-126407555D01*
X132971088Y-126380548D01*
X133331276Y-125890881D01*
X130810000Y-123369605D01*
X128288724Y-125890881D01*
X123546097Y-125890881D01*
X123561943Y-125730000D01*
X123534236Y-125448691D01*
X123515303Y-125386275D01*
X127319015Y-121582563D01*
X127259151Y-121692882D01*
X127035306Y-122414385D01*
X126956520Y-123165695D01*
X127025822Y-123917938D01*
X127240548Y-124642208D01*
X127592445Y-125310670D01*
X127619452Y-125351088D01*
X128109119Y-125711276D01*
X130630395Y-123190000D01*
X130989605Y-123190000D01*
X133510881Y-125711276D01*
X134000548Y-125351088D01*
X134360849Y-124687118D01*
X134584694Y-123965615D01*
X134663480Y-123214305D01*
X134594178Y-122462062D01*
X134379452Y-121737792D01*
X134027555Y-121069330D01*
X134000548Y-121028912D01*
X133510881Y-120668724D01*
X130989605Y-123190000D01*
X130630395Y-123190000D01*
X130616253Y-123175858D01*
X130795858Y-122996253D01*
X130810000Y-123010395D01*
X133331276Y-120489119D01*
X132971088Y-119999452D01*
X132307118Y-119639151D01*
X131585615Y-119415306D01*
X130834305Y-119336520D01*
X130082062Y-119405822D01*
X129357792Y-119620548D01*
X129195702Y-119705877D01*
X134986579Y-113915000D01*
X154517591Y-113915000D01*
X154475000Y-114129117D01*
X154475000Y-114470883D01*
X154541675Y-114806081D01*
X154672463Y-115121831D01*
X154757266Y-115248747D01*
X154728901Y-115230186D01*
X154679315Y-115196740D01*
X154671186Y-115192418D01*
X154671181Y-115192415D01*
X154671176Y-115192413D01*
X154451524Y-115077582D01*
X154396058Y-115055173D01*
X154340919Y-115031994D01*
X154332097Y-115029330D01*
X154094321Y-114959348D01*
X154035559Y-114948139D01*
X153976962Y-114936110D01*
X153967791Y-114935211D01*
X153720951Y-114912747D01*
X153661135Y-114913165D01*
X153601318Y-114912747D01*
X153592147Y-114913646D01*
X153345644Y-114939554D01*
X153287028Y-114951586D01*
X153228284Y-114962792D01*
X153219462Y-114965456D01*
X152982686Y-115038751D01*
X152927555Y-115061926D01*
X152872080Y-115084339D01*
X152863944Y-115088666D01*
X152645914Y-115206554D01*
X152596346Y-115239988D01*
X152546265Y-115272760D01*
X152539124Y-115278584D01*
X152348144Y-115436577D01*
X152306005Y-115479012D01*
X152263255Y-115520875D01*
X152257381Y-115527976D01*
X152100727Y-115720054D01*
X152067655Y-115769831D01*
X152033826Y-115819237D01*
X152029444Y-115827343D01*
X151913081Y-116046191D01*
X151890298Y-116101468D01*
X151866721Y-116156475D01*
X151863997Y-116165278D01*
X151859552Y-116180000D01*
X135922419Y-116180000D01*
X135890000Y-116176807D01*
X135857581Y-116180000D01*
X135760617Y-116189550D01*
X135636207Y-116227290D01*
X135521550Y-116288575D01*
X135421052Y-116371052D01*
X135338575Y-116471550D01*
X135277290Y-116586207D01*
X135239550Y-116710617D01*
X135226807Y-116840000D01*
X135230000Y-116872419D01*
X135230001Y-127812620D01*
X125518107Y-131454580D01*
X125476208Y-131467290D01*
X125428757Y-131492653D01*
X125380467Y-131516395D01*
X125371506Y-131523254D01*
X125361551Y-131528575D01*
X125319952Y-131562715D01*
X125277230Y-131595415D01*
X125269779Y-131603891D01*
X125261053Y-131611052D01*
X125226915Y-131652649D01*
X125191392Y-131693057D01*
X125185737Y-131702824D01*
X125178576Y-131711550D01*
X125153214Y-131759000D01*
X125126252Y-131805569D01*
X125122610Y-131816256D01*
X125117291Y-131826207D01*
X125101674Y-131877688D01*
X125084314Y-131928628D01*
X125082827Y-131939816D01*
X125079551Y-131950617D01*
X125074276Y-132004171D01*
X125067190Y-132057504D01*
X125070001Y-132101201D01*
X125070000Y-133960000D01*
X116230000Y-133960000D01*
X116230000Y-128302419D01*
X116233193Y-128270000D01*
X116220450Y-128140617D01*
X116182710Y-128016207D01*
X116121425Y-127901550D01*
X116038948Y-127801052D01*
X115938450Y-127718575D01*
X115823793Y-127657290D01*
X115699383Y-127619550D01*
X115602419Y-127610000D01*
X115570000Y-127606807D01*
X115537581Y-127610000D01*
X105442419Y-127610000D01*
X105410000Y-127606807D01*
X105321372Y-127615536D01*
X105280617Y-127619550D01*
X105156207Y-127657290D01*
X105041550Y-127718575D01*
X104941052Y-127801052D01*
X104858575Y-127901550D01*
X104797290Y-128016207D01*
X104759550Y-128140617D01*
X104746807Y-128270000D01*
X104750000Y-128302419D01*
X104750001Y-133960000D01*
X95910000Y-133960000D01*
X95910000Y-130865937D01*
X95911524Y-130857012D01*
X95910000Y-130801048D01*
X95910000Y-130777581D01*
X95909117Y-130768613D01*
X95907985Y-130727053D01*
X95902761Y-130704076D01*
X95900450Y-130680617D01*
X95888376Y-130640815D01*
X95879159Y-130600280D01*
X95869553Y-130578765D01*
X95862710Y-130556207D01*
X95843107Y-130519532D01*
X95826156Y-130481566D01*
X95812535Y-130462336D01*
X95801425Y-130441550D01*
X95775042Y-130409402D01*
X95751011Y-130375475D01*
X95733900Y-130359271D01*
X95718948Y-130341052D01*
X95686807Y-130314674D01*
X95656613Y-130286081D01*
X95636666Y-130273525D01*
X95618450Y-130258575D01*
X95581780Y-130238975D01*
X95574157Y-130234176D01*
X95553174Y-130223684D01*
X95503793Y-130197290D01*
X95495128Y-130194661D01*
X88042494Y-126468345D01*
X87591246Y-125948362D01*
X87648725Y-125890883D01*
X88008912Y-126380548D01*
X88672882Y-126740849D01*
X89394385Y-126964694D01*
X90145695Y-127043480D01*
X90897938Y-126974178D01*
X91622208Y-126759452D01*
X92290670Y-126407555D01*
X92331088Y-126380548D01*
X92691276Y-125890881D01*
X90170000Y-123369605D01*
X90155858Y-123383748D01*
X89976253Y-123204143D01*
X89990395Y-123190000D01*
X90349605Y-123190000D01*
X92870881Y-125711276D01*
X93360548Y-125351088D01*
X93720849Y-124687118D01*
X93944694Y-123965615D01*
X94023480Y-123214305D01*
X93954178Y-122462062D01*
X93739452Y-121737792D01*
X93387555Y-121069330D01*
X93360548Y-121028912D01*
X92870881Y-120668724D01*
X90349605Y-123190000D01*
X89990395Y-123190000D01*
X87469119Y-120668724D01*
X86979452Y-121028912D01*
X86619151Y-121692882D01*
X86395306Y-122414385D01*
X86316520Y-123165695D01*
X86385822Y-123917938D01*
X86600548Y-124642208D01*
X86820752Y-125060506D01*
X82853639Y-120489119D01*
X87648724Y-120489119D01*
X90170000Y-123010395D01*
X92691276Y-120489119D01*
X92331088Y-119999452D01*
X91667118Y-119639151D01*
X90945615Y-119415306D01*
X90194305Y-119336520D01*
X89442062Y-119405822D01*
X88717792Y-119620548D01*
X88049330Y-119972445D01*
X88008912Y-119999452D01*
X87648724Y-120489119D01*
X82853639Y-120489119D01*
X81646615Y-119098241D01*
X78381933Y-111403110D01*
X84918524Y-111403110D01*
X85039845Y-111633000D01*
X86233000Y-111633000D01*
X86233000Y-110439186D01*
X86487000Y-110439186D01*
X86487000Y-111633000D01*
X87680155Y-111633000D01*
X87801476Y-111403110D01*
X87756825Y-111255901D01*
X87631641Y-110993080D01*
X87457588Y-110759731D01*
X87241355Y-110564822D01*
X86991252Y-110415843D01*
X86716891Y-110318519D01*
X86487000Y-110439186D01*
X86233000Y-110439186D01*
X86003109Y-110318519D01*
X85728748Y-110415843D01*
X85478645Y-110564822D01*
X85262412Y-110759731D01*
X85088359Y-110993080D01*
X84963175Y-111255901D01*
X84918524Y-111403110D01*
X78381933Y-111403110D01*
X76860000Y-107815787D01*
X76860000Y-106807000D01*
X82331928Y-106807000D01*
X82331928Y-107530000D01*
%TA.AperFunction,Conductor*%
D26*
G36*
X82331928Y-107530000D02*
G01*
X82344188Y-107654482D01*
X82380498Y-107774180D01*
X82439463Y-107884494D01*
X82518815Y-107981185D01*
X82615506Y-108060537D01*
X82725820Y-108119502D01*
X82845518Y-108155812D01*
X82970000Y-108168072D01*
X84670000Y-108168072D01*
X84794482Y-108155812D01*
X84914180Y-108119502D01*
X85024494Y-108060537D01*
X85121185Y-107981185D01*
X85200537Y-107884494D01*
X85259502Y-107774180D01*
X85295812Y-107654482D01*
X85308072Y-107530000D01*
X85308072Y-106807000D01*
X85475000Y-106807000D01*
X85475000Y-107906531D01*
X85470719Y-107950000D01*
X85475000Y-107993469D01*
X85475000Y-107993476D01*
X85485392Y-108098985D01*
X85487805Y-108123490D01*
X85497610Y-108155812D01*
X85538411Y-108290312D01*
X85620589Y-108444058D01*
X85731183Y-108578817D01*
X85764956Y-108606534D01*
X90555001Y-113396580D01*
X90555000Y-115955000D01*
X87844625Y-115955000D01*
X87835812Y-115865518D01*
X87799502Y-115745820D01*
X87740537Y-115635506D01*
X87661185Y-115538815D01*
X87564494Y-115459463D01*
X87454180Y-115400498D01*
X87381620Y-115378487D01*
X87513475Y-115246632D01*
X87675990Y-115003411D01*
X87787932Y-114733158D01*
X87845000Y-114446260D01*
X87845000Y-114153740D01*
X87787932Y-113866842D01*
X87675990Y-113596589D01*
X87513475Y-113353368D01*
X87306632Y-113146525D01*
X87124466Y-113024805D01*
X87241355Y-112955178D01*
X87457588Y-112760269D01*
X87631641Y-112526920D01*
X87756825Y-112264099D01*
X87801476Y-112116890D01*
X87680155Y-111887000D01*
X86487000Y-111887000D01*
X86487000Y-111907000D01*
X86233000Y-111907000D01*
X86233000Y-111887000D01*
X85039845Y-111887000D01*
X84918524Y-112116890D01*
X84963175Y-112264099D01*
X85088359Y-112526920D01*
X85262412Y-112760269D01*
X85478645Y-112955178D01*
X85595534Y-113024805D01*
X85413368Y-113146525D01*
X85206525Y-113353368D01*
X85044010Y-113596589D01*
X84932068Y-113866842D01*
X84875000Y-114153740D01*
X84875000Y-114446260D01*
X84932068Y-114733158D01*
X85044010Y-115003411D01*
X85206525Y-115246632D01*
X85338380Y-115378487D01*
X85265820Y-115400498D01*
X85155506Y-115459463D01*
X85058815Y-115538815D01*
X84979463Y-115635506D01*
X84920498Y-115745820D01*
X84884188Y-115865518D01*
X84871928Y-115990000D01*
X84871928Y-117690000D01*
X84884188Y-117814482D01*
X84920498Y-117934180D01*
X84979463Y-118044494D01*
X85058815Y-118141185D01*
X85155506Y-118220537D01*
X85265820Y-118279502D01*
X85385518Y-118315812D01*
X85510000Y-118328072D01*
X87210000Y-118328072D01*
X87334482Y-118315812D01*
X87454180Y-118279502D01*
X87564494Y-118220537D01*
X87661185Y-118141185D01*
X87740537Y-118044494D01*
X87799502Y-117934180D01*
X87835812Y-117814482D01*
X87844625Y-117725000D01*
X91073422Y-117725000D01*
X95635001Y-122286580D01*
X95635000Y-128226523D01*
X95630718Y-128270000D01*
X95647805Y-128443490D01*
X95698411Y-128610313D01*
X95780589Y-128764059D01*
X95872946Y-128876595D01*
X95891183Y-128898817D01*
X96025941Y-129009411D01*
X96179687Y-129091589D01*
X96346510Y-129142195D01*
X96520000Y-129159282D01*
X96563476Y-129155000D01*
X100286531Y-129155000D01*
X100330000Y-129159281D01*
X100373469Y-129155000D01*
X100373477Y-129155000D01*
X100503490Y-129142195D01*
X100670313Y-129091589D01*
X100824059Y-129009411D01*
X100958817Y-128898817D01*
X100986534Y-128865044D01*
X103236579Y-126615000D01*
X120589922Y-126615000D01*
X120700392Y-126749608D01*
X120918899Y-126928932D01*
X121168192Y-127062182D01*
X121438691Y-127144236D01*
X121649508Y-127165000D01*
X122190492Y-127165000D01*
X122401309Y-127144236D01*
X122671808Y-127062182D01*
X122921101Y-126928932D01*
X123139608Y-126749608D01*
X123318932Y-126531101D01*
X123452182Y-126281808D01*
X123534236Y-126011309D01*
X123546097Y-125890881D01*
X128288724Y-125890881D01*
X128648912Y-126380548D01*
X129312882Y-126740849D01*
X130034385Y-126964694D01*
X130785695Y-127043480D01*
X131537938Y-126974178D01*
X132262208Y-126759452D01*
X132930670Y-126407555D01*
X132971088Y-126380548D01*
X133331276Y-125890881D01*
X130810000Y-123369605D01*
X128288724Y-125890881D01*
X123546097Y-125890881D01*
X123561943Y-125730000D01*
X123534236Y-125448691D01*
X123515303Y-125386275D01*
X127319015Y-121582563D01*
X127259151Y-121692882D01*
X127035306Y-122414385D01*
X126956520Y-123165695D01*
X127025822Y-123917938D01*
X127240548Y-124642208D01*
X127592445Y-125310670D01*
X127619452Y-125351088D01*
X128109119Y-125711276D01*
X130630395Y-123190000D01*
X130989605Y-123190000D01*
X133510881Y-125711276D01*
X134000548Y-125351088D01*
X134360849Y-124687118D01*
X134584694Y-123965615D01*
X134663480Y-123214305D01*
X134594178Y-122462062D01*
X134379452Y-121737792D01*
X134027555Y-121069330D01*
X134000548Y-121028912D01*
X133510881Y-120668724D01*
X130989605Y-123190000D01*
X130630395Y-123190000D01*
X130616253Y-123175858D01*
X130795858Y-122996253D01*
X130810000Y-123010395D01*
X133331276Y-120489119D01*
X132971088Y-119999452D01*
X132307118Y-119639151D01*
X131585615Y-119415306D01*
X130834305Y-119336520D01*
X130082062Y-119405822D01*
X129357792Y-119620548D01*
X129195702Y-119705877D01*
X134986579Y-113915000D01*
X154517591Y-113915000D01*
X154475000Y-114129117D01*
X154475000Y-114470883D01*
X154541675Y-114806081D01*
X154672463Y-115121831D01*
X154757266Y-115248747D01*
X154728901Y-115230186D01*
X154679315Y-115196740D01*
X154671186Y-115192418D01*
X154671181Y-115192415D01*
X154671176Y-115192413D01*
X154451524Y-115077582D01*
X154396058Y-115055173D01*
X154340919Y-115031994D01*
X154332097Y-115029330D01*
X154094321Y-114959348D01*
X154035559Y-114948139D01*
X153976962Y-114936110D01*
X153967791Y-114935211D01*
X153720951Y-114912747D01*
X153661135Y-114913165D01*
X153601318Y-114912747D01*
X153592147Y-114913646D01*
X153345644Y-114939554D01*
X153287028Y-114951586D01*
X153228284Y-114962792D01*
X153219462Y-114965456D01*
X152982686Y-115038751D01*
X152927555Y-115061926D01*
X152872080Y-115084339D01*
X152863944Y-115088666D01*
X152645914Y-115206554D01*
X152596346Y-115239988D01*
X152546265Y-115272760D01*
X152539124Y-115278584D01*
X152348144Y-115436577D01*
X152306005Y-115479012D01*
X152263255Y-115520875D01*
X152257381Y-115527976D01*
X152100727Y-115720054D01*
X152067655Y-115769831D01*
X152033826Y-115819237D01*
X152029444Y-115827343D01*
X151913081Y-116046191D01*
X151890298Y-116101468D01*
X151866721Y-116156475D01*
X151863997Y-116165278D01*
X151859552Y-116180000D01*
X135922419Y-116180000D01*
X135890000Y-116176807D01*
X135857581Y-116180000D01*
X135760617Y-116189550D01*
X135636207Y-116227290D01*
X135521550Y-116288575D01*
X135421052Y-116371052D01*
X135338575Y-116471550D01*
X135277290Y-116586207D01*
X135239550Y-116710617D01*
X135226807Y-116840000D01*
X135230000Y-116872419D01*
X135230001Y-127812620D01*
X125518107Y-131454580D01*
X125476208Y-131467290D01*
X125428757Y-131492653D01*
X125380467Y-131516395D01*
X125371506Y-131523254D01*
X125361551Y-131528575D01*
X125319952Y-131562715D01*
X125277230Y-131595415D01*
X125269779Y-131603891D01*
X125261053Y-131611052D01*
X125226915Y-131652649D01*
X125191392Y-131693057D01*
X125185737Y-131702824D01*
X125178576Y-131711550D01*
X125153214Y-131759000D01*
X125126252Y-131805569D01*
X125122610Y-131816256D01*
X125117291Y-131826207D01*
X125101674Y-131877688D01*
X125084314Y-131928628D01*
X125082827Y-131939816D01*
X125079551Y-131950617D01*
X125074276Y-132004171D01*
X125067190Y-132057504D01*
X125070001Y-132101201D01*
X125070000Y-133960000D01*
X116230000Y-133960000D01*
X116230000Y-128302419D01*
X116233193Y-128270000D01*
X116220450Y-128140617D01*
X116182710Y-128016207D01*
X116121425Y-127901550D01*
X116038948Y-127801052D01*
X115938450Y-127718575D01*
X115823793Y-127657290D01*
X115699383Y-127619550D01*
X115602419Y-127610000D01*
X115570000Y-127606807D01*
X115537581Y-127610000D01*
X105442419Y-127610000D01*
X105410000Y-127606807D01*
X105321372Y-127615536D01*
X105280617Y-127619550D01*
X105156207Y-127657290D01*
X105041550Y-127718575D01*
X104941052Y-127801052D01*
X104858575Y-127901550D01*
X104797290Y-128016207D01*
X104759550Y-128140617D01*
X104746807Y-128270000D01*
X104750000Y-128302419D01*
X104750001Y-133960000D01*
X95910000Y-133960000D01*
X95910000Y-130865937D01*
X95911524Y-130857012D01*
X95910000Y-130801048D01*
X95910000Y-130777581D01*
X95909117Y-130768613D01*
X95907985Y-130727053D01*
X95902761Y-130704076D01*
X95900450Y-130680617D01*
X95888376Y-130640815D01*
X95879159Y-130600280D01*
X95869553Y-130578765D01*
X95862710Y-130556207D01*
X95843107Y-130519532D01*
X95826156Y-130481566D01*
X95812535Y-130462336D01*
X95801425Y-130441550D01*
X95775042Y-130409402D01*
X95751011Y-130375475D01*
X95733900Y-130359271D01*
X95718948Y-130341052D01*
X95686807Y-130314674D01*
X95656613Y-130286081D01*
X95636666Y-130273525D01*
X95618450Y-130258575D01*
X95581780Y-130238975D01*
X95574157Y-130234176D01*
X95553174Y-130223684D01*
X95503793Y-130197290D01*
X95495128Y-130194661D01*
X88042494Y-126468345D01*
X87591246Y-125948362D01*
X87648725Y-125890883D01*
X88008912Y-126380548D01*
X88672882Y-126740849D01*
X89394385Y-126964694D01*
X90145695Y-127043480D01*
X90897938Y-126974178D01*
X91622208Y-126759452D01*
X92290670Y-126407555D01*
X92331088Y-126380548D01*
X92691276Y-125890881D01*
X90170000Y-123369605D01*
X90155858Y-123383748D01*
X89976253Y-123204143D01*
X89990395Y-123190000D01*
X90349605Y-123190000D01*
X92870881Y-125711276D01*
X93360548Y-125351088D01*
X93720849Y-124687118D01*
X93944694Y-123965615D01*
X94023480Y-123214305D01*
X93954178Y-122462062D01*
X93739452Y-121737792D01*
X93387555Y-121069330D01*
X93360548Y-121028912D01*
X92870881Y-120668724D01*
X90349605Y-123190000D01*
X89990395Y-123190000D01*
X87469119Y-120668724D01*
X86979452Y-121028912D01*
X86619151Y-121692882D01*
X86395306Y-122414385D01*
X86316520Y-123165695D01*
X86385822Y-123917938D01*
X86600548Y-124642208D01*
X86820752Y-125060506D01*
X82853639Y-120489119D01*
X87648724Y-120489119D01*
X90170000Y-123010395D01*
X92691276Y-120489119D01*
X92331088Y-119999452D01*
X91667118Y-119639151D01*
X90945615Y-119415306D01*
X90194305Y-119336520D01*
X89442062Y-119405822D01*
X88717792Y-119620548D01*
X88049330Y-119972445D01*
X88008912Y-119999452D01*
X87648724Y-120489119D01*
X82853639Y-120489119D01*
X81646615Y-119098241D01*
X78381933Y-111403110D01*
X84918524Y-111403110D01*
X85039845Y-111633000D01*
X86233000Y-111633000D01*
X86233000Y-110439186D01*
X86487000Y-110439186D01*
X86487000Y-111633000D01*
X87680155Y-111633000D01*
X87801476Y-111403110D01*
X87756825Y-111255901D01*
X87631641Y-110993080D01*
X87457588Y-110759731D01*
X87241355Y-110564822D01*
X86991252Y-110415843D01*
X86716891Y-110318519D01*
X86487000Y-110439186D01*
X86233000Y-110439186D01*
X86003109Y-110318519D01*
X85728748Y-110415843D01*
X85478645Y-110564822D01*
X85262412Y-110759731D01*
X85088359Y-110993080D01*
X84963175Y-111255901D01*
X84918524Y-111403110D01*
X78381933Y-111403110D01*
X76860000Y-107815787D01*
X76860000Y-106807000D01*
X82331928Y-106807000D01*
X82331928Y-107530000D01*
G37*
%TD.AperFunction*%
D25*
X120305764Y-112748691D02*
X120278057Y-113030000D01*
X120305764Y-113311309D01*
X120387818Y-113581808D01*
X120521068Y-113831101D01*
X120700392Y-114049608D01*
X120918899Y-114228932D01*
X121051858Y-114300000D01*
X120918899Y-114371068D01*
X120700392Y-114550392D01*
X120521068Y-114768899D01*
X120387818Y-115018192D01*
X120305764Y-115288691D01*
X120278057Y-115570000D01*
X120305764Y-115851309D01*
X120387818Y-116121808D01*
X120521068Y-116371101D01*
X120700392Y-116589608D01*
X120918899Y-116768932D01*
X121051858Y-116840000D01*
X120918899Y-116911068D01*
X120700392Y-117090392D01*
X120521068Y-117308899D01*
X120387818Y-117558192D01*
X120305764Y-117828691D01*
X120278057Y-118110000D01*
X120305764Y-118391309D01*
X120387818Y-118661808D01*
X120521068Y-118911101D01*
X120700392Y-119129608D01*
X120918899Y-119308932D01*
X121051858Y-119380000D01*
X120918899Y-119451068D01*
X120700392Y-119630392D01*
X120521068Y-119848899D01*
X120387818Y-120098192D01*
X120305764Y-120368691D01*
X120278057Y-120650000D01*
X120305764Y-120931309D01*
X120387818Y-121201808D01*
X120521068Y-121451101D01*
X120700392Y-121669608D01*
X120918899Y-121848932D01*
X121048345Y-121918122D01*
X121030773Y-121925570D01*
X120797338Y-122084327D01*
X120599361Y-122285575D01*
X120444449Y-122521579D01*
X120338556Y-122783270D01*
X120328096Y-122840961D01*
X120450085Y-123063000D01*
X121793000Y-123063000D01*
X121793000Y-123043000D01*
X122047000Y-123043000D01*
X122047000Y-123063000D01*
X122067000Y-123063000D01*
X122067000Y-123317000D01*
X122047000Y-123317000D01*
X122047000Y-123337000D01*
X121793000Y-123337000D01*
X121793000Y-123317000D01*
X120450085Y-123317000D01*
X120328096Y-123539039D01*
X120338556Y-123596730D01*
X120444449Y-123858421D01*
X120599361Y-124094425D01*
X120797338Y-124295673D01*
X121030773Y-124454430D01*
X121048345Y-124461878D01*
X120918899Y-124531068D01*
X120700392Y-124710392D01*
X120589922Y-124845000D01*
X102913465Y-124845000D01*
X102869999Y-124840719D01*
X102826533Y-124845000D01*
X102826523Y-124845000D01*
X102696510Y-124857805D01*
X102529687Y-124908411D01*
X102375941Y-124990589D01*
X102375939Y-124990590D01*
X102375940Y-124990590D01*
X102274953Y-125073468D01*
X102274951Y-125073470D01*
X102241183Y-125101183D01*
X102213470Y-125134951D01*
X99963422Y-127385000D01*
X97405000Y-127385000D01*
X97405000Y-122609802D01*
X97505841Y-122710642D01*
X97445764Y-122908691D01*
X97418057Y-123190000D01*
X97445764Y-123471309D01*
X97527818Y-123741808D01*
X97661068Y-123991101D01*
X97840392Y-124209608D01*
X98058899Y-124388932D01*
X98191858Y-124460000D01*
X98058899Y-124531068D01*
X97840392Y-124710392D01*
X97661068Y-124928899D01*
X97527818Y-125178192D01*
X97445764Y-125448691D01*
X97418057Y-125730000D01*
X97445764Y-126011309D01*
X97527818Y-126281808D01*
X97661068Y-126531101D01*
X97840392Y-126749608D01*
X98058899Y-126928932D01*
X98308192Y-127062182D01*
X98578691Y-127144236D01*
X98789508Y-127165000D01*
X99330492Y-127165000D01*
X99541309Y-127144236D01*
X99811808Y-127062182D01*
X100061101Y-126928932D01*
X100279608Y-126749608D01*
X100458932Y-126531101D01*
X100592182Y-126281808D01*
X100674236Y-126011309D01*
X100701943Y-125730000D01*
X100674236Y-125448691D01*
X100592182Y-125178192D01*
X100458932Y-124928899D01*
X100279608Y-124710392D01*
X100061101Y-124531068D01*
X99928142Y-124460000D01*
X100061101Y-124388932D01*
X100279608Y-124209608D01*
X100458932Y-123991101D01*
X100592182Y-123741808D01*
X100674236Y-123471309D01*
X100701943Y-123190000D01*
X100674236Y-122908691D01*
X100614159Y-122710642D01*
X107191004Y-116133798D01*
X107220001Y-116110001D01*
X107314974Y-115994276D01*
X107385546Y-115862247D01*
X107429003Y-115718986D01*
X107440000Y-115607333D01*
X107440000Y-115607324D01*
X107443676Y-115570001D01*
X107440000Y-115532678D01*
X107440000Y-114614801D01*
X109534803Y-112520000D01*
X120375136Y-112520000D01*
X120305764Y-112748691D01*
%TA.AperFunction,Conductor*%
D26*
G36*
X120305764Y-112748691D02*
G01*
X120278057Y-113030000D01*
X120305764Y-113311309D01*
X120387818Y-113581808D01*
X120521068Y-113831101D01*
X120700392Y-114049608D01*
X120918899Y-114228932D01*
X121051858Y-114300000D01*
X120918899Y-114371068D01*
X120700392Y-114550392D01*
X120521068Y-114768899D01*
X120387818Y-115018192D01*
X120305764Y-115288691D01*
X120278057Y-115570000D01*
X120305764Y-115851309D01*
X120387818Y-116121808D01*
X120521068Y-116371101D01*
X120700392Y-116589608D01*
X120918899Y-116768932D01*
X121051858Y-116840000D01*
X120918899Y-116911068D01*
X120700392Y-117090392D01*
X120521068Y-117308899D01*
X120387818Y-117558192D01*
X120305764Y-117828691D01*
X120278057Y-118110000D01*
X120305764Y-118391309D01*
X120387818Y-118661808D01*
X120521068Y-118911101D01*
X120700392Y-119129608D01*
X120918899Y-119308932D01*
X121051858Y-119380000D01*
X120918899Y-119451068D01*
X120700392Y-119630392D01*
X120521068Y-119848899D01*
X120387818Y-120098192D01*
X120305764Y-120368691D01*
X120278057Y-120650000D01*
X120305764Y-120931309D01*
X120387818Y-121201808D01*
X120521068Y-121451101D01*
X120700392Y-121669608D01*
X120918899Y-121848932D01*
X121048345Y-121918122D01*
X121030773Y-121925570D01*
X120797338Y-122084327D01*
X120599361Y-122285575D01*
X120444449Y-122521579D01*
X120338556Y-122783270D01*
X120328096Y-122840961D01*
X120450085Y-123063000D01*
X121793000Y-123063000D01*
X121793000Y-123043000D01*
X122047000Y-123043000D01*
X122047000Y-123063000D01*
X122067000Y-123063000D01*
X122067000Y-123317000D01*
X122047000Y-123317000D01*
X122047000Y-123337000D01*
X121793000Y-123337000D01*
X121793000Y-123317000D01*
X120450085Y-123317000D01*
X120328096Y-123539039D01*
X120338556Y-123596730D01*
X120444449Y-123858421D01*
X120599361Y-124094425D01*
X120797338Y-124295673D01*
X121030773Y-124454430D01*
X121048345Y-124461878D01*
X120918899Y-124531068D01*
X120700392Y-124710392D01*
X120589922Y-124845000D01*
X102913465Y-124845000D01*
X102869999Y-124840719D01*
X102826533Y-124845000D01*
X102826523Y-124845000D01*
X102696510Y-124857805D01*
X102529687Y-124908411D01*
X102375941Y-124990589D01*
X102375939Y-124990590D01*
X102375940Y-124990590D01*
X102274953Y-125073468D01*
X102274951Y-125073470D01*
X102241183Y-125101183D01*
X102213470Y-125134951D01*
X99963422Y-127385000D01*
X97405000Y-127385000D01*
X97405000Y-122609802D01*
X97505841Y-122710642D01*
X97445764Y-122908691D01*
X97418057Y-123190000D01*
X97445764Y-123471309D01*
X97527818Y-123741808D01*
X97661068Y-123991101D01*
X97840392Y-124209608D01*
X98058899Y-124388932D01*
X98191858Y-124460000D01*
X98058899Y-124531068D01*
X97840392Y-124710392D01*
X97661068Y-124928899D01*
X97527818Y-125178192D01*
X97445764Y-125448691D01*
X97418057Y-125730000D01*
X97445764Y-126011309D01*
X97527818Y-126281808D01*
X97661068Y-126531101D01*
X97840392Y-126749608D01*
X98058899Y-126928932D01*
X98308192Y-127062182D01*
X98578691Y-127144236D01*
X98789508Y-127165000D01*
X99330492Y-127165000D01*
X99541309Y-127144236D01*
X99811808Y-127062182D01*
X100061101Y-126928932D01*
X100279608Y-126749608D01*
X100458932Y-126531101D01*
X100592182Y-126281808D01*
X100674236Y-126011309D01*
X100701943Y-125730000D01*
X100674236Y-125448691D01*
X100592182Y-125178192D01*
X100458932Y-124928899D01*
X100279608Y-124710392D01*
X100061101Y-124531068D01*
X99928142Y-124460000D01*
X100061101Y-124388932D01*
X100279608Y-124209608D01*
X100458932Y-123991101D01*
X100592182Y-123741808D01*
X100674236Y-123471309D01*
X100701943Y-123190000D01*
X100674236Y-122908691D01*
X100614159Y-122710642D01*
X107191004Y-116133798D01*
X107220001Y-116110001D01*
X107314974Y-115994276D01*
X107385546Y-115862247D01*
X107429003Y-115718986D01*
X107440000Y-115607333D01*
X107440000Y-115607324D01*
X107443676Y-115570001D01*
X107440000Y-115532678D01*
X107440000Y-114614801D01*
X109534803Y-112520000D01*
X120375136Y-112520000D01*
X120305764Y-112748691D01*
G37*
%TD.AperFunction*%
D25*
X191110001Y-94276384D02*
X191110000Y-126340000D01*
X183210000Y-126340000D01*
X180968161Y-123350881D01*
X184168724Y-123350881D01*
X184528912Y-123840548D01*
X185192882Y-124200849D01*
X185914385Y-124424694D01*
X186665695Y-124503480D01*
X187417938Y-124434178D01*
X188142208Y-124219452D01*
X188810670Y-123867555D01*
X188851088Y-123840548D01*
X189211276Y-123350881D01*
X186690000Y-120829605D01*
X184168724Y-123350881D01*
X180968161Y-123350881D01*
X179730000Y-121700001D01*
X179730000Y-120625695D01*
X182836520Y-120625695D01*
X182905822Y-121377938D01*
X183120548Y-122102208D01*
X183472445Y-122770670D01*
X183499452Y-122811088D01*
X183989119Y-123171276D01*
X186510395Y-120650000D01*
X186869605Y-120650000D01*
X189390881Y-123171276D01*
X189880548Y-122811088D01*
X190240849Y-122147118D01*
X190464694Y-121425615D01*
X190543480Y-120674305D01*
X190474178Y-119922062D01*
X190259452Y-119197792D01*
X189907555Y-118529330D01*
X189880548Y-118488912D01*
X189390881Y-118128724D01*
X186869605Y-120650000D01*
X186510395Y-120650000D01*
X183989119Y-118128724D01*
X183499452Y-118488912D01*
X183139151Y-119152882D01*
X182915306Y-119874385D01*
X182836520Y-120625695D01*
X179730000Y-120625695D01*
X179730000Y-117949119D01*
X184168724Y-117949119D01*
X186690000Y-120470395D01*
X189211276Y-117949119D01*
X188851088Y-117459452D01*
X188187118Y-117099151D01*
X187465615Y-116875306D01*
X186714305Y-116796520D01*
X185962062Y-116865822D01*
X185237792Y-117080548D01*
X184569330Y-117432445D01*
X184528912Y-117459452D01*
X184168724Y-117949119D01*
X179730000Y-117949119D01*
X179730000Y-116872419D01*
X179733193Y-116840000D01*
X179720450Y-116710617D01*
X179682710Y-116586207D01*
X179621425Y-116471550D01*
X179538948Y-116371052D01*
X179438450Y-116288575D01*
X179323793Y-116227290D01*
X179199383Y-116189550D01*
X179102419Y-116180000D01*
X179070000Y-116176807D01*
X179037581Y-116180000D01*
X155479055Y-116180000D01*
X155466408Y-116140131D01*
X155442868Y-116085209D01*
X155420048Y-116029842D01*
X155415664Y-116021736D01*
X155296256Y-115804534D01*
X155262457Y-115755171D01*
X155260506Y-115752235D01*
X155388169Y-115837537D01*
X155703919Y-115968325D01*
X156039117Y-116035000D01*
X156380883Y-116035000D01*
X156716081Y-115968325D01*
X157031831Y-115837537D01*
X157315998Y-115647663D01*
X157557663Y-115405998D01*
X157747537Y-115121831D01*
X157878325Y-114806081D01*
X157945000Y-114470883D01*
X157945000Y-114129117D01*
X157902409Y-113915000D01*
X186646531Y-113915000D01*
X186690000Y-113919281D01*
X186733469Y-113915000D01*
X186733477Y-113915000D01*
X186863490Y-113902195D01*
X187030313Y-113851589D01*
X187184059Y-113769411D01*
X187318817Y-113658817D01*
X187346534Y-113625044D01*
X189192579Y-111779000D01*
X189356955Y-111779000D01*
X189605987Y-111729465D01*
X189840570Y-111632297D01*
X190051690Y-111491232D01*
X190231232Y-111311690D01*
X190372297Y-111100570D01*
X190469465Y-110865987D01*
X190519000Y-110616955D01*
X190519000Y-110363045D01*
X190469465Y-110114013D01*
X190372297Y-109879430D01*
X190231232Y-109668310D01*
X190051690Y-109488768D01*
X189840570Y-109347703D01*
X189605987Y-109250535D01*
X189452001Y-109219906D01*
X189557079Y-109203259D01*
X189795293Y-109115368D01*
X189884907Y-109067468D01*
X189938782Y-108838387D01*
X189230000Y-108129605D01*
X188521218Y-108838387D01*
X188575093Y-109067468D01*
X188805684Y-109173763D01*
X189002484Y-109221003D01*
X188854013Y-109250535D01*
X188619430Y-109347703D01*
X188408310Y-109488768D01*
X188228768Y-109668310D01*
X188087703Y-109879430D01*
X187990535Y-110114013D01*
X187941000Y-110363045D01*
X187941000Y-110527421D01*
X186323422Y-112145000D01*
X161945968Y-112145000D01*
X161995546Y-112052247D01*
X162039003Y-111908986D01*
X162050000Y-111797333D01*
X162050000Y-111797332D01*
X162053677Y-111760000D01*
X162050000Y-111722667D01*
X162050000Y-109957863D01*
X162051931Y-109962457D01*
X162074339Y-110017920D01*
X162078665Y-110026054D01*
X162078667Y-110026059D01*
X162078670Y-110026064D01*
X162196553Y-110244086D01*
X162229988Y-110293654D01*
X162262759Y-110343735D01*
X162268584Y-110350876D01*
X162426577Y-110541856D01*
X162469012Y-110583995D01*
X162510875Y-110626745D01*
X162517976Y-110632618D01*
X162710053Y-110789273D01*
X162759875Y-110822374D01*
X162809237Y-110856173D01*
X162817343Y-110860556D01*
X163036191Y-110976919D01*
X163091479Y-110999707D01*
X163146475Y-111023279D01*
X163155278Y-111026003D01*
X163392559Y-111097643D01*
X163451246Y-111109264D01*
X163509752Y-111121700D01*
X163518915Y-111122663D01*
X163518917Y-111122663D01*
X163765595Y-111146850D01*
X163765598Y-111146850D01*
X163797581Y-111150000D01*
X185452419Y-111150000D01*
X185480865Y-111147198D01*
X185488682Y-111147253D01*
X185497853Y-111146354D01*
X185744357Y-111120446D01*
X185802986Y-111108411D01*
X185861716Y-111097208D01*
X185870532Y-111094546D01*
X185870536Y-111094545D01*
X185870539Y-111094544D01*
X186107314Y-111021249D01*
X186162457Y-110998069D01*
X186217920Y-110975661D01*
X186226054Y-110971335D01*
X186226059Y-110971333D01*
X186226064Y-110971330D01*
X186444086Y-110853447D01*
X186493654Y-110820012D01*
X186543735Y-110787241D01*
X186550876Y-110781416D01*
X186741856Y-110623423D01*
X186783995Y-110580988D01*
X186826745Y-110539125D01*
X186832618Y-110532024D01*
X186989273Y-110339947D01*
X187022374Y-110290125D01*
X187056173Y-110240763D01*
X187060556Y-110232657D01*
X187176919Y-110013809D01*
X187199707Y-109958521D01*
X187223279Y-109903525D01*
X187226003Y-109894722D01*
X187297643Y-109657441D01*
X187309264Y-109598754D01*
X187321700Y-109540248D01*
X187322663Y-109531083D01*
X187346850Y-109284405D01*
X187346850Y-109284402D01*
X187350000Y-109252419D01*
X187350000Y-108026296D01*
X187937012Y-108026296D01*
X187976741Y-108277079D01*
X188064632Y-108515293D01*
X188112532Y-108604907D01*
X188341613Y-108658782D01*
X189050395Y-107950000D01*
X189409605Y-107950000D01*
X190118387Y-108658782D01*
X190347468Y-108604907D01*
X190453763Y-108374316D01*
X190513028Y-108127419D01*
X190522988Y-107873704D01*
X190483259Y-107622921D01*
X190395368Y-107384707D01*
X190347468Y-107295093D01*
X190118387Y-107241218D01*
X189409605Y-107950000D01*
X189050395Y-107950000D01*
X188341613Y-107241218D01*
X188112532Y-107295093D01*
X188006237Y-107525684D01*
X187946972Y-107772581D01*
X187937012Y-108026296D01*
X187350000Y-108026296D01*
X187350000Y-102743045D01*
X187941000Y-102743045D01*
X187941000Y-102996955D01*
X187990535Y-103245987D01*
X188087703Y-103480570D01*
X188228768Y-103691690D01*
X188408310Y-103871232D01*
X188619430Y-104012297D01*
X188854013Y-104109465D01*
X189007524Y-104140000D01*
X188854013Y-104170535D01*
X188619430Y-104267703D01*
X188408310Y-104408768D01*
X188228768Y-104588310D01*
X188087703Y-104799430D01*
X187990535Y-105034013D01*
X187941000Y-105283045D01*
X187941000Y-105536955D01*
X187990535Y-105785987D01*
X188087703Y-106020570D01*
X188228768Y-106231690D01*
X188408310Y-106411232D01*
X188619430Y-106552297D01*
X188854013Y-106649465D01*
X189007999Y-106680094D01*
X188902921Y-106696741D01*
X188664707Y-106784632D01*
X188575093Y-106832532D01*
X188521218Y-107061613D01*
X189230000Y-107770395D01*
X189938782Y-107061613D01*
X189884907Y-106832532D01*
X189654316Y-106726237D01*
X189457516Y-106678997D01*
X189605987Y-106649465D01*
X189840570Y-106552297D01*
X190051690Y-106411232D01*
X190231232Y-106231690D01*
X190372297Y-106020570D01*
X190469465Y-105785987D01*
X190519000Y-105536955D01*
X190519000Y-105283045D01*
X190469465Y-105034013D01*
X190372297Y-104799430D01*
X190231232Y-104588310D01*
X190051690Y-104408768D01*
X189840570Y-104267703D01*
X189605987Y-104170535D01*
X189452476Y-104140000D01*
X189605987Y-104109465D01*
X189840570Y-104012297D01*
X190051690Y-103871232D01*
X190231232Y-103691690D01*
X190372297Y-103480570D01*
X190469465Y-103245987D01*
X190519000Y-102996955D01*
X190519000Y-102743045D01*
X190469465Y-102494013D01*
X190372297Y-102259430D01*
X190231232Y-102048310D01*
X190051690Y-101868768D01*
X189840570Y-101727703D01*
X189605987Y-101630535D01*
X189356955Y-101581000D01*
X189103045Y-101581000D01*
X188854013Y-101630535D01*
X188619430Y-101727703D01*
X188408310Y-101868768D01*
X188228768Y-102048310D01*
X188087703Y-102259430D01*
X187990535Y-102494013D01*
X187941000Y-102743045D01*
X187350000Y-102743045D01*
X187350000Y-96487581D01*
X187347198Y-96459135D01*
X187347253Y-96451318D01*
X187346354Y-96442147D01*
X187320446Y-96195644D01*
X187308414Y-96137028D01*
X187297208Y-96078284D01*
X187294544Y-96069462D01*
X187221249Y-95832686D01*
X187198074Y-95777555D01*
X187175661Y-95722080D01*
X187171334Y-95713944D01*
X187053446Y-95495914D01*
X187020012Y-95446346D01*
X186987240Y-95396265D01*
X186981416Y-95389124D01*
X186823423Y-95198144D01*
X186780988Y-95156005D01*
X186739125Y-95113255D01*
X186732024Y-95107381D01*
X186539946Y-94950727D01*
X186490169Y-94917655D01*
X186440763Y-94883826D01*
X186432657Y-94879444D01*
X186213809Y-94763081D01*
X186158532Y-94740298D01*
X186103525Y-94716721D01*
X186094722Y-94713997D01*
X185857441Y-94642357D01*
X185798754Y-94630736D01*
X185740248Y-94618300D01*
X185731085Y-94617337D01*
X185731083Y-94617337D01*
X185484405Y-94593150D01*
X185484402Y-94593150D01*
X185452419Y-94590000D01*
X163797581Y-94590000D01*
X163769135Y-94592802D01*
X163761318Y-94592747D01*
X163752147Y-94593646D01*
X163505644Y-94619554D01*
X163447028Y-94631586D01*
X163388284Y-94642792D01*
X163379462Y-94645456D01*
X163142686Y-94718751D01*
X163087555Y-94741926D01*
X163032080Y-94764339D01*
X163023944Y-94768666D01*
X162805914Y-94886554D01*
X162756346Y-94919988D01*
X162706265Y-94952760D01*
X162699124Y-94958584D01*
X162508144Y-95116577D01*
X162466005Y-95159012D01*
X162423255Y-95200875D01*
X162417381Y-95207976D01*
X162260727Y-95400054D01*
X162227655Y-95449831D01*
X162193826Y-95499237D01*
X162189444Y-95507343D01*
X162073081Y-95726191D01*
X162050298Y-95781468D01*
X162050000Y-95782163D01*
X162050000Y-94294801D01*
X167954802Y-88390000D01*
X173952678Y-88390000D01*
X173990000Y-88393676D01*
X174027322Y-88390000D01*
X174027333Y-88390000D01*
X174138986Y-88379003D01*
X174282247Y-88335546D01*
X174414276Y-88264974D01*
X174530001Y-88170001D01*
X174553804Y-88140997D01*
X174846729Y-87848072D01*
X176110000Y-87848072D01*
X176234482Y-87835812D01*
X176354180Y-87799502D01*
X176464494Y-87740537D01*
X176561185Y-87661185D01*
X176640537Y-87564494D01*
X176699502Y-87454180D01*
X176721513Y-87381620D01*
X176847545Y-87507652D01*
X174945199Y-89410000D01*
X172153711Y-89410000D01*
X172109774Y-89366063D01*
X171940256Y-89252795D01*
X171751898Y-89174774D01*
X171551939Y-89135000D01*
X171348061Y-89135000D01*
X171148102Y-89174774D01*
X170959744Y-89252795D01*
X170790226Y-89366063D01*
X170646063Y-89510226D01*
X170532795Y-89679744D01*
X170454774Y-89868102D01*
X170415000Y-90068061D01*
X170415000Y-90271939D01*
X170454774Y-90471898D01*
X170532795Y-90660256D01*
X170646063Y-90829774D01*
X170790226Y-90973937D01*
X170959744Y-91087205D01*
X171148102Y-91165226D01*
X171348061Y-91205000D01*
X171551939Y-91205000D01*
X171751898Y-91165226D01*
X171940256Y-91087205D01*
X172109774Y-90973937D01*
X172153711Y-90930000D01*
X175222678Y-90930000D01*
X175260000Y-90933676D01*
X175297322Y-90930000D01*
X175297333Y-90930000D01*
X175408986Y-90919003D01*
X175552247Y-90875546D01*
X175684276Y-90804974D01*
X175800001Y-90710001D01*
X175823804Y-90680997D01*
X178311009Y-88193794D01*
X178340001Y-88170001D01*
X178363795Y-88141008D01*
X178363799Y-88141004D01*
X178421811Y-88070315D01*
X178434974Y-88054276D01*
X178505546Y-87922247D01*
X178549003Y-87778986D01*
X178560000Y-87667333D01*
X178560000Y-87667324D01*
X178563073Y-87636125D01*
X178746632Y-87513475D01*
X178953475Y-87306632D01*
X179115990Y-87063411D01*
X179227932Y-86793158D01*
X179285000Y-86506260D01*
X179285000Y-86213740D01*
X179227932Y-85926842D01*
X179115990Y-85656589D01*
X178953475Y-85413368D01*
X178746632Y-85206525D01*
X178503411Y-85044010D01*
X178233158Y-84932068D01*
X177946260Y-84875000D01*
X177653740Y-84875000D01*
X177366842Y-84932068D01*
X177096589Y-85044010D01*
X176853368Y-85206525D01*
X176721513Y-85338380D01*
X176699502Y-85265820D01*
X176640537Y-85155506D01*
X176561185Y-85058815D01*
X176464494Y-84979463D01*
X176354180Y-84920498D01*
X176234482Y-84884188D01*
X176110000Y-84871928D01*
X174410000Y-84871928D01*
X174285518Y-84884188D01*
X174165820Y-84920498D01*
X174055506Y-84979463D01*
X173958815Y-85058815D01*
X173879463Y-85155506D01*
X173820498Y-85265820D01*
X173784188Y-85385518D01*
X173771928Y-85510000D01*
X173771928Y-86773271D01*
X173675199Y-86870000D01*
X170396221Y-86870000D01*
X170395000Y-86645750D01*
X170236250Y-86487000D01*
X169037000Y-86487000D01*
X169037000Y-86507000D01*
X168783000Y-86507000D01*
X168783000Y-86487000D01*
X167583750Y-86487000D01*
X167425000Y-86645750D01*
X167423608Y-86901444D01*
X167390705Y-86911425D01*
X167347753Y-86924454D01*
X167215723Y-86995026D01*
X167177977Y-87026004D01*
X167099999Y-87089999D01*
X167076201Y-87118997D01*
X160779003Y-93416196D01*
X160749999Y-93439999D01*
X160712608Y-93485561D01*
X160655026Y-93555724D01*
X160591883Y-93673855D01*
X160584454Y-93687754D01*
X160540997Y-93831015D01*
X160530000Y-93942668D01*
X160530000Y-93942678D01*
X160526324Y-93980000D01*
X160530000Y-94017322D01*
X160530000Y-99398078D01*
X160460690Y-99328768D01*
X160249570Y-99187703D01*
X160014987Y-99090535D01*
X159765955Y-99041000D01*
X159512045Y-99041000D01*
X159263013Y-99090535D01*
X159028430Y-99187703D01*
X158817310Y-99328768D01*
X158637768Y-99508310D01*
X158496703Y-99719430D01*
X158399535Y-99954013D01*
X158350000Y-100203045D01*
X158350000Y-100456955D01*
X158399535Y-100705987D01*
X158496703Y-100940570D01*
X158637768Y-101151690D01*
X158817310Y-101331232D01*
X159028430Y-101472297D01*
X159263013Y-101569465D01*
X159416524Y-101600000D01*
X159263013Y-101630535D01*
X159028430Y-101727703D01*
X158817310Y-101868768D01*
X158637768Y-102048310D01*
X158496703Y-102259430D01*
X158399535Y-102494013D01*
X158350000Y-102743045D01*
X158350000Y-102996955D01*
X158399535Y-103245987D01*
X158496703Y-103480570D01*
X158637768Y-103691690D01*
X158817310Y-103871232D01*
X159028430Y-104012297D01*
X159263013Y-104109465D01*
X159416524Y-104140000D01*
X159263013Y-104170535D01*
X159028430Y-104267703D01*
X158817310Y-104408768D01*
X158637768Y-104588310D01*
X158496703Y-104799430D01*
X158399535Y-105034013D01*
X158350000Y-105283045D01*
X158350000Y-105536955D01*
X158364474Y-105609723D01*
X156784199Y-107190000D01*
X153984803Y-107190000D01*
X151693804Y-104899003D01*
X151670001Y-104869999D01*
X151554276Y-104775026D01*
X151422247Y-104704454D01*
X151278986Y-104660997D01*
X151167333Y-104650000D01*
X151167322Y-104650000D01*
X151130000Y-104646324D01*
X151092678Y-104650000D01*
X124587000Y-104650000D01*
X124587000Y-102768061D01*
X127235000Y-102768061D01*
X127235000Y-102971939D01*
X127274774Y-103171898D01*
X127352795Y-103360256D01*
X127466063Y-103529774D01*
X127610226Y-103673937D01*
X127779744Y-103787205D01*
X127968102Y-103865226D01*
X128168061Y-103905000D01*
X128371939Y-103905000D01*
X128571898Y-103865226D01*
X128760256Y-103787205D01*
X128929774Y-103673937D01*
X128973711Y-103630000D01*
X148552678Y-103630000D01*
X148590000Y-103633676D01*
X148627322Y-103630000D01*
X148627333Y-103630000D01*
X148738986Y-103619003D01*
X148882247Y-103575546D01*
X149014276Y-103504974D01*
X149130001Y-103410001D01*
X149153804Y-103380997D01*
X149494801Y-103040000D01*
X154471928Y-103040000D01*
X154471928Y-105240000D01*
X154484188Y-105364482D01*
X154520498Y-105484180D01*
X154579463Y-105594494D01*
X154658815Y-105691185D01*
X154755506Y-105770537D01*
X154865820Y-105829502D01*
X154985518Y-105865812D01*
X155110000Y-105878072D01*
X157310000Y-105878072D01*
X157434482Y-105865812D01*
X157554180Y-105829502D01*
X157664494Y-105770537D01*
X157761185Y-105691185D01*
X157840537Y-105594494D01*
X157899502Y-105484180D01*
X157935812Y-105364482D01*
X157948072Y-105240000D01*
X157948072Y-103040000D01*
X157935812Y-102915518D01*
X157899502Y-102795820D01*
X157840537Y-102685506D01*
X157761185Y-102588815D01*
X157664494Y-102509463D01*
X157554180Y-102450498D01*
X157434482Y-102414188D01*
X157310000Y-102401928D01*
X155110000Y-102401928D01*
X154985518Y-102414188D01*
X154865820Y-102450498D01*
X154755506Y-102509463D01*
X154658815Y-102588815D01*
X154579463Y-102685506D01*
X154520498Y-102795820D01*
X154484188Y-102915518D01*
X154471928Y-103040000D01*
X149494801Y-103040000D01*
X150763593Y-101771210D01*
X150983740Y-101815000D01*
X151276260Y-101815000D01*
X151563158Y-101757932D01*
X151833411Y-101645990D01*
X152076632Y-101483475D01*
X152283475Y-101276632D01*
X152400000Y-101102240D01*
X152516525Y-101276632D01*
X152723368Y-101483475D01*
X152966589Y-101645990D01*
X153236842Y-101757932D01*
X153523740Y-101815000D01*
X153816260Y-101815000D01*
X154103158Y-101757932D01*
X154373411Y-101645990D01*
X154616632Y-101483475D01*
X154823475Y-101276632D01*
X154985990Y-101033411D01*
X155097932Y-100763158D01*
X155155000Y-100476260D01*
X155155000Y-100183740D01*
X155097932Y-99896842D01*
X154985990Y-99626589D01*
X154823475Y-99383368D01*
X154616632Y-99176525D01*
X154373411Y-99014010D01*
X154103158Y-98902068D01*
X153816260Y-98845000D01*
X153523740Y-98845000D01*
X153236842Y-98902068D01*
X152966589Y-99014010D01*
X152723368Y-99176525D01*
X152516525Y-99383368D01*
X152400000Y-99557760D01*
X152283475Y-99383368D01*
X152076632Y-99176525D01*
X151833411Y-99014010D01*
X151563158Y-98902068D01*
X151276260Y-98845000D01*
X150983740Y-98845000D01*
X150696842Y-98902068D01*
X150426589Y-99014010D01*
X150183368Y-99176525D01*
X150051513Y-99308380D01*
X150029502Y-99235820D01*
X149970537Y-99125506D01*
X149891185Y-99028815D01*
X149794494Y-98949463D01*
X149684180Y-98890498D01*
X149564482Y-98854188D01*
X149440000Y-98841928D01*
X148875750Y-98845000D01*
X148717000Y-99003750D01*
X148717000Y-100203000D01*
X148737000Y-100203000D01*
X148737000Y-100457000D01*
X148717000Y-100457000D01*
X148717000Y-100477000D01*
X148463000Y-100477000D01*
X148463000Y-100457000D01*
X147263750Y-100457000D01*
X147105000Y-100615750D01*
X147101928Y-101180000D01*
X147114188Y-101304482D01*
X147150498Y-101424180D01*
X147209463Y-101534494D01*
X147288815Y-101631185D01*
X147385506Y-101710537D01*
X147495820Y-101769502D01*
X147615518Y-101805812D01*
X147740000Y-101818072D01*
X148304250Y-101815000D01*
X148462998Y-101656252D01*
X148462998Y-101815000D01*
X148570198Y-101815000D01*
X148275199Y-102110000D01*
X128973711Y-102110000D01*
X128929774Y-102066063D01*
X128760256Y-101952795D01*
X128571898Y-101874774D01*
X128371939Y-101835000D01*
X128168061Y-101835000D01*
X127968102Y-101874774D01*
X127779744Y-101952795D01*
X127610226Y-102066063D01*
X127466063Y-102210226D01*
X127352795Y-102379744D01*
X127274774Y-102568102D01*
X127235000Y-102768061D01*
X124587000Y-102768061D01*
X124587000Y-99480000D01*
X147101928Y-99480000D01*
X147105000Y-100044250D01*
X147263750Y-100203000D01*
X148463000Y-100203000D01*
X148463000Y-99003750D01*
X148304250Y-98845000D01*
X147740000Y-98841928D01*
X147615518Y-98854188D01*
X147495820Y-98890498D01*
X147385506Y-98949463D01*
X147288815Y-99028815D01*
X147209463Y-99125506D01*
X147150498Y-99235820D01*
X147114188Y-99355518D01*
X147101928Y-99480000D01*
X124587000Y-99480000D01*
X124587000Y-99060000D01*
X124584560Y-99035224D01*
X124577333Y-99011399D01*
X124565597Y-98989443D01*
X124549803Y-98970197D01*
X124530557Y-98954403D01*
X124508601Y-98942667D01*
X124484776Y-98935440D01*
X124460000Y-98933000D01*
X116967000Y-98933000D01*
X116967000Y-93858363D01*
X118145000Y-93858363D01*
X118145000Y-94101637D01*
X118192460Y-94340236D01*
X118285557Y-94564992D01*
X118420713Y-94767267D01*
X118592733Y-94939287D01*
X118795008Y-95074443D01*
X119019764Y-95167540D01*
X119258363Y-95215000D01*
X119501637Y-95215000D01*
X119740236Y-95167540D01*
X119964992Y-95074443D01*
X120167267Y-94939287D01*
X120339287Y-94767267D01*
X120474443Y-94564992D01*
X120567540Y-94340236D01*
X120615000Y-94101637D01*
X120615000Y-93858363D01*
X120567540Y-93619764D01*
X120474443Y-93395008D01*
X120339287Y-93192733D01*
X120167267Y-93020713D01*
X119964992Y-92885557D01*
X119929562Y-92870881D01*
X129558724Y-92870881D01*
X129918912Y-93360548D01*
X130582882Y-93720849D01*
X131304385Y-93944694D01*
X132055695Y-94023480D01*
X132807938Y-93954178D01*
X133532208Y-93739452D01*
X134200670Y-93387555D01*
X134241088Y-93360548D01*
X134601276Y-92870881D01*
X132080000Y-90349605D01*
X129558724Y-92870881D01*
X119929562Y-92870881D01*
X119740236Y-92792460D01*
X119501637Y-92745000D01*
X119258363Y-92745000D01*
X119019764Y-92792460D01*
X118795008Y-92885557D01*
X118592733Y-93020713D01*
X118420713Y-93192733D01*
X118285557Y-93395008D01*
X118192460Y-93619764D01*
X118145000Y-93858363D01*
X116967000Y-93858363D01*
X116967000Y-91318363D01*
X118145000Y-91318363D01*
X118145000Y-91561637D01*
X118192460Y-91800236D01*
X118285557Y-92024992D01*
X118420713Y-92227267D01*
X118592733Y-92399287D01*
X118795008Y-92534443D01*
X119019764Y-92627540D01*
X119258363Y-92675000D01*
X119501637Y-92675000D01*
X119740236Y-92627540D01*
X119964992Y-92534443D01*
X120167267Y-92399287D01*
X120339287Y-92227267D01*
X120474443Y-92024992D01*
X120567540Y-91800236D01*
X120615000Y-91561637D01*
X120615000Y-91318363D01*
X120567540Y-91079764D01*
X120474443Y-90855008D01*
X120339287Y-90652733D01*
X120167267Y-90480713D01*
X119964992Y-90345557D01*
X119740236Y-90252460D01*
X119501637Y-90205000D01*
X119258363Y-90205000D01*
X119019764Y-90252460D01*
X118795008Y-90345557D01*
X118592733Y-90480713D01*
X118420713Y-90652733D01*
X118285557Y-90855008D01*
X118192460Y-91079764D01*
X118145000Y-91318363D01*
X116967000Y-91318363D01*
X116967000Y-90145695D01*
X128226520Y-90145695D01*
X128295822Y-90897938D01*
X128510548Y-91622208D01*
X128862445Y-92290670D01*
X128889452Y-92331088D01*
X129379119Y-92691276D01*
X131900395Y-90170000D01*
X132259605Y-90170000D01*
X134780881Y-92691276D01*
X135270548Y-92331088D01*
X135630849Y-91667118D01*
X135854694Y-90945615D01*
X135933480Y-90194305D01*
X135928181Y-90136781D01*
X139042809Y-90136781D01*
X139043227Y-90196599D01*
X139042809Y-90256416D01*
X139043709Y-90265587D01*
X139121433Y-91005095D01*
X139133458Y-91063675D01*
X139144670Y-91122453D01*
X139147334Y-91131274D01*
X139367217Y-91841601D01*
X139390392Y-91896731D01*
X139412806Y-91952210D01*
X139417133Y-91960346D01*
X139770799Y-92614437D01*
X139804244Y-92664021D01*
X139837004Y-92714084D01*
X139842828Y-92721225D01*
X140316805Y-93294165D01*
X140359241Y-93336305D01*
X140401104Y-93379055D01*
X140408205Y-93384928D01*
X140984439Y-93854893D01*
X141034247Y-93887986D01*
X141083621Y-93921793D01*
X141091727Y-93926176D01*
X141748271Y-94275266D01*
X141803586Y-94298065D01*
X141858558Y-94321626D01*
X141867361Y-94324351D01*
X142579206Y-94539270D01*
X142637901Y-94550892D01*
X142696397Y-94563326D01*
X142705562Y-94564289D01*
X143445595Y-94636850D01*
X143445598Y-94636850D01*
X143477581Y-94640000D01*
X151162419Y-94640000D01*
X151164714Y-94639774D01*
X151187799Y-94639613D01*
X151217618Y-94636479D01*
X151247601Y-94636479D01*
X151256766Y-94635516D01*
X151995714Y-94552629D01*
X152054217Y-94540193D01*
X152112905Y-94528573D01*
X152121708Y-94525848D01*
X152830482Y-94301012D01*
X152885465Y-94277446D01*
X152940771Y-94254651D01*
X152948877Y-94250268D01*
X153600483Y-93892044D01*
X153649862Y-93858233D01*
X153699663Y-93825146D01*
X153706764Y-93819272D01*
X154276381Y-93341306D01*
X154318225Y-93298576D01*
X154360680Y-93256417D01*
X154366504Y-93249276D01*
X154832435Y-92669775D01*
X154865163Y-92619761D01*
X154898641Y-92570128D01*
X154902967Y-92561991D01*
X155247465Y-91903026D01*
X155269869Y-91847573D01*
X155293054Y-91792418D01*
X155295717Y-91783596D01*
X155505661Y-91070269D01*
X155516865Y-91011536D01*
X155528899Y-90952912D01*
X155529798Y-90943741D01*
X155597191Y-90203219D01*
X155596773Y-90143401D01*
X155597191Y-90083583D01*
X155596291Y-90074412D01*
X155518566Y-89334905D01*
X155506541Y-89276325D01*
X155495329Y-89217547D01*
X155492666Y-89208725D01*
X155272783Y-88498399D01*
X155249595Y-88443236D01*
X155227193Y-88387790D01*
X155222867Y-88379654D01*
X154869201Y-87725563D01*
X154835756Y-87675979D01*
X154802996Y-87625916D01*
X154797172Y-87618775D01*
X154323195Y-87045835D01*
X154280759Y-87003695D01*
X154238896Y-86960945D01*
X154231795Y-86955072D01*
X153655561Y-86485107D01*
X153605768Y-86452025D01*
X153556379Y-86418207D01*
X153548273Y-86413824D01*
X152891729Y-86064734D01*
X152836428Y-86041941D01*
X152781443Y-86018374D01*
X152772640Y-86015649D01*
X152060794Y-85800730D01*
X152002100Y-85789108D01*
X151943603Y-85776674D01*
X151934438Y-85775711D01*
X151194405Y-85703150D01*
X151194402Y-85703150D01*
X151162419Y-85700000D01*
X143477581Y-85700000D01*
X143475286Y-85700226D01*
X143452201Y-85700387D01*
X143422382Y-85703521D01*
X143392398Y-85703521D01*
X143383234Y-85704484D01*
X142644286Y-85787371D01*
X142585783Y-85799807D01*
X142527095Y-85811427D01*
X142518292Y-85814152D01*
X141809517Y-86038988D01*
X141754549Y-86062548D01*
X141699229Y-86085349D01*
X141691123Y-86089732D01*
X141039518Y-86447956D01*
X140990156Y-86481755D01*
X140940337Y-86514854D01*
X140933236Y-86520728D01*
X140363619Y-86998693D01*
X140321756Y-87041443D01*
X140279320Y-87083583D01*
X140273496Y-87090725D01*
X139807565Y-87670225D01*
X139774805Y-87720288D01*
X139741360Y-87769872D01*
X139737034Y-87778009D01*
X139392535Y-88436974D01*
X139370131Y-88492427D01*
X139346946Y-88547582D01*
X139344283Y-88556404D01*
X139134339Y-89269732D01*
X139123137Y-89328458D01*
X139111101Y-89387088D01*
X139110202Y-89396260D01*
X139042809Y-90136781D01*
X135928181Y-90136781D01*
X135864178Y-89442062D01*
X135649452Y-88717792D01*
X135297555Y-88049330D01*
X135270548Y-88008912D01*
X134780881Y-87648724D01*
X132259605Y-90170000D01*
X131900395Y-90170000D01*
X129379119Y-87648724D01*
X128889452Y-88008912D01*
X128529151Y-88672882D01*
X128305306Y-89394385D01*
X128226520Y-90145695D01*
X116967000Y-90145695D01*
X116967000Y-88778363D01*
X118145000Y-88778363D01*
X118145000Y-89021637D01*
X118192460Y-89260236D01*
X118285557Y-89484992D01*
X118420713Y-89687267D01*
X118592733Y-89859287D01*
X118795008Y-89994443D01*
X119019764Y-90087540D01*
X119258363Y-90135000D01*
X119501637Y-90135000D01*
X119740236Y-90087540D01*
X119964992Y-89994443D01*
X120167267Y-89859287D01*
X120339287Y-89687267D01*
X120474443Y-89484992D01*
X120567540Y-89260236D01*
X120615000Y-89021637D01*
X120615000Y-88778363D01*
X120567540Y-88539764D01*
X120474443Y-88315008D01*
X120339287Y-88112733D01*
X120167267Y-87940713D01*
X119964992Y-87805557D01*
X119740236Y-87712460D01*
X119501637Y-87665000D01*
X119258363Y-87665000D01*
X119019764Y-87712460D01*
X118795008Y-87805557D01*
X118592733Y-87940713D01*
X118420713Y-88112733D01*
X118285557Y-88315008D01*
X118192460Y-88539764D01*
X118145000Y-88778363D01*
X116967000Y-88778363D01*
X116967000Y-87209764D01*
X118709841Y-87209764D01*
X118757148Y-87433348D01*
X118978516Y-87534237D01*
X119215313Y-87590000D01*
X119458438Y-87598495D01*
X119698549Y-87559395D01*
X119926418Y-87474202D01*
X119935927Y-87469119D01*
X129558724Y-87469119D01*
X132080000Y-89990395D01*
X134601276Y-87469119D01*
X134241088Y-86979452D01*
X133577118Y-86619151D01*
X132855615Y-86395306D01*
X132104305Y-86316520D01*
X131352062Y-86385822D01*
X130627792Y-86600548D01*
X129959330Y-86952445D01*
X129918912Y-86979452D01*
X129558724Y-87469119D01*
X119935927Y-87469119D01*
X120002852Y-87433348D01*
X120050159Y-87209764D01*
X119380000Y-86539605D01*
X118709841Y-87209764D01*
X116967000Y-87209764D01*
X116967000Y-86438438D01*
X118141505Y-86438438D01*
X118180605Y-86678549D01*
X118265798Y-86906418D01*
X118306652Y-86982852D01*
X118530236Y-87030159D01*
X119200395Y-86360000D01*
X119559605Y-86360000D01*
X120229764Y-87030159D01*
X120453348Y-86982852D01*
X120554237Y-86761484D01*
X120610000Y-86524687D01*
X120618495Y-86281562D01*
X120579395Y-86041451D01*
X120494202Y-85813582D01*
X120453348Y-85737148D01*
X120229764Y-85689841D01*
X119559605Y-86360000D01*
X119200395Y-86360000D01*
X118530236Y-85689841D01*
X118306652Y-85737148D01*
X118205763Y-85958516D01*
X118150000Y-86195313D01*
X118141505Y-86438438D01*
X116967000Y-86438438D01*
X116967000Y-85510236D01*
X118709841Y-85510236D01*
X119380000Y-86180395D01*
X120050159Y-85510236D01*
X120050110Y-85510000D01*
X167421928Y-85510000D01*
X167425000Y-86074250D01*
X167583750Y-86233000D01*
X168783000Y-86233000D01*
X168783000Y-85033750D01*
X169037000Y-85033750D01*
X169037000Y-86233000D01*
X170236250Y-86233000D01*
X170395000Y-86074250D01*
X170398072Y-85510000D01*
X170385812Y-85385518D01*
X170349502Y-85265820D01*
X170290537Y-85155506D01*
X170211185Y-85058815D01*
X170114494Y-84979463D01*
X170004180Y-84920498D01*
X169884482Y-84884188D01*
X169760000Y-84871928D01*
X169195750Y-84875000D01*
X169037000Y-85033750D01*
X168783000Y-85033750D01*
X168624250Y-84875000D01*
X168060000Y-84871928D01*
X167935518Y-84884188D01*
X167815820Y-84920498D01*
X167705506Y-84979463D01*
X167608815Y-85058815D01*
X167529463Y-85155506D01*
X167470498Y-85265820D01*
X167434188Y-85385518D01*
X167421928Y-85510000D01*
X120050110Y-85510000D01*
X120002852Y-85286652D01*
X119781484Y-85185763D01*
X119544687Y-85130000D01*
X119301562Y-85121505D01*
X119061451Y-85160605D01*
X118833582Y-85245798D01*
X118757148Y-85286652D01*
X118709841Y-85510236D01*
X116967000Y-85510236D01*
X116967000Y-84480000D01*
X180089069Y-84480000D01*
X191110001Y-94276384D01*
%TA.AperFunction,Conductor*%
D26*
G36*
X191110001Y-94276384D02*
G01*
X191110000Y-126340000D01*
X183210000Y-126340000D01*
X180968161Y-123350881D01*
X184168724Y-123350881D01*
X184528912Y-123840548D01*
X185192882Y-124200849D01*
X185914385Y-124424694D01*
X186665695Y-124503480D01*
X187417938Y-124434178D01*
X188142208Y-124219452D01*
X188810670Y-123867555D01*
X188851088Y-123840548D01*
X189211276Y-123350881D01*
X186690000Y-120829605D01*
X184168724Y-123350881D01*
X180968161Y-123350881D01*
X179730000Y-121700001D01*
X179730000Y-120625695D01*
X182836520Y-120625695D01*
X182905822Y-121377938D01*
X183120548Y-122102208D01*
X183472445Y-122770670D01*
X183499452Y-122811088D01*
X183989119Y-123171276D01*
X186510395Y-120650000D01*
X186869605Y-120650000D01*
X189390881Y-123171276D01*
X189880548Y-122811088D01*
X190240849Y-122147118D01*
X190464694Y-121425615D01*
X190543480Y-120674305D01*
X190474178Y-119922062D01*
X190259452Y-119197792D01*
X189907555Y-118529330D01*
X189880548Y-118488912D01*
X189390881Y-118128724D01*
X186869605Y-120650000D01*
X186510395Y-120650000D01*
X183989119Y-118128724D01*
X183499452Y-118488912D01*
X183139151Y-119152882D01*
X182915306Y-119874385D01*
X182836520Y-120625695D01*
X179730000Y-120625695D01*
X179730000Y-117949119D01*
X184168724Y-117949119D01*
X186690000Y-120470395D01*
X189211276Y-117949119D01*
X188851088Y-117459452D01*
X188187118Y-117099151D01*
X187465615Y-116875306D01*
X186714305Y-116796520D01*
X185962062Y-116865822D01*
X185237792Y-117080548D01*
X184569330Y-117432445D01*
X184528912Y-117459452D01*
X184168724Y-117949119D01*
X179730000Y-117949119D01*
X179730000Y-116872419D01*
X179733193Y-116840000D01*
X179720450Y-116710617D01*
X179682710Y-116586207D01*
X179621425Y-116471550D01*
X179538948Y-116371052D01*
X179438450Y-116288575D01*
X179323793Y-116227290D01*
X179199383Y-116189550D01*
X179102419Y-116180000D01*
X179070000Y-116176807D01*
X179037581Y-116180000D01*
X155479055Y-116180000D01*
X155466408Y-116140131D01*
X155442868Y-116085209D01*
X155420048Y-116029842D01*
X155415664Y-116021736D01*
X155296256Y-115804534D01*
X155262457Y-115755171D01*
X155260506Y-115752235D01*
X155388169Y-115837537D01*
X155703919Y-115968325D01*
X156039117Y-116035000D01*
X156380883Y-116035000D01*
X156716081Y-115968325D01*
X157031831Y-115837537D01*
X157315998Y-115647663D01*
X157557663Y-115405998D01*
X157747537Y-115121831D01*
X157878325Y-114806081D01*
X157945000Y-114470883D01*
X157945000Y-114129117D01*
X157902409Y-113915000D01*
X186646531Y-113915000D01*
X186690000Y-113919281D01*
X186733469Y-113915000D01*
X186733477Y-113915000D01*
X186863490Y-113902195D01*
X187030313Y-113851589D01*
X187184059Y-113769411D01*
X187318817Y-113658817D01*
X187346534Y-113625044D01*
X189192579Y-111779000D01*
X189356955Y-111779000D01*
X189605987Y-111729465D01*
X189840570Y-111632297D01*
X190051690Y-111491232D01*
X190231232Y-111311690D01*
X190372297Y-111100570D01*
X190469465Y-110865987D01*
X190519000Y-110616955D01*
X190519000Y-110363045D01*
X190469465Y-110114013D01*
X190372297Y-109879430D01*
X190231232Y-109668310D01*
X190051690Y-109488768D01*
X189840570Y-109347703D01*
X189605987Y-109250535D01*
X189452001Y-109219906D01*
X189557079Y-109203259D01*
X189795293Y-109115368D01*
X189884907Y-109067468D01*
X189938782Y-108838387D01*
X189230000Y-108129605D01*
X188521218Y-108838387D01*
X188575093Y-109067468D01*
X188805684Y-109173763D01*
X189002484Y-109221003D01*
X188854013Y-109250535D01*
X188619430Y-109347703D01*
X188408310Y-109488768D01*
X188228768Y-109668310D01*
X188087703Y-109879430D01*
X187990535Y-110114013D01*
X187941000Y-110363045D01*
X187941000Y-110527421D01*
X186323422Y-112145000D01*
X161945968Y-112145000D01*
X161995546Y-112052247D01*
X162039003Y-111908986D01*
X162050000Y-111797333D01*
X162050000Y-111797332D01*
X162053677Y-111760000D01*
X162050000Y-111722667D01*
X162050000Y-109957863D01*
X162051931Y-109962457D01*
X162074339Y-110017920D01*
X162078665Y-110026054D01*
X162078667Y-110026059D01*
X162078670Y-110026064D01*
X162196553Y-110244086D01*
X162229988Y-110293654D01*
X162262759Y-110343735D01*
X162268584Y-110350876D01*
X162426577Y-110541856D01*
X162469012Y-110583995D01*
X162510875Y-110626745D01*
X162517976Y-110632618D01*
X162710053Y-110789273D01*
X162759875Y-110822374D01*
X162809237Y-110856173D01*
X162817343Y-110860556D01*
X163036191Y-110976919D01*
X163091479Y-110999707D01*
X163146475Y-111023279D01*
X163155278Y-111026003D01*
X163392559Y-111097643D01*
X163451246Y-111109264D01*
X163509752Y-111121700D01*
X163518915Y-111122663D01*
X163518917Y-111122663D01*
X163765595Y-111146850D01*
X163765598Y-111146850D01*
X163797581Y-111150000D01*
X185452419Y-111150000D01*
X185480865Y-111147198D01*
X185488682Y-111147253D01*
X185497853Y-111146354D01*
X185744357Y-111120446D01*
X185802986Y-111108411D01*
X185861716Y-111097208D01*
X185870532Y-111094546D01*
X185870536Y-111094545D01*
X185870539Y-111094544D01*
X186107314Y-111021249D01*
X186162457Y-110998069D01*
X186217920Y-110975661D01*
X186226054Y-110971335D01*
X186226059Y-110971333D01*
X186226064Y-110971330D01*
X186444086Y-110853447D01*
X186493654Y-110820012D01*
X186543735Y-110787241D01*
X186550876Y-110781416D01*
X186741856Y-110623423D01*
X186783995Y-110580988D01*
X186826745Y-110539125D01*
X186832618Y-110532024D01*
X186989273Y-110339947D01*
X187022374Y-110290125D01*
X187056173Y-110240763D01*
X187060556Y-110232657D01*
X187176919Y-110013809D01*
X187199707Y-109958521D01*
X187223279Y-109903525D01*
X187226003Y-109894722D01*
X187297643Y-109657441D01*
X187309264Y-109598754D01*
X187321700Y-109540248D01*
X187322663Y-109531083D01*
X187346850Y-109284405D01*
X187346850Y-109284402D01*
X187350000Y-109252419D01*
X187350000Y-108026296D01*
X187937012Y-108026296D01*
X187976741Y-108277079D01*
X188064632Y-108515293D01*
X188112532Y-108604907D01*
X188341613Y-108658782D01*
X189050395Y-107950000D01*
X189409605Y-107950000D01*
X190118387Y-108658782D01*
X190347468Y-108604907D01*
X190453763Y-108374316D01*
X190513028Y-108127419D01*
X190522988Y-107873704D01*
X190483259Y-107622921D01*
X190395368Y-107384707D01*
X190347468Y-107295093D01*
X190118387Y-107241218D01*
X189409605Y-107950000D01*
X189050395Y-107950000D01*
X188341613Y-107241218D01*
X188112532Y-107295093D01*
X188006237Y-107525684D01*
X187946972Y-107772581D01*
X187937012Y-108026296D01*
X187350000Y-108026296D01*
X187350000Y-102743045D01*
X187941000Y-102743045D01*
X187941000Y-102996955D01*
X187990535Y-103245987D01*
X188087703Y-103480570D01*
X188228768Y-103691690D01*
X188408310Y-103871232D01*
X188619430Y-104012297D01*
X188854013Y-104109465D01*
X189007524Y-104140000D01*
X188854013Y-104170535D01*
X188619430Y-104267703D01*
X188408310Y-104408768D01*
X188228768Y-104588310D01*
X188087703Y-104799430D01*
X187990535Y-105034013D01*
X187941000Y-105283045D01*
X187941000Y-105536955D01*
X187990535Y-105785987D01*
X188087703Y-106020570D01*
X188228768Y-106231690D01*
X188408310Y-106411232D01*
X188619430Y-106552297D01*
X188854013Y-106649465D01*
X189007999Y-106680094D01*
X188902921Y-106696741D01*
X188664707Y-106784632D01*
X188575093Y-106832532D01*
X188521218Y-107061613D01*
X189230000Y-107770395D01*
X189938782Y-107061613D01*
X189884907Y-106832532D01*
X189654316Y-106726237D01*
X189457516Y-106678997D01*
X189605987Y-106649465D01*
X189840570Y-106552297D01*
X190051690Y-106411232D01*
X190231232Y-106231690D01*
X190372297Y-106020570D01*
X190469465Y-105785987D01*
X190519000Y-105536955D01*
X190519000Y-105283045D01*
X190469465Y-105034013D01*
X190372297Y-104799430D01*
X190231232Y-104588310D01*
X190051690Y-104408768D01*
X189840570Y-104267703D01*
X189605987Y-104170535D01*
X189452476Y-104140000D01*
X189605987Y-104109465D01*
X189840570Y-104012297D01*
X190051690Y-103871232D01*
X190231232Y-103691690D01*
X190372297Y-103480570D01*
X190469465Y-103245987D01*
X190519000Y-102996955D01*
X190519000Y-102743045D01*
X190469465Y-102494013D01*
X190372297Y-102259430D01*
X190231232Y-102048310D01*
X190051690Y-101868768D01*
X189840570Y-101727703D01*
X189605987Y-101630535D01*
X189356955Y-101581000D01*
X189103045Y-101581000D01*
X188854013Y-101630535D01*
X188619430Y-101727703D01*
X188408310Y-101868768D01*
X188228768Y-102048310D01*
X188087703Y-102259430D01*
X187990535Y-102494013D01*
X187941000Y-102743045D01*
X187350000Y-102743045D01*
X187350000Y-96487581D01*
X187347198Y-96459135D01*
X187347253Y-96451318D01*
X187346354Y-96442147D01*
X187320446Y-96195644D01*
X187308414Y-96137028D01*
X187297208Y-96078284D01*
X187294544Y-96069462D01*
X187221249Y-95832686D01*
X187198074Y-95777555D01*
X187175661Y-95722080D01*
X187171334Y-95713944D01*
X187053446Y-95495914D01*
X187020012Y-95446346D01*
X186987240Y-95396265D01*
X186981416Y-95389124D01*
X186823423Y-95198144D01*
X186780988Y-95156005D01*
X186739125Y-95113255D01*
X186732024Y-95107381D01*
X186539946Y-94950727D01*
X186490169Y-94917655D01*
X186440763Y-94883826D01*
X186432657Y-94879444D01*
X186213809Y-94763081D01*
X186158532Y-94740298D01*
X186103525Y-94716721D01*
X186094722Y-94713997D01*
X185857441Y-94642357D01*
X185798754Y-94630736D01*
X185740248Y-94618300D01*
X185731085Y-94617337D01*
X185731083Y-94617337D01*
X185484405Y-94593150D01*
X185484402Y-94593150D01*
X185452419Y-94590000D01*
X163797581Y-94590000D01*
X163769135Y-94592802D01*
X163761318Y-94592747D01*
X163752147Y-94593646D01*
X163505644Y-94619554D01*
X163447028Y-94631586D01*
X163388284Y-94642792D01*
X163379462Y-94645456D01*
X163142686Y-94718751D01*
X163087555Y-94741926D01*
X163032080Y-94764339D01*
X163023944Y-94768666D01*
X162805914Y-94886554D01*
X162756346Y-94919988D01*
X162706265Y-94952760D01*
X162699124Y-94958584D01*
X162508144Y-95116577D01*
X162466005Y-95159012D01*
X162423255Y-95200875D01*
X162417381Y-95207976D01*
X162260727Y-95400054D01*
X162227655Y-95449831D01*
X162193826Y-95499237D01*
X162189444Y-95507343D01*
X162073081Y-95726191D01*
X162050298Y-95781468D01*
X162050000Y-95782163D01*
X162050000Y-94294801D01*
X167954802Y-88390000D01*
X173952678Y-88390000D01*
X173990000Y-88393676D01*
X174027322Y-88390000D01*
X174027333Y-88390000D01*
X174138986Y-88379003D01*
X174282247Y-88335546D01*
X174414276Y-88264974D01*
X174530001Y-88170001D01*
X174553804Y-88140997D01*
X174846729Y-87848072D01*
X176110000Y-87848072D01*
X176234482Y-87835812D01*
X176354180Y-87799502D01*
X176464494Y-87740537D01*
X176561185Y-87661185D01*
X176640537Y-87564494D01*
X176699502Y-87454180D01*
X176721513Y-87381620D01*
X176847545Y-87507652D01*
X174945199Y-89410000D01*
X172153711Y-89410000D01*
X172109774Y-89366063D01*
X171940256Y-89252795D01*
X171751898Y-89174774D01*
X171551939Y-89135000D01*
X171348061Y-89135000D01*
X171148102Y-89174774D01*
X170959744Y-89252795D01*
X170790226Y-89366063D01*
X170646063Y-89510226D01*
X170532795Y-89679744D01*
X170454774Y-89868102D01*
X170415000Y-90068061D01*
X170415000Y-90271939D01*
X170454774Y-90471898D01*
X170532795Y-90660256D01*
X170646063Y-90829774D01*
X170790226Y-90973937D01*
X170959744Y-91087205D01*
X171148102Y-91165226D01*
X171348061Y-91205000D01*
X171551939Y-91205000D01*
X171751898Y-91165226D01*
X171940256Y-91087205D01*
X172109774Y-90973937D01*
X172153711Y-90930000D01*
X175222678Y-90930000D01*
X175260000Y-90933676D01*
X175297322Y-90930000D01*
X175297333Y-90930000D01*
X175408986Y-90919003D01*
X175552247Y-90875546D01*
X175684276Y-90804974D01*
X175800001Y-90710001D01*
X175823804Y-90680997D01*
X178311009Y-88193794D01*
X178340001Y-88170001D01*
X178363795Y-88141008D01*
X178363799Y-88141004D01*
X178421811Y-88070315D01*
X178434974Y-88054276D01*
X178505546Y-87922247D01*
X178549003Y-87778986D01*
X178560000Y-87667333D01*
X178560000Y-87667324D01*
X178563073Y-87636125D01*
X178746632Y-87513475D01*
X178953475Y-87306632D01*
X179115990Y-87063411D01*
X179227932Y-86793158D01*
X179285000Y-86506260D01*
X179285000Y-86213740D01*
X179227932Y-85926842D01*
X179115990Y-85656589D01*
X178953475Y-85413368D01*
X178746632Y-85206525D01*
X178503411Y-85044010D01*
X178233158Y-84932068D01*
X177946260Y-84875000D01*
X177653740Y-84875000D01*
X177366842Y-84932068D01*
X177096589Y-85044010D01*
X176853368Y-85206525D01*
X176721513Y-85338380D01*
X176699502Y-85265820D01*
X176640537Y-85155506D01*
X176561185Y-85058815D01*
X176464494Y-84979463D01*
X176354180Y-84920498D01*
X176234482Y-84884188D01*
X176110000Y-84871928D01*
X174410000Y-84871928D01*
X174285518Y-84884188D01*
X174165820Y-84920498D01*
X174055506Y-84979463D01*
X173958815Y-85058815D01*
X173879463Y-85155506D01*
X173820498Y-85265820D01*
X173784188Y-85385518D01*
X173771928Y-85510000D01*
X173771928Y-86773271D01*
X173675199Y-86870000D01*
X170396221Y-86870000D01*
X170395000Y-86645750D01*
X170236250Y-86487000D01*
X169037000Y-86487000D01*
X169037000Y-86507000D01*
X168783000Y-86507000D01*
X168783000Y-86487000D01*
X167583750Y-86487000D01*
X167425000Y-86645750D01*
X167423608Y-86901444D01*
X167390705Y-86911425D01*
X167347753Y-86924454D01*
X167215723Y-86995026D01*
X167177977Y-87026004D01*
X167099999Y-87089999D01*
X167076201Y-87118997D01*
X160779003Y-93416196D01*
X160749999Y-93439999D01*
X160712608Y-93485561D01*
X160655026Y-93555724D01*
X160591883Y-93673855D01*
X160584454Y-93687754D01*
X160540997Y-93831015D01*
X160530000Y-93942668D01*
X160530000Y-93942678D01*
X160526324Y-93980000D01*
X160530000Y-94017322D01*
X160530000Y-99398078D01*
X160460690Y-99328768D01*
X160249570Y-99187703D01*
X160014987Y-99090535D01*
X159765955Y-99041000D01*
X159512045Y-99041000D01*
X159263013Y-99090535D01*
X159028430Y-99187703D01*
X158817310Y-99328768D01*
X158637768Y-99508310D01*
X158496703Y-99719430D01*
X158399535Y-99954013D01*
X158350000Y-100203045D01*
X158350000Y-100456955D01*
X158399535Y-100705987D01*
X158496703Y-100940570D01*
X158637768Y-101151690D01*
X158817310Y-101331232D01*
X159028430Y-101472297D01*
X159263013Y-101569465D01*
X159416524Y-101600000D01*
X159263013Y-101630535D01*
X159028430Y-101727703D01*
X158817310Y-101868768D01*
X158637768Y-102048310D01*
X158496703Y-102259430D01*
X158399535Y-102494013D01*
X158350000Y-102743045D01*
X158350000Y-102996955D01*
X158399535Y-103245987D01*
X158496703Y-103480570D01*
X158637768Y-103691690D01*
X158817310Y-103871232D01*
X159028430Y-104012297D01*
X159263013Y-104109465D01*
X159416524Y-104140000D01*
X159263013Y-104170535D01*
X159028430Y-104267703D01*
X158817310Y-104408768D01*
X158637768Y-104588310D01*
X158496703Y-104799430D01*
X158399535Y-105034013D01*
X158350000Y-105283045D01*
X158350000Y-105536955D01*
X158364474Y-105609723D01*
X156784199Y-107190000D01*
X153984803Y-107190000D01*
X151693804Y-104899003D01*
X151670001Y-104869999D01*
X151554276Y-104775026D01*
X151422247Y-104704454D01*
X151278986Y-104660997D01*
X151167333Y-104650000D01*
X151167322Y-104650000D01*
X151130000Y-104646324D01*
X151092678Y-104650000D01*
X124587000Y-104650000D01*
X124587000Y-102768061D01*
X127235000Y-102768061D01*
X127235000Y-102971939D01*
X127274774Y-103171898D01*
X127352795Y-103360256D01*
X127466063Y-103529774D01*
X127610226Y-103673937D01*
X127779744Y-103787205D01*
X127968102Y-103865226D01*
X128168061Y-103905000D01*
X128371939Y-103905000D01*
X128571898Y-103865226D01*
X128760256Y-103787205D01*
X128929774Y-103673937D01*
X128973711Y-103630000D01*
X148552678Y-103630000D01*
X148590000Y-103633676D01*
X148627322Y-103630000D01*
X148627333Y-103630000D01*
X148738986Y-103619003D01*
X148882247Y-103575546D01*
X149014276Y-103504974D01*
X149130001Y-103410001D01*
X149153804Y-103380997D01*
X149494801Y-103040000D01*
X154471928Y-103040000D01*
X154471928Y-105240000D01*
X154484188Y-105364482D01*
X154520498Y-105484180D01*
X154579463Y-105594494D01*
X154658815Y-105691185D01*
X154755506Y-105770537D01*
X154865820Y-105829502D01*
X154985518Y-105865812D01*
X155110000Y-105878072D01*
X157310000Y-105878072D01*
X157434482Y-105865812D01*
X157554180Y-105829502D01*
X157664494Y-105770537D01*
X157761185Y-105691185D01*
X157840537Y-105594494D01*
X157899502Y-105484180D01*
X157935812Y-105364482D01*
X157948072Y-105240000D01*
X157948072Y-103040000D01*
X157935812Y-102915518D01*
X157899502Y-102795820D01*
X157840537Y-102685506D01*
X157761185Y-102588815D01*
X157664494Y-102509463D01*
X157554180Y-102450498D01*
X157434482Y-102414188D01*
X157310000Y-102401928D01*
X155110000Y-102401928D01*
X154985518Y-102414188D01*
X154865820Y-102450498D01*
X154755506Y-102509463D01*
X154658815Y-102588815D01*
X154579463Y-102685506D01*
X154520498Y-102795820D01*
X154484188Y-102915518D01*
X154471928Y-103040000D01*
X149494801Y-103040000D01*
X150763593Y-101771210D01*
X150983740Y-101815000D01*
X151276260Y-101815000D01*
X151563158Y-101757932D01*
X151833411Y-101645990D01*
X152076632Y-101483475D01*
X152283475Y-101276632D01*
X152400000Y-101102240D01*
X152516525Y-101276632D01*
X152723368Y-101483475D01*
X152966589Y-101645990D01*
X153236842Y-101757932D01*
X153523740Y-101815000D01*
X153816260Y-101815000D01*
X154103158Y-101757932D01*
X154373411Y-101645990D01*
X154616632Y-101483475D01*
X154823475Y-101276632D01*
X154985990Y-101033411D01*
X155097932Y-100763158D01*
X155155000Y-100476260D01*
X155155000Y-100183740D01*
X155097932Y-99896842D01*
X154985990Y-99626589D01*
X154823475Y-99383368D01*
X154616632Y-99176525D01*
X154373411Y-99014010D01*
X154103158Y-98902068D01*
X153816260Y-98845000D01*
X153523740Y-98845000D01*
X153236842Y-98902068D01*
X152966589Y-99014010D01*
X152723368Y-99176525D01*
X152516525Y-99383368D01*
X152400000Y-99557760D01*
X152283475Y-99383368D01*
X152076632Y-99176525D01*
X151833411Y-99014010D01*
X151563158Y-98902068D01*
X151276260Y-98845000D01*
X150983740Y-98845000D01*
X150696842Y-98902068D01*
X150426589Y-99014010D01*
X150183368Y-99176525D01*
X150051513Y-99308380D01*
X150029502Y-99235820D01*
X149970537Y-99125506D01*
X149891185Y-99028815D01*
X149794494Y-98949463D01*
X149684180Y-98890498D01*
X149564482Y-98854188D01*
X149440000Y-98841928D01*
X148875750Y-98845000D01*
X148717000Y-99003750D01*
X148717000Y-100203000D01*
X148737000Y-100203000D01*
X148737000Y-100457000D01*
X148717000Y-100457000D01*
X148717000Y-100477000D01*
X148463000Y-100477000D01*
X148463000Y-100457000D01*
X147263750Y-100457000D01*
X147105000Y-100615750D01*
X147101928Y-101180000D01*
X147114188Y-101304482D01*
X147150498Y-101424180D01*
X147209463Y-101534494D01*
X147288815Y-101631185D01*
X147385506Y-101710537D01*
X147495820Y-101769502D01*
X147615518Y-101805812D01*
X147740000Y-101818072D01*
X148304250Y-101815000D01*
X148462998Y-101656252D01*
X148462998Y-101815000D01*
X148570198Y-101815000D01*
X148275199Y-102110000D01*
X128973711Y-102110000D01*
X128929774Y-102066063D01*
X128760256Y-101952795D01*
X128571898Y-101874774D01*
X128371939Y-101835000D01*
X128168061Y-101835000D01*
X127968102Y-101874774D01*
X127779744Y-101952795D01*
X127610226Y-102066063D01*
X127466063Y-102210226D01*
X127352795Y-102379744D01*
X127274774Y-102568102D01*
X127235000Y-102768061D01*
X124587000Y-102768061D01*
X124587000Y-99480000D01*
X147101928Y-99480000D01*
X147105000Y-100044250D01*
X147263750Y-100203000D01*
X148463000Y-100203000D01*
X148463000Y-99003750D01*
X148304250Y-98845000D01*
X147740000Y-98841928D01*
X147615518Y-98854188D01*
X147495820Y-98890498D01*
X147385506Y-98949463D01*
X147288815Y-99028815D01*
X147209463Y-99125506D01*
X147150498Y-99235820D01*
X147114188Y-99355518D01*
X147101928Y-99480000D01*
X124587000Y-99480000D01*
X124587000Y-99060000D01*
X124584560Y-99035224D01*
X124577333Y-99011399D01*
X124565597Y-98989443D01*
X124549803Y-98970197D01*
X124530557Y-98954403D01*
X124508601Y-98942667D01*
X124484776Y-98935440D01*
X124460000Y-98933000D01*
X116967000Y-98933000D01*
X116967000Y-93858363D01*
X118145000Y-93858363D01*
X118145000Y-94101637D01*
X118192460Y-94340236D01*
X118285557Y-94564992D01*
X118420713Y-94767267D01*
X118592733Y-94939287D01*
X118795008Y-95074443D01*
X119019764Y-95167540D01*
X119258363Y-95215000D01*
X119501637Y-95215000D01*
X119740236Y-95167540D01*
X119964992Y-95074443D01*
X120167267Y-94939287D01*
X120339287Y-94767267D01*
X120474443Y-94564992D01*
X120567540Y-94340236D01*
X120615000Y-94101637D01*
X120615000Y-93858363D01*
X120567540Y-93619764D01*
X120474443Y-93395008D01*
X120339287Y-93192733D01*
X120167267Y-93020713D01*
X119964992Y-92885557D01*
X119929562Y-92870881D01*
X129558724Y-92870881D01*
X129918912Y-93360548D01*
X130582882Y-93720849D01*
X131304385Y-93944694D01*
X132055695Y-94023480D01*
X132807938Y-93954178D01*
X133532208Y-93739452D01*
X134200670Y-93387555D01*
X134241088Y-93360548D01*
X134601276Y-92870881D01*
X132080000Y-90349605D01*
X129558724Y-92870881D01*
X119929562Y-92870881D01*
X119740236Y-92792460D01*
X119501637Y-92745000D01*
X119258363Y-92745000D01*
X119019764Y-92792460D01*
X118795008Y-92885557D01*
X118592733Y-93020713D01*
X118420713Y-93192733D01*
X118285557Y-93395008D01*
X118192460Y-93619764D01*
X118145000Y-93858363D01*
X116967000Y-93858363D01*
X116967000Y-91318363D01*
X118145000Y-91318363D01*
X118145000Y-91561637D01*
X118192460Y-91800236D01*
X118285557Y-92024992D01*
X118420713Y-92227267D01*
X118592733Y-92399287D01*
X118795008Y-92534443D01*
X119019764Y-92627540D01*
X119258363Y-92675000D01*
X119501637Y-92675000D01*
X119740236Y-92627540D01*
X119964992Y-92534443D01*
X120167267Y-92399287D01*
X120339287Y-92227267D01*
X120474443Y-92024992D01*
X120567540Y-91800236D01*
X120615000Y-91561637D01*
X120615000Y-91318363D01*
X120567540Y-91079764D01*
X120474443Y-90855008D01*
X120339287Y-90652733D01*
X120167267Y-90480713D01*
X119964992Y-90345557D01*
X119740236Y-90252460D01*
X119501637Y-90205000D01*
X119258363Y-90205000D01*
X119019764Y-90252460D01*
X118795008Y-90345557D01*
X118592733Y-90480713D01*
X118420713Y-90652733D01*
X118285557Y-90855008D01*
X118192460Y-91079764D01*
X118145000Y-91318363D01*
X116967000Y-91318363D01*
X116967000Y-90145695D01*
X128226520Y-90145695D01*
X128295822Y-90897938D01*
X128510548Y-91622208D01*
X128862445Y-92290670D01*
X128889452Y-92331088D01*
X129379119Y-92691276D01*
X131900395Y-90170000D01*
X132259605Y-90170000D01*
X134780881Y-92691276D01*
X135270548Y-92331088D01*
X135630849Y-91667118D01*
X135854694Y-90945615D01*
X135933480Y-90194305D01*
X135928181Y-90136781D01*
X139042809Y-90136781D01*
X139043227Y-90196599D01*
X139042809Y-90256416D01*
X139043709Y-90265587D01*
X139121433Y-91005095D01*
X139133458Y-91063675D01*
X139144670Y-91122453D01*
X139147334Y-91131274D01*
X139367217Y-91841601D01*
X139390392Y-91896731D01*
X139412806Y-91952210D01*
X139417133Y-91960346D01*
X139770799Y-92614437D01*
X139804244Y-92664021D01*
X139837004Y-92714084D01*
X139842828Y-92721225D01*
X140316805Y-93294165D01*
X140359241Y-93336305D01*
X140401104Y-93379055D01*
X140408205Y-93384928D01*
X140984439Y-93854893D01*
X141034247Y-93887986D01*
X141083621Y-93921793D01*
X141091727Y-93926176D01*
X141748271Y-94275266D01*
X141803586Y-94298065D01*
X141858558Y-94321626D01*
X141867361Y-94324351D01*
X142579206Y-94539270D01*
X142637901Y-94550892D01*
X142696397Y-94563326D01*
X142705562Y-94564289D01*
X143445595Y-94636850D01*
X143445598Y-94636850D01*
X143477581Y-94640000D01*
X151162419Y-94640000D01*
X151164714Y-94639774D01*
X151187799Y-94639613D01*
X151217618Y-94636479D01*
X151247601Y-94636479D01*
X151256766Y-94635516D01*
X151995714Y-94552629D01*
X152054217Y-94540193D01*
X152112905Y-94528573D01*
X152121708Y-94525848D01*
X152830482Y-94301012D01*
X152885465Y-94277446D01*
X152940771Y-94254651D01*
X152948877Y-94250268D01*
X153600483Y-93892044D01*
X153649862Y-93858233D01*
X153699663Y-93825146D01*
X153706764Y-93819272D01*
X154276381Y-93341306D01*
X154318225Y-93298576D01*
X154360680Y-93256417D01*
X154366504Y-93249276D01*
X154832435Y-92669775D01*
X154865163Y-92619761D01*
X154898641Y-92570128D01*
X154902967Y-92561991D01*
X155247465Y-91903026D01*
X155269869Y-91847573D01*
X155293054Y-91792418D01*
X155295717Y-91783596D01*
X155505661Y-91070269D01*
X155516865Y-91011536D01*
X155528899Y-90952912D01*
X155529798Y-90943741D01*
X155597191Y-90203219D01*
X155596773Y-90143401D01*
X155597191Y-90083583D01*
X155596291Y-90074412D01*
X155518566Y-89334905D01*
X155506541Y-89276325D01*
X155495329Y-89217547D01*
X155492666Y-89208725D01*
X155272783Y-88498399D01*
X155249595Y-88443236D01*
X155227193Y-88387790D01*
X155222867Y-88379654D01*
X154869201Y-87725563D01*
X154835756Y-87675979D01*
X154802996Y-87625916D01*
X154797172Y-87618775D01*
X154323195Y-87045835D01*
X154280759Y-87003695D01*
X154238896Y-86960945D01*
X154231795Y-86955072D01*
X153655561Y-86485107D01*
X153605768Y-86452025D01*
X153556379Y-86418207D01*
X153548273Y-86413824D01*
X152891729Y-86064734D01*
X152836428Y-86041941D01*
X152781443Y-86018374D01*
X152772640Y-86015649D01*
X152060794Y-85800730D01*
X152002100Y-85789108D01*
X151943603Y-85776674D01*
X151934438Y-85775711D01*
X151194405Y-85703150D01*
X151194402Y-85703150D01*
X151162419Y-85700000D01*
X143477581Y-85700000D01*
X143475286Y-85700226D01*
X143452201Y-85700387D01*
X143422382Y-85703521D01*
X143392398Y-85703521D01*
X143383234Y-85704484D01*
X142644286Y-85787371D01*
X142585783Y-85799807D01*
X142527095Y-85811427D01*
X142518292Y-85814152D01*
X141809517Y-86038988D01*
X141754549Y-86062548D01*
X141699229Y-86085349D01*
X141691123Y-86089732D01*
X141039518Y-86447956D01*
X140990156Y-86481755D01*
X140940337Y-86514854D01*
X140933236Y-86520728D01*
X140363619Y-86998693D01*
X140321756Y-87041443D01*
X140279320Y-87083583D01*
X140273496Y-87090725D01*
X139807565Y-87670225D01*
X139774805Y-87720288D01*
X139741360Y-87769872D01*
X139737034Y-87778009D01*
X139392535Y-88436974D01*
X139370131Y-88492427D01*
X139346946Y-88547582D01*
X139344283Y-88556404D01*
X139134339Y-89269732D01*
X139123137Y-89328458D01*
X139111101Y-89387088D01*
X139110202Y-89396260D01*
X139042809Y-90136781D01*
X135928181Y-90136781D01*
X135864178Y-89442062D01*
X135649452Y-88717792D01*
X135297555Y-88049330D01*
X135270548Y-88008912D01*
X134780881Y-87648724D01*
X132259605Y-90170000D01*
X131900395Y-90170000D01*
X129379119Y-87648724D01*
X128889452Y-88008912D01*
X128529151Y-88672882D01*
X128305306Y-89394385D01*
X128226520Y-90145695D01*
X116967000Y-90145695D01*
X116967000Y-88778363D01*
X118145000Y-88778363D01*
X118145000Y-89021637D01*
X118192460Y-89260236D01*
X118285557Y-89484992D01*
X118420713Y-89687267D01*
X118592733Y-89859287D01*
X118795008Y-89994443D01*
X119019764Y-90087540D01*
X119258363Y-90135000D01*
X119501637Y-90135000D01*
X119740236Y-90087540D01*
X119964992Y-89994443D01*
X120167267Y-89859287D01*
X120339287Y-89687267D01*
X120474443Y-89484992D01*
X120567540Y-89260236D01*
X120615000Y-89021637D01*
X120615000Y-88778363D01*
X120567540Y-88539764D01*
X120474443Y-88315008D01*
X120339287Y-88112733D01*
X120167267Y-87940713D01*
X119964992Y-87805557D01*
X119740236Y-87712460D01*
X119501637Y-87665000D01*
X119258363Y-87665000D01*
X119019764Y-87712460D01*
X118795008Y-87805557D01*
X118592733Y-87940713D01*
X118420713Y-88112733D01*
X118285557Y-88315008D01*
X118192460Y-88539764D01*
X118145000Y-88778363D01*
X116967000Y-88778363D01*
X116967000Y-87209764D01*
X118709841Y-87209764D01*
X118757148Y-87433348D01*
X118978516Y-87534237D01*
X119215313Y-87590000D01*
X119458438Y-87598495D01*
X119698549Y-87559395D01*
X119926418Y-87474202D01*
X119935927Y-87469119D01*
X129558724Y-87469119D01*
X132080000Y-89990395D01*
X134601276Y-87469119D01*
X134241088Y-86979452D01*
X133577118Y-86619151D01*
X132855615Y-86395306D01*
X132104305Y-86316520D01*
X131352062Y-86385822D01*
X130627792Y-86600548D01*
X129959330Y-86952445D01*
X129918912Y-86979452D01*
X129558724Y-87469119D01*
X119935927Y-87469119D01*
X120002852Y-87433348D01*
X120050159Y-87209764D01*
X119380000Y-86539605D01*
X118709841Y-87209764D01*
X116967000Y-87209764D01*
X116967000Y-86438438D01*
X118141505Y-86438438D01*
X118180605Y-86678549D01*
X118265798Y-86906418D01*
X118306652Y-86982852D01*
X118530236Y-87030159D01*
X119200395Y-86360000D01*
X119559605Y-86360000D01*
X120229764Y-87030159D01*
X120453348Y-86982852D01*
X120554237Y-86761484D01*
X120610000Y-86524687D01*
X120618495Y-86281562D01*
X120579395Y-86041451D01*
X120494202Y-85813582D01*
X120453348Y-85737148D01*
X120229764Y-85689841D01*
X119559605Y-86360000D01*
X119200395Y-86360000D01*
X118530236Y-85689841D01*
X118306652Y-85737148D01*
X118205763Y-85958516D01*
X118150000Y-86195313D01*
X118141505Y-86438438D01*
X116967000Y-86438438D01*
X116967000Y-85510236D01*
X118709841Y-85510236D01*
X119380000Y-86180395D01*
X120050159Y-85510236D01*
X120050110Y-85510000D01*
X167421928Y-85510000D01*
X167425000Y-86074250D01*
X167583750Y-86233000D01*
X168783000Y-86233000D01*
X168783000Y-85033750D01*
X169037000Y-85033750D01*
X169037000Y-86233000D01*
X170236250Y-86233000D01*
X170395000Y-86074250D01*
X170398072Y-85510000D01*
X170385812Y-85385518D01*
X170349502Y-85265820D01*
X170290537Y-85155506D01*
X170211185Y-85058815D01*
X170114494Y-84979463D01*
X170004180Y-84920498D01*
X169884482Y-84884188D01*
X169760000Y-84871928D01*
X169195750Y-84875000D01*
X169037000Y-85033750D01*
X168783000Y-85033750D01*
X168624250Y-84875000D01*
X168060000Y-84871928D01*
X167935518Y-84884188D01*
X167815820Y-84920498D01*
X167705506Y-84979463D01*
X167608815Y-85058815D01*
X167529463Y-85155506D01*
X167470498Y-85265820D01*
X167434188Y-85385518D01*
X167421928Y-85510000D01*
X120050110Y-85510000D01*
X120002852Y-85286652D01*
X119781484Y-85185763D01*
X119544687Y-85130000D01*
X119301562Y-85121505D01*
X119061451Y-85160605D01*
X118833582Y-85245798D01*
X118757148Y-85286652D01*
X118709841Y-85510236D01*
X116967000Y-85510236D01*
X116967000Y-84480000D01*
X180089069Y-84480000D01*
X191110001Y-94276384D01*
G37*
%TD.AperFunction*%
D25*
X135972460Y-108859764D02*
X135925000Y-109098363D01*
X135925000Y-109341637D01*
X135972460Y-109580236D01*
X136065557Y-109804992D01*
X136200713Y-110007267D01*
X136372733Y-110179287D01*
X136575008Y-110314443D01*
X136799764Y-110407540D01*
X137038363Y-110455000D01*
X137281637Y-110455000D01*
X137520236Y-110407540D01*
X137744992Y-110314443D01*
X137947267Y-110179287D01*
X138056790Y-110069764D01*
X139029841Y-110069764D01*
X139077148Y-110293348D01*
X139298516Y-110394237D01*
X139535313Y-110450000D01*
X139778438Y-110458495D01*
X140018549Y-110419395D01*
X140246418Y-110334202D01*
X140322852Y-110293348D01*
X140370159Y-110069764D01*
X139700000Y-109399605D01*
X139029841Y-110069764D01*
X138056790Y-110069764D01*
X138119287Y-110007267D01*
X138254443Y-109804992D01*
X138347540Y-109580236D01*
X138395000Y-109341637D01*
X138395000Y-109098363D01*
X138347540Y-108859764D01*
X138285506Y-108710000D01*
X138575219Y-108710000D01*
X138525763Y-108818516D01*
X138470000Y-109055313D01*
X138461505Y-109298438D01*
X138500605Y-109538549D01*
X138585798Y-109766418D01*
X138626652Y-109842852D01*
X138850236Y-109890159D01*
X139520395Y-109220000D01*
X139506253Y-109205858D01*
X139685858Y-109026253D01*
X139700000Y-109040395D01*
X139714143Y-109026253D01*
X139893748Y-109205858D01*
X139879605Y-109220000D01*
X140549764Y-109890159D01*
X140773348Y-109842852D01*
X140874237Y-109621484D01*
X140930000Y-109384687D01*
X140938495Y-109141562D01*
X140909655Y-108964456D01*
X141011398Y-109066199D01*
X141005000Y-109098363D01*
X141005000Y-109341637D01*
X141052460Y-109580236D01*
X141145557Y-109804992D01*
X141280713Y-110007267D01*
X141452733Y-110179287D01*
X141655008Y-110314443D01*
X141879764Y-110407540D01*
X142118363Y-110455000D01*
X142361637Y-110455000D01*
X142497154Y-110428044D01*
X141925199Y-111000000D01*
X133387325Y-111000000D01*
X133350000Y-110996324D01*
X133312675Y-111000000D01*
X133312667Y-111000000D01*
X133201014Y-111010997D01*
X133057753Y-111054454D01*
X132925724Y-111125026D01*
X132809999Y-111219999D01*
X132786202Y-111248996D01*
X129225199Y-114810000D01*
X126433711Y-114810000D01*
X126389774Y-114766063D01*
X126220256Y-114652795D01*
X126031898Y-114574774D01*
X125831939Y-114535000D01*
X125628061Y-114535000D01*
X125428102Y-114574774D01*
X125239744Y-114652795D01*
X125070226Y-114766063D01*
X125026289Y-114810000D01*
X123340901Y-114810000D01*
X123318932Y-114768899D01*
X123139608Y-114550392D01*
X122921101Y-114371068D01*
X122788142Y-114300000D01*
X122921101Y-114228932D01*
X123139608Y-114049608D01*
X123318932Y-113831101D01*
X123340901Y-113790000D01*
X126962667Y-113790000D01*
X127000000Y-113793677D01*
X127037333Y-113790000D01*
X127148986Y-113779003D01*
X127292247Y-113735546D01*
X127424276Y-113664974D01*
X127540001Y-113570001D01*
X127634974Y-113454276D01*
X127705546Y-113322247D01*
X127749003Y-113178986D01*
X127763677Y-113030000D01*
X127760000Y-112992667D01*
X127760000Y-108710000D01*
X136034494Y-108710000D01*
X135972460Y-108859764D01*
%TA.AperFunction,Conductor*%
D26*
G36*
X135972460Y-108859764D02*
G01*
X135925000Y-109098363D01*
X135925000Y-109341637D01*
X135972460Y-109580236D01*
X136065557Y-109804992D01*
X136200713Y-110007267D01*
X136372733Y-110179287D01*
X136575008Y-110314443D01*
X136799764Y-110407540D01*
X137038363Y-110455000D01*
X137281637Y-110455000D01*
X137520236Y-110407540D01*
X137744992Y-110314443D01*
X137947267Y-110179287D01*
X138056790Y-110069764D01*
X139029841Y-110069764D01*
X139077148Y-110293348D01*
X139298516Y-110394237D01*
X139535313Y-110450000D01*
X139778438Y-110458495D01*
X140018549Y-110419395D01*
X140246418Y-110334202D01*
X140322852Y-110293348D01*
X140370159Y-110069764D01*
X139700000Y-109399605D01*
X139029841Y-110069764D01*
X138056790Y-110069764D01*
X138119287Y-110007267D01*
X138254443Y-109804992D01*
X138347540Y-109580236D01*
X138395000Y-109341637D01*
X138395000Y-109098363D01*
X138347540Y-108859764D01*
X138285506Y-108710000D01*
X138575219Y-108710000D01*
X138525763Y-108818516D01*
X138470000Y-109055313D01*
X138461505Y-109298438D01*
X138500605Y-109538549D01*
X138585798Y-109766418D01*
X138626652Y-109842852D01*
X138850236Y-109890159D01*
X139520395Y-109220000D01*
X139506253Y-109205858D01*
X139685858Y-109026253D01*
X139700000Y-109040395D01*
X139714143Y-109026253D01*
X139893748Y-109205858D01*
X139879605Y-109220000D01*
X140549764Y-109890159D01*
X140773348Y-109842852D01*
X140874237Y-109621484D01*
X140930000Y-109384687D01*
X140938495Y-109141562D01*
X140909655Y-108964456D01*
X141011398Y-109066199D01*
X141005000Y-109098363D01*
X141005000Y-109341637D01*
X141052460Y-109580236D01*
X141145557Y-109804992D01*
X141280713Y-110007267D01*
X141452733Y-110179287D01*
X141655008Y-110314443D01*
X141879764Y-110407540D01*
X142118363Y-110455000D01*
X142361637Y-110455000D01*
X142497154Y-110428044D01*
X141925199Y-111000000D01*
X133387325Y-111000000D01*
X133350000Y-110996324D01*
X133312675Y-111000000D01*
X133312667Y-111000000D01*
X133201014Y-111010997D01*
X133057753Y-111054454D01*
X132925724Y-111125026D01*
X132809999Y-111219999D01*
X132786202Y-111248996D01*
X129225199Y-114810000D01*
X126433711Y-114810000D01*
X126389774Y-114766063D01*
X126220256Y-114652795D01*
X126031898Y-114574774D01*
X125831939Y-114535000D01*
X125628061Y-114535000D01*
X125428102Y-114574774D01*
X125239744Y-114652795D01*
X125070226Y-114766063D01*
X125026289Y-114810000D01*
X123340901Y-114810000D01*
X123318932Y-114768899D01*
X123139608Y-114550392D01*
X122921101Y-114371068D01*
X122788142Y-114300000D01*
X122921101Y-114228932D01*
X123139608Y-114049608D01*
X123318932Y-113831101D01*
X123340901Y-113790000D01*
X126962667Y-113790000D01*
X127000000Y-113793677D01*
X127037333Y-113790000D01*
X127148986Y-113779003D01*
X127292247Y-113735546D01*
X127424276Y-113664974D01*
X127540001Y-113570001D01*
X127634974Y-113454276D01*
X127705546Y-113322247D01*
X127749003Y-113178986D01*
X127763677Y-113030000D01*
X127760000Y-112992667D01*
X127760000Y-108710000D01*
X136034494Y-108710000D01*
X135972460Y-108859764D01*
G37*
%TD.AperFunction*%
%TD*%
M02*
