%TF.GenerationSoftware,KiCad,Pcbnew,(5.1.8)-1*%
%TF.CreationDate,2020-12-23T12:42:43+01:00*%
%TF.ProjectId,Kiwi_EasyBoardv1.0,4b697769-5f45-4617-9379-426f61726476,rev?*%
%TF.SameCoordinates,Original*%
%TF.FileFunction,Legend,Bot*%
%TF.FilePolarity,Positive*%
%FSLAX46Y46*%
G04 Gerber Fmt 4.6, Leading zero omitted, Abs format (unit mm)*
G04 Created by KiCad (PCBNEW (5.1.8)-1) date 2020-12-23 12:42:43*
%MOMM*%
%LPD*%
G01*
G04 APERTURE LIST*
%TA.AperFunction,Profile*%
%ADD10C,0.050000*%
%TD*%
%ADD11C,0.010000*%
%ADD12C,0.127000*%
%ADD13C,0.120000*%
G04 APERTURE END LIST*
D10*
X76200000Y-86360000D02*
X76200000Y-100330000D01*
X180340000Y-83820000D02*
X78740000Y-83820000D01*
X76200000Y-86360000D02*
X78740000Y-83820000D01*
X154940000Y-116840000D02*
X179070000Y-116840000D01*
X144780000Y-116840000D02*
X152400000Y-116840000D01*
X152400000Y-116840000D02*
G75*
G02*
X154940000Y-116840000I1270000J0D01*
G01*
X76200000Y-102870000D02*
X76200000Y-107950000D01*
X76200000Y-100330000D02*
G75*
G02*
X76200000Y-102870000I0J-1270000D01*
G01*
X105410000Y-128270000D02*
X115570000Y-128270000D01*
X81079773Y-119452036D02*
X87630000Y-127000000D01*
X81079773Y-119452036D02*
X76200000Y-107950000D01*
X182880000Y-127000000D02*
X191770000Y-127000000D01*
X135890000Y-116840000D02*
X144780000Y-116840000D01*
X125730000Y-132080000D02*
X135890000Y-128270000D01*
X135890000Y-116840000D02*
X135890000Y-128270000D01*
X95250000Y-130810000D02*
X87630000Y-127000000D01*
X185420000Y-95250000D02*
X163830000Y-95250000D01*
X186690000Y-109220000D02*
X186690000Y-96520000D01*
X163830000Y-110490000D02*
X185420000Y-110490000D01*
X162560000Y-96520000D02*
X162560000Y-109220000D01*
X186690000Y-109220000D02*
G75*
G02*
X185420000Y-110490000I-1270000J0D01*
G01*
X163830000Y-110490000D02*
G75*
G02*
X162560000Y-109220000I0J1270000D01*
G01*
X162560000Y-96520000D02*
G75*
G02*
X163830000Y-95250000I1270000J0D01*
G01*
X185420000Y-95250000D02*
G75*
G02*
X186690000Y-96520000I0J-1270000D01*
G01*
X179070000Y-116840000D02*
X179070000Y-118110000D01*
X191770000Y-93980000D02*
X180340000Y-83820000D01*
X191770000Y-127000000D02*
X191770000Y-93980000D01*
X179070000Y-121920000D02*
X182880000Y-127000000D01*
X179070000Y-118110000D02*
X179070000Y-121920000D01*
X115570000Y-128270000D02*
X115570000Y-134620000D01*
X125730000Y-134620000D02*
X125730000Y-132080000D01*
X95250000Y-134620000D02*
X95250000Y-130810000D01*
X115570000Y-134620000D02*
X125730000Y-134620000D01*
X105410000Y-134620000D02*
X95250000Y-134620000D01*
X105410000Y-128270000D02*
X105410000Y-134620000D01*
X143510000Y-93980000D02*
X151130000Y-93980000D01*
X143510000Y-86360000D02*
X151130000Y-86360000D01*
X143510000Y-93980000D02*
G75*
G02*
X143510000Y-86360000I0J3810000D01*
G01*
X151130000Y-86360000D02*
G75*
G02*
X151130000Y-93980000I0J-3810000D01*
G01*
D11*
%TO.C,REF\u002A\u002A*%
G36*
X91189911Y-98588340D02*
G01*
X91539460Y-98588293D01*
X91702170Y-98588286D01*
X94306571Y-98588285D01*
X94306571Y-98434762D01*
X94322957Y-98247937D01*
X94372412Y-98075633D01*
X94455380Y-97916825D01*
X94572305Y-97770490D01*
X94611864Y-97730968D01*
X94754170Y-97618862D01*
X94911078Y-97537101D01*
X95077928Y-97485647D01*
X95250061Y-97464463D01*
X95422815Y-97473513D01*
X95591530Y-97512758D01*
X95751546Y-97582162D01*
X95898202Y-97681689D01*
X95964068Y-97741735D01*
X96086808Y-97888957D01*
X96176812Y-98050853D01*
X96233294Y-98225573D01*
X96255471Y-98411265D01*
X96255766Y-98429533D01*
X96256928Y-98588280D01*
X96326700Y-98588283D01*
X96388595Y-98579882D01*
X96445135Y-98559444D01*
X96448872Y-98557333D01*
X96461642Y-98550707D01*
X96473368Y-98545546D01*
X96484094Y-98540349D01*
X96493861Y-98533610D01*
X96502712Y-98523829D01*
X96510689Y-98509500D01*
X96517835Y-98489122D01*
X96524192Y-98461192D01*
X96529802Y-98424205D01*
X96534707Y-98376660D01*
X96538951Y-98317053D01*
X96542576Y-98243881D01*
X96545623Y-98155641D01*
X96548136Y-98050830D01*
X96550156Y-97927945D01*
X96551726Y-97785483D01*
X96552888Y-97621940D01*
X96553686Y-97435814D01*
X96554160Y-97225602D01*
X96554354Y-96989800D01*
X96554310Y-96726906D01*
X96554070Y-96435416D01*
X96553677Y-96113828D01*
X96553173Y-95760638D01*
X96552600Y-95374343D01*
X96552001Y-94953440D01*
X96551932Y-94902160D01*
X96551395Y-94478574D01*
X96550939Y-94089770D01*
X96550516Y-93734247D01*
X96550079Y-93410502D01*
X96549578Y-93117034D01*
X96548965Y-92852339D01*
X96548192Y-92614915D01*
X96547211Y-92403260D01*
X96545974Y-92215871D01*
X96544432Y-92051246D01*
X96542537Y-91907883D01*
X96540241Y-91784280D01*
X96537496Y-91678933D01*
X96534253Y-91590341D01*
X96530464Y-91517000D01*
X96526081Y-91457410D01*
X96521055Y-91410067D01*
X96515339Y-91373469D01*
X96508884Y-91346114D01*
X96501641Y-91326498D01*
X96493563Y-91313121D01*
X96484602Y-91304479D01*
X96474708Y-91299070D01*
X96463835Y-91295392D01*
X96451933Y-91291942D01*
X96438954Y-91287218D01*
X96435783Y-91285780D01*
X96425819Y-91282549D01*
X96409141Y-91279580D01*
X96384293Y-91276863D01*
X96349820Y-91274387D01*
X96304264Y-91272142D01*
X96246170Y-91270117D01*
X96174081Y-91268302D01*
X96086542Y-91266685D01*
X95982095Y-91265257D01*
X95859285Y-91264007D01*
X95716655Y-91262924D01*
X95552749Y-91261998D01*
X95366110Y-91261218D01*
X95155284Y-91260574D01*
X94918812Y-91260054D01*
X94655239Y-91259649D01*
X94363110Y-91259348D01*
X94040966Y-91259140D01*
X93687353Y-91259015D01*
X93300814Y-91258962D01*
X92879892Y-91258971D01*
X92743544Y-91258984D01*
X92313284Y-91259053D01*
X91917836Y-91259166D01*
X91555727Y-91259335D01*
X91225483Y-91259570D01*
X90925629Y-91259884D01*
X90654692Y-91260287D01*
X90411200Y-91260793D01*
X90193677Y-91261411D01*
X90000650Y-91262154D01*
X89830646Y-91263032D01*
X89682190Y-91264059D01*
X89553810Y-91265244D01*
X89444031Y-91266600D01*
X89351380Y-91268138D01*
X89274383Y-91269870D01*
X89211566Y-91271806D01*
X89161456Y-91273960D01*
X89122579Y-91276341D01*
X89093462Y-91278963D01*
X89072629Y-91281835D01*
X89058609Y-91284970D01*
X89050966Y-91287841D01*
X89037382Y-91293570D01*
X89024910Y-91297794D01*
X89013502Y-91302015D01*
X89003111Y-91307732D01*
X88993691Y-91316445D01*
X88985192Y-91329655D01*
X88977570Y-91348863D01*
X88970775Y-91375567D01*
X88964762Y-91411270D01*
X88959483Y-91457470D01*
X88954890Y-91515668D01*
X88950936Y-91587365D01*
X88947575Y-91674060D01*
X88944759Y-91777254D01*
X88942440Y-91898447D01*
X88940572Y-92039140D01*
X88940084Y-92093143D01*
X89424296Y-92093143D01*
X91135744Y-92093143D01*
X91102813Y-92143036D01*
X91070053Y-92194307D01*
X91042311Y-92243131D01*
X91019193Y-92292924D01*
X91000303Y-92347102D01*
X90985249Y-92409084D01*
X90973633Y-92482285D01*
X90965064Y-92570122D01*
X90959144Y-92676012D01*
X90955481Y-92803372D01*
X90953679Y-92955619D01*
X90953344Y-93136168D01*
X90954081Y-93348438D01*
X90954499Y-93427245D01*
X90959214Y-94272089D01*
X91494428Y-93543443D01*
X91646054Y-93336735D01*
X91777419Y-93156740D01*
X91889943Y-93001075D01*
X91985043Y-92867353D01*
X92064138Y-92753191D01*
X92128647Y-92656203D01*
X92179988Y-92574006D01*
X92219580Y-92504214D01*
X92248840Y-92444442D01*
X92269188Y-92392307D01*
X92282042Y-92345424D01*
X92288819Y-92301407D01*
X92290940Y-92257873D01*
X92289821Y-92212436D01*
X92289536Y-92206725D01*
X92283643Y-92093067D01*
X94159229Y-92093143D01*
X94019722Y-92233811D01*
X93981865Y-92272285D01*
X93945953Y-92309721D01*
X93910407Y-92348186D01*
X93873653Y-92389742D01*
X93834114Y-92436455D01*
X93790214Y-92490390D01*
X93740377Y-92553610D01*
X93683028Y-92628182D01*
X93616589Y-92716168D01*
X93539485Y-92819635D01*
X93450139Y-92940646D01*
X93346976Y-93081266D01*
X93228420Y-93243560D01*
X93092895Y-93429593D01*
X92938823Y-93641429D01*
X92812538Y-93815196D01*
X92654046Y-94033499D01*
X92515784Y-94224371D01*
X92396501Y-94389626D01*
X92294943Y-94531074D01*
X92209859Y-94650529D01*
X92139995Y-94749802D01*
X92084100Y-94830705D01*
X92040920Y-94895051D01*
X92009203Y-94944653D01*
X91987698Y-94981321D01*
X91975150Y-95006868D01*
X91970308Y-95023107D01*
X91971763Y-95031645D01*
X91989401Y-95054365D01*
X92027534Y-95102457D01*
X92083862Y-95173062D01*
X92156084Y-95263322D01*
X92241899Y-95370379D01*
X92339006Y-95491373D01*
X92445104Y-95623446D01*
X92557891Y-95763740D01*
X92675068Y-95909397D01*
X92794333Y-96057556D01*
X92859933Y-96139000D01*
X94488686Y-96139000D01*
X94556379Y-96016535D01*
X94624071Y-95894071D01*
X94624071Y-92338071D01*
X94556379Y-92215607D01*
X94488686Y-92093143D01*
X95289441Y-92093143D01*
X95480602Y-92093198D01*
X95638499Y-92093449D01*
X95766152Y-92094021D01*
X95866581Y-92095041D01*
X95942807Y-92096635D01*
X95997852Y-92098930D01*
X96034736Y-92102050D01*
X96056479Y-92106123D01*
X96066102Y-92111275D01*
X96066627Y-92117633D01*
X96061074Y-92125321D01*
X96061016Y-92125385D01*
X96038140Y-92158476D01*
X96007849Y-92212281D01*
X95981097Y-92265992D01*
X95930357Y-92374357D01*
X95925182Y-94256678D01*
X95920007Y-96139000D01*
X94488686Y-96139000D01*
X92859933Y-96139000D01*
X92913385Y-96205361D01*
X93029923Y-96349953D01*
X93141646Y-96488472D01*
X93246254Y-96618061D01*
X93341444Y-96735860D01*
X93424917Y-96839012D01*
X93494371Y-96924657D01*
X93547506Y-96989938D01*
X93578715Y-97028000D01*
X93699903Y-97170330D01*
X93816493Y-97298770D01*
X93924397Y-97409114D01*
X94019530Y-97497159D01*
X94087043Y-97551138D01*
X94166873Y-97608571D01*
X92330892Y-97608571D01*
X92331408Y-97500835D01*
X92326276Y-97421628D01*
X92306985Y-97348195D01*
X92277123Y-97278585D01*
X92257712Y-97239259D01*
X92236841Y-97200293D01*
X92212604Y-97159099D01*
X92183094Y-97113092D01*
X92146406Y-97059683D01*
X92100632Y-96996286D01*
X92043865Y-96920315D01*
X91974200Y-96829183D01*
X91889730Y-96720302D01*
X91788547Y-96591086D01*
X91668747Y-96438948D01*
X91528421Y-96261302D01*
X91512571Y-96241258D01*
X90959214Y-95541492D01*
X90953857Y-96316496D01*
X90952779Y-96548632D01*
X90953008Y-96745154D01*
X90954557Y-96906708D01*
X90957437Y-97033944D01*
X90961659Y-97127508D01*
X90967234Y-97188048D01*
X90969107Y-97199532D01*
X90998505Y-97320501D01*
X91037022Y-97429554D01*
X91080974Y-97517237D01*
X91107379Y-97554426D01*
X91152940Y-97608571D01*
X90288470Y-97608571D01*
X90082255Y-97608395D01*
X89909812Y-97607821D01*
X89768627Y-97606783D01*
X89656188Y-97605213D01*
X89569983Y-97603046D01*
X89507498Y-97600212D01*
X89466221Y-97596647D01*
X89443640Y-97592282D01*
X89437241Y-97587051D01*
X89437683Y-97585893D01*
X89456009Y-97558231D01*
X89486604Y-97514385D01*
X89502433Y-97492209D01*
X89518798Y-97470080D01*
X89533508Y-97450291D01*
X89546656Y-97430894D01*
X89558333Y-97409942D01*
X89568632Y-97385488D01*
X89577646Y-97355584D01*
X89585468Y-97318283D01*
X89592191Y-97271637D01*
X89597906Y-97213699D01*
X89602707Y-97142521D01*
X89606685Y-97056156D01*
X89609935Y-96952656D01*
X89612548Y-96830075D01*
X89614617Y-96686463D01*
X89616234Y-96519875D01*
X89617493Y-96328363D01*
X89618485Y-96109978D01*
X89619304Y-95862774D01*
X89620042Y-95584804D01*
X89620791Y-95274119D01*
X89621492Y-94988700D01*
X89622153Y-94670508D01*
X89622497Y-94366923D01*
X89622532Y-94079885D01*
X89622268Y-93811331D01*
X89621715Y-93563202D01*
X89620880Y-93337437D01*
X89619773Y-93135974D01*
X89618404Y-92960754D01*
X89616781Y-92813714D01*
X89614913Y-92696794D01*
X89612811Y-92611933D01*
X89610482Y-92561071D01*
X89610041Y-92555696D01*
X89593992Y-92432387D01*
X89568936Y-92333356D01*
X89530779Y-92246930D01*
X89475428Y-92161435D01*
X89468504Y-92152107D01*
X89424296Y-92093143D01*
X88940084Y-92093143D01*
X88939108Y-92200832D01*
X88937999Y-92385024D01*
X88937199Y-92593216D01*
X88936661Y-92826909D01*
X88936338Y-93087602D01*
X88936183Y-93376796D01*
X88936146Y-93695991D01*
X88936183Y-94046687D01*
X88936245Y-94430386D01*
X88936285Y-94848586D01*
X88936286Y-94931607D01*
X88936309Y-95354211D01*
X88936388Y-95742019D01*
X88936533Y-96096520D01*
X88936756Y-96419203D01*
X88937069Y-96711558D01*
X88937483Y-96975073D01*
X88938009Y-97211238D01*
X88938660Y-97421542D01*
X88939447Y-97607474D01*
X88940381Y-97770525D01*
X88941474Y-97912182D01*
X88942737Y-98033936D01*
X88944183Y-98137275D01*
X88945821Y-98223689D01*
X88947666Y-98294667D01*
X88949726Y-98351699D01*
X88952015Y-98396273D01*
X88954544Y-98429879D01*
X88957324Y-98454007D01*
X88960367Y-98470144D01*
X88963684Y-98479782D01*
X88963807Y-98480022D01*
X88970640Y-98494745D01*
X88976330Y-98508074D01*
X88982626Y-98520078D01*
X88991272Y-98530827D01*
X89004014Y-98540389D01*
X89022600Y-98548833D01*
X89048774Y-98556229D01*
X89084284Y-98562646D01*
X89130875Y-98568152D01*
X89190293Y-98572817D01*
X89264285Y-98576709D01*
X89354597Y-98579898D01*
X89462975Y-98582453D01*
X89591165Y-98584442D01*
X89740913Y-98585935D01*
X89913966Y-98587002D01*
X90112069Y-98587709D01*
X90336969Y-98588128D01*
X90590412Y-98588327D01*
X90874144Y-98588374D01*
X91189911Y-98588340D01*
G37*
X91189911Y-98588340D02*
X91539460Y-98588293D01*
X91702170Y-98588286D01*
X94306571Y-98588285D01*
X94306571Y-98434762D01*
X94322957Y-98247937D01*
X94372412Y-98075633D01*
X94455380Y-97916825D01*
X94572305Y-97770490D01*
X94611864Y-97730968D01*
X94754170Y-97618862D01*
X94911078Y-97537101D01*
X95077928Y-97485647D01*
X95250061Y-97464463D01*
X95422815Y-97473513D01*
X95591530Y-97512758D01*
X95751546Y-97582162D01*
X95898202Y-97681689D01*
X95964068Y-97741735D01*
X96086808Y-97888957D01*
X96176812Y-98050853D01*
X96233294Y-98225573D01*
X96255471Y-98411265D01*
X96255766Y-98429533D01*
X96256928Y-98588280D01*
X96326700Y-98588283D01*
X96388595Y-98579882D01*
X96445135Y-98559444D01*
X96448872Y-98557333D01*
X96461642Y-98550707D01*
X96473368Y-98545546D01*
X96484094Y-98540349D01*
X96493861Y-98533610D01*
X96502712Y-98523829D01*
X96510689Y-98509500D01*
X96517835Y-98489122D01*
X96524192Y-98461192D01*
X96529802Y-98424205D01*
X96534707Y-98376660D01*
X96538951Y-98317053D01*
X96542576Y-98243881D01*
X96545623Y-98155641D01*
X96548136Y-98050830D01*
X96550156Y-97927945D01*
X96551726Y-97785483D01*
X96552888Y-97621940D01*
X96553686Y-97435814D01*
X96554160Y-97225602D01*
X96554354Y-96989800D01*
X96554310Y-96726906D01*
X96554070Y-96435416D01*
X96553677Y-96113828D01*
X96553173Y-95760638D01*
X96552600Y-95374343D01*
X96552001Y-94953440D01*
X96551932Y-94902160D01*
X96551395Y-94478574D01*
X96550939Y-94089770D01*
X96550516Y-93734247D01*
X96550079Y-93410502D01*
X96549578Y-93117034D01*
X96548965Y-92852339D01*
X96548192Y-92614915D01*
X96547211Y-92403260D01*
X96545974Y-92215871D01*
X96544432Y-92051246D01*
X96542537Y-91907883D01*
X96540241Y-91784280D01*
X96537496Y-91678933D01*
X96534253Y-91590341D01*
X96530464Y-91517000D01*
X96526081Y-91457410D01*
X96521055Y-91410067D01*
X96515339Y-91373469D01*
X96508884Y-91346114D01*
X96501641Y-91326498D01*
X96493563Y-91313121D01*
X96484602Y-91304479D01*
X96474708Y-91299070D01*
X96463835Y-91295392D01*
X96451933Y-91291942D01*
X96438954Y-91287218D01*
X96435783Y-91285780D01*
X96425819Y-91282549D01*
X96409141Y-91279580D01*
X96384293Y-91276863D01*
X96349820Y-91274387D01*
X96304264Y-91272142D01*
X96246170Y-91270117D01*
X96174081Y-91268302D01*
X96086542Y-91266685D01*
X95982095Y-91265257D01*
X95859285Y-91264007D01*
X95716655Y-91262924D01*
X95552749Y-91261998D01*
X95366110Y-91261218D01*
X95155284Y-91260574D01*
X94918812Y-91260054D01*
X94655239Y-91259649D01*
X94363110Y-91259348D01*
X94040966Y-91259140D01*
X93687353Y-91259015D01*
X93300814Y-91258962D01*
X92879892Y-91258971D01*
X92743544Y-91258984D01*
X92313284Y-91259053D01*
X91917836Y-91259166D01*
X91555727Y-91259335D01*
X91225483Y-91259570D01*
X90925629Y-91259884D01*
X90654692Y-91260287D01*
X90411200Y-91260793D01*
X90193677Y-91261411D01*
X90000650Y-91262154D01*
X89830646Y-91263032D01*
X89682190Y-91264059D01*
X89553810Y-91265244D01*
X89444031Y-91266600D01*
X89351380Y-91268138D01*
X89274383Y-91269870D01*
X89211566Y-91271806D01*
X89161456Y-91273960D01*
X89122579Y-91276341D01*
X89093462Y-91278963D01*
X89072629Y-91281835D01*
X89058609Y-91284970D01*
X89050966Y-91287841D01*
X89037382Y-91293570D01*
X89024910Y-91297794D01*
X89013502Y-91302015D01*
X89003111Y-91307732D01*
X88993691Y-91316445D01*
X88985192Y-91329655D01*
X88977570Y-91348863D01*
X88970775Y-91375567D01*
X88964762Y-91411270D01*
X88959483Y-91457470D01*
X88954890Y-91515668D01*
X88950936Y-91587365D01*
X88947575Y-91674060D01*
X88944759Y-91777254D01*
X88942440Y-91898447D01*
X88940572Y-92039140D01*
X88940084Y-92093143D01*
X89424296Y-92093143D01*
X91135744Y-92093143D01*
X91102813Y-92143036D01*
X91070053Y-92194307D01*
X91042311Y-92243131D01*
X91019193Y-92292924D01*
X91000303Y-92347102D01*
X90985249Y-92409084D01*
X90973633Y-92482285D01*
X90965064Y-92570122D01*
X90959144Y-92676012D01*
X90955481Y-92803372D01*
X90953679Y-92955619D01*
X90953344Y-93136168D01*
X90954081Y-93348438D01*
X90954499Y-93427245D01*
X90959214Y-94272089D01*
X91494428Y-93543443D01*
X91646054Y-93336735D01*
X91777419Y-93156740D01*
X91889943Y-93001075D01*
X91985043Y-92867353D01*
X92064138Y-92753191D01*
X92128647Y-92656203D01*
X92179988Y-92574006D01*
X92219580Y-92504214D01*
X92248840Y-92444442D01*
X92269188Y-92392307D01*
X92282042Y-92345424D01*
X92288819Y-92301407D01*
X92290940Y-92257873D01*
X92289821Y-92212436D01*
X92289536Y-92206725D01*
X92283643Y-92093067D01*
X94159229Y-92093143D01*
X94019722Y-92233811D01*
X93981865Y-92272285D01*
X93945953Y-92309721D01*
X93910407Y-92348186D01*
X93873653Y-92389742D01*
X93834114Y-92436455D01*
X93790214Y-92490390D01*
X93740377Y-92553610D01*
X93683028Y-92628182D01*
X93616589Y-92716168D01*
X93539485Y-92819635D01*
X93450139Y-92940646D01*
X93346976Y-93081266D01*
X93228420Y-93243560D01*
X93092895Y-93429593D01*
X92938823Y-93641429D01*
X92812538Y-93815196D01*
X92654046Y-94033499D01*
X92515784Y-94224371D01*
X92396501Y-94389626D01*
X92294943Y-94531074D01*
X92209859Y-94650529D01*
X92139995Y-94749802D01*
X92084100Y-94830705D01*
X92040920Y-94895051D01*
X92009203Y-94944653D01*
X91987698Y-94981321D01*
X91975150Y-95006868D01*
X91970308Y-95023107D01*
X91971763Y-95031645D01*
X91989401Y-95054365D01*
X92027534Y-95102457D01*
X92083862Y-95173062D01*
X92156084Y-95263322D01*
X92241899Y-95370379D01*
X92339006Y-95491373D01*
X92445104Y-95623446D01*
X92557891Y-95763740D01*
X92675068Y-95909397D01*
X92794333Y-96057556D01*
X92859933Y-96139000D01*
X94488686Y-96139000D01*
X94556379Y-96016535D01*
X94624071Y-95894071D01*
X94624071Y-92338071D01*
X94556379Y-92215607D01*
X94488686Y-92093143D01*
X95289441Y-92093143D01*
X95480602Y-92093198D01*
X95638499Y-92093449D01*
X95766152Y-92094021D01*
X95866581Y-92095041D01*
X95942807Y-92096635D01*
X95997852Y-92098930D01*
X96034736Y-92102050D01*
X96056479Y-92106123D01*
X96066102Y-92111275D01*
X96066627Y-92117633D01*
X96061074Y-92125321D01*
X96061016Y-92125385D01*
X96038140Y-92158476D01*
X96007849Y-92212281D01*
X95981097Y-92265992D01*
X95930357Y-92374357D01*
X95925182Y-94256678D01*
X95920007Y-96139000D01*
X94488686Y-96139000D01*
X92859933Y-96139000D01*
X92913385Y-96205361D01*
X93029923Y-96349953D01*
X93141646Y-96488472D01*
X93246254Y-96618061D01*
X93341444Y-96735860D01*
X93424917Y-96839012D01*
X93494371Y-96924657D01*
X93547506Y-96989938D01*
X93578715Y-97028000D01*
X93699903Y-97170330D01*
X93816493Y-97298770D01*
X93924397Y-97409114D01*
X94019530Y-97497159D01*
X94087043Y-97551138D01*
X94166873Y-97608571D01*
X92330892Y-97608571D01*
X92331408Y-97500835D01*
X92326276Y-97421628D01*
X92306985Y-97348195D01*
X92277123Y-97278585D01*
X92257712Y-97239259D01*
X92236841Y-97200293D01*
X92212604Y-97159099D01*
X92183094Y-97113092D01*
X92146406Y-97059683D01*
X92100632Y-96996286D01*
X92043865Y-96920315D01*
X91974200Y-96829183D01*
X91889730Y-96720302D01*
X91788547Y-96591086D01*
X91668747Y-96438948D01*
X91528421Y-96261302D01*
X91512571Y-96241258D01*
X90959214Y-95541492D01*
X90953857Y-96316496D01*
X90952779Y-96548632D01*
X90953008Y-96745154D01*
X90954557Y-96906708D01*
X90957437Y-97033944D01*
X90961659Y-97127508D01*
X90967234Y-97188048D01*
X90969107Y-97199532D01*
X90998505Y-97320501D01*
X91037022Y-97429554D01*
X91080974Y-97517237D01*
X91107379Y-97554426D01*
X91152940Y-97608571D01*
X90288470Y-97608571D01*
X90082255Y-97608395D01*
X89909812Y-97607821D01*
X89768627Y-97606783D01*
X89656188Y-97605213D01*
X89569983Y-97603046D01*
X89507498Y-97600212D01*
X89466221Y-97596647D01*
X89443640Y-97592282D01*
X89437241Y-97587051D01*
X89437683Y-97585893D01*
X89456009Y-97558231D01*
X89486604Y-97514385D01*
X89502433Y-97492209D01*
X89518798Y-97470080D01*
X89533508Y-97450291D01*
X89546656Y-97430894D01*
X89558333Y-97409942D01*
X89568632Y-97385488D01*
X89577646Y-97355584D01*
X89585468Y-97318283D01*
X89592191Y-97271637D01*
X89597906Y-97213699D01*
X89602707Y-97142521D01*
X89606685Y-97056156D01*
X89609935Y-96952656D01*
X89612548Y-96830075D01*
X89614617Y-96686463D01*
X89616234Y-96519875D01*
X89617493Y-96328363D01*
X89618485Y-96109978D01*
X89619304Y-95862774D01*
X89620042Y-95584804D01*
X89620791Y-95274119D01*
X89621492Y-94988700D01*
X89622153Y-94670508D01*
X89622497Y-94366923D01*
X89622532Y-94079885D01*
X89622268Y-93811331D01*
X89621715Y-93563202D01*
X89620880Y-93337437D01*
X89619773Y-93135974D01*
X89618404Y-92960754D01*
X89616781Y-92813714D01*
X89614913Y-92696794D01*
X89612811Y-92611933D01*
X89610482Y-92561071D01*
X89610041Y-92555696D01*
X89593992Y-92432387D01*
X89568936Y-92333356D01*
X89530779Y-92246930D01*
X89475428Y-92161435D01*
X89468504Y-92152107D01*
X89424296Y-92093143D01*
X88940084Y-92093143D01*
X88939108Y-92200832D01*
X88937999Y-92385024D01*
X88937199Y-92593216D01*
X88936661Y-92826909D01*
X88936338Y-93087602D01*
X88936183Y-93376796D01*
X88936146Y-93695991D01*
X88936183Y-94046687D01*
X88936245Y-94430386D01*
X88936285Y-94848586D01*
X88936286Y-94931607D01*
X88936309Y-95354211D01*
X88936388Y-95742019D01*
X88936533Y-96096520D01*
X88936756Y-96419203D01*
X88937069Y-96711558D01*
X88937483Y-96975073D01*
X88938009Y-97211238D01*
X88938660Y-97421542D01*
X88939447Y-97607474D01*
X88940381Y-97770525D01*
X88941474Y-97912182D01*
X88942737Y-98033936D01*
X88944183Y-98137275D01*
X88945821Y-98223689D01*
X88947666Y-98294667D01*
X88949726Y-98351699D01*
X88952015Y-98396273D01*
X88954544Y-98429879D01*
X88957324Y-98454007D01*
X88960367Y-98470144D01*
X88963684Y-98479782D01*
X88963807Y-98480022D01*
X88970640Y-98494745D01*
X88976330Y-98508074D01*
X88982626Y-98520078D01*
X88991272Y-98530827D01*
X89004014Y-98540389D01*
X89022600Y-98548833D01*
X89048774Y-98556229D01*
X89084284Y-98562646D01*
X89130875Y-98568152D01*
X89190293Y-98572817D01*
X89264285Y-98576709D01*
X89354597Y-98579898D01*
X89462975Y-98582453D01*
X89591165Y-98584442D01*
X89740913Y-98585935D01*
X89913966Y-98587002D01*
X90112069Y-98587709D01*
X90336969Y-98588128D01*
X90590412Y-98588327D01*
X90874144Y-98588374D01*
X91189911Y-98588340D01*
G36*
X99641378Y-97680769D02*
G01*
X99837019Y-97659351D01*
X100026562Y-97621015D01*
X100217717Y-97563762D01*
X100418196Y-97485591D01*
X100635708Y-97384504D01*
X100674880Y-97364924D01*
X100764772Y-97320638D01*
X100849553Y-97280761D01*
X100920855Y-97249102D01*
X100970310Y-97229468D01*
X100977908Y-97226996D01*
X101050714Y-97205183D01*
X100724803Y-96731056D01*
X100645123Y-96615177D01*
X100572272Y-96509306D01*
X100508730Y-96417038D01*
X100456972Y-96341967D01*
X100419477Y-96287687D01*
X100398723Y-96257793D01*
X100395351Y-96253059D01*
X100381655Y-96262958D01*
X100347943Y-96292715D01*
X100300244Y-96336927D01*
X100273920Y-96361916D01*
X100124772Y-96480544D01*
X99957268Y-96570687D01*
X99812928Y-96620064D01*
X99726283Y-96635571D01*
X99617796Y-96645021D01*
X99500227Y-96648239D01*
X99386334Y-96645049D01*
X99288879Y-96635276D01*
X99249990Y-96627791D01*
X99074712Y-96567488D01*
X98916765Y-96475410D01*
X98776268Y-96351727D01*
X98653335Y-96196607D01*
X98548085Y-96010219D01*
X98460635Y-95792730D01*
X98391100Y-95544308D01*
X98349775Y-95331643D01*
X98338994Y-95237759D01*
X98331648Y-95116476D01*
X98327667Y-94976507D01*
X98326979Y-94826569D01*
X98329514Y-94675378D01*
X98335200Y-94531649D01*
X98343967Y-94404097D01*
X98355744Y-94301438D01*
X98358293Y-94285599D01*
X98414481Y-94030464D01*
X98491036Y-93804658D01*
X98588426Y-93607169D01*
X98707114Y-93436986D01*
X98791363Y-93344978D01*
X98942770Y-93220057D01*
X99108817Y-93127460D01*
X99286701Y-93067691D01*
X99473622Y-93041254D01*
X99666778Y-93048652D01*
X99863369Y-93090389D01*
X99979597Y-93131229D01*
X100140438Y-93213010D01*
X100306213Y-93330322D01*
X100399073Y-93409655D01*
X100451214Y-93455571D01*
X100492180Y-93489258D01*
X100515498Y-93505490D01*
X100518393Y-93505985D01*
X100528800Y-93489399D01*
X100555767Y-93445568D01*
X100596996Y-93378252D01*
X100650189Y-93291206D01*
X100713050Y-93188190D01*
X100783281Y-93072959D01*
X100822372Y-93008769D01*
X101120964Y-92518323D01*
X100748161Y-92334085D01*
X100613369Y-92267907D01*
X100504175Y-92215722D01*
X100413907Y-92174940D01*
X100335888Y-92142967D01*
X100263444Y-92117213D01*
X100189901Y-92095086D01*
X100108584Y-92073993D01*
X100030643Y-92055470D01*
X99961366Y-92041137D01*
X99888917Y-92030306D01*
X99806042Y-92022374D01*
X99705488Y-92016742D01*
X99580003Y-92012808D01*
X99495428Y-92011109D01*
X99374754Y-92009950D01*
X99259042Y-92010535D01*
X99155951Y-92012696D01*
X99073138Y-92016268D01*
X99018260Y-92021083D01*
X99015008Y-92021563D01*
X98730043Y-92083214D01*
X98462442Y-92176715D01*
X98212297Y-92302007D01*
X97979704Y-92459026D01*
X97764757Y-92647711D01*
X97567550Y-92868000D01*
X97424727Y-93063786D01*
X97272680Y-93320051D01*
X97149773Y-93590683D01*
X97055410Y-93877851D01*
X96988999Y-94183724D01*
X96949944Y-94510472D01*
X96937640Y-94842261D01*
X96947759Y-95163221D01*
X96979561Y-95459354D01*
X97034054Y-95735655D01*
X97112250Y-95997119D01*
X97215159Y-96248742D01*
X97227447Y-96274810D01*
X97362820Y-96518493D01*
X97529089Y-96750382D01*
X97721541Y-96965677D01*
X97935466Y-97159578D01*
X98166155Y-97327285D01*
X98381109Y-97450304D01*
X98598258Y-97546655D01*
X98815868Y-97616449D01*
X99042362Y-97661587D01*
X99286166Y-97683969D01*
X99431928Y-97687269D01*
X99641378Y-97680769D01*
G37*
X99641378Y-97680769D02*
X99837019Y-97659351D01*
X100026562Y-97621015D01*
X100217717Y-97563762D01*
X100418196Y-97485591D01*
X100635708Y-97384504D01*
X100674880Y-97364924D01*
X100764772Y-97320638D01*
X100849553Y-97280761D01*
X100920855Y-97249102D01*
X100970310Y-97229468D01*
X100977908Y-97226996D01*
X101050714Y-97205183D01*
X100724803Y-96731056D01*
X100645123Y-96615177D01*
X100572272Y-96509306D01*
X100508730Y-96417038D01*
X100456972Y-96341967D01*
X100419477Y-96287687D01*
X100398723Y-96257793D01*
X100395351Y-96253059D01*
X100381655Y-96262958D01*
X100347943Y-96292715D01*
X100300244Y-96336927D01*
X100273920Y-96361916D01*
X100124772Y-96480544D01*
X99957268Y-96570687D01*
X99812928Y-96620064D01*
X99726283Y-96635571D01*
X99617796Y-96645021D01*
X99500227Y-96648239D01*
X99386334Y-96645049D01*
X99288879Y-96635276D01*
X99249990Y-96627791D01*
X99074712Y-96567488D01*
X98916765Y-96475410D01*
X98776268Y-96351727D01*
X98653335Y-96196607D01*
X98548085Y-96010219D01*
X98460635Y-95792730D01*
X98391100Y-95544308D01*
X98349775Y-95331643D01*
X98338994Y-95237759D01*
X98331648Y-95116476D01*
X98327667Y-94976507D01*
X98326979Y-94826569D01*
X98329514Y-94675378D01*
X98335200Y-94531649D01*
X98343967Y-94404097D01*
X98355744Y-94301438D01*
X98358293Y-94285599D01*
X98414481Y-94030464D01*
X98491036Y-93804658D01*
X98588426Y-93607169D01*
X98707114Y-93436986D01*
X98791363Y-93344978D01*
X98942770Y-93220057D01*
X99108817Y-93127460D01*
X99286701Y-93067691D01*
X99473622Y-93041254D01*
X99666778Y-93048652D01*
X99863369Y-93090389D01*
X99979597Y-93131229D01*
X100140438Y-93213010D01*
X100306213Y-93330322D01*
X100399073Y-93409655D01*
X100451214Y-93455571D01*
X100492180Y-93489258D01*
X100515498Y-93505490D01*
X100518393Y-93505985D01*
X100528800Y-93489399D01*
X100555767Y-93445568D01*
X100596996Y-93378252D01*
X100650189Y-93291206D01*
X100713050Y-93188190D01*
X100783281Y-93072959D01*
X100822372Y-93008769D01*
X101120964Y-92518323D01*
X100748161Y-92334085D01*
X100613369Y-92267907D01*
X100504175Y-92215722D01*
X100413907Y-92174940D01*
X100335888Y-92142967D01*
X100263444Y-92117213D01*
X100189901Y-92095086D01*
X100108584Y-92073993D01*
X100030643Y-92055470D01*
X99961366Y-92041137D01*
X99888917Y-92030306D01*
X99806042Y-92022374D01*
X99705488Y-92016742D01*
X99580003Y-92012808D01*
X99495428Y-92011109D01*
X99374754Y-92009950D01*
X99259042Y-92010535D01*
X99155951Y-92012696D01*
X99073138Y-92016268D01*
X99018260Y-92021083D01*
X99015008Y-92021563D01*
X98730043Y-92083214D01*
X98462442Y-92176715D01*
X98212297Y-92302007D01*
X97979704Y-92459026D01*
X97764757Y-92647711D01*
X97567550Y-92868000D01*
X97424727Y-93063786D01*
X97272680Y-93320051D01*
X97149773Y-93590683D01*
X97055410Y-93877851D01*
X96988999Y-94183724D01*
X96949944Y-94510472D01*
X96937640Y-94842261D01*
X96947759Y-95163221D01*
X96979561Y-95459354D01*
X97034054Y-95735655D01*
X97112250Y-95997119D01*
X97215159Y-96248742D01*
X97227447Y-96274810D01*
X97362820Y-96518493D01*
X97529089Y-96750382D01*
X97721541Y-96965677D01*
X97935466Y-97159578D01*
X98166155Y-97327285D01*
X98381109Y-97450304D01*
X98598258Y-97546655D01*
X98815868Y-97616449D01*
X99042362Y-97661587D01*
X99286166Y-97683969D01*
X99431928Y-97687269D01*
X99641378Y-97680769D01*
G36*
X103245632Y-96222270D02*
G01*
X103335523Y-96215465D01*
X103592715Y-96181247D01*
X103820485Y-96126669D01*
X104019943Y-96050980D01*
X104192197Y-95953430D01*
X104338359Y-95833268D01*
X104459536Y-95689742D01*
X104556839Y-95522102D01*
X104627891Y-95340714D01*
X104645927Y-95282854D01*
X104661632Y-95228671D01*
X104675192Y-95175248D01*
X104686792Y-95119667D01*
X104696617Y-95059012D01*
X104704853Y-94990365D01*
X104711684Y-94910810D01*
X104717295Y-94817428D01*
X104721872Y-94707304D01*
X104725600Y-94577519D01*
X104728665Y-94425158D01*
X104731250Y-94247302D01*
X104733542Y-94041035D01*
X104735725Y-93803439D01*
X104737286Y-93617143D01*
X104747785Y-92338071D01*
X104815821Y-92214982D01*
X104848038Y-92155683D01*
X104872012Y-92109623D01*
X104883450Y-92085107D01*
X104883857Y-92083447D01*
X104866375Y-92081546D01*
X104816574Y-92079795D01*
X104738421Y-92078242D01*
X104635882Y-92076938D01*
X104512922Y-92075930D01*
X104373510Y-92075269D01*
X104221611Y-92075003D01*
X104203500Y-92075000D01*
X103523143Y-92075000D01*
X103523143Y-92229214D01*
X103521982Y-92298906D01*
X103518887Y-92352206D01*
X103514432Y-92380783D01*
X103512463Y-92383428D01*
X103494455Y-92372347D01*
X103457393Y-92343264D01*
X103409222Y-92302421D01*
X103408141Y-92301476D01*
X103320235Y-92236029D01*
X103209217Y-92170312D01*
X103087631Y-92110781D01*
X102968021Y-92063891D01*
X102915357Y-92047867D01*
X102810551Y-92027515D01*
X102681950Y-92014528D01*
X102541325Y-92009091D01*
X102400448Y-92011389D01*
X102271093Y-92021608D01*
X102180571Y-92036311D01*
X101958580Y-92101501D01*
X101758729Y-92194406D01*
X101582319Y-92313874D01*
X101430650Y-92458753D01*
X101305024Y-92627890D01*
X101206741Y-92820133D01*
X101164341Y-92936786D01*
X101137768Y-93050167D01*
X101120158Y-93186278D01*
X101112010Y-93332563D01*
X101112278Y-93353849D01*
X102339321Y-93353849D01*
X102349496Y-93245150D01*
X102383378Y-93154815D01*
X102446000Y-93071005D01*
X102470052Y-93046429D01*
X102555551Y-92979989D01*
X102654373Y-92937426D01*
X102772768Y-92916823D01*
X102897445Y-92915306D01*
X103015698Y-92925323D01*
X103106239Y-92944915D01*
X103145560Y-92959630D01*
X103216432Y-92999735D01*
X103291525Y-93056137D01*
X103360038Y-93119439D01*
X103411172Y-93180245D01*
X103424750Y-93202551D01*
X103435305Y-93233788D01*
X103442810Y-93283493D01*
X103447613Y-93356413D01*
X103450065Y-93457297D01*
X103450571Y-93553311D01*
X103450228Y-93665250D01*
X103448843Y-93746191D01*
X103445881Y-93801415D01*
X103440808Y-93836206D01*
X103433090Y-93855846D01*
X103422192Y-93865620D01*
X103418821Y-93867176D01*
X103389529Y-93871971D01*
X103331756Y-93875892D01*
X103253304Y-93878586D01*
X103161974Y-93879701D01*
X103142143Y-93879702D01*
X103020063Y-93877754D01*
X102925749Y-93871959D01*
X102850807Y-93861525D01*
X102788903Y-93846286D01*
X102635349Y-93788216D01*
X102514932Y-93716821D01*
X102426610Y-93630961D01*
X102369339Y-93529493D01*
X102342078Y-93411275D01*
X102339321Y-93353849D01*
X101112278Y-93353849D01*
X101113823Y-93476467D01*
X101126096Y-93605435D01*
X101135670Y-93657540D01*
X101196801Y-93851003D01*
X101289757Y-94029007D01*
X101412783Y-94189845D01*
X101564124Y-94331810D01*
X101742025Y-94453194D01*
X101944732Y-94552291D01*
X102117071Y-94612467D01*
X102232253Y-94644081D01*
X102342423Y-94668646D01*
X102454719Y-94686961D01*
X102576275Y-94699822D01*
X102714229Y-94708028D01*
X102875715Y-94712376D01*
X103021715Y-94713600D01*
X103454645Y-94714785D01*
X103446351Y-94844920D01*
X103422801Y-94986117D01*
X103372703Y-95107482D01*
X103298191Y-95205983D01*
X103201399Y-95278591D01*
X103116171Y-95314021D01*
X102994056Y-95336350D01*
X102848683Y-95339557D01*
X102686867Y-95324823D01*
X102515422Y-95293330D01*
X102341163Y-95246260D01*
X102170904Y-95184797D01*
X102047176Y-95128583D01*
X101987647Y-95099717D01*
X101942242Y-95079557D01*
X101919150Y-95071690D01*
X101917897Y-95071942D01*
X101909929Y-95089563D01*
X101890031Y-95136267D01*
X101860077Y-95207582D01*
X101821939Y-95299031D01*
X101777488Y-95406141D01*
X101732305Y-95515451D01*
X101551667Y-95953260D01*
X101680155Y-95974364D01*
X101735846Y-95984953D01*
X101819564Y-96002737D01*
X101924139Y-96026102D01*
X102042399Y-96053435D01*
X102167172Y-96083119D01*
X102216857Y-96095182D01*
X102431807Y-96145038D01*
X102619995Y-96182416D01*
X102788446Y-96208073D01*
X102944186Y-96222765D01*
X103094240Y-96227245D01*
X103245632Y-96222270D01*
G37*
X103245632Y-96222270D02*
X103335523Y-96215465D01*
X103592715Y-96181247D01*
X103820485Y-96126669D01*
X104019943Y-96050980D01*
X104192197Y-95953430D01*
X104338359Y-95833268D01*
X104459536Y-95689742D01*
X104556839Y-95522102D01*
X104627891Y-95340714D01*
X104645927Y-95282854D01*
X104661632Y-95228671D01*
X104675192Y-95175248D01*
X104686792Y-95119667D01*
X104696617Y-95059012D01*
X104704853Y-94990365D01*
X104711684Y-94910810D01*
X104717295Y-94817428D01*
X104721872Y-94707304D01*
X104725600Y-94577519D01*
X104728665Y-94425158D01*
X104731250Y-94247302D01*
X104733542Y-94041035D01*
X104735725Y-93803439D01*
X104737286Y-93617143D01*
X104747785Y-92338071D01*
X104815821Y-92214982D01*
X104848038Y-92155683D01*
X104872012Y-92109623D01*
X104883450Y-92085107D01*
X104883857Y-92083447D01*
X104866375Y-92081546D01*
X104816574Y-92079795D01*
X104738421Y-92078242D01*
X104635882Y-92076938D01*
X104512922Y-92075930D01*
X104373510Y-92075269D01*
X104221611Y-92075003D01*
X104203500Y-92075000D01*
X103523143Y-92075000D01*
X103523143Y-92229214D01*
X103521982Y-92298906D01*
X103518887Y-92352206D01*
X103514432Y-92380783D01*
X103512463Y-92383428D01*
X103494455Y-92372347D01*
X103457393Y-92343264D01*
X103409222Y-92302421D01*
X103408141Y-92301476D01*
X103320235Y-92236029D01*
X103209217Y-92170312D01*
X103087631Y-92110781D01*
X102968021Y-92063891D01*
X102915357Y-92047867D01*
X102810551Y-92027515D01*
X102681950Y-92014528D01*
X102541325Y-92009091D01*
X102400448Y-92011389D01*
X102271093Y-92021608D01*
X102180571Y-92036311D01*
X101958580Y-92101501D01*
X101758729Y-92194406D01*
X101582319Y-92313874D01*
X101430650Y-92458753D01*
X101305024Y-92627890D01*
X101206741Y-92820133D01*
X101164341Y-92936786D01*
X101137768Y-93050167D01*
X101120158Y-93186278D01*
X101112010Y-93332563D01*
X101112278Y-93353849D01*
X102339321Y-93353849D01*
X102349496Y-93245150D01*
X102383378Y-93154815D01*
X102446000Y-93071005D01*
X102470052Y-93046429D01*
X102555551Y-92979989D01*
X102654373Y-92937426D01*
X102772768Y-92916823D01*
X102897445Y-92915306D01*
X103015698Y-92925323D01*
X103106239Y-92944915D01*
X103145560Y-92959630D01*
X103216432Y-92999735D01*
X103291525Y-93056137D01*
X103360038Y-93119439D01*
X103411172Y-93180245D01*
X103424750Y-93202551D01*
X103435305Y-93233788D01*
X103442810Y-93283493D01*
X103447613Y-93356413D01*
X103450065Y-93457297D01*
X103450571Y-93553311D01*
X103450228Y-93665250D01*
X103448843Y-93746191D01*
X103445881Y-93801415D01*
X103440808Y-93836206D01*
X103433090Y-93855846D01*
X103422192Y-93865620D01*
X103418821Y-93867176D01*
X103389529Y-93871971D01*
X103331756Y-93875892D01*
X103253304Y-93878586D01*
X103161974Y-93879701D01*
X103142143Y-93879702D01*
X103020063Y-93877754D01*
X102925749Y-93871959D01*
X102850807Y-93861525D01*
X102788903Y-93846286D01*
X102635349Y-93788216D01*
X102514932Y-93716821D01*
X102426610Y-93630961D01*
X102369339Y-93529493D01*
X102342078Y-93411275D01*
X102339321Y-93353849D01*
X101112278Y-93353849D01*
X101113823Y-93476467D01*
X101126096Y-93605435D01*
X101135670Y-93657540D01*
X101196801Y-93851003D01*
X101289757Y-94029007D01*
X101412783Y-94189845D01*
X101564124Y-94331810D01*
X101742025Y-94453194D01*
X101944732Y-94552291D01*
X102117071Y-94612467D01*
X102232253Y-94644081D01*
X102342423Y-94668646D01*
X102454719Y-94686961D01*
X102576275Y-94699822D01*
X102714229Y-94708028D01*
X102875715Y-94712376D01*
X103021715Y-94713600D01*
X103454645Y-94714785D01*
X103446351Y-94844920D01*
X103422801Y-94986117D01*
X103372703Y-95107482D01*
X103298191Y-95205983D01*
X103201399Y-95278591D01*
X103116171Y-95314021D01*
X102994056Y-95336350D01*
X102848683Y-95339557D01*
X102686867Y-95324823D01*
X102515422Y-95293330D01*
X102341163Y-95246260D01*
X102170904Y-95184797D01*
X102047176Y-95128583D01*
X101987647Y-95099717D01*
X101942242Y-95079557D01*
X101919150Y-95071690D01*
X101917897Y-95071942D01*
X101909929Y-95089563D01*
X101890031Y-95136267D01*
X101860077Y-95207582D01*
X101821939Y-95299031D01*
X101777488Y-95406141D01*
X101732305Y-95515451D01*
X101551667Y-95953260D01*
X101680155Y-95974364D01*
X101735846Y-95984953D01*
X101819564Y-96002737D01*
X101924139Y-96026102D01*
X102042399Y-96053435D01*
X102167172Y-96083119D01*
X102216857Y-96095182D01*
X102431807Y-96145038D01*
X102619995Y-96182416D01*
X102788446Y-96208073D01*
X102944186Y-96222765D01*
X103094240Y-96227245D01*
X103245632Y-96222270D01*
G36*
X108101571Y-97949911D02*
G01*
X108255876Y-97949277D01*
X108308321Y-97948958D01*
X109029500Y-97944214D01*
X109038571Y-95177428D01*
X109039769Y-94802244D01*
X109040832Y-94461583D01*
X109041827Y-94153682D01*
X109042823Y-93876779D01*
X109043888Y-93629112D01*
X109045091Y-93408919D01*
X109046499Y-93214438D01*
X109048182Y-93043906D01*
X109050206Y-92895560D01*
X109052641Y-92767639D01*
X109055554Y-92658380D01*
X109059015Y-92566021D01*
X109063090Y-92488800D01*
X109067849Y-92424954D01*
X109073360Y-92372722D01*
X109079691Y-92330340D01*
X109086910Y-92296047D01*
X109095085Y-92268080D01*
X109104285Y-92244676D01*
X109114577Y-92224075D01*
X109126031Y-92204513D01*
X109138715Y-92184228D01*
X109152695Y-92161457D01*
X109155561Y-92156607D01*
X109203640Y-92074567D01*
X107813928Y-92084071D01*
X107804857Y-92236705D01*
X107799918Y-92309955D01*
X107794771Y-92352304D01*
X107787786Y-92369108D01*
X107777337Y-92365723D01*
X107768571Y-92356040D01*
X107730388Y-92320771D01*
X107668155Y-92275437D01*
X107590641Y-92225454D01*
X107506613Y-92176239D01*
X107424839Y-92133209D01*
X107362052Y-92104899D01*
X107214954Y-92058376D01*
X107046180Y-92025421D01*
X106868191Y-92007293D01*
X106693447Y-92005250D01*
X106534407Y-92020553D01*
X106531788Y-92020991D01*
X106314168Y-92075598D01*
X106110455Y-92162599D01*
X105922613Y-92280124D01*
X105752607Y-92426303D01*
X105602402Y-92599266D01*
X105473964Y-92797143D01*
X105369257Y-93018064D01*
X105312246Y-93181714D01*
X105274651Y-93318625D01*
X105246771Y-93451202D01*
X105227753Y-93587498D01*
X105216745Y-93735567D01*
X105212895Y-93903463D01*
X105214600Y-94040560D01*
X106553359Y-94040560D01*
X106559694Y-93810671D01*
X106579679Y-93612889D01*
X106613927Y-93445461D01*
X106663055Y-93306631D01*
X106727676Y-93194642D01*
X106808405Y-93107741D01*
X106901591Y-93046308D01*
X106950080Y-93023374D01*
X106992134Y-93009625D01*
X107039020Y-93003334D01*
X107102004Y-93002778D01*
X107169857Y-93005227D01*
X107303295Y-93016996D01*
X107408832Y-93040045D01*
X107442000Y-93051590D01*
X107517735Y-93085689D01*
X107597614Y-93128509D01*
X107632500Y-93149943D01*
X107723214Y-93209444D01*
X107723214Y-95095416D01*
X107623428Y-95155229D01*
X107484267Y-95222815D01*
X107342087Y-95262786D01*
X107202090Y-95275378D01*
X107069474Y-95260827D01*
X106949440Y-95219368D01*
X106847188Y-95151237D01*
X106814195Y-95118534D01*
X106734667Y-95011381D01*
X106670299Y-94881673D01*
X106620553Y-94727186D01*
X106584891Y-94545698D01*
X106562775Y-94334985D01*
X106553667Y-94092825D01*
X106553359Y-94040560D01*
X105214600Y-94040560D01*
X105215310Y-94097626D01*
X105230605Y-94396287D01*
X105261358Y-94665675D01*
X105308381Y-94909715D01*
X105372482Y-95132330D01*
X105454472Y-95337444D01*
X105483730Y-95398254D01*
X105601581Y-95596560D01*
X105743996Y-95772788D01*
X105907629Y-95924092D01*
X106089131Y-96047629D01*
X106285153Y-96140553D01*
X106402655Y-96178885D01*
X106518054Y-96201641D01*
X106656907Y-96215180D01*
X106807574Y-96219508D01*
X106958413Y-96214632D01*
X107097785Y-96200556D01*
X107209691Y-96178475D01*
X107342884Y-96135172D01*
X107471979Y-96079489D01*
X107584928Y-96017064D01*
X107645043Y-95974697D01*
X107686510Y-95943193D01*
X107715545Y-95924010D01*
X107722150Y-95921286D01*
X107724198Y-95938837D01*
X107726107Y-95989125D01*
X107727836Y-96068600D01*
X107729341Y-96173714D01*
X107730581Y-96300917D01*
X107731513Y-96446661D01*
X107732095Y-96607397D01*
X107732286Y-96771116D01*
X107732179Y-96980812D01*
X107731658Y-97157604D01*
X107730416Y-97304874D01*
X107728148Y-97426003D01*
X107724550Y-97524373D01*
X107719317Y-97603366D01*
X107712144Y-97666362D01*
X107702726Y-97716745D01*
X107690758Y-97757895D01*
X107675935Y-97793194D01*
X107657952Y-97826023D01*
X107636505Y-97859765D01*
X107633745Y-97863943D01*
X107606083Y-97907644D01*
X107589382Y-97937695D01*
X107587143Y-97944033D01*
X107604643Y-97946033D01*
X107654574Y-97947660D01*
X107733085Y-97948888D01*
X107836323Y-97949689D01*
X107960436Y-97950039D01*
X108101571Y-97949911D01*
G37*
X108101571Y-97949911D02*
X108255876Y-97949277D01*
X108308321Y-97948958D01*
X109029500Y-97944214D01*
X109038571Y-95177428D01*
X109039769Y-94802244D01*
X109040832Y-94461583D01*
X109041827Y-94153682D01*
X109042823Y-93876779D01*
X109043888Y-93629112D01*
X109045091Y-93408919D01*
X109046499Y-93214438D01*
X109048182Y-93043906D01*
X109050206Y-92895560D01*
X109052641Y-92767639D01*
X109055554Y-92658380D01*
X109059015Y-92566021D01*
X109063090Y-92488800D01*
X109067849Y-92424954D01*
X109073360Y-92372722D01*
X109079691Y-92330340D01*
X109086910Y-92296047D01*
X109095085Y-92268080D01*
X109104285Y-92244676D01*
X109114577Y-92224075D01*
X109126031Y-92204513D01*
X109138715Y-92184228D01*
X109152695Y-92161457D01*
X109155561Y-92156607D01*
X109203640Y-92074567D01*
X107813928Y-92084071D01*
X107804857Y-92236705D01*
X107799918Y-92309955D01*
X107794771Y-92352304D01*
X107787786Y-92369108D01*
X107777337Y-92365723D01*
X107768571Y-92356040D01*
X107730388Y-92320771D01*
X107668155Y-92275437D01*
X107590641Y-92225454D01*
X107506613Y-92176239D01*
X107424839Y-92133209D01*
X107362052Y-92104899D01*
X107214954Y-92058376D01*
X107046180Y-92025421D01*
X106868191Y-92007293D01*
X106693447Y-92005250D01*
X106534407Y-92020553D01*
X106531788Y-92020991D01*
X106314168Y-92075598D01*
X106110455Y-92162599D01*
X105922613Y-92280124D01*
X105752607Y-92426303D01*
X105602402Y-92599266D01*
X105473964Y-92797143D01*
X105369257Y-93018064D01*
X105312246Y-93181714D01*
X105274651Y-93318625D01*
X105246771Y-93451202D01*
X105227753Y-93587498D01*
X105216745Y-93735567D01*
X105212895Y-93903463D01*
X105214600Y-94040560D01*
X106553359Y-94040560D01*
X106559694Y-93810671D01*
X106579679Y-93612889D01*
X106613927Y-93445461D01*
X106663055Y-93306631D01*
X106727676Y-93194642D01*
X106808405Y-93107741D01*
X106901591Y-93046308D01*
X106950080Y-93023374D01*
X106992134Y-93009625D01*
X107039020Y-93003334D01*
X107102004Y-93002778D01*
X107169857Y-93005227D01*
X107303295Y-93016996D01*
X107408832Y-93040045D01*
X107442000Y-93051590D01*
X107517735Y-93085689D01*
X107597614Y-93128509D01*
X107632500Y-93149943D01*
X107723214Y-93209444D01*
X107723214Y-95095416D01*
X107623428Y-95155229D01*
X107484267Y-95222815D01*
X107342087Y-95262786D01*
X107202090Y-95275378D01*
X107069474Y-95260827D01*
X106949440Y-95219368D01*
X106847188Y-95151237D01*
X106814195Y-95118534D01*
X106734667Y-95011381D01*
X106670299Y-94881673D01*
X106620553Y-94727186D01*
X106584891Y-94545698D01*
X106562775Y-94334985D01*
X106553667Y-94092825D01*
X106553359Y-94040560D01*
X105214600Y-94040560D01*
X105215310Y-94097626D01*
X105230605Y-94396287D01*
X105261358Y-94665675D01*
X105308381Y-94909715D01*
X105372482Y-95132330D01*
X105454472Y-95337444D01*
X105483730Y-95398254D01*
X105601581Y-95596560D01*
X105743996Y-95772788D01*
X105907629Y-95924092D01*
X106089131Y-96047629D01*
X106285153Y-96140553D01*
X106402655Y-96178885D01*
X106518054Y-96201641D01*
X106656907Y-96215180D01*
X106807574Y-96219508D01*
X106958413Y-96214632D01*
X107097785Y-96200556D01*
X107209691Y-96178475D01*
X107342884Y-96135172D01*
X107471979Y-96079489D01*
X107584928Y-96017064D01*
X107645043Y-95974697D01*
X107686510Y-95943193D01*
X107715545Y-95924010D01*
X107722150Y-95921286D01*
X107724198Y-95938837D01*
X107726107Y-95989125D01*
X107727836Y-96068600D01*
X107729341Y-96173714D01*
X107730581Y-96300917D01*
X107731513Y-96446661D01*
X107732095Y-96607397D01*
X107732286Y-96771116D01*
X107732179Y-96980812D01*
X107731658Y-97157604D01*
X107730416Y-97304874D01*
X107728148Y-97426003D01*
X107724550Y-97524373D01*
X107719317Y-97603366D01*
X107712144Y-97666362D01*
X107702726Y-97716745D01*
X107690758Y-97757895D01*
X107675935Y-97793194D01*
X107657952Y-97826023D01*
X107636505Y-97859765D01*
X107633745Y-97863943D01*
X107606083Y-97907644D01*
X107589382Y-97937695D01*
X107587143Y-97944033D01*
X107604643Y-97946033D01*
X107654574Y-97947660D01*
X107733085Y-97948888D01*
X107836323Y-97949689D01*
X107960436Y-97950039D01*
X108101571Y-97949911D01*
G36*
X95457682Y-99166067D02*
G01*
X95593929Y-99118828D01*
X95720779Y-99044473D01*
X95834067Y-98943013D01*
X95929628Y-98814457D01*
X95972554Y-98733428D01*
X96009705Y-98620092D01*
X96027712Y-98489249D01*
X96025717Y-98354735D01*
X96003577Y-98232842D01*
X95943064Y-98083893D01*
X95855314Y-97954691D01*
X95744788Y-97847777D01*
X95615946Y-97765694D01*
X95473247Y-97710984D01*
X95321151Y-97686190D01*
X95164119Y-97693853D01*
X95086714Y-97710228D01*
X94935859Y-97768911D01*
X94801875Y-97858457D01*
X94687994Y-97976107D01*
X94597448Y-98119098D01*
X94589788Y-98134714D01*
X94563306Y-98193314D01*
X94546678Y-98242666D01*
X94537650Y-98294730D01*
X94533968Y-98361461D01*
X94533357Y-98434071D01*
X94534367Y-98521309D01*
X94538928Y-98584376D01*
X94549334Y-98635364D01*
X94567879Y-98686367D01*
X94590770Y-98736687D01*
X94676154Y-98879530D01*
X94781301Y-98995190D01*
X94902045Y-99083675D01*
X95034221Y-99144995D01*
X95173663Y-99179161D01*
X95316205Y-99186182D01*
X95457682Y-99166067D01*
G37*
X95457682Y-99166067D02*
X95593929Y-99118828D01*
X95720779Y-99044473D01*
X95834067Y-98943013D01*
X95929628Y-98814457D01*
X95972554Y-98733428D01*
X96009705Y-98620092D01*
X96027712Y-98489249D01*
X96025717Y-98354735D01*
X96003577Y-98232842D01*
X95943064Y-98083893D01*
X95855314Y-97954691D01*
X95744788Y-97847777D01*
X95615946Y-97765694D01*
X95473247Y-97710984D01*
X95321151Y-97686190D01*
X95164119Y-97693853D01*
X95086714Y-97710228D01*
X94935859Y-97768911D01*
X94801875Y-97858457D01*
X94687994Y-97976107D01*
X94597448Y-98119098D01*
X94589788Y-98134714D01*
X94563306Y-98193314D01*
X94546678Y-98242666D01*
X94537650Y-98294730D01*
X94533968Y-98361461D01*
X94533357Y-98434071D01*
X94534367Y-98521309D01*
X94538928Y-98584376D01*
X94549334Y-98635364D01*
X94567879Y-98686367D01*
X94590770Y-98736687D01*
X94676154Y-98879530D01*
X94781301Y-98995190D01*
X94902045Y-99083675D01*
X95034221Y-99144995D01*
X95173663Y-99179161D01*
X95316205Y-99186182D01*
X95457682Y-99166067D01*
G36*
X107527859Y-90636312D02*
G01*
X107569635Y-90606699D01*
X107606525Y-90569808D01*
X107606525Y-90157838D01*
X107606429Y-90035514D01*
X107605972Y-89939602D01*
X107604903Y-89866456D01*
X107602971Y-89812430D01*
X107599923Y-89773877D01*
X107595509Y-89747152D01*
X107589476Y-89728606D01*
X107581574Y-89714595D01*
X107575375Y-89706267D01*
X107534461Y-89673551D01*
X107487482Y-89670000D01*
X107444544Y-89690063D01*
X107430356Y-89701908D01*
X107420872Y-89717642D01*
X107415151Y-89742978D01*
X107412253Y-89783630D01*
X107411238Y-89845312D01*
X107411141Y-89892962D01*
X107411141Y-90072465D01*
X106749839Y-90072465D01*
X106749839Y-89909167D01*
X106749155Y-89834495D01*
X106746419Y-89783176D01*
X106740604Y-89748523D01*
X106730684Y-89723845D01*
X106718689Y-89706267D01*
X106677546Y-89673643D01*
X106631017Y-89669780D01*
X106586473Y-89692968D01*
X106574312Y-89705124D01*
X106565723Y-89721239D01*
X106560058Y-89746340D01*
X106556669Y-89785456D01*
X106554908Y-89843614D01*
X106554128Y-89925842D01*
X106554036Y-89944714D01*
X106553392Y-90099643D01*
X106553060Y-90227326D01*
X106553168Y-90330573D01*
X106553845Y-90412197D01*
X106555218Y-90475008D01*
X106557416Y-90521819D01*
X106560566Y-90555441D01*
X106564798Y-90578685D01*
X106570238Y-90594364D01*
X106577015Y-90605289D01*
X106584514Y-90613530D01*
X106626933Y-90639893D01*
X106671172Y-90636312D01*
X106712948Y-90606699D01*
X106729853Y-90587593D01*
X106740629Y-90566489D01*
X106746641Y-90536432D01*
X106749256Y-90490467D01*
X106749839Y-90421640D01*
X106749839Y-90267850D01*
X107411141Y-90267850D01*
X107411141Y-90425661D01*
X107411816Y-90498364D01*
X107414526Y-90547455D01*
X107420301Y-90579364D01*
X107430169Y-90600522D01*
X107441200Y-90613530D01*
X107483619Y-90639893D01*
X107527859Y-90636312D01*
G37*
X107527859Y-90636312D02*
X107569635Y-90606699D01*
X107606525Y-90569808D01*
X107606525Y-90157838D01*
X107606429Y-90035514D01*
X107605972Y-89939602D01*
X107604903Y-89866456D01*
X107602971Y-89812430D01*
X107599923Y-89773877D01*
X107595509Y-89747152D01*
X107589476Y-89728606D01*
X107581574Y-89714595D01*
X107575375Y-89706267D01*
X107534461Y-89673551D01*
X107487482Y-89670000D01*
X107444544Y-89690063D01*
X107430356Y-89701908D01*
X107420872Y-89717642D01*
X107415151Y-89742978D01*
X107412253Y-89783630D01*
X107411238Y-89845312D01*
X107411141Y-89892962D01*
X107411141Y-90072465D01*
X106749839Y-90072465D01*
X106749839Y-89909167D01*
X106749155Y-89834495D01*
X106746419Y-89783176D01*
X106740604Y-89748523D01*
X106730684Y-89723845D01*
X106718689Y-89706267D01*
X106677546Y-89673643D01*
X106631017Y-89669780D01*
X106586473Y-89692968D01*
X106574312Y-89705124D01*
X106565723Y-89721239D01*
X106560058Y-89746340D01*
X106556669Y-89785456D01*
X106554908Y-89843614D01*
X106554128Y-89925842D01*
X106554036Y-89944714D01*
X106553392Y-90099643D01*
X106553060Y-90227326D01*
X106553168Y-90330573D01*
X106553845Y-90412197D01*
X106555218Y-90475008D01*
X106557416Y-90521819D01*
X106560566Y-90555441D01*
X106564798Y-90578685D01*
X106570238Y-90594364D01*
X106577015Y-90605289D01*
X106584514Y-90613530D01*
X106626933Y-90639893D01*
X106671172Y-90636312D01*
X106712948Y-90606699D01*
X106729853Y-90587593D01*
X106740629Y-90566489D01*
X106746641Y-90536432D01*
X106749256Y-90490467D01*
X106749839Y-90421640D01*
X106749839Y-90267850D01*
X107411141Y-90267850D01*
X107411141Y-90425661D01*
X107411816Y-90498364D01*
X107414526Y-90547455D01*
X107420301Y-90579364D01*
X107430169Y-90600522D01*
X107441200Y-90613530D01*
X107483619Y-90639893D01*
X107527859Y-90636312D01*
G36*
X105842677Y-90643461D02*
G01*
X105947465Y-90642957D01*
X106028799Y-90641904D01*
X106089980Y-90640124D01*
X106134311Y-90637443D01*
X106165094Y-90633686D01*
X106185631Y-90628675D01*
X106199225Y-90622237D01*
X106205803Y-90617288D01*
X106239944Y-90573971D01*
X106244074Y-90528997D01*
X106222976Y-90488140D01*
X106209179Y-90471814D01*
X106194332Y-90460682D01*
X106172815Y-90453750D01*
X106139008Y-90450023D01*
X106087292Y-90448506D01*
X106012047Y-90448206D01*
X105997269Y-90448205D01*
X105802975Y-90448205D01*
X105802975Y-90087495D01*
X105802847Y-89973799D01*
X105802266Y-89886315D01*
X105800936Y-89821198D01*
X105798560Y-89774602D01*
X105794844Y-89742681D01*
X105789492Y-89721588D01*
X105782207Y-89707477D01*
X105772916Y-89696726D01*
X105729071Y-89670304D01*
X105683300Y-89672386D01*
X105641790Y-89702531D01*
X105638741Y-89706267D01*
X105628812Y-89720390D01*
X105621248Y-89736914D01*
X105615729Y-89759854D01*
X105611933Y-89793227D01*
X105609542Y-89841045D01*
X105608234Y-89907326D01*
X105607691Y-89996082D01*
X105607591Y-90097037D01*
X105607591Y-90448205D01*
X105422050Y-90448205D01*
X105342427Y-90448744D01*
X105287304Y-90450843D01*
X105251132Y-90455229D01*
X105228362Y-90462624D01*
X105213447Y-90473755D01*
X105211636Y-90475690D01*
X105189858Y-90519943D01*
X105191784Y-90569971D01*
X105216821Y-90613530D01*
X105226504Y-90621980D01*
X105238988Y-90628679D01*
X105257603Y-90633831D01*
X105285677Y-90637639D01*
X105326541Y-90640303D01*
X105383522Y-90642028D01*
X105459952Y-90643016D01*
X105559157Y-90643468D01*
X105684469Y-90643588D01*
X105711133Y-90643590D01*
X105842677Y-90643461D01*
G37*
X105842677Y-90643461D02*
X105947465Y-90642957D01*
X106028799Y-90641904D01*
X106089980Y-90640124D01*
X106134311Y-90637443D01*
X106165094Y-90633686D01*
X106185631Y-90628675D01*
X106199225Y-90622237D01*
X106205803Y-90617288D01*
X106239944Y-90573971D01*
X106244074Y-90528997D01*
X106222976Y-90488140D01*
X106209179Y-90471814D01*
X106194332Y-90460682D01*
X106172815Y-90453750D01*
X106139008Y-90450023D01*
X106087292Y-90448506D01*
X106012047Y-90448206D01*
X105997269Y-90448205D01*
X105802975Y-90448205D01*
X105802975Y-90087495D01*
X105802847Y-89973799D01*
X105802266Y-89886315D01*
X105800936Y-89821198D01*
X105798560Y-89774602D01*
X105794844Y-89742681D01*
X105789492Y-89721588D01*
X105782207Y-89707477D01*
X105772916Y-89696726D01*
X105729071Y-89670304D01*
X105683300Y-89672386D01*
X105641790Y-89702531D01*
X105638741Y-89706267D01*
X105628812Y-89720390D01*
X105621248Y-89736914D01*
X105615729Y-89759854D01*
X105611933Y-89793227D01*
X105609542Y-89841045D01*
X105608234Y-89907326D01*
X105607691Y-89996082D01*
X105607591Y-90097037D01*
X105607591Y-90448205D01*
X105422050Y-90448205D01*
X105342427Y-90448744D01*
X105287304Y-90450843D01*
X105251132Y-90455229D01*
X105228362Y-90462624D01*
X105213447Y-90473755D01*
X105211636Y-90475690D01*
X105189858Y-90519943D01*
X105191784Y-90569971D01*
X105216821Y-90613530D01*
X105226504Y-90621980D01*
X105238988Y-90628679D01*
X105257603Y-90633831D01*
X105285677Y-90637639D01*
X105326541Y-90640303D01*
X105383522Y-90642028D01*
X105459952Y-90643016D01*
X105559157Y-90643468D01*
X105684469Y-90643588D01*
X105711133Y-90643590D01*
X105842677Y-90643461D01*
G36*
X104811604Y-90634523D02*
G01*
X104843174Y-90614858D01*
X104878656Y-90586127D01*
X104878656Y-90158034D01*
X104878543Y-90032810D01*
X104878059Y-89934153D01*
X104876986Y-89858570D01*
X104875108Y-89802567D01*
X104872206Y-89762653D01*
X104868063Y-89735334D01*
X104862462Y-89717119D01*
X104855185Y-89704514D01*
X104850024Y-89698304D01*
X104808168Y-89671020D01*
X104760505Y-89672133D01*
X104718753Y-89695398D01*
X104683271Y-89724129D01*
X104683271Y-90586127D01*
X104718753Y-90614858D01*
X104752998Y-90635758D01*
X104780963Y-90643590D01*
X104811604Y-90634523D01*
G37*
X104811604Y-90634523D02*
X104843174Y-90614858D01*
X104878656Y-90586127D01*
X104878656Y-90158034D01*
X104878543Y-90032810D01*
X104878059Y-89934153D01*
X104876986Y-89858570D01*
X104875108Y-89802567D01*
X104872206Y-89762653D01*
X104868063Y-89735334D01*
X104862462Y-89717119D01*
X104855185Y-89704514D01*
X104850024Y-89698304D01*
X104808168Y-89671020D01*
X104760505Y-89672133D01*
X104718753Y-89695398D01*
X104683271Y-89724129D01*
X104683271Y-90586127D01*
X104718753Y-90614858D01*
X104752998Y-90635758D01*
X104780963Y-90643590D01*
X104811604Y-90634523D01*
G36*
X104220547Y-90640970D02*
G01*
X104246628Y-90631650D01*
X104247634Y-90631194D01*
X104283052Y-90604166D01*
X104302566Y-90576364D01*
X104306384Y-90563328D01*
X104306195Y-90546008D01*
X104300822Y-90521333D01*
X104289088Y-90486236D01*
X104269813Y-90437647D01*
X104241822Y-90372498D01*
X104203936Y-90287719D01*
X104154978Y-90180241D01*
X104128031Y-90121497D01*
X104079370Y-90016627D01*
X104033690Y-89920186D01*
X103992734Y-89835702D01*
X103958246Y-89766700D01*
X103931969Y-89716706D01*
X103915646Y-89689246D01*
X103912416Y-89685453D01*
X103871089Y-89668720D01*
X103824409Y-89670961D01*
X103786970Y-89691313D01*
X103785444Y-89692968D01*
X103770551Y-89715514D01*
X103745569Y-89759429D01*
X103713579Y-89819060D01*
X103677660Y-89888754D01*
X103664752Y-89914437D01*
X103567314Y-90109603D01*
X103461106Y-89897593D01*
X103423197Y-89824339D01*
X103388027Y-89760810D01*
X103358468Y-89711869D01*
X103337394Y-89682378D01*
X103330252Y-89676124D01*
X103274738Y-89667655D01*
X103228929Y-89685453D01*
X103215454Y-89704475D01*
X103192136Y-89746751D01*
X103160877Y-89808120D01*
X103123580Y-89884424D01*
X103082146Y-89971501D01*
X103038478Y-90065193D01*
X102994478Y-90161339D01*
X102952048Y-90255779D01*
X102913090Y-90344355D01*
X102879507Y-90422904D01*
X102853201Y-90487269D01*
X102836074Y-90533289D01*
X102830029Y-90556803D01*
X102830091Y-90557655D01*
X102844800Y-90587244D01*
X102874202Y-90617380D01*
X102875933Y-90618692D01*
X102912070Y-90639118D01*
X102945494Y-90638920D01*
X102958022Y-90635069D01*
X102973287Y-90626747D01*
X102989498Y-90610375D01*
X103008599Y-90582558D01*
X103032535Y-90539900D01*
X103063251Y-90479005D01*
X103102691Y-90396475D01*
X103138258Y-90320293D01*
X103179177Y-90231986D01*
X103215844Y-90152574D01*
X103246354Y-90086204D01*
X103268802Y-90037025D01*
X103281283Y-90009187D01*
X103283103Y-90004832D01*
X103291290Y-90011951D01*
X103310105Y-90041759D01*
X103337046Y-90089904D01*
X103369608Y-90152037D01*
X103382566Y-90177672D01*
X103426460Y-90264235D01*
X103460311Y-90327275D01*
X103486897Y-90370458D01*
X103508995Y-90397448D01*
X103529384Y-90411912D01*
X103550840Y-90417513D01*
X103564823Y-90418146D01*
X103589488Y-90415960D01*
X103611102Y-90406921D01*
X103632578Y-90387303D01*
X103656830Y-90353383D01*
X103686770Y-90301438D01*
X103725313Y-90227742D01*
X103746578Y-90185820D01*
X103781072Y-90119006D01*
X103811156Y-90063599D01*
X103834177Y-90024273D01*
X103847480Y-90005704D01*
X103849289Y-90004931D01*
X103857880Y-90019545D01*
X103877114Y-90057493D01*
X103905065Y-90114804D01*
X103939807Y-90187504D01*
X103979413Y-90271624D01*
X103998896Y-90313406D01*
X104049580Y-90421237D01*
X104090393Y-90504210D01*
X104123454Y-90565034D01*
X104150881Y-90606415D01*
X104174792Y-90631060D01*
X104197308Y-90641676D01*
X104220547Y-90640970D01*
G37*
X104220547Y-90640970D02*
X104246628Y-90631650D01*
X104247634Y-90631194D01*
X104283052Y-90604166D01*
X104302566Y-90576364D01*
X104306384Y-90563328D01*
X104306195Y-90546008D01*
X104300822Y-90521333D01*
X104289088Y-90486236D01*
X104269813Y-90437647D01*
X104241822Y-90372498D01*
X104203936Y-90287719D01*
X104154978Y-90180241D01*
X104128031Y-90121497D01*
X104079370Y-90016627D01*
X104033690Y-89920186D01*
X103992734Y-89835702D01*
X103958246Y-89766700D01*
X103931969Y-89716706D01*
X103915646Y-89689246D01*
X103912416Y-89685453D01*
X103871089Y-89668720D01*
X103824409Y-89670961D01*
X103786970Y-89691313D01*
X103785444Y-89692968D01*
X103770551Y-89715514D01*
X103745569Y-89759429D01*
X103713579Y-89819060D01*
X103677660Y-89888754D01*
X103664752Y-89914437D01*
X103567314Y-90109603D01*
X103461106Y-89897593D01*
X103423197Y-89824339D01*
X103388027Y-89760810D01*
X103358468Y-89711869D01*
X103337394Y-89682378D01*
X103330252Y-89676124D01*
X103274738Y-89667655D01*
X103228929Y-89685453D01*
X103215454Y-89704475D01*
X103192136Y-89746751D01*
X103160877Y-89808120D01*
X103123580Y-89884424D01*
X103082146Y-89971501D01*
X103038478Y-90065193D01*
X102994478Y-90161339D01*
X102952048Y-90255779D01*
X102913090Y-90344355D01*
X102879507Y-90422904D01*
X102853201Y-90487269D01*
X102836074Y-90533289D01*
X102830029Y-90556803D01*
X102830091Y-90557655D01*
X102844800Y-90587244D01*
X102874202Y-90617380D01*
X102875933Y-90618692D01*
X102912070Y-90639118D01*
X102945494Y-90638920D01*
X102958022Y-90635069D01*
X102973287Y-90626747D01*
X102989498Y-90610375D01*
X103008599Y-90582558D01*
X103032535Y-90539900D01*
X103063251Y-90479005D01*
X103102691Y-90396475D01*
X103138258Y-90320293D01*
X103179177Y-90231986D01*
X103215844Y-90152574D01*
X103246354Y-90086204D01*
X103268802Y-90037025D01*
X103281283Y-90009187D01*
X103283103Y-90004832D01*
X103291290Y-90011951D01*
X103310105Y-90041759D01*
X103337046Y-90089904D01*
X103369608Y-90152037D01*
X103382566Y-90177672D01*
X103426460Y-90264235D01*
X103460311Y-90327275D01*
X103486897Y-90370458D01*
X103508995Y-90397448D01*
X103529384Y-90411912D01*
X103550840Y-90417513D01*
X103564823Y-90418146D01*
X103589488Y-90415960D01*
X103611102Y-90406921D01*
X103632578Y-90387303D01*
X103656830Y-90353383D01*
X103686770Y-90301438D01*
X103725313Y-90227742D01*
X103746578Y-90185820D01*
X103781072Y-90119006D01*
X103811156Y-90063599D01*
X103834177Y-90024273D01*
X103847480Y-90005704D01*
X103849289Y-90004931D01*
X103857880Y-90019545D01*
X103877114Y-90057493D01*
X103905065Y-90114804D01*
X103939807Y-90187504D01*
X103979413Y-90271624D01*
X103998896Y-90313406D01*
X104049580Y-90421237D01*
X104090393Y-90504210D01*
X104123454Y-90565034D01*
X104150881Y-90606415D01*
X104174792Y-90631060D01*
X104197308Y-90641676D01*
X104220547Y-90640970D01*
G36*
X100590783Y-90643313D02*
G01*
X100762501Y-90637507D01*
X100908555Y-90619899D01*
X101031353Y-90589437D01*
X101133303Y-90545065D01*
X101216814Y-90485729D01*
X101284293Y-90410376D01*
X101338149Y-90317950D01*
X101339208Y-90315696D01*
X101371349Y-90232976D01*
X101382801Y-90159716D01*
X101373520Y-90085988D01*
X101343461Y-90001865D01*
X101337761Y-89989063D01*
X101298885Y-89914138D01*
X101255195Y-89856243D01*
X101198806Y-89807028D01*
X101121838Y-89758143D01*
X101117366Y-89755591D01*
X101050363Y-89723405D01*
X100974631Y-89699368D01*
X100885304Y-89682649D01*
X100777515Y-89672421D01*
X100646398Y-89667854D01*
X100600072Y-89667457D01*
X100379476Y-89666666D01*
X100348326Y-89706267D01*
X100339086Y-89719289D01*
X100331878Y-89734496D01*
X100326450Y-89755534D01*
X100322551Y-89786050D01*
X100319929Y-89829689D01*
X100319074Y-89862051D01*
X100527591Y-89862051D01*
X100652582Y-89862051D01*
X100725723Y-89864190D01*
X100800807Y-89869819D01*
X100862430Y-89877757D01*
X100866149Y-89878425D01*
X100975599Y-89907788D01*
X101060494Y-89951903D01*
X101123518Y-90012817D01*
X101167360Y-90092576D01*
X101174983Y-90113716D01*
X101182456Y-90146638D01*
X101179221Y-90179164D01*
X101163479Y-90222436D01*
X101153990Y-90243693D01*
X101122917Y-90300180D01*
X101085479Y-90339809D01*
X101044287Y-90367406D01*
X100961776Y-90403318D01*
X100856179Y-90429332D01*
X100733164Y-90444312D01*
X100644070Y-90447608D01*
X100527591Y-90448205D01*
X100527591Y-89862051D01*
X100319074Y-89862051D01*
X100318332Y-89890100D01*
X100317510Y-89970928D01*
X100317210Y-90075819D01*
X100317176Y-90157838D01*
X100317176Y-90569808D01*
X100354067Y-90606699D01*
X100370440Y-90621652D01*
X100388143Y-90631892D01*
X100412865Y-90638299D01*
X100450294Y-90641753D01*
X100506119Y-90643133D01*
X100586028Y-90643319D01*
X100590783Y-90643313D01*
G37*
X100590783Y-90643313D02*
X100762501Y-90637507D01*
X100908555Y-90619899D01*
X101031353Y-90589437D01*
X101133303Y-90545065D01*
X101216814Y-90485729D01*
X101284293Y-90410376D01*
X101338149Y-90317950D01*
X101339208Y-90315696D01*
X101371349Y-90232976D01*
X101382801Y-90159716D01*
X101373520Y-90085988D01*
X101343461Y-90001865D01*
X101337761Y-89989063D01*
X101298885Y-89914138D01*
X101255195Y-89856243D01*
X101198806Y-89807028D01*
X101121838Y-89758143D01*
X101117366Y-89755591D01*
X101050363Y-89723405D01*
X100974631Y-89699368D01*
X100885304Y-89682649D01*
X100777515Y-89672421D01*
X100646398Y-89667854D01*
X100600072Y-89667457D01*
X100379476Y-89666666D01*
X100348326Y-89706267D01*
X100339086Y-89719289D01*
X100331878Y-89734496D01*
X100326450Y-89755534D01*
X100322551Y-89786050D01*
X100319929Y-89829689D01*
X100319074Y-89862051D01*
X100527591Y-89862051D01*
X100652582Y-89862051D01*
X100725723Y-89864190D01*
X100800807Y-89869819D01*
X100862430Y-89877757D01*
X100866149Y-89878425D01*
X100975599Y-89907788D01*
X101060494Y-89951903D01*
X101123518Y-90012817D01*
X101167360Y-90092576D01*
X101174983Y-90113716D01*
X101182456Y-90146638D01*
X101179221Y-90179164D01*
X101163479Y-90222436D01*
X101153990Y-90243693D01*
X101122917Y-90300180D01*
X101085479Y-90339809D01*
X101044287Y-90367406D01*
X100961776Y-90403318D01*
X100856179Y-90429332D01*
X100733164Y-90444312D01*
X100644070Y-90447608D01*
X100527591Y-90448205D01*
X100527591Y-89862051D01*
X100319074Y-89862051D01*
X100318332Y-89890100D01*
X100317510Y-89970928D01*
X100317210Y-90075819D01*
X100317176Y-90157838D01*
X100317176Y-90569808D01*
X100354067Y-90606699D01*
X100370440Y-90621652D01*
X100388143Y-90631892D01*
X100412865Y-90638299D01*
X100450294Y-90641753D01*
X100506119Y-90643133D01*
X100586028Y-90643319D01*
X100590783Y-90643313D01*
G36*
X99541716Y-90643333D02*
G01*
X99643377Y-90642116D01*
X99721282Y-90639270D01*
X99778581Y-90634126D01*
X99818427Y-90626016D01*
X99843968Y-90614269D01*
X99858357Y-90598218D01*
X99864745Y-90577192D01*
X99866281Y-90550524D01*
X99866289Y-90547374D01*
X99864955Y-90517210D01*
X99858651Y-90493897D01*
X99843922Y-90476494D01*
X99817315Y-90464060D01*
X99775374Y-90455655D01*
X99714646Y-90450335D01*
X99631676Y-90447161D01*
X99523011Y-90445191D01*
X99489705Y-90444755D01*
X99167413Y-90440690D01*
X99162906Y-90354270D01*
X99158398Y-90267850D01*
X99382263Y-90267850D01*
X99469721Y-90267527D01*
X99532169Y-90266163D01*
X99574654Y-90263161D01*
X99602223Y-90257927D01*
X99619922Y-90249865D01*
X99632797Y-90238380D01*
X99632880Y-90238289D01*
X99656230Y-90193529D01*
X99655386Y-90145153D01*
X99630879Y-90103914D01*
X99626029Y-90099675D01*
X99608815Y-90088751D01*
X99585226Y-90081151D01*
X99550007Y-90076303D01*
X99497900Y-90073634D01*
X99423650Y-90072572D01*
X99376162Y-90072465D01*
X99159898Y-90072465D01*
X99159898Y-89862051D01*
X99488220Y-89862051D01*
X99596618Y-89861861D01*
X99678935Y-89861086D01*
X99739149Y-89859416D01*
X99781235Y-89856542D01*
X99809171Y-89852153D01*
X99826934Y-89845941D01*
X99838500Y-89837596D01*
X99841415Y-89834566D01*
X99862936Y-89792566D01*
X99864510Y-89744786D01*
X99846855Y-89703358D01*
X99832885Y-89690063D01*
X99818354Y-89682744D01*
X99795838Y-89677081D01*
X99761776Y-89672877D01*
X99712607Y-89669932D01*
X99644768Y-89668049D01*
X99554698Y-89667030D01*
X99438837Y-89666675D01*
X99412643Y-89666666D01*
X99294839Y-89666744D01*
X99203396Y-89667169D01*
X99134614Y-89668234D01*
X99084796Y-89670231D01*
X99050240Y-89673450D01*
X99027250Y-89678184D01*
X99012126Y-89684723D01*
X99001169Y-89693359D01*
X98995158Y-89699560D01*
X98986110Y-89710543D01*
X98979042Y-89724148D01*
X98973709Y-89743944D01*
X98969868Y-89773498D01*
X98967275Y-89816379D01*
X98965687Y-89876155D01*
X98964861Y-89956393D01*
X98964552Y-90060661D01*
X98964514Y-90148420D01*
X98964608Y-90271392D01*
X98965057Y-90367931D01*
X98966108Y-90441661D01*
X98968010Y-90496210D01*
X98971009Y-90535201D01*
X98975355Y-90562261D01*
X98981294Y-90581016D01*
X98989075Y-90595090D01*
X98995664Y-90603989D01*
X99026814Y-90643590D01*
X99413148Y-90643590D01*
X99541716Y-90643333D01*
G37*
X99541716Y-90643333D02*
X99643377Y-90642116D01*
X99721282Y-90639270D01*
X99778581Y-90634126D01*
X99818427Y-90626016D01*
X99843968Y-90614269D01*
X99858357Y-90598218D01*
X99864745Y-90577192D01*
X99866281Y-90550524D01*
X99866289Y-90547374D01*
X99864955Y-90517210D01*
X99858651Y-90493897D01*
X99843922Y-90476494D01*
X99817315Y-90464060D01*
X99775374Y-90455655D01*
X99714646Y-90450335D01*
X99631676Y-90447161D01*
X99523011Y-90445191D01*
X99489705Y-90444755D01*
X99167413Y-90440690D01*
X99162906Y-90354270D01*
X99158398Y-90267850D01*
X99382263Y-90267850D01*
X99469721Y-90267527D01*
X99532169Y-90266163D01*
X99574654Y-90263161D01*
X99602223Y-90257927D01*
X99619922Y-90249865D01*
X99632797Y-90238380D01*
X99632880Y-90238289D01*
X99656230Y-90193529D01*
X99655386Y-90145153D01*
X99630879Y-90103914D01*
X99626029Y-90099675D01*
X99608815Y-90088751D01*
X99585226Y-90081151D01*
X99550007Y-90076303D01*
X99497900Y-90073634D01*
X99423650Y-90072572D01*
X99376162Y-90072465D01*
X99159898Y-90072465D01*
X99159898Y-89862051D01*
X99488220Y-89862051D01*
X99596618Y-89861861D01*
X99678935Y-89861086D01*
X99739149Y-89859416D01*
X99781235Y-89856542D01*
X99809171Y-89852153D01*
X99826934Y-89845941D01*
X99838500Y-89837596D01*
X99841415Y-89834566D01*
X99862936Y-89792566D01*
X99864510Y-89744786D01*
X99846855Y-89703358D01*
X99832885Y-89690063D01*
X99818354Y-89682744D01*
X99795838Y-89677081D01*
X99761776Y-89672877D01*
X99712607Y-89669932D01*
X99644768Y-89668049D01*
X99554698Y-89667030D01*
X99438837Y-89666675D01*
X99412643Y-89666666D01*
X99294839Y-89666744D01*
X99203396Y-89667169D01*
X99134614Y-89668234D01*
X99084796Y-89670231D01*
X99050240Y-89673450D01*
X99027250Y-89678184D01*
X99012126Y-89684723D01*
X99001169Y-89693359D01*
X98995158Y-89699560D01*
X98986110Y-89710543D01*
X98979042Y-89724148D01*
X98973709Y-89743944D01*
X98969868Y-89773498D01*
X98967275Y-89816379D01*
X98965687Y-89876155D01*
X98964861Y-89956393D01*
X98964552Y-90060661D01*
X98964514Y-90148420D01*
X98964608Y-90271392D01*
X98965057Y-90367931D01*
X98966108Y-90441661D01*
X98968010Y-90496210D01*
X98971009Y-90535201D01*
X98975355Y-90562261D01*
X98981294Y-90581016D01*
X98989075Y-90595090D01*
X98995664Y-90603989D01*
X99026814Y-90643590D01*
X99413148Y-90643590D01*
X99541716Y-90643333D01*
G36*
X97504126Y-90637756D02*
G01*
X97535501Y-90619351D01*
X97576524Y-90589251D01*
X97629322Y-90546040D01*
X97696021Y-90488298D01*
X97778747Y-90414608D01*
X97879626Y-90323552D01*
X97995105Y-90218862D01*
X98235579Y-90000793D01*
X98243094Y-90293492D01*
X98245807Y-90394246D01*
X98248424Y-90469278D01*
X98251526Y-90522916D01*
X98255690Y-90559490D01*
X98261495Y-90583329D01*
X98269522Y-90598762D01*
X98280349Y-90610118D01*
X98286090Y-90614890D01*
X98332063Y-90640123D01*
X98375809Y-90636434D01*
X98410511Y-90614877D01*
X98445993Y-90586165D01*
X98450406Y-90166850D01*
X98451627Y-90043529D01*
X98452249Y-89946652D01*
X98452056Y-89872606D01*
X98450832Y-89817779D01*
X98448362Y-89778557D01*
X98444432Y-89751327D01*
X98438826Y-89732477D01*
X98431328Y-89718395D01*
X98423013Y-89707101D01*
X98405024Y-89686154D01*
X98387125Y-89672269D01*
X98366834Y-89666940D01*
X98341668Y-89671660D01*
X98309146Y-89687923D01*
X98266783Y-89717223D01*
X98212098Y-89761054D01*
X98142609Y-89820909D01*
X98055831Y-89898282D01*
X97957531Y-89987186D01*
X97604336Y-90307565D01*
X97596821Y-90015823D01*
X97594103Y-89915253D01*
X97591479Y-89840396D01*
X97588367Y-89786916D01*
X97584184Y-89750474D01*
X97578349Y-89726732D01*
X97570280Y-89711354D01*
X97559395Y-89700000D01*
X97553825Y-89695374D01*
X97504590Y-89669958D01*
X97458069Y-89673791D01*
X97417557Y-89706267D01*
X97408290Y-89719333D01*
X97401067Y-89734591D01*
X97395634Y-89755704D01*
X97391738Y-89786331D01*
X97389125Y-89830134D01*
X97387539Y-89890773D01*
X97386728Y-89971909D01*
X97386438Y-90077203D01*
X97386407Y-90155128D01*
X97386505Y-90277012D01*
X97386967Y-90372497D01*
X97388049Y-90445245D01*
X97390003Y-90498917D01*
X97393084Y-90537173D01*
X97397546Y-90563673D01*
X97403643Y-90582080D01*
X97411629Y-90596052D01*
X97417557Y-90603989D01*
X97432584Y-90622788D01*
X97446628Y-90636983D01*
X97461816Y-90645154D01*
X97480273Y-90645884D01*
X97504126Y-90637756D01*
G37*
X97504126Y-90637756D02*
X97535501Y-90619351D01*
X97576524Y-90589251D01*
X97629322Y-90546040D01*
X97696021Y-90488298D01*
X97778747Y-90414608D01*
X97879626Y-90323552D01*
X97995105Y-90218862D01*
X98235579Y-90000793D01*
X98243094Y-90293492D01*
X98245807Y-90394246D01*
X98248424Y-90469278D01*
X98251526Y-90522916D01*
X98255690Y-90559490D01*
X98261495Y-90583329D01*
X98269522Y-90598762D01*
X98280349Y-90610118D01*
X98286090Y-90614890D01*
X98332063Y-90640123D01*
X98375809Y-90636434D01*
X98410511Y-90614877D01*
X98445993Y-90586165D01*
X98450406Y-90166850D01*
X98451627Y-90043529D01*
X98452249Y-89946652D01*
X98452056Y-89872606D01*
X98450832Y-89817779D01*
X98448362Y-89778557D01*
X98444432Y-89751327D01*
X98438826Y-89732477D01*
X98431328Y-89718395D01*
X98423013Y-89707101D01*
X98405024Y-89686154D01*
X98387125Y-89672269D01*
X98366834Y-89666940D01*
X98341668Y-89671660D01*
X98309146Y-89687923D01*
X98266783Y-89717223D01*
X98212098Y-89761054D01*
X98142609Y-89820909D01*
X98055831Y-89898282D01*
X97957531Y-89987186D01*
X97604336Y-90307565D01*
X97596821Y-90015823D01*
X97594103Y-89915253D01*
X97591479Y-89840396D01*
X97588367Y-89786916D01*
X97584184Y-89750474D01*
X97578349Y-89726732D01*
X97570280Y-89711354D01*
X97559395Y-89700000D01*
X97553825Y-89695374D01*
X97504590Y-89669958D01*
X97458069Y-89673791D01*
X97417557Y-89706267D01*
X97408290Y-89719333D01*
X97401067Y-89734591D01*
X97395634Y-89755704D01*
X97391738Y-89786331D01*
X97389125Y-89830134D01*
X97387539Y-89890773D01*
X97386728Y-89971909D01*
X97386438Y-90077203D01*
X97386407Y-90155128D01*
X97386505Y-90277012D01*
X97386967Y-90372497D01*
X97388049Y-90445245D01*
X97390003Y-90498917D01*
X97393084Y-90537173D01*
X97397546Y-90563673D01*
X97403643Y-90582080D01*
X97411629Y-90596052D01*
X97417557Y-90603989D01*
X97432584Y-90622788D01*
X97446628Y-90636983D01*
X97461816Y-90645154D01*
X97480273Y-90645884D01*
X97504126Y-90637756D01*
G36*
X96638784Y-90636224D02*
G01*
X96730005Y-90620918D01*
X96800064Y-90597125D01*
X96845642Y-90565796D01*
X96858062Y-90547922D01*
X96870692Y-90506351D01*
X96862193Y-90468744D01*
X96835361Y-90433081D01*
X96793670Y-90416397D01*
X96733176Y-90417752D01*
X96686387Y-90426791D01*
X96582418Y-90444013D01*
X96476166Y-90445649D01*
X96357237Y-90431671D01*
X96324386Y-90425748D01*
X96213801Y-90394569D01*
X96127287Y-90348190D01*
X96065793Y-90287401D01*
X96030268Y-90212992D01*
X96022921Y-90174522D01*
X96027730Y-90096473D01*
X96058780Y-90027419D01*
X96113240Y-89968707D01*
X96188282Y-89921683D01*
X96281076Y-89887693D01*
X96388794Y-89868082D01*
X96508605Y-89864195D01*
X96637681Y-89877380D01*
X96644969Y-89878624D01*
X96696308Y-89888186D01*
X96724774Y-89897422D01*
X96737112Y-89911127D01*
X96740068Y-89934094D01*
X96740135Y-89946257D01*
X96740135Y-89997317D01*
X96648969Y-89997317D01*
X96568464Y-90002832D01*
X96513525Y-90020406D01*
X96481560Y-90051583D01*
X96469974Y-90097906D01*
X96469833Y-90103952D01*
X96476611Y-90143547D01*
X96499855Y-90171819D01*
X96543116Y-90190529D01*
X96609945Y-90201436D01*
X96674676Y-90205446D01*
X96768759Y-90207747D01*
X96837002Y-90204236D01*
X96883545Y-90191281D01*
X96912528Y-90165250D01*
X96928091Y-90122509D01*
X96934375Y-90059426D01*
X96935520Y-89976572D01*
X96933644Y-89884090D01*
X96928000Y-89821182D01*
X96918564Y-89787597D01*
X96916733Y-89784967D01*
X96864921Y-89743002D01*
X96788956Y-89709768D01*
X96693654Y-89685977D01*
X96583830Y-89672337D01*
X96464300Y-89669558D01*
X96339880Y-89678351D01*
X96266703Y-89689151D01*
X96151926Y-89721638D01*
X96045250Y-89774750D01*
X95955935Y-89843681D01*
X95942360Y-89857458D01*
X95898254Y-89915378D01*
X95858457Y-89987160D01*
X95827619Y-90062417D01*
X95810389Y-90130759D01*
X95808312Y-90157007D01*
X95817153Y-90211759D01*
X95840651Y-90279881D01*
X95874297Y-90351586D01*
X95913582Y-90417087D01*
X95948291Y-90460838D01*
X96029443Y-90525917D01*
X96134348Y-90577715D01*
X96259246Y-90615062D01*
X96400379Y-90636783D01*
X96529721Y-90642091D01*
X96638784Y-90636224D01*
G37*
X96638784Y-90636224D02*
X96730005Y-90620918D01*
X96800064Y-90597125D01*
X96845642Y-90565796D01*
X96858062Y-90547922D01*
X96870692Y-90506351D01*
X96862193Y-90468744D01*
X96835361Y-90433081D01*
X96793670Y-90416397D01*
X96733176Y-90417752D01*
X96686387Y-90426791D01*
X96582418Y-90444013D01*
X96476166Y-90445649D01*
X96357237Y-90431671D01*
X96324386Y-90425748D01*
X96213801Y-90394569D01*
X96127287Y-90348190D01*
X96065793Y-90287401D01*
X96030268Y-90212992D01*
X96022921Y-90174522D01*
X96027730Y-90096473D01*
X96058780Y-90027419D01*
X96113240Y-89968707D01*
X96188282Y-89921683D01*
X96281076Y-89887693D01*
X96388794Y-89868082D01*
X96508605Y-89864195D01*
X96637681Y-89877380D01*
X96644969Y-89878624D01*
X96696308Y-89888186D01*
X96724774Y-89897422D01*
X96737112Y-89911127D01*
X96740068Y-89934094D01*
X96740135Y-89946257D01*
X96740135Y-89997317D01*
X96648969Y-89997317D01*
X96568464Y-90002832D01*
X96513525Y-90020406D01*
X96481560Y-90051583D01*
X96469974Y-90097906D01*
X96469833Y-90103952D01*
X96476611Y-90143547D01*
X96499855Y-90171819D01*
X96543116Y-90190529D01*
X96609945Y-90201436D01*
X96674676Y-90205446D01*
X96768759Y-90207747D01*
X96837002Y-90204236D01*
X96883545Y-90191281D01*
X96912528Y-90165250D01*
X96928091Y-90122509D01*
X96934375Y-90059426D01*
X96935520Y-89976572D01*
X96933644Y-89884090D01*
X96928000Y-89821182D01*
X96918564Y-89787597D01*
X96916733Y-89784967D01*
X96864921Y-89743002D01*
X96788956Y-89709768D01*
X96693654Y-89685977D01*
X96583830Y-89672337D01*
X96464300Y-89669558D01*
X96339880Y-89678351D01*
X96266703Y-89689151D01*
X96151926Y-89721638D01*
X96045250Y-89774750D01*
X95955935Y-89843681D01*
X95942360Y-89857458D01*
X95898254Y-89915378D01*
X95858457Y-89987160D01*
X95827619Y-90062417D01*
X95810389Y-90130759D01*
X95808312Y-90157007D01*
X95817153Y-90211759D01*
X95840651Y-90279881D01*
X95874297Y-90351586D01*
X95913582Y-90417087D01*
X95948291Y-90460838D01*
X96029443Y-90525917D01*
X96134348Y-90577715D01*
X96259246Y-90615062D01*
X96400379Y-90636783D01*
X96529721Y-90642091D01*
X96638784Y-90636224D01*
G36*
X95342383Y-90613530D02*
G01*
X95351145Y-90603448D01*
X95358018Y-90590441D01*
X95363231Y-90571025D01*
X95367012Y-90541716D01*
X95369590Y-90499029D01*
X95371193Y-90439481D01*
X95372051Y-90359586D01*
X95372390Y-90255860D01*
X95372443Y-90155128D01*
X95372350Y-90030184D01*
X95371919Y-89931815D01*
X95370923Y-89856535D01*
X95369131Y-89800862D01*
X95366317Y-89761310D01*
X95362250Y-89734395D01*
X95356704Y-89716633D01*
X95349449Y-89704539D01*
X95342383Y-89696726D01*
X95298444Y-89670524D01*
X95251626Y-89672875D01*
X95209737Y-89701452D01*
X95200112Y-89712609D01*
X95192591Y-89725553D01*
X95186912Y-89743864D01*
X95182819Y-89771118D01*
X95180051Y-89810896D01*
X95178350Y-89866774D01*
X95177457Y-89942332D01*
X95177113Y-90041148D01*
X95177058Y-90153022D01*
X95177058Y-90569808D01*
X95213949Y-90606699D01*
X95259421Y-90637736D01*
X95303530Y-90638855D01*
X95342383Y-90613530D01*
G37*
X95342383Y-90613530D02*
X95351145Y-90603448D01*
X95358018Y-90590441D01*
X95363231Y-90571025D01*
X95367012Y-90541716D01*
X95369590Y-90499029D01*
X95371193Y-90439481D01*
X95372051Y-90359586D01*
X95372390Y-90255860D01*
X95372443Y-90155128D01*
X95372350Y-90030184D01*
X95371919Y-89931815D01*
X95370923Y-89856535D01*
X95369131Y-89800862D01*
X95366317Y-89761310D01*
X95362250Y-89734395D01*
X95356704Y-89716633D01*
X95349449Y-89704539D01*
X95342383Y-89696726D01*
X95298444Y-89670524D01*
X95251626Y-89672875D01*
X95209737Y-89701452D01*
X95200112Y-89712609D01*
X95192591Y-89725553D01*
X95186912Y-89743864D01*
X95182819Y-89771118D01*
X95180051Y-89810896D01*
X95178350Y-89866774D01*
X95177457Y-89942332D01*
X95177113Y-90041148D01*
X95177058Y-90153022D01*
X95177058Y-90569808D01*
X95213949Y-90606699D01*
X95259421Y-90637736D01*
X95303530Y-90638855D01*
X95342383Y-90613530D01*
G36*
X94320058Y-90641879D02*
G01*
X94419663Y-90634916D01*
X94512302Y-90624041D01*
X94592588Y-90609662D01*
X94655138Y-90592190D01*
X94694565Y-90572034D01*
X94700617Y-90566101D01*
X94721662Y-90520061D01*
X94715280Y-90472796D01*
X94682639Y-90432358D01*
X94681082Y-90431199D01*
X94661883Y-90418739D01*
X94641841Y-90412187D01*
X94613886Y-90411392D01*
X94570947Y-90416200D01*
X94505955Y-90426461D01*
X94500727Y-90427325D01*
X94403885Y-90439222D01*
X94299402Y-90445091D01*
X94194611Y-90445148D01*
X94096844Y-90439609D01*
X94013434Y-90428691D01*
X93951713Y-90412611D01*
X93947658Y-90410995D01*
X93902882Y-90385907D01*
X93887150Y-90360518D01*
X93899466Y-90335549D01*
X93938831Y-90311720D01*
X94004248Y-90289754D01*
X94094720Y-90270370D01*
X94155046Y-90261038D01*
X94280446Y-90243087D01*
X94380181Y-90226677D01*
X94458500Y-90210388D01*
X94519653Y-90192798D01*
X94567887Y-90172487D01*
X94607451Y-90148033D01*
X94642594Y-90118016D01*
X94670835Y-90088540D01*
X94704338Y-90047469D01*
X94720827Y-90012154D01*
X94725983Y-89968643D01*
X94726170Y-89952708D01*
X94722298Y-89899831D01*
X94706819Y-89860493D01*
X94680031Y-89825576D01*
X94625587Y-89772202D01*
X94564876Y-89731498D01*
X94493388Y-89702136D01*
X94406610Y-89682789D01*
X94300032Y-89672130D01*
X94169143Y-89668831D01*
X94147531Y-89668887D01*
X94060248Y-89670696D01*
X93973687Y-89674807D01*
X93897284Y-89680630D01*
X93840476Y-89687575D01*
X93835882Y-89688372D01*
X93779401Y-89701752D01*
X93731494Y-89718654D01*
X93704373Y-89734105D01*
X93679135Y-89774870D01*
X93677377Y-89822338D01*
X93699134Y-89864641D01*
X93704002Y-89869424D01*
X93724124Y-89883637D01*
X93749288Y-89889760D01*
X93788233Y-89888718D01*
X93835511Y-89883302D01*
X93888341Y-89878463D01*
X93962398Y-89874381D01*
X94048855Y-89871418D01*
X94138883Y-89869939D01*
X94162561Y-89869842D01*
X94252924Y-89870206D01*
X94319057Y-89871960D01*
X94366779Y-89875713D01*
X94401908Y-89882073D01*
X94430264Y-89891649D01*
X94447305Y-89899625D01*
X94484750Y-89921771D01*
X94508625Y-89941828D01*
X94512114Y-89947513D01*
X94504753Y-89970991D01*
X94469759Y-89993719D01*
X94409558Y-90014666D01*
X94326575Y-90032800D01*
X94302126Y-90036839D01*
X94174424Y-90056897D01*
X94072506Y-90073662D01*
X93992440Y-90088353D01*
X93930292Y-90102188D01*
X93882128Y-90116385D01*
X93844014Y-90132163D01*
X93812016Y-90150740D01*
X93782202Y-90173334D01*
X93750636Y-90201163D01*
X93740014Y-90210920D01*
X93702773Y-90247334D01*
X93683059Y-90276184D01*
X93675347Y-90309198D01*
X93674099Y-90350801D01*
X93687831Y-90432385D01*
X93728868Y-90501702D01*
X93796976Y-90558528D01*
X93891919Y-90602639D01*
X93959662Y-90622424D01*
X94033287Y-90635203D01*
X94121485Y-90642432D01*
X94218870Y-90644521D01*
X94320058Y-90641879D01*
G37*
X94320058Y-90641879D02*
X94419663Y-90634916D01*
X94512302Y-90624041D01*
X94592588Y-90609662D01*
X94655138Y-90592190D01*
X94694565Y-90572034D01*
X94700617Y-90566101D01*
X94721662Y-90520061D01*
X94715280Y-90472796D01*
X94682639Y-90432358D01*
X94681082Y-90431199D01*
X94661883Y-90418739D01*
X94641841Y-90412187D01*
X94613886Y-90411392D01*
X94570947Y-90416200D01*
X94505955Y-90426461D01*
X94500727Y-90427325D01*
X94403885Y-90439222D01*
X94299402Y-90445091D01*
X94194611Y-90445148D01*
X94096844Y-90439609D01*
X94013434Y-90428691D01*
X93951713Y-90412611D01*
X93947658Y-90410995D01*
X93902882Y-90385907D01*
X93887150Y-90360518D01*
X93899466Y-90335549D01*
X93938831Y-90311720D01*
X94004248Y-90289754D01*
X94094720Y-90270370D01*
X94155046Y-90261038D01*
X94280446Y-90243087D01*
X94380181Y-90226677D01*
X94458500Y-90210388D01*
X94519653Y-90192798D01*
X94567887Y-90172487D01*
X94607451Y-90148033D01*
X94642594Y-90118016D01*
X94670835Y-90088540D01*
X94704338Y-90047469D01*
X94720827Y-90012154D01*
X94725983Y-89968643D01*
X94726170Y-89952708D01*
X94722298Y-89899831D01*
X94706819Y-89860493D01*
X94680031Y-89825576D01*
X94625587Y-89772202D01*
X94564876Y-89731498D01*
X94493388Y-89702136D01*
X94406610Y-89682789D01*
X94300032Y-89672130D01*
X94169143Y-89668831D01*
X94147531Y-89668887D01*
X94060248Y-89670696D01*
X93973687Y-89674807D01*
X93897284Y-89680630D01*
X93840476Y-89687575D01*
X93835882Y-89688372D01*
X93779401Y-89701752D01*
X93731494Y-89718654D01*
X93704373Y-89734105D01*
X93679135Y-89774870D01*
X93677377Y-89822338D01*
X93699134Y-89864641D01*
X93704002Y-89869424D01*
X93724124Y-89883637D01*
X93749288Y-89889760D01*
X93788233Y-89888718D01*
X93835511Y-89883302D01*
X93888341Y-89878463D01*
X93962398Y-89874381D01*
X94048855Y-89871418D01*
X94138883Y-89869939D01*
X94162561Y-89869842D01*
X94252924Y-89870206D01*
X94319057Y-89871960D01*
X94366779Y-89875713D01*
X94401908Y-89882073D01*
X94430264Y-89891649D01*
X94447305Y-89899625D01*
X94484750Y-89921771D01*
X94508625Y-89941828D01*
X94512114Y-89947513D01*
X94504753Y-89970991D01*
X94469759Y-89993719D01*
X94409558Y-90014666D01*
X94326575Y-90032800D01*
X94302126Y-90036839D01*
X94174424Y-90056897D01*
X94072506Y-90073662D01*
X93992440Y-90088353D01*
X93930292Y-90102188D01*
X93882128Y-90116385D01*
X93844014Y-90132163D01*
X93812016Y-90150740D01*
X93782202Y-90173334D01*
X93750636Y-90201163D01*
X93740014Y-90210920D01*
X93702773Y-90247334D01*
X93683059Y-90276184D01*
X93675347Y-90309198D01*
X93674099Y-90350801D01*
X93687831Y-90432385D01*
X93728868Y-90501702D01*
X93796976Y-90558528D01*
X93891919Y-90602639D01*
X93959662Y-90622424D01*
X94033287Y-90635203D01*
X94121485Y-90642432D01*
X94218870Y-90644521D01*
X94320058Y-90641879D01*
G36*
X92960616Y-90643484D02*
G01*
X93053024Y-90642988D01*
X93122773Y-90641835D01*
X93173563Y-90639756D01*
X93209095Y-90636485D01*
X93233068Y-90631753D01*
X93249182Y-90625293D01*
X93261137Y-90616837D01*
X93265467Y-90612945D01*
X93291795Y-90571596D01*
X93296535Y-90524084D01*
X93279216Y-90481905D01*
X93271207Y-90473380D01*
X93258254Y-90465115D01*
X93237398Y-90458739D01*
X93204770Y-90453941D01*
X93156504Y-90450412D01*
X93088732Y-90447842D01*
X92997586Y-90445919D01*
X92914255Y-90444749D01*
X92584454Y-90440690D01*
X92575440Y-90267850D01*
X92799304Y-90267850D01*
X92896492Y-90267011D01*
X92967643Y-90263504D01*
X93016755Y-90255841D01*
X93047829Y-90242533D01*
X93064862Y-90222095D01*
X93071854Y-90193037D01*
X93072916Y-90166069D01*
X93069616Y-90132979D01*
X93057163Y-90108596D01*
X93031726Y-90091647D01*
X92989475Y-90080857D01*
X92926580Y-90074952D01*
X92839211Y-90072659D01*
X92791525Y-90072465D01*
X92576940Y-90072465D01*
X92576940Y-89862051D01*
X92907591Y-89862051D01*
X93015976Y-89861900D01*
X93098349Y-89861222D01*
X93158757Y-89859680D01*
X93201247Y-89856937D01*
X93229865Y-89852655D01*
X93248658Y-89846497D01*
X93261672Y-89838127D01*
X93268301Y-89831992D01*
X93291039Y-89796187D01*
X93298360Y-89764359D01*
X93287907Y-89725482D01*
X93268301Y-89696726D01*
X93257841Y-89687673D01*
X93244338Y-89680643D01*
X93224160Y-89675382D01*
X93193675Y-89671635D01*
X93149251Y-89669146D01*
X93087255Y-89667661D01*
X93004055Y-89666925D01*
X92896019Y-89666682D01*
X92839957Y-89666666D01*
X92719902Y-89666773D01*
X92626272Y-89667261D01*
X92555437Y-89668387D01*
X92503765Y-89670405D01*
X92467623Y-89673570D01*
X92443378Y-89678137D01*
X92427399Y-89684360D01*
X92416053Y-89692496D01*
X92411614Y-89696726D01*
X92402829Y-89706840D01*
X92395942Y-89719888D01*
X92390725Y-89739366D01*
X92386947Y-89768772D01*
X92384376Y-89811602D01*
X92382782Y-89871352D01*
X92381935Y-89951519D01*
X92381604Y-90055599D01*
X92381555Y-90152508D01*
X92381600Y-90276613D01*
X92381912Y-90374170D01*
X92382758Y-90448690D01*
X92384404Y-90503685D01*
X92387117Y-90542666D01*
X92391163Y-90569143D01*
X92396809Y-90586630D01*
X92404320Y-90598636D01*
X92413964Y-90608673D01*
X92416340Y-90610910D01*
X92427871Y-90620817D01*
X92441268Y-90628488D01*
X92460250Y-90634210D01*
X92488531Y-90638268D01*
X92529828Y-90640948D01*
X92587858Y-90642534D01*
X92666337Y-90643312D01*
X92768980Y-90643568D01*
X92841850Y-90643590D01*
X92960616Y-90643484D01*
G37*
X92960616Y-90643484D02*
X93053024Y-90642988D01*
X93122773Y-90641835D01*
X93173563Y-90639756D01*
X93209095Y-90636485D01*
X93233068Y-90631753D01*
X93249182Y-90625293D01*
X93261137Y-90616837D01*
X93265467Y-90612945D01*
X93291795Y-90571596D01*
X93296535Y-90524084D01*
X93279216Y-90481905D01*
X93271207Y-90473380D01*
X93258254Y-90465115D01*
X93237398Y-90458739D01*
X93204770Y-90453941D01*
X93156504Y-90450412D01*
X93088732Y-90447842D01*
X92997586Y-90445919D01*
X92914255Y-90444749D01*
X92584454Y-90440690D01*
X92575440Y-90267850D01*
X92799304Y-90267850D01*
X92896492Y-90267011D01*
X92967643Y-90263504D01*
X93016755Y-90255841D01*
X93047829Y-90242533D01*
X93064862Y-90222095D01*
X93071854Y-90193037D01*
X93072916Y-90166069D01*
X93069616Y-90132979D01*
X93057163Y-90108596D01*
X93031726Y-90091647D01*
X92989475Y-90080857D01*
X92926580Y-90074952D01*
X92839211Y-90072659D01*
X92791525Y-90072465D01*
X92576940Y-90072465D01*
X92576940Y-89862051D01*
X92907591Y-89862051D01*
X93015976Y-89861900D01*
X93098349Y-89861222D01*
X93158757Y-89859680D01*
X93201247Y-89856937D01*
X93229865Y-89852655D01*
X93248658Y-89846497D01*
X93261672Y-89838127D01*
X93268301Y-89831992D01*
X93291039Y-89796187D01*
X93298360Y-89764359D01*
X93287907Y-89725482D01*
X93268301Y-89696726D01*
X93257841Y-89687673D01*
X93244338Y-89680643D01*
X93224160Y-89675382D01*
X93193675Y-89671635D01*
X93149251Y-89669146D01*
X93087255Y-89667661D01*
X93004055Y-89666925D01*
X92896019Y-89666682D01*
X92839957Y-89666666D01*
X92719902Y-89666773D01*
X92626272Y-89667261D01*
X92555437Y-89668387D01*
X92503765Y-89670405D01*
X92467623Y-89673570D01*
X92443378Y-89678137D01*
X92427399Y-89684360D01*
X92416053Y-89692496D01*
X92411614Y-89696726D01*
X92402829Y-89706840D01*
X92395942Y-89719888D01*
X92390725Y-89739366D01*
X92386947Y-89768772D01*
X92384376Y-89811602D01*
X92382782Y-89871352D01*
X92381935Y-89951519D01*
X92381604Y-90055599D01*
X92381555Y-90152508D01*
X92381600Y-90276613D01*
X92381912Y-90374170D01*
X92382758Y-90448690D01*
X92384404Y-90503685D01*
X92387117Y-90542666D01*
X92391163Y-90569143D01*
X92396809Y-90586630D01*
X92404320Y-90598636D01*
X92413964Y-90608673D01*
X92416340Y-90610910D01*
X92427871Y-90620817D01*
X92441268Y-90628488D01*
X92460250Y-90634210D01*
X92488531Y-90638268D01*
X92529828Y-90640948D01*
X92587858Y-90642534D01*
X92666337Y-90643312D01*
X92768980Y-90643568D01*
X92841850Y-90643590D01*
X92960616Y-90643484D01*
G36*
X91085292Y-90643591D02*
G01*
X91137857Y-90643056D01*
X91291881Y-90639340D01*
X91420875Y-90628301D01*
X91529237Y-90608754D01*
X91621362Y-90579517D01*
X91701647Y-90539403D01*
X91774488Y-90487231D01*
X91800505Y-90464567D01*
X91843663Y-90411538D01*
X91882579Y-90339579D01*
X91912573Y-90259816D01*
X91928965Y-90183375D01*
X91930668Y-90155128D01*
X91919995Y-90076826D01*
X91891393Y-89991295D01*
X91849989Y-89910337D01*
X91800905Y-89845754D01*
X91792933Y-89837962D01*
X91725400Y-89783192D01*
X91651448Y-89740437D01*
X91566812Y-89708577D01*
X91467229Y-89686492D01*
X91348434Y-89673062D01*
X91206166Y-89667166D01*
X91141000Y-89666666D01*
X91058145Y-89667065D01*
X90999877Y-89668734D01*
X90960730Y-89672378D01*
X90935237Y-89678707D01*
X90917932Y-89688426D01*
X90908656Y-89696726D01*
X90899894Y-89706808D01*
X90893021Y-89719815D01*
X90887808Y-89739231D01*
X90884027Y-89768540D01*
X90881449Y-89811227D01*
X90879846Y-89870775D01*
X90878989Y-89950670D01*
X90878649Y-90054395D01*
X90878597Y-90155128D01*
X90878266Y-90289481D01*
X90878338Y-90396808D01*
X90879616Y-90448205D01*
X91073981Y-90448205D01*
X91073981Y-89862051D01*
X91197975Y-89862165D01*
X91272585Y-89864304D01*
X91350728Y-89869817D01*
X91415926Y-89877528D01*
X91417910Y-89877845D01*
X91523283Y-89903322D01*
X91605014Y-89943000D01*
X91667184Y-89999462D01*
X91706686Y-90060594D01*
X91731026Y-90128407D01*
X91729139Y-90192081D01*
X91700891Y-90260335D01*
X91645638Y-90330944D01*
X91569073Y-90383265D01*
X91469551Y-90418237D01*
X91403039Y-90430614D01*
X91327539Y-90439306D01*
X91247521Y-90445596D01*
X91179462Y-90448212D01*
X91175431Y-90448224D01*
X91073981Y-90448205D01*
X90879616Y-90448205D01*
X90880410Y-90480119D01*
X90886085Y-90542421D01*
X90896959Y-90586725D01*
X90914632Y-90616040D01*
X90940703Y-90633375D01*
X90976771Y-90641739D01*
X91024434Y-90644141D01*
X91085292Y-90643591D01*
G37*
X91085292Y-90643591D02*
X91137857Y-90643056D01*
X91291881Y-90639340D01*
X91420875Y-90628301D01*
X91529237Y-90608754D01*
X91621362Y-90579517D01*
X91701647Y-90539403D01*
X91774488Y-90487231D01*
X91800505Y-90464567D01*
X91843663Y-90411538D01*
X91882579Y-90339579D01*
X91912573Y-90259816D01*
X91928965Y-90183375D01*
X91930668Y-90155128D01*
X91919995Y-90076826D01*
X91891393Y-89991295D01*
X91849989Y-89910337D01*
X91800905Y-89845754D01*
X91792933Y-89837962D01*
X91725400Y-89783192D01*
X91651448Y-89740437D01*
X91566812Y-89708577D01*
X91467229Y-89686492D01*
X91348434Y-89673062D01*
X91206166Y-89667166D01*
X91141000Y-89666666D01*
X91058145Y-89667065D01*
X90999877Y-89668734D01*
X90960730Y-89672378D01*
X90935237Y-89678707D01*
X90917932Y-89688426D01*
X90908656Y-89696726D01*
X90899894Y-89706808D01*
X90893021Y-89719815D01*
X90887808Y-89739231D01*
X90884027Y-89768540D01*
X90881449Y-89811227D01*
X90879846Y-89870775D01*
X90878989Y-89950670D01*
X90878649Y-90054395D01*
X90878597Y-90155128D01*
X90878266Y-90289481D01*
X90878338Y-90396808D01*
X90879616Y-90448205D01*
X91073981Y-90448205D01*
X91073981Y-89862051D01*
X91197975Y-89862165D01*
X91272585Y-89864304D01*
X91350728Y-89869817D01*
X91415926Y-89877528D01*
X91417910Y-89877845D01*
X91523283Y-89903322D01*
X91605014Y-89943000D01*
X91667184Y-89999462D01*
X91706686Y-90060594D01*
X91731026Y-90128407D01*
X91729139Y-90192081D01*
X91700891Y-90260335D01*
X91645638Y-90330944D01*
X91569073Y-90383265D01*
X91469551Y-90418237D01*
X91403039Y-90430614D01*
X91327539Y-90439306D01*
X91247521Y-90445596D01*
X91179462Y-90448212D01*
X91175431Y-90448224D01*
X91073981Y-90448205D01*
X90879616Y-90448205D01*
X90880410Y-90480119D01*
X90886085Y-90542421D01*
X90896959Y-90586725D01*
X90914632Y-90616040D01*
X90940703Y-90633375D01*
X90976771Y-90641739D01*
X91024434Y-90644141D01*
X91085292Y-90643591D01*
D12*
%TO.C,U2*%
X157734000Y-95250000D02*
X191135000Y-95250000D01*
X157734000Y-115570000D02*
X157734000Y-95250000D01*
X191135000Y-115570000D02*
X157734000Y-115570000D01*
X191135000Y-95250000D02*
X191135000Y-115570000D01*
D13*
%TO.C,U5*%
X135890000Y-107950000D02*
X143510000Y-107950000D01*
X135890000Y-119380000D02*
X135890000Y-107950000D01*
X151130000Y-119380000D02*
X135890000Y-119380000D01*
X151130000Y-107950000D02*
X151130000Y-119380000D01*
X143510000Y-107950000D02*
X151130000Y-107950000D01*
X138430000Y-110320000D02*
X138430000Y-108120000D01*
X136060000Y-108120000D02*
X136060000Y-110320000D01*
X150960000Y-108120000D02*
X136060000Y-108120000D01*
X150960000Y-110320000D02*
X150960000Y-108120000D01*
X136060000Y-110320000D02*
X150960000Y-110320000D01*
%TD*%
M02*
