%TF.GenerationSoftware,KiCad,Pcbnew,(5.1.8)-1*%
%TF.CreationDate,2020-12-23T12:42:43+01:00*%
%TF.ProjectId,Kiwi_EasyBoardv1.0,4b697769-5f45-4617-9379-426f61726476,rev?*%
%TF.SameCoordinates,Original*%
%TF.FileFunction,Soldermask,Bot*%
%TF.FilePolarity,Negative*%
%FSLAX46Y46*%
G04 Gerber Fmt 4.6, Leading zero omitted, Abs format (unit mm)*
G04 Created by KiCad (PCBNEW (5.1.8)-1) date 2020-12-23 12:42:43*
%MOMM*%
%LPD*%
G01*
G04 APERTURE LIST*
%TA.AperFunction,Profile*%
%ADD10C,0.050000*%
%TD*%
%ADD11O,2.200000X2.200000*%
%ADD12R,2.200000X2.200000*%
%ADD13C,6.400000*%
%ADD14C,3.600000*%
%ADD15C,1.200000*%
%ADD16C,1.511200*%
%ADD17O,2.000000X1.600000*%
%ADD18R,2.000000X2.000000*%
%ADD19R,1.700000X1.700000*%
%ADD20O,1.700000X1.700000*%
G04 APERTURE END LIST*
D10*
X76200000Y-86360000D02*
X76200000Y-100330000D01*
X180340000Y-83820000D02*
X78740000Y-83820000D01*
X76200000Y-86360000D02*
X78740000Y-83820000D01*
X154940000Y-116840000D02*
X179070000Y-116840000D01*
X144780000Y-116840000D02*
X152400000Y-116840000D01*
X152400000Y-116840000D02*
G75*
G02*
X154940000Y-116840000I1270000J0D01*
G01*
X76200000Y-102870000D02*
X76200000Y-107950000D01*
X76200000Y-100330000D02*
G75*
G02*
X76200000Y-102870000I0J-1270000D01*
G01*
X105410000Y-128270000D02*
X115570000Y-128270000D01*
X81079773Y-119452036D02*
X87630000Y-127000000D01*
X81079773Y-119452036D02*
X76200000Y-107950000D01*
X182880000Y-127000000D02*
X191770000Y-127000000D01*
X135890000Y-116840000D02*
X144780000Y-116840000D01*
X125730000Y-132080000D02*
X135890000Y-128270000D01*
X135890000Y-116840000D02*
X135890000Y-128270000D01*
X95250000Y-130810000D02*
X87630000Y-127000000D01*
X185420000Y-95250000D02*
X163830000Y-95250000D01*
X186690000Y-109220000D02*
X186690000Y-96520000D01*
X163830000Y-110490000D02*
X185420000Y-110490000D01*
X162560000Y-96520000D02*
X162560000Y-109220000D01*
X186690000Y-109220000D02*
G75*
G02*
X185420000Y-110490000I-1270000J0D01*
G01*
X163830000Y-110490000D02*
G75*
G02*
X162560000Y-109220000I0J1270000D01*
G01*
X162560000Y-96520000D02*
G75*
G02*
X163830000Y-95250000I1270000J0D01*
G01*
X185420000Y-95250000D02*
G75*
G02*
X186690000Y-96520000I0J-1270000D01*
G01*
X179070000Y-116840000D02*
X179070000Y-118110000D01*
X191770000Y-93980000D02*
X180340000Y-83820000D01*
X191770000Y-127000000D02*
X191770000Y-93980000D01*
X179070000Y-121920000D02*
X182880000Y-127000000D01*
X179070000Y-118110000D02*
X179070000Y-121920000D01*
X115570000Y-128270000D02*
X115570000Y-134620000D01*
X125730000Y-134620000D02*
X125730000Y-132080000D01*
X95250000Y-134620000D02*
X95250000Y-130810000D01*
X115570000Y-134620000D02*
X125730000Y-134620000D01*
X105410000Y-134620000D02*
X95250000Y-134620000D01*
X105410000Y-128270000D02*
X105410000Y-134620000D01*
X143510000Y-93980000D02*
X151130000Y-93980000D01*
X143510000Y-86360000D02*
X151130000Y-86360000D01*
X143510000Y-93980000D02*
G75*
G02*
X143510000Y-86360000I0J3810000D01*
G01*
X151130000Y-86360000D02*
G75*
G02*
X151130000Y-93980000I0J-3810000D01*
G01*
D11*
%TO.C,D1*%
X156210000Y-114300000D03*
D12*
X156210000Y-104140000D03*
%TD*%
D13*
%TO.C,H4*%
X132080000Y-90170000D03*
D14*
X132080000Y-90170000D03*
%TD*%
D15*
%TO.C,U4*%
X85892102Y-99892102D03*
X84096051Y-98096051D03*
X82300000Y-96300000D03*
X80503949Y-94503949D03*
X78707898Y-92707898D03*
%TD*%
D16*
%TO.C,U2*%
X189230000Y-102870000D03*
X189230000Y-105410000D03*
X189230000Y-107950000D03*
X189230000Y-110490000D03*
X159639000Y-100330000D03*
X159639000Y-102870000D03*
X159639000Y-105410000D03*
X159639000Y-107950000D03*
G36*
G01*
X160394600Y-109836000D02*
X160394600Y-111144000D01*
G75*
G02*
X160293000Y-111245600I-101600J0D01*
G01*
X158985000Y-111245600D01*
G75*
G02*
X158883400Y-111144000I0J101600D01*
G01*
X158883400Y-109836000D01*
G75*
G02*
X158985000Y-109734400I101600J0D01*
G01*
X160293000Y-109734400D01*
G75*
G02*
X160394600Y-109836000I0J-101600D01*
G01*
G37*
%TD*%
D17*
%TO.C,U1*%
X121920000Y-107950000D03*
X121920000Y-110490000D03*
X121920000Y-113030000D03*
X121920000Y-115570000D03*
X121920000Y-118110000D03*
X121920000Y-120650000D03*
X121920000Y-123190000D03*
X121920000Y-125730000D03*
X99060000Y-125730000D03*
X99060000Y-123190000D03*
X99060000Y-120650000D03*
X99060000Y-118110000D03*
X99060000Y-115570000D03*
X99060000Y-113030000D03*
D18*
X99060000Y-107950000D03*
D17*
X99060000Y-110490000D03*
%TD*%
D13*
%TO.C,H3*%
X186690000Y-120650000D03*
D14*
X186690000Y-120650000D03*
%TD*%
D19*
%TO.C,J15*%
X168910000Y-86360000D03*
%TD*%
D20*
%TO.C,J14*%
X86360000Y-111760000D03*
X86360000Y-114300000D03*
D19*
X86360000Y-116840000D03*
%TD*%
%TO.C,J13*%
X83820000Y-106680000D03*
%TD*%
D20*
%TO.C,J12*%
X177800000Y-86360000D03*
D19*
X175260000Y-86360000D03*
%TD*%
D20*
%TO.C,J10*%
X92710000Y-106680000D03*
D19*
X90170000Y-106680000D03*
%TD*%
D20*
%TO.C,J8*%
X153670000Y-100330000D03*
X151130000Y-100330000D03*
D19*
X148590000Y-100330000D03*
%TD*%
D15*
%TO.C,U3*%
X119380000Y-93980000D03*
X119380000Y-91440000D03*
X119380000Y-88900000D03*
X119380000Y-86360000D03*
%TD*%
%TO.C,U5*%
X149860000Y-109220000D03*
X147320000Y-109220000D03*
X144780000Y-109220000D03*
X142240000Y-109220000D03*
X139700000Y-109220000D03*
X137160000Y-109220000D03*
%TD*%
D13*
%TO.C,H2*%
X90170000Y-123190000D03*
D14*
X90170000Y-123190000D03*
%TD*%
D13*
%TO.C,H1*%
X130810000Y-123190000D03*
D14*
X130810000Y-123190000D03*
%TD*%
M02*
