M48
; DRILL file {KiCad (5.1.8)-1} date 12/23/20 12:44:24
; FORMAT={-:-/ absolute / inch / decimal}
; #@! TF.CreationDate,2020-12-23T12:44:24+01:00
; #@! TF.GenerationSoftware,Kicad,Pcbnew,(5.1.8)-1
FMAT,2
INCH
T1C0.0157
T2C0.0315
T3C0.0394
T4C0.0433
T5C0.1260
%
G90
G05
T1
X3.15Y-4.35
X3.2Y-4.45
X3.25Y-4.35
X3.25Y-4.55
X3.3Y-4.65
X3.85Y-5.15
X3.85Y-5.25
X3.95Y-5.25
X4.1Y-5.15
X4.1Y-5.25
X4.15Y-4.85
X4.2Y-4.65
X4.25Y-4.75
X4.25Y-4.85
X4.3Y-4.55
X4.3Y-4.65
X4.35Y-4.75
X4.35Y-4.85
X4.4Y-4.65
X4.45Y-4.55
X4.45Y-4.75
X4.45Y-4.85
X4.5Y-4.65
X4.55Y-4.75
X4.55Y-4.85
X4.6Y-5.1
X4.65Y-4.55
X4.65Y-4.65
X4.65Y-4.75
X4.7Y-5.1
X4.7Y-5.2
X4.8Y-5.1
X4.8Y-5.2
X4.9Y-5.1
X4.95Y-4.55
X4.95Y-5.0
X5.0Y-4.25
X5.05Y-4.05
X5.35Y-3.75
X5.45Y-4.55
X5.5Y-3.85
X5.55Y-3.75
X5.65Y-4.55
X5.7Y-3.85
X5.8Y-3.75
X5.85Y-4.55
X5.95Y-3.85
X6.05Y-3.75
X6.25Y-3.4
X6.25Y-3.55
X6.45Y-3.4
X6.55Y-3.7
X6.55Y-4.4
X6.65Y-3.65
X6.65Y-4.5
X6.75Y-3.55
X6.75Y-3.7
X6.75Y-4.4
X6.9Y-4.5
X7.0Y-4.4
X7.1Y-4.5
X7.15Y-4.4
X7.15Y-4.6
X7.15Y-4.75
X7.2Y-3.5
X7.2Y-3.7
X7.25Y-4.9
X7.3Y-3.6
X7.35Y-4.5
X7.4Y-3.7
X7.45Y-4.55
T2
X6.285Y-3.95
X6.285Y-4.05
X6.285Y-4.15
X6.285Y-4.25
X6.285Y-4.35
X7.45Y-4.05
X7.45Y-4.15
X7.45Y-4.25
X7.45Y-4.35
X5.4Y-4.3
X5.5Y-4.3
X5.6Y-4.3
X5.7Y-4.3
X5.8Y-4.3
X5.9Y-4.3
X4.7Y-3.4
X4.7Y-3.5
X4.7Y-3.6
X4.7Y-3.7
X3.0987Y-3.6499
X3.1694Y-3.7206
X3.2402Y-3.7913
X3.3109Y-3.862
X3.3816Y-3.9328
T3
X3.9Y-4.25
X3.9Y-4.35
X3.9Y-4.45
X3.9Y-4.55
X3.9Y-4.65
X3.9Y-4.75
X3.9Y-4.85
X3.9Y-4.95
X4.8Y-4.25
X4.8Y-4.35
X4.8Y-4.45
X4.8Y-4.55
X4.8Y-4.65
X4.8Y-4.75
X4.8Y-4.85
X4.8Y-4.95
X6.65Y-3.4
X6.9Y-3.4
X7.0Y-3.4
X5.85Y-3.95
X5.95Y-3.95
X6.05Y-3.95
X3.3Y-4.2
X3.4Y-4.4
X3.4Y-4.5
X3.4Y-4.6
X3.55Y-4.2
X3.65Y-4.2
T4
X6.15Y-4.1
X6.15Y-4.5
T5
X5.15Y-4.85
X7.35Y-4.75
X5.2Y-3.55
X3.55Y-4.85
T0
M30
