%TF.GenerationSoftware,KiCad,Pcbnew,(5.1.8)-1*%
%TF.CreationDate,2020-12-23T12:42:43+01:00*%
%TF.ProjectId,Kiwi_EasyBoardv1.0,4b697769-5f45-4617-9379-426f61726476,rev?*%
%TF.SameCoordinates,Original*%
%TF.FileFunction,Legend,Top*%
%TF.FilePolarity,Positive*%
%FSLAX46Y46*%
G04 Gerber Fmt 4.6, Leading zero omitted, Abs format (unit mm)*
G04 Created by KiCad (PCBNEW (5.1.8)-1) date 2020-12-23 12:42:43*
%MOMM*%
%LPD*%
G01*
G04 APERTURE LIST*
%ADD10C,0.120000*%
%TA.AperFunction,Profile*%
%ADD11C,0.050000*%
%TD*%
%ADD12C,0.150000*%
%ADD13C,0.300000*%
%ADD14C,0.010000*%
G04 APERTURE END LIST*
D10*
X135890000Y-110490000D02*
X151130000Y-110490000D01*
X138430000Y-110490000D02*
X135890000Y-110490000D01*
X138430000Y-107950000D02*
X138430000Y-110490000D01*
X135890000Y-107950000D02*
X138430000Y-107950000D01*
X135890000Y-115570000D02*
X135890000Y-107950000D01*
X151130000Y-115570000D02*
X135890000Y-115570000D01*
X151130000Y-107950000D02*
X151130000Y-115570000D01*
X135890000Y-107950000D02*
X151130000Y-107950000D01*
X158200000Y-114100000D02*
X158600000Y-114100000D01*
X158200000Y-94900000D02*
X158200000Y-114100000D01*
X191000000Y-94900000D02*
X158200000Y-94900000D01*
X191000000Y-114100000D02*
X191000000Y-94900000D01*
X158600000Y-114100000D02*
X191000000Y-114100000D01*
D11*
X76200000Y-86360000D02*
X76200000Y-100330000D01*
X180340000Y-83820000D02*
X78740000Y-83820000D01*
X76200000Y-86360000D02*
X78740000Y-83820000D01*
X154940000Y-116840000D02*
X179070000Y-116840000D01*
X144780000Y-116840000D02*
X152400000Y-116840000D01*
X152400000Y-116840000D02*
G75*
G02*
X154940000Y-116840000I1270000J0D01*
G01*
X76200000Y-102870000D02*
X76200000Y-107950000D01*
X76200000Y-100330000D02*
G75*
G02*
X76200000Y-102870000I0J-1270000D01*
G01*
D12*
X151582380Y-107933809D02*
X151582380Y-108410000D01*
X150582380Y-108410000D01*
X151058571Y-107600476D02*
X151058571Y-107267142D01*
X151582380Y-107124285D02*
X151582380Y-107600476D01*
X150582380Y-107600476D01*
X150582380Y-107124285D01*
X151582380Y-106695714D02*
X150582380Y-106695714D01*
X150582380Y-106457619D01*
X150630000Y-106314761D01*
X150725238Y-106219523D01*
X150820476Y-106171904D01*
X151010952Y-106124285D01*
X151153809Y-106124285D01*
X151344285Y-106171904D01*
X151439523Y-106219523D01*
X151534761Y-106314761D01*
X151582380Y-106457619D01*
X151582380Y-106695714D01*
X151201428Y-105695714D02*
X151201428Y-104933809D01*
X151582380Y-104457619D02*
X150582380Y-104457619D01*
X150582380Y-104219523D01*
X150630000Y-104076666D01*
X150725238Y-103981428D01*
X150820476Y-103933809D01*
X151010952Y-103886190D01*
X151153809Y-103886190D01*
X151344285Y-103933809D01*
X151439523Y-103981428D01*
X151534761Y-104076666D01*
X151582380Y-104219523D01*
X151582380Y-104457619D01*
X151582380Y-103457619D02*
X150582380Y-103457619D01*
X151582380Y-102981428D02*
X150582380Y-102981428D01*
X151582380Y-102410000D01*
X150582380Y-102410000D01*
X153741428Y-105425714D02*
X153741428Y-104663809D01*
X154122380Y-105044761D02*
X153360476Y-105044761D01*
X153122380Y-103711428D02*
X153122380Y-104187619D01*
X153598571Y-104235238D01*
X153550952Y-104187619D01*
X153503333Y-104092380D01*
X153503333Y-103854285D01*
X153550952Y-103759047D01*
X153598571Y-103711428D01*
X153693809Y-103663809D01*
X153931904Y-103663809D01*
X154027142Y-103711428D01*
X154074761Y-103759047D01*
X154122380Y-103854285D01*
X154122380Y-104092380D01*
X154074761Y-104187619D01*
X154027142Y-104235238D01*
X153122380Y-103378095D02*
X154122380Y-103044761D01*
X153122380Y-102711428D01*
X148090000Y-104901904D02*
X148042380Y-104997142D01*
X148042380Y-105140000D01*
X148090000Y-105282857D01*
X148185238Y-105378095D01*
X148280476Y-105425714D01*
X148470952Y-105473333D01*
X148613809Y-105473333D01*
X148804285Y-105425714D01*
X148899523Y-105378095D01*
X148994761Y-105282857D01*
X149042380Y-105140000D01*
X149042380Y-105044761D01*
X148994761Y-104901904D01*
X148947142Y-104854285D01*
X148613809Y-104854285D01*
X148613809Y-105044761D01*
X149042380Y-104425714D02*
X148042380Y-104425714D01*
X149042380Y-103854285D01*
X148042380Y-103854285D01*
X149042380Y-103378095D02*
X148042380Y-103378095D01*
X148042380Y-103140000D01*
X148090000Y-102997142D01*
X148185238Y-102901904D01*
X148280476Y-102854285D01*
X148470952Y-102806666D01*
X148613809Y-102806666D01*
X148804285Y-102854285D01*
X148899523Y-102901904D01*
X148994761Y-102997142D01*
X149042380Y-103140000D01*
X149042380Y-103378095D01*
D11*
X105410000Y-128270000D02*
X115570000Y-128270000D01*
X81079773Y-119452036D02*
X87630000Y-127000000D01*
X81079773Y-119452036D02*
X76200000Y-107950000D01*
X182880000Y-127000000D02*
X191770000Y-127000000D01*
X135890000Y-116840000D02*
X144780000Y-116840000D01*
X125730000Y-132080000D02*
X135890000Y-128270000D01*
X135890000Y-116840000D02*
X135890000Y-128270000D01*
X95250000Y-130810000D02*
X87630000Y-127000000D01*
X185420000Y-95250000D02*
X163830000Y-95250000D01*
X186690000Y-109220000D02*
X186690000Y-96520000D01*
X163830000Y-110490000D02*
X185420000Y-110490000D01*
X162560000Y-96520000D02*
X162560000Y-109220000D01*
X186690000Y-109220000D02*
G75*
G02*
X185420000Y-110490000I-1270000J0D01*
G01*
X163830000Y-110490000D02*
G75*
G02*
X162560000Y-109220000I0J1270000D01*
G01*
X162560000Y-96520000D02*
G75*
G02*
X163830000Y-95250000I1270000J0D01*
G01*
X185420000Y-95250000D02*
G75*
G02*
X186690000Y-96520000I0J-1270000D01*
G01*
X179070000Y-116840000D02*
X179070000Y-118110000D01*
X191770000Y-93980000D02*
X180340000Y-83820000D01*
X191770000Y-127000000D02*
X191770000Y-93980000D01*
X179070000Y-121920000D02*
X182880000Y-127000000D01*
X179070000Y-118110000D02*
X179070000Y-121920000D01*
X115570000Y-128270000D02*
X115570000Y-134620000D01*
X125730000Y-134620000D02*
X125730000Y-132080000D01*
X95250000Y-134620000D02*
X95250000Y-130810000D01*
X115570000Y-134620000D02*
X125730000Y-134620000D01*
X105410000Y-134620000D02*
X95250000Y-134620000D01*
X105410000Y-128270000D02*
X105410000Y-134620000D01*
X143510000Y-93980000D02*
X151130000Y-93980000D01*
X143510000Y-86360000D02*
X151130000Y-86360000D01*
X143510000Y-93980000D02*
G75*
G02*
X143510000Y-86360000I0J3810000D01*
G01*
X151130000Y-86360000D02*
G75*
G02*
X151130000Y-93980000I0J-3810000D01*
G01*
D13*
X127552142Y-99728571D02*
X127552142Y-98228571D01*
X128409285Y-99728571D02*
X127766428Y-98871428D01*
X128409285Y-98228571D02*
X127552142Y-99085714D01*
X129052142Y-99728571D02*
X129052142Y-98728571D01*
X129052142Y-98228571D02*
X128980714Y-98300000D01*
X129052142Y-98371428D01*
X129123571Y-98300000D01*
X129052142Y-98228571D01*
X129052142Y-98371428D01*
X129623571Y-98728571D02*
X129909285Y-99728571D01*
X130195000Y-99014285D01*
X130480714Y-99728571D01*
X130766428Y-98728571D01*
X131337857Y-99728571D02*
X131337857Y-98728571D01*
X131337857Y-98228571D02*
X131266428Y-98300000D01*
X131337857Y-98371428D01*
X131409285Y-98300000D01*
X131337857Y-98228571D01*
X131337857Y-98371428D01*
X133123571Y-99300000D02*
X133837857Y-99300000D01*
X132980714Y-99728571D02*
X133480714Y-98228571D01*
X133980714Y-99728571D01*
X134480714Y-99728571D02*
X134480714Y-98728571D01*
X134480714Y-98228571D02*
X134409285Y-98300000D01*
X134480714Y-98371428D01*
X134552142Y-98300000D01*
X134480714Y-98228571D01*
X134480714Y-98371428D01*
X135195000Y-99728571D02*
X135195000Y-98728571D01*
X135195000Y-99014285D02*
X135266428Y-98871428D01*
X135337857Y-98800000D01*
X135480714Y-98728571D01*
X135623571Y-98728571D01*
X137266428Y-99728571D02*
X137266428Y-98228571D01*
X137766428Y-99300000D01*
X138266428Y-98228571D01*
X138266428Y-99728571D01*
X139195000Y-99728571D02*
X139052142Y-99657142D01*
X138980714Y-99585714D01*
X138909285Y-99442857D01*
X138909285Y-99014285D01*
X138980714Y-98871428D01*
X139052142Y-98800000D01*
X139195000Y-98728571D01*
X139409285Y-98728571D01*
X139552142Y-98800000D01*
X139623571Y-98871428D01*
X139695000Y-99014285D01*
X139695000Y-99442857D01*
X139623571Y-99585714D01*
X139552142Y-99657142D01*
X139409285Y-99728571D01*
X139195000Y-99728571D01*
X140337857Y-98728571D02*
X140337857Y-99728571D01*
X140337857Y-98871428D02*
X140409285Y-98800000D01*
X140552142Y-98728571D01*
X140766428Y-98728571D01*
X140909285Y-98800000D01*
X140980714Y-98942857D01*
X140980714Y-99728571D01*
X141695000Y-99728571D02*
X141695000Y-98728571D01*
X141695000Y-98228571D02*
X141623571Y-98300000D01*
X141695000Y-98371428D01*
X141766428Y-98300000D01*
X141695000Y-98228571D01*
X141695000Y-98371428D01*
X142195000Y-98728571D02*
X142766428Y-98728571D01*
X142409285Y-98228571D02*
X142409285Y-99514285D01*
X142480714Y-99657142D01*
X142623571Y-99728571D01*
X142766428Y-99728571D01*
X143480714Y-99728571D02*
X143337857Y-99657142D01*
X143266428Y-99585714D01*
X143195000Y-99442857D01*
X143195000Y-99014285D01*
X143266428Y-98871428D01*
X143337857Y-98800000D01*
X143480714Y-98728571D01*
X143695000Y-98728571D01*
X143837857Y-98800000D01*
X143909285Y-98871428D01*
X143980714Y-99014285D01*
X143980714Y-99442857D01*
X143909285Y-99585714D01*
X143837857Y-99657142D01*
X143695000Y-99728571D01*
X143480714Y-99728571D01*
X144623571Y-99728571D02*
X144623571Y-98728571D01*
X144623571Y-99014285D02*
X144695000Y-98871428D01*
X144766428Y-98800000D01*
X144909285Y-98728571D01*
X145052142Y-98728571D01*
X128409285Y-102278571D02*
X127909285Y-101564285D01*
X127552142Y-102278571D02*
X127552142Y-100778571D01*
X128123571Y-100778571D01*
X128266428Y-100850000D01*
X128337857Y-100921428D01*
X128409285Y-101064285D01*
X128409285Y-101278571D01*
X128337857Y-101421428D01*
X128266428Y-101492857D01*
X128123571Y-101564285D01*
X127552142Y-101564285D01*
X129623571Y-102207142D02*
X129480714Y-102278571D01*
X129195000Y-102278571D01*
X129052142Y-102207142D01*
X128980714Y-102064285D01*
X128980714Y-101492857D01*
X129052142Y-101350000D01*
X129195000Y-101278571D01*
X129480714Y-101278571D01*
X129623571Y-101350000D01*
X129695000Y-101492857D01*
X129695000Y-101635714D01*
X128980714Y-101778571D01*
X130195000Y-101278571D02*
X130552142Y-102278571D01*
X130909285Y-101278571D01*
X131480714Y-102278571D02*
X131480714Y-101278571D01*
X131480714Y-100778571D02*
X131409285Y-100850000D01*
X131480714Y-100921428D01*
X131552142Y-100850000D01*
X131480714Y-100778571D01*
X131480714Y-100921428D01*
X132123571Y-102207142D02*
X132266428Y-102278571D01*
X132552142Y-102278571D01*
X132695000Y-102207142D01*
X132766428Y-102064285D01*
X132766428Y-101992857D01*
X132695000Y-101850000D01*
X132552142Y-101778571D01*
X132337857Y-101778571D01*
X132195000Y-101707142D01*
X132123571Y-101564285D01*
X132123571Y-101492857D01*
X132195000Y-101350000D01*
X132337857Y-101278571D01*
X132552142Y-101278571D01*
X132695000Y-101350000D01*
X133409285Y-102278571D02*
X133409285Y-101278571D01*
X133409285Y-100778571D02*
X133337857Y-100850000D01*
X133409285Y-100921428D01*
X133480714Y-100850000D01*
X133409285Y-100778571D01*
X133409285Y-100921428D01*
X134337857Y-102278571D02*
X134195000Y-102207142D01*
X134123571Y-102135714D01*
X134052142Y-101992857D01*
X134052142Y-101564285D01*
X134123571Y-101421428D01*
X134195000Y-101350000D01*
X134337857Y-101278571D01*
X134552142Y-101278571D01*
X134695000Y-101350000D01*
X134766428Y-101421428D01*
X134837857Y-101564285D01*
X134837857Y-101992857D01*
X134766428Y-102135714D01*
X134695000Y-102207142D01*
X134552142Y-102278571D01*
X134337857Y-102278571D01*
X135480714Y-101278571D02*
X135480714Y-102278571D01*
X135480714Y-101421428D02*
X135552142Y-101350000D01*
X135695000Y-101278571D01*
X135909285Y-101278571D01*
X136052142Y-101350000D01*
X136123571Y-101492857D01*
X136123571Y-102278571D01*
X138766428Y-102278571D02*
X137909285Y-102278571D01*
X138337857Y-102278571D02*
X138337857Y-100778571D01*
X138195000Y-100992857D01*
X138052142Y-101135714D01*
X137909285Y-101207142D01*
X139409285Y-102135714D02*
X139480714Y-102207142D01*
X139409285Y-102278571D01*
X139337857Y-102207142D01*
X139409285Y-102135714D01*
X139409285Y-102278571D01*
X140409285Y-100778571D02*
X140552142Y-100778571D01*
X140695000Y-100850000D01*
X140766428Y-100921428D01*
X140837857Y-101064285D01*
X140909285Y-101350000D01*
X140909285Y-101707142D01*
X140837857Y-101992857D01*
X140766428Y-102135714D01*
X140695000Y-102207142D01*
X140552142Y-102278571D01*
X140409285Y-102278571D01*
X140266428Y-102207142D01*
X140195000Y-102135714D01*
X140123571Y-101992857D01*
X140052142Y-101707142D01*
X140052142Y-101350000D01*
X140123571Y-101064285D01*
X140195000Y-100921428D01*
X140266428Y-100850000D01*
X140409285Y-100778571D01*
X127480714Y-103471428D02*
X127552142Y-103400000D01*
X127695000Y-103328571D01*
X128052142Y-103328571D01*
X128195000Y-103400000D01*
X128266428Y-103471428D01*
X128337857Y-103614285D01*
X128337857Y-103757142D01*
X128266428Y-103971428D01*
X127409285Y-104828571D01*
X128337857Y-104828571D01*
X129266428Y-103328571D02*
X129409285Y-103328571D01*
X129552142Y-103400000D01*
X129623571Y-103471428D01*
X129695000Y-103614285D01*
X129766428Y-103900000D01*
X129766428Y-104257142D01*
X129695000Y-104542857D01*
X129623571Y-104685714D01*
X129552142Y-104757142D01*
X129409285Y-104828571D01*
X129266428Y-104828571D01*
X129123571Y-104757142D01*
X129052142Y-104685714D01*
X128980714Y-104542857D01*
X128909285Y-104257142D01*
X128909285Y-103900000D01*
X128980714Y-103614285D01*
X129052142Y-103471428D01*
X129123571Y-103400000D01*
X129266428Y-103328571D01*
X130337857Y-103471428D02*
X130409285Y-103400000D01*
X130552142Y-103328571D01*
X130909285Y-103328571D01*
X131052142Y-103400000D01*
X131123571Y-103471428D01*
X131195000Y-103614285D01*
X131195000Y-103757142D01*
X131123571Y-103971428D01*
X130266428Y-104828571D01*
X131195000Y-104828571D01*
X132123571Y-103328571D02*
X132266428Y-103328571D01*
X132409285Y-103400000D01*
X132480714Y-103471428D01*
X132552142Y-103614285D01*
X132623571Y-103900000D01*
X132623571Y-104257142D01*
X132552142Y-104542857D01*
X132480714Y-104685714D01*
X132409285Y-104757142D01*
X132266428Y-104828571D01*
X132123571Y-104828571D01*
X131980714Y-104757142D01*
X131909285Y-104685714D01*
X131837857Y-104542857D01*
X131766428Y-104257142D01*
X131766428Y-103900000D01*
X131837857Y-103614285D01*
X131909285Y-103471428D01*
X131980714Y-103400000D01*
X132123571Y-103328571D01*
X133266428Y-104257142D02*
X134409285Y-104257142D01*
X135123571Y-104828571D02*
X135123571Y-103328571D01*
X135480714Y-103328571D01*
X135695000Y-103400000D01*
X135837857Y-103542857D01*
X135909285Y-103685714D01*
X135980714Y-103971428D01*
X135980714Y-104185714D01*
X135909285Y-104471428D01*
X135837857Y-104614285D01*
X135695000Y-104757142D01*
X135480714Y-104828571D01*
X135123571Y-104828571D01*
X137195000Y-104757142D02*
X137052142Y-104828571D01*
X136766428Y-104828571D01*
X136623571Y-104757142D01*
X136552142Y-104614285D01*
X136552142Y-104042857D01*
X136623571Y-103900000D01*
X136766428Y-103828571D01*
X137052142Y-103828571D01*
X137195000Y-103900000D01*
X137266428Y-104042857D01*
X137266428Y-104185714D01*
X136552142Y-104328571D01*
X138552142Y-104757142D02*
X138409285Y-104828571D01*
X138123571Y-104828571D01*
X137980714Y-104757142D01*
X137909285Y-104685714D01*
X137837857Y-104542857D01*
X137837857Y-104114285D01*
X137909285Y-103971428D01*
X137980714Y-103900000D01*
X138123571Y-103828571D01*
X138409285Y-103828571D01*
X138552142Y-103900000D01*
X139195000Y-104257142D02*
X140337857Y-104257142D01*
X140980714Y-103471428D02*
X141052142Y-103400000D01*
X141195000Y-103328571D01*
X141552142Y-103328571D01*
X141695000Y-103400000D01*
X141766428Y-103471428D01*
X141837857Y-103614285D01*
X141837857Y-103757142D01*
X141766428Y-103971428D01*
X140909285Y-104828571D01*
X141837857Y-104828571D01*
X143266428Y-104828571D02*
X142409285Y-104828571D01*
X142837857Y-104828571D02*
X142837857Y-103328571D01*
X142695000Y-103542857D01*
X142552142Y-103685714D01*
X142409285Y-103757142D01*
D10*
%TO.C,JP1*%
X159890000Y-116570000D02*
X159890000Y-114570000D01*
X162690000Y-116570000D02*
X159890000Y-116570000D01*
X162690000Y-114570000D02*
X162690000Y-116570000D01*
X159890000Y-114570000D02*
X162690000Y-114570000D01*
%TO.C,D1*%
X157680000Y-106500000D02*
X154740000Y-106500000D01*
X154740000Y-106500000D02*
X154740000Y-111940000D01*
X154740000Y-111940000D02*
X157680000Y-111940000D01*
X157680000Y-111940000D02*
X157680000Y-106500000D01*
X156210000Y-105480000D02*
X156210000Y-106500000D01*
X156210000Y-112960000D02*
X156210000Y-111940000D01*
X157680000Y-107400000D02*
X154740000Y-107400000D01*
X157680000Y-107520000D02*
X154740000Y-107520000D01*
X157680000Y-107280000D02*
X154740000Y-107280000D01*
%TO.C,U4*%
X75115795Y-90911846D02*
X81401974Y-97198026D01*
X101158538Y-64869104D02*
X75115795Y-90911846D01*
X107444717Y-71155283D02*
X101158538Y-64869104D01*
X113730896Y-77441462D02*
X107444717Y-71155283D01*
X87688154Y-103484205D02*
X113730896Y-77441462D01*
X81401974Y-97198026D02*
X87688154Y-103484205D01*
X80383741Y-92828106D02*
X78828106Y-94383741D01*
X77152263Y-92707898D02*
X78707898Y-91152263D01*
X85892102Y-101447737D02*
X77152263Y-92707898D01*
X87447737Y-99892102D02*
X85892102Y-101447737D01*
X78707898Y-91152263D02*
X87447737Y-99892102D01*
D14*
%TO.C,REF\u002A\u002A*%
G36*
X160300749Y-89292036D02*
G01*
X160344544Y-89308972D01*
X160411293Y-89342601D01*
X160507137Y-89395334D01*
X160514599Y-89399525D01*
X160602871Y-89450001D01*
X160677363Y-89494223D01*
X160730760Y-89527731D01*
X160755746Y-89546064D01*
X160756445Y-89546962D01*
X160750409Y-89572414D01*
X160722723Y-89629255D01*
X160675188Y-89714389D01*
X160609611Y-89824717D01*
X160527797Y-89957144D01*
X160431548Y-90108571D01*
X160407594Y-90145707D01*
X160345183Y-90248757D01*
X160299737Y-90337432D01*
X160275246Y-90403714D01*
X160272733Y-90416807D01*
X160273848Y-90474443D01*
X160286343Y-90565865D01*
X160308660Y-90685208D01*
X160339240Y-90826609D01*
X160376528Y-90984203D01*
X160418965Y-91152126D01*
X160464994Y-91324514D01*
X160513057Y-91495501D01*
X160561597Y-91659224D01*
X160609057Y-91809818D01*
X160653878Y-91941420D01*
X160694503Y-92048163D01*
X160722823Y-92111494D01*
X160756183Y-92178957D01*
X160787682Y-92243511D01*
X160789387Y-92247045D01*
X160841498Y-92312250D01*
X160917554Y-92356156D01*
X161006092Y-92377197D01*
X161095648Y-92373807D01*
X161174758Y-92344423D01*
X161219264Y-92305736D01*
X161283356Y-92199636D01*
X161330322Y-92067405D01*
X161356090Y-91922527D01*
X161359741Y-91840394D01*
X161345039Y-91687105D01*
X161301890Y-91560166D01*
X161227972Y-91453418D01*
X161204921Y-91429657D01*
X161136325Y-91363009D01*
X161131614Y-90891916D01*
X161126903Y-90420822D01*
X161246946Y-90239106D01*
X161303277Y-90156856D01*
X161357528Y-90082865D01*
X161401959Y-90027448D01*
X161421056Y-90007056D01*
X161475124Y-89956723D01*
X161548350Y-89996158D01*
X161594633Y-90024415D01*
X161619957Y-90046354D01*
X161621576Y-90050299D01*
X161638884Y-90067023D01*
X161668497Y-90079476D01*
X161697114Y-90090700D01*
X161740934Y-90112024D01*
X161803718Y-90145529D01*
X161889228Y-90193296D01*
X162001226Y-90257407D01*
X162143473Y-90339944D01*
X162220773Y-90385065D01*
X162311702Y-90439111D01*
X162371339Y-90477604D01*
X162404961Y-90505044D01*
X162417844Y-90525934D01*
X162415265Y-90544775D01*
X162413115Y-90549152D01*
X162392197Y-90576714D01*
X162347440Y-90628416D01*
X162284057Y-90698475D01*
X162207262Y-90781107D01*
X162140844Y-90851156D01*
X161987790Y-91017414D01*
X161868056Y-91161519D01*
X161780573Y-91284921D01*
X161724274Y-91389068D01*
X161705284Y-91441954D01*
X161697440Y-91488250D01*
X161689338Y-91567221D01*
X161681691Y-91669846D01*
X161675212Y-91787103D01*
X161672163Y-91861248D01*
X161667908Y-91989427D01*
X161666036Y-92083138D01*
X161667099Y-92149583D01*
X161671646Y-92195961D01*
X161680227Y-92229474D01*
X161693394Y-92257321D01*
X161703735Y-92274324D01*
X161763456Y-92339862D01*
X161840411Y-92385532D01*
X161921380Y-92405450D01*
X161982058Y-92398244D01*
X162036999Y-92367066D01*
X162105867Y-92311230D01*
X162179005Y-92240474D01*
X162246752Y-92164537D01*
X162299450Y-92093159D01*
X162318853Y-92058668D01*
X162347919Y-92011441D01*
X162400783Y-91939506D01*
X162472616Y-91848485D01*
X162558588Y-91744000D01*
X162653868Y-91631675D01*
X162753627Y-91517130D01*
X162853034Y-91405990D01*
X162947259Y-91303875D01*
X163031473Y-91216408D01*
X163097591Y-91152198D01*
X163170999Y-91088057D01*
X163232753Y-91040763D01*
X163276066Y-91015235D01*
X163290445Y-91012429D01*
X163312479Y-91023752D01*
X163367438Y-91054144D01*
X163452152Y-91101780D01*
X163563448Y-91164835D01*
X163698156Y-91241485D01*
X163853103Y-91329905D01*
X164025119Y-91428270D01*
X164211032Y-91534756D01*
X164407670Y-91647537D01*
X164611863Y-91764789D01*
X164820439Y-91884687D01*
X165030225Y-92005407D01*
X165238052Y-92125123D01*
X165440747Y-92242011D01*
X165635140Y-92354246D01*
X165818058Y-92460004D01*
X165986330Y-92557460D01*
X166136785Y-92644788D01*
X166266251Y-92720165D01*
X166371557Y-92781765D01*
X166449532Y-92827764D01*
X166497004Y-92856337D01*
X166510763Y-92865304D01*
X166492231Y-92867076D01*
X166433933Y-92868799D01*
X166337809Y-92870464D01*
X166205799Y-92872063D01*
X166039846Y-92873587D01*
X165841889Y-92875029D01*
X165613870Y-92876380D01*
X165357729Y-92877632D01*
X165075408Y-92878776D01*
X164768847Y-92879804D01*
X164439987Y-92880708D01*
X164090769Y-92881479D01*
X163723135Y-92882109D01*
X163339024Y-92882590D01*
X162940377Y-92882914D01*
X162529137Y-92883072D01*
X162356580Y-92883087D01*
X158182586Y-92883087D01*
X158480268Y-92366954D01*
X158543286Y-92257665D01*
X158624406Y-92116940D01*
X158720916Y-91949486D01*
X158830103Y-91760012D01*
X158949255Y-91553223D01*
X159075660Y-91333828D01*
X159206605Y-91106533D01*
X159339379Y-90876046D01*
X159471269Y-90647073D01*
X159504624Y-90589163D01*
X159626247Y-90378232D01*
X159742228Y-90177535D01*
X159850825Y-89990059D01*
X159950294Y-89818792D01*
X160038892Y-89666723D01*
X160114878Y-89536838D01*
X160176507Y-89432125D01*
X160222037Y-89355573D01*
X160249725Y-89310169D01*
X160257472Y-89298609D01*
X160273772Y-89289385D01*
X160300749Y-89292036D01*
G37*
X160300749Y-89292036D02*
X160344544Y-89308972D01*
X160411293Y-89342601D01*
X160507137Y-89395334D01*
X160514599Y-89399525D01*
X160602871Y-89450001D01*
X160677363Y-89494223D01*
X160730760Y-89527731D01*
X160755746Y-89546064D01*
X160756445Y-89546962D01*
X160750409Y-89572414D01*
X160722723Y-89629255D01*
X160675188Y-89714389D01*
X160609611Y-89824717D01*
X160527797Y-89957144D01*
X160431548Y-90108571D01*
X160407594Y-90145707D01*
X160345183Y-90248757D01*
X160299737Y-90337432D01*
X160275246Y-90403714D01*
X160272733Y-90416807D01*
X160273848Y-90474443D01*
X160286343Y-90565865D01*
X160308660Y-90685208D01*
X160339240Y-90826609D01*
X160376528Y-90984203D01*
X160418965Y-91152126D01*
X160464994Y-91324514D01*
X160513057Y-91495501D01*
X160561597Y-91659224D01*
X160609057Y-91809818D01*
X160653878Y-91941420D01*
X160694503Y-92048163D01*
X160722823Y-92111494D01*
X160756183Y-92178957D01*
X160787682Y-92243511D01*
X160789387Y-92247045D01*
X160841498Y-92312250D01*
X160917554Y-92356156D01*
X161006092Y-92377197D01*
X161095648Y-92373807D01*
X161174758Y-92344423D01*
X161219264Y-92305736D01*
X161283356Y-92199636D01*
X161330322Y-92067405D01*
X161356090Y-91922527D01*
X161359741Y-91840394D01*
X161345039Y-91687105D01*
X161301890Y-91560166D01*
X161227972Y-91453418D01*
X161204921Y-91429657D01*
X161136325Y-91363009D01*
X161131614Y-90891916D01*
X161126903Y-90420822D01*
X161246946Y-90239106D01*
X161303277Y-90156856D01*
X161357528Y-90082865D01*
X161401959Y-90027448D01*
X161421056Y-90007056D01*
X161475124Y-89956723D01*
X161548350Y-89996158D01*
X161594633Y-90024415D01*
X161619957Y-90046354D01*
X161621576Y-90050299D01*
X161638884Y-90067023D01*
X161668497Y-90079476D01*
X161697114Y-90090700D01*
X161740934Y-90112024D01*
X161803718Y-90145529D01*
X161889228Y-90193296D01*
X162001226Y-90257407D01*
X162143473Y-90339944D01*
X162220773Y-90385065D01*
X162311702Y-90439111D01*
X162371339Y-90477604D01*
X162404961Y-90505044D01*
X162417844Y-90525934D01*
X162415265Y-90544775D01*
X162413115Y-90549152D01*
X162392197Y-90576714D01*
X162347440Y-90628416D01*
X162284057Y-90698475D01*
X162207262Y-90781107D01*
X162140844Y-90851156D01*
X161987790Y-91017414D01*
X161868056Y-91161519D01*
X161780573Y-91284921D01*
X161724274Y-91389068D01*
X161705284Y-91441954D01*
X161697440Y-91488250D01*
X161689338Y-91567221D01*
X161681691Y-91669846D01*
X161675212Y-91787103D01*
X161672163Y-91861248D01*
X161667908Y-91989427D01*
X161666036Y-92083138D01*
X161667099Y-92149583D01*
X161671646Y-92195961D01*
X161680227Y-92229474D01*
X161693394Y-92257321D01*
X161703735Y-92274324D01*
X161763456Y-92339862D01*
X161840411Y-92385532D01*
X161921380Y-92405450D01*
X161982058Y-92398244D01*
X162036999Y-92367066D01*
X162105867Y-92311230D01*
X162179005Y-92240474D01*
X162246752Y-92164537D01*
X162299450Y-92093159D01*
X162318853Y-92058668D01*
X162347919Y-92011441D01*
X162400783Y-91939506D01*
X162472616Y-91848485D01*
X162558588Y-91744000D01*
X162653868Y-91631675D01*
X162753627Y-91517130D01*
X162853034Y-91405990D01*
X162947259Y-91303875D01*
X163031473Y-91216408D01*
X163097591Y-91152198D01*
X163170999Y-91088057D01*
X163232753Y-91040763D01*
X163276066Y-91015235D01*
X163290445Y-91012429D01*
X163312479Y-91023752D01*
X163367438Y-91054144D01*
X163452152Y-91101780D01*
X163563448Y-91164835D01*
X163698156Y-91241485D01*
X163853103Y-91329905D01*
X164025119Y-91428270D01*
X164211032Y-91534756D01*
X164407670Y-91647537D01*
X164611863Y-91764789D01*
X164820439Y-91884687D01*
X165030225Y-92005407D01*
X165238052Y-92125123D01*
X165440747Y-92242011D01*
X165635140Y-92354246D01*
X165818058Y-92460004D01*
X165986330Y-92557460D01*
X166136785Y-92644788D01*
X166266251Y-92720165D01*
X166371557Y-92781765D01*
X166449532Y-92827764D01*
X166497004Y-92856337D01*
X166510763Y-92865304D01*
X166492231Y-92867076D01*
X166433933Y-92868799D01*
X166337809Y-92870464D01*
X166205799Y-92872063D01*
X166039846Y-92873587D01*
X165841889Y-92875029D01*
X165613870Y-92876380D01*
X165357729Y-92877632D01*
X165075408Y-92878776D01*
X164768847Y-92879804D01*
X164439987Y-92880708D01*
X164090769Y-92881479D01*
X163723135Y-92882109D01*
X163339024Y-92882590D01*
X162940377Y-92882914D01*
X162529137Y-92883072D01*
X162356580Y-92883087D01*
X158182586Y-92883087D01*
X158480268Y-92366954D01*
X158543286Y-92257665D01*
X158624406Y-92116940D01*
X158720916Y-91949486D01*
X158830103Y-91760012D01*
X158949255Y-91553223D01*
X159075660Y-91333828D01*
X159206605Y-91106533D01*
X159339379Y-90876046D01*
X159471269Y-90647073D01*
X159504624Y-90589163D01*
X159626247Y-90378232D01*
X159742228Y-90177535D01*
X159850825Y-89990059D01*
X159950294Y-89818792D01*
X160038892Y-89666723D01*
X160114878Y-89536838D01*
X160176507Y-89432125D01*
X160222037Y-89355573D01*
X160249725Y-89310169D01*
X160257472Y-89298609D01*
X160273772Y-89289385D01*
X160300749Y-89292036D01*
G36*
X165236146Y-89215908D02*
G01*
X165251469Y-89241590D01*
X165285911Y-89300469D01*
X165337769Y-89389602D01*
X165405340Y-89506049D01*
X165486921Y-89646867D01*
X165580809Y-89809114D01*
X165685299Y-89989849D01*
X165798690Y-90186130D01*
X165919278Y-90395016D01*
X166043313Y-90610017D01*
X166169987Y-90829649D01*
X166291608Y-91040495D01*
X166406412Y-91239499D01*
X166512638Y-91423607D01*
X166608523Y-91589765D01*
X166692302Y-91734917D01*
X166762214Y-91856009D01*
X166816496Y-91949988D01*
X166853385Y-92013797D01*
X166870731Y-92043719D01*
X166899007Y-92094271D01*
X166914382Y-92125914D01*
X166915224Y-92131420D01*
X166896488Y-92121082D01*
X166844386Y-92091407D01*
X166761640Y-92043968D01*
X166650975Y-91980333D01*
X166515114Y-91902074D01*
X166356781Y-91810759D01*
X166178698Y-91707960D01*
X165983590Y-91595247D01*
X165774180Y-91474189D01*
X165553191Y-91346357D01*
X165469113Y-91297702D01*
X165244170Y-91167567D01*
X165029524Y-91043497D01*
X164827932Y-90927077D01*
X164642148Y-90819893D01*
X164474928Y-90723531D01*
X164329027Y-90639578D01*
X164207201Y-90569620D01*
X164112204Y-90515243D01*
X164046792Y-90478034D01*
X164013720Y-90459578D01*
X164010262Y-90457830D01*
X164020339Y-90442005D01*
X164055407Y-90399692D01*
X164111885Y-90334790D01*
X164186193Y-90251196D01*
X164274752Y-90152809D01*
X164373980Y-90043525D01*
X164480298Y-89927244D01*
X164590125Y-89807862D01*
X164699882Y-89689277D01*
X164805988Y-89575388D01*
X164904862Y-89470092D01*
X164992926Y-89377287D01*
X165066599Y-89300870D01*
X165122300Y-89244740D01*
X165141403Y-89226335D01*
X165204708Y-89166872D01*
X165236146Y-89215908D01*
G37*
X165236146Y-89215908D02*
X165251469Y-89241590D01*
X165285911Y-89300469D01*
X165337769Y-89389602D01*
X165405340Y-89506049D01*
X165486921Y-89646867D01*
X165580809Y-89809114D01*
X165685299Y-89989849D01*
X165798690Y-90186130D01*
X165919278Y-90395016D01*
X166043313Y-90610017D01*
X166169987Y-90829649D01*
X166291608Y-91040495D01*
X166406412Y-91239499D01*
X166512638Y-91423607D01*
X166608523Y-91589765D01*
X166692302Y-91734917D01*
X166762214Y-91856009D01*
X166816496Y-91949988D01*
X166853385Y-92013797D01*
X166870731Y-92043719D01*
X166899007Y-92094271D01*
X166914382Y-92125914D01*
X166915224Y-92131420D01*
X166896488Y-92121082D01*
X166844386Y-92091407D01*
X166761640Y-92043968D01*
X166650975Y-91980333D01*
X166515114Y-91902074D01*
X166356781Y-91810759D01*
X166178698Y-91707960D01*
X165983590Y-91595247D01*
X165774180Y-91474189D01*
X165553191Y-91346357D01*
X165469113Y-91297702D01*
X165244170Y-91167567D01*
X165029524Y-91043497D01*
X164827932Y-90927077D01*
X164642148Y-90819893D01*
X164474928Y-90723531D01*
X164329027Y-90639578D01*
X164207201Y-90569620D01*
X164112204Y-90515243D01*
X164046792Y-90478034D01*
X164013720Y-90459578D01*
X164010262Y-90457830D01*
X164020339Y-90442005D01*
X164055407Y-90399692D01*
X164111885Y-90334790D01*
X164186193Y-90251196D01*
X164274752Y-90152809D01*
X164373980Y-90043525D01*
X164480298Y-89927244D01*
X164590125Y-89807862D01*
X164699882Y-89689277D01*
X164805988Y-89575388D01*
X164904862Y-89470092D01*
X164992926Y-89377287D01*
X165066599Y-89300870D01*
X165122300Y-89244740D01*
X165141403Y-89226335D01*
X165204708Y-89166872D01*
X165236146Y-89215908D01*
G36*
X162780878Y-84976166D02*
G01*
X162811876Y-85026538D01*
X162859634Y-85106341D01*
X162922194Y-85212180D01*
X162997597Y-85340659D01*
X163083885Y-85488384D01*
X163179101Y-85651958D01*
X163281285Y-85827987D01*
X163388481Y-86013075D01*
X163498729Y-86203827D01*
X163610071Y-86396847D01*
X163720550Y-86588741D01*
X163828207Y-86776111D01*
X163931084Y-86955565D01*
X164027223Y-87123705D01*
X164114665Y-87277137D01*
X164191453Y-87412465D01*
X164255628Y-87526294D01*
X164305233Y-87615229D01*
X164338309Y-87675874D01*
X164352897Y-87704833D01*
X164353431Y-87706644D01*
X164335321Y-87731217D01*
X164284980Y-87768807D01*
X164208395Y-87815722D01*
X164111552Y-87868274D01*
X164010167Y-87918213D01*
X163872215Y-87978769D01*
X163727142Y-88033179D01*
X163569950Y-88082651D01*
X163395643Y-88128395D01*
X163199222Y-88171620D01*
X162975689Y-88213534D01*
X162720048Y-88255347D01*
X162455606Y-88294284D01*
X162225852Y-88328828D01*
X162032917Y-88363026D01*
X161871964Y-88398577D01*
X161738155Y-88437182D01*
X161626650Y-88480539D01*
X161532614Y-88530348D01*
X161451206Y-88588309D01*
X161377590Y-88656120D01*
X161353851Y-88681312D01*
X161302397Y-88739958D01*
X161264334Y-88787815D01*
X161246677Y-88815958D01*
X161246206Y-88818265D01*
X161240028Y-88832416D01*
X161218590Y-88832575D01*
X161177533Y-88816861D01*
X161112501Y-88783391D01*
X161019137Y-88730281D01*
X160954252Y-88692088D01*
X160857501Y-88632385D01*
X160782312Y-88581263D01*
X160733739Y-88542399D01*
X160716835Y-88519472D01*
X160716845Y-88519305D01*
X160727328Y-88497456D01*
X160756931Y-88442739D01*
X160803938Y-88358136D01*
X160866629Y-88246629D01*
X160943286Y-88111201D01*
X161032191Y-87954833D01*
X161131626Y-87780507D01*
X161239872Y-87591206D01*
X161355211Y-87389911D01*
X161475924Y-87179605D01*
X161600294Y-86963271D01*
X161726601Y-86743889D01*
X161853127Y-86524442D01*
X161978155Y-86307912D01*
X162099965Y-86097281D01*
X162216839Y-85895532D01*
X162327060Y-85705647D01*
X162428908Y-85530606D01*
X162520665Y-85373394D01*
X162600613Y-85236991D01*
X162667034Y-85124380D01*
X162718209Y-85038543D01*
X162752420Y-84982462D01*
X162767948Y-84959119D01*
X162768598Y-84958621D01*
X162780878Y-84976166D01*
G37*
X162780878Y-84976166D02*
X162811876Y-85026538D01*
X162859634Y-85106341D01*
X162922194Y-85212180D01*
X162997597Y-85340659D01*
X163083885Y-85488384D01*
X163179101Y-85651958D01*
X163281285Y-85827987D01*
X163388481Y-86013075D01*
X163498729Y-86203827D01*
X163610071Y-86396847D01*
X163720550Y-86588741D01*
X163828207Y-86776111D01*
X163931084Y-86955565D01*
X164027223Y-87123705D01*
X164114665Y-87277137D01*
X164191453Y-87412465D01*
X164255628Y-87526294D01*
X164305233Y-87615229D01*
X164338309Y-87675874D01*
X164352897Y-87704833D01*
X164353431Y-87706644D01*
X164335321Y-87731217D01*
X164284980Y-87768807D01*
X164208395Y-87815722D01*
X164111552Y-87868274D01*
X164010167Y-87918213D01*
X163872215Y-87978769D01*
X163727142Y-88033179D01*
X163569950Y-88082651D01*
X163395643Y-88128395D01*
X163199222Y-88171620D01*
X162975689Y-88213534D01*
X162720048Y-88255347D01*
X162455606Y-88294284D01*
X162225852Y-88328828D01*
X162032917Y-88363026D01*
X161871964Y-88398577D01*
X161738155Y-88437182D01*
X161626650Y-88480539D01*
X161532614Y-88530348D01*
X161451206Y-88588309D01*
X161377590Y-88656120D01*
X161353851Y-88681312D01*
X161302397Y-88739958D01*
X161264334Y-88787815D01*
X161246677Y-88815958D01*
X161246206Y-88818265D01*
X161240028Y-88832416D01*
X161218590Y-88832575D01*
X161177533Y-88816861D01*
X161112501Y-88783391D01*
X161019137Y-88730281D01*
X160954252Y-88692088D01*
X160857501Y-88632385D01*
X160782312Y-88581263D01*
X160733739Y-88542399D01*
X160716835Y-88519472D01*
X160716845Y-88519305D01*
X160727328Y-88497456D01*
X160756931Y-88442739D01*
X160803938Y-88358136D01*
X160866629Y-88246629D01*
X160943286Y-88111201D01*
X161032191Y-87954833D01*
X161131626Y-87780507D01*
X161239872Y-87591206D01*
X161355211Y-87389911D01*
X161475924Y-87179605D01*
X161600294Y-86963271D01*
X161726601Y-86743889D01*
X161853127Y-86524442D01*
X161978155Y-86307912D01*
X162099965Y-86097281D01*
X162216839Y-85895532D01*
X162327060Y-85705647D01*
X162428908Y-85530606D01*
X162520665Y-85373394D01*
X162600613Y-85236991D01*
X162667034Y-85124380D01*
X162718209Y-85038543D01*
X162752420Y-84982462D01*
X162767948Y-84959119D01*
X162768598Y-84958621D01*
X162780878Y-84976166D01*
%TO.C,GKiwi*%
G36*
X109633485Y-88077092D02*
G01*
X109887584Y-88103012D01*
X110130423Y-88143291D01*
X110311406Y-88186450D01*
X110746200Y-88332510D01*
X111176913Y-88524450D01*
X111599084Y-88758546D01*
X112008255Y-89031069D01*
X112399964Y-89338294D01*
X112769752Y-89676494D01*
X113113158Y-90041942D01*
X113425723Y-90430912D01*
X113702986Y-90839677D01*
X113899560Y-91184511D01*
X114086632Y-91579489D01*
X114232940Y-91968762D01*
X114338329Y-92349773D01*
X114402648Y-92719962D01*
X114425744Y-93076772D01*
X114407463Y-93417642D01*
X114347655Y-93740015D01*
X114246165Y-94041333D01*
X114102841Y-94319035D01*
X114087997Y-94342606D01*
X114012698Y-94445269D01*
X113902834Y-94573846D01*
X113763117Y-94723946D01*
X113598257Y-94891177D01*
X113412965Y-95071145D01*
X113211952Y-95259459D01*
X112999928Y-95451726D01*
X112781605Y-95643554D01*
X112561693Y-95830550D01*
X112344903Y-96008322D01*
X112135946Y-96172477D01*
X112079332Y-96215516D01*
X111682872Y-96499035D01*
X111285336Y-96753201D01*
X110891396Y-96975670D01*
X110505726Y-97164098D01*
X110132997Y-97316139D01*
X109777884Y-97429451D01*
X109554863Y-97481995D01*
X109305760Y-97526386D01*
X109085487Y-97553105D01*
X108876935Y-97563208D01*
X108662997Y-97557755D01*
X108513066Y-97546379D01*
X108114643Y-97485131D01*
X107727070Y-97375738D01*
X107350992Y-97218605D01*
X106987057Y-97014135D01*
X106635913Y-96762732D01*
X106298206Y-96464802D01*
X105974586Y-96120747D01*
X105717271Y-95800616D01*
X105460677Y-95423811D01*
X105253427Y-95042442D01*
X105095496Y-94656243D01*
X104986860Y-94264947D01*
X104927493Y-93868287D01*
X104921119Y-93614924D01*
X105517747Y-93614924D01*
X105523399Y-93801853D01*
X105536465Y-93971908D01*
X105556763Y-94109689D01*
X105559018Y-94120345D01*
X105656770Y-94469900D01*
X105795527Y-94808922D01*
X105977245Y-95140847D01*
X106203880Y-95469113D01*
X106477387Y-95797158D01*
X106570445Y-95897705D01*
X106883029Y-96197305D01*
X107208491Y-96449348D01*
X107546576Y-96653693D01*
X107897028Y-96810199D01*
X108259593Y-96918723D01*
X108488261Y-96961545D01*
X108581596Y-96968547D01*
X108711035Y-96969337D01*
X108863566Y-96964681D01*
X109026176Y-96955347D01*
X109185854Y-96942100D01*
X109329588Y-96925708D01*
X109444365Y-96906937D01*
X109455644Y-96904546D01*
X109788345Y-96816778D01*
X110123102Y-96698044D01*
X110463393Y-96546428D01*
X110812695Y-96360014D01*
X111174485Y-96136886D01*
X111552238Y-95875129D01*
X111949434Y-95572828D01*
X112116510Y-95438515D01*
X112344652Y-95252480D01*
X112239601Y-95235715D01*
X112145802Y-95224685D01*
X112041507Y-95217853D01*
X112014423Y-95217112D01*
X111937233Y-95211225D01*
X111829184Y-95196940D01*
X111707820Y-95176755D01*
X111642353Y-95164164D01*
X111218153Y-95053956D01*
X110795869Y-94897579D01*
X110379328Y-94698435D01*
X109972357Y-94459928D01*
X109578785Y-94185459D01*
X109202439Y-93878432D01*
X108847147Y-93542249D01*
X108516735Y-93180314D01*
X108215033Y-92796030D01*
X107945867Y-92392799D01*
X107713065Y-91974024D01*
X107520454Y-91543107D01*
X107495060Y-91477087D01*
X107434248Y-91297091D01*
X107378352Y-91097163D01*
X107330200Y-90890623D01*
X107292621Y-90690792D01*
X107268444Y-90510993D01*
X107260463Y-90372158D01*
X107257293Y-90295527D01*
X107249118Y-90243755D01*
X107240436Y-90229531D01*
X107213410Y-90248355D01*
X107161121Y-90301029D01*
X107088257Y-90381851D01*
X106999505Y-90485124D01*
X106899554Y-90605146D01*
X106793089Y-90736218D01*
X106684799Y-90872641D01*
X106579371Y-91008714D01*
X106481491Y-91138738D01*
X106398234Y-91253635D01*
X106154445Y-91623457D01*
X105946711Y-91991017D01*
X105777104Y-92351806D01*
X105647693Y-92701314D01*
X105560551Y-93035033D01*
X105547086Y-93106875D01*
X105529409Y-93252036D01*
X105519690Y-93426519D01*
X105517747Y-93614924D01*
X104921119Y-93614924D01*
X104917371Y-93465996D01*
X104956468Y-93057806D01*
X105044759Y-92643451D01*
X105182219Y-92222664D01*
X105346228Y-91841835D01*
X105520341Y-91512038D01*
X105735813Y-91162636D01*
X105990069Y-90797066D01*
X106280532Y-90418763D01*
X106525049Y-90126334D01*
X107860724Y-90126334D01*
X107863522Y-90316347D01*
X107903905Y-90675227D01*
X107989908Y-91041404D01*
X108118833Y-91410933D01*
X108287980Y-91779870D01*
X108494651Y-92144272D01*
X108736147Y-92500193D01*
X109009768Y-92843692D01*
X109312817Y-93170822D01*
X109642594Y-93477641D01*
X109996401Y-93760203D01*
X110371537Y-94014566D01*
X110410625Y-94038606D01*
X110822790Y-94262047D01*
X111247700Y-94438064D01*
X111684026Y-94566167D01*
X112010527Y-94629379D01*
X112099317Y-94636017D01*
X112221971Y-94636189D01*
X112363294Y-94630810D01*
X112508090Y-94620792D01*
X112641167Y-94607051D01*
X112747329Y-94590498D01*
X112779472Y-94583132D01*
X113031824Y-94493338D01*
X113253135Y-94366978D01*
X113440979Y-94205957D01*
X113592929Y-94012180D01*
X113660873Y-93891217D01*
X113749545Y-93677756D01*
X113804991Y-93458918D01*
X113830577Y-93219338D01*
X113833241Y-93103923D01*
X113810463Y-92755093D01*
X113742213Y-92395743D01*
X113630466Y-92029833D01*
X113477201Y-91661319D01*
X113284394Y-91294159D01*
X113054023Y-90932313D01*
X112788064Y-90579737D01*
X112488494Y-90240389D01*
X112316058Y-90066562D01*
X111931731Y-89722611D01*
X111535687Y-89423153D01*
X111129734Y-89169221D01*
X110715683Y-88961845D01*
X110295342Y-88802058D01*
X109922999Y-88701917D01*
X109774050Y-88677918D01*
X109599733Y-88663084D01*
X109414516Y-88657450D01*
X109232866Y-88661053D01*
X109069249Y-88673928D01*
X108938131Y-88696113D01*
X108925134Y-88699438D01*
X108770292Y-88750655D01*
X108617456Y-88818504D01*
X108475241Y-88897478D01*
X108352266Y-88982069D01*
X108257146Y-89066769D01*
X108198498Y-89146071D01*
X108188576Y-89170244D01*
X108161768Y-89222890D01*
X108115389Y-89288322D01*
X108097997Y-89309204D01*
X107999386Y-89457544D01*
X107926447Y-89645427D01*
X107879965Y-89869481D01*
X107860724Y-90126334D01*
X106525049Y-90126334D01*
X106604628Y-90031163D01*
X106959780Y-89637702D01*
X107141530Y-89446733D01*
X107258843Y-89323965D01*
X107369072Y-89205730D01*
X107465785Y-89099150D01*
X107542552Y-89011347D01*
X107592941Y-88949444D01*
X107602425Y-88936298D01*
X107796375Y-88693659D01*
X108022153Y-88488810D01*
X108278640Y-88322450D01*
X108564718Y-88195279D01*
X108879268Y-88107997D01*
X108947148Y-88095097D01*
X109148914Y-88072174D01*
X109382478Y-88066493D01*
X109633485Y-88077092D01*
G37*
X109633485Y-88077092D02*
X109887584Y-88103012D01*
X110130423Y-88143291D01*
X110311406Y-88186450D01*
X110746200Y-88332510D01*
X111176913Y-88524450D01*
X111599084Y-88758546D01*
X112008255Y-89031069D01*
X112399964Y-89338294D01*
X112769752Y-89676494D01*
X113113158Y-90041942D01*
X113425723Y-90430912D01*
X113702986Y-90839677D01*
X113899560Y-91184511D01*
X114086632Y-91579489D01*
X114232940Y-91968762D01*
X114338329Y-92349773D01*
X114402648Y-92719962D01*
X114425744Y-93076772D01*
X114407463Y-93417642D01*
X114347655Y-93740015D01*
X114246165Y-94041333D01*
X114102841Y-94319035D01*
X114087997Y-94342606D01*
X114012698Y-94445269D01*
X113902834Y-94573846D01*
X113763117Y-94723946D01*
X113598257Y-94891177D01*
X113412965Y-95071145D01*
X113211952Y-95259459D01*
X112999928Y-95451726D01*
X112781605Y-95643554D01*
X112561693Y-95830550D01*
X112344903Y-96008322D01*
X112135946Y-96172477D01*
X112079332Y-96215516D01*
X111682872Y-96499035D01*
X111285336Y-96753201D01*
X110891396Y-96975670D01*
X110505726Y-97164098D01*
X110132997Y-97316139D01*
X109777884Y-97429451D01*
X109554863Y-97481995D01*
X109305760Y-97526386D01*
X109085487Y-97553105D01*
X108876935Y-97563208D01*
X108662997Y-97557755D01*
X108513066Y-97546379D01*
X108114643Y-97485131D01*
X107727070Y-97375738D01*
X107350992Y-97218605D01*
X106987057Y-97014135D01*
X106635913Y-96762732D01*
X106298206Y-96464802D01*
X105974586Y-96120747D01*
X105717271Y-95800616D01*
X105460677Y-95423811D01*
X105253427Y-95042442D01*
X105095496Y-94656243D01*
X104986860Y-94264947D01*
X104927493Y-93868287D01*
X104921119Y-93614924D01*
X105517747Y-93614924D01*
X105523399Y-93801853D01*
X105536465Y-93971908D01*
X105556763Y-94109689D01*
X105559018Y-94120345D01*
X105656770Y-94469900D01*
X105795527Y-94808922D01*
X105977245Y-95140847D01*
X106203880Y-95469113D01*
X106477387Y-95797158D01*
X106570445Y-95897705D01*
X106883029Y-96197305D01*
X107208491Y-96449348D01*
X107546576Y-96653693D01*
X107897028Y-96810199D01*
X108259593Y-96918723D01*
X108488261Y-96961545D01*
X108581596Y-96968547D01*
X108711035Y-96969337D01*
X108863566Y-96964681D01*
X109026176Y-96955347D01*
X109185854Y-96942100D01*
X109329588Y-96925708D01*
X109444365Y-96906937D01*
X109455644Y-96904546D01*
X109788345Y-96816778D01*
X110123102Y-96698044D01*
X110463393Y-96546428D01*
X110812695Y-96360014D01*
X111174485Y-96136886D01*
X111552238Y-95875129D01*
X111949434Y-95572828D01*
X112116510Y-95438515D01*
X112344652Y-95252480D01*
X112239601Y-95235715D01*
X112145802Y-95224685D01*
X112041507Y-95217853D01*
X112014423Y-95217112D01*
X111937233Y-95211225D01*
X111829184Y-95196940D01*
X111707820Y-95176755D01*
X111642353Y-95164164D01*
X111218153Y-95053956D01*
X110795869Y-94897579D01*
X110379328Y-94698435D01*
X109972357Y-94459928D01*
X109578785Y-94185459D01*
X109202439Y-93878432D01*
X108847147Y-93542249D01*
X108516735Y-93180314D01*
X108215033Y-92796030D01*
X107945867Y-92392799D01*
X107713065Y-91974024D01*
X107520454Y-91543107D01*
X107495060Y-91477087D01*
X107434248Y-91297091D01*
X107378352Y-91097163D01*
X107330200Y-90890623D01*
X107292621Y-90690792D01*
X107268444Y-90510993D01*
X107260463Y-90372158D01*
X107257293Y-90295527D01*
X107249118Y-90243755D01*
X107240436Y-90229531D01*
X107213410Y-90248355D01*
X107161121Y-90301029D01*
X107088257Y-90381851D01*
X106999505Y-90485124D01*
X106899554Y-90605146D01*
X106793089Y-90736218D01*
X106684799Y-90872641D01*
X106579371Y-91008714D01*
X106481491Y-91138738D01*
X106398234Y-91253635D01*
X106154445Y-91623457D01*
X105946711Y-91991017D01*
X105777104Y-92351806D01*
X105647693Y-92701314D01*
X105560551Y-93035033D01*
X105547086Y-93106875D01*
X105529409Y-93252036D01*
X105519690Y-93426519D01*
X105517747Y-93614924D01*
X104921119Y-93614924D01*
X104917371Y-93465996D01*
X104956468Y-93057806D01*
X105044759Y-92643451D01*
X105182219Y-92222664D01*
X105346228Y-91841835D01*
X105520341Y-91512038D01*
X105735813Y-91162636D01*
X105990069Y-90797066D01*
X106280532Y-90418763D01*
X106525049Y-90126334D01*
X107860724Y-90126334D01*
X107863522Y-90316347D01*
X107903905Y-90675227D01*
X107989908Y-91041404D01*
X108118833Y-91410933D01*
X108287980Y-91779870D01*
X108494651Y-92144272D01*
X108736147Y-92500193D01*
X109009768Y-92843692D01*
X109312817Y-93170822D01*
X109642594Y-93477641D01*
X109996401Y-93760203D01*
X110371537Y-94014566D01*
X110410625Y-94038606D01*
X110822790Y-94262047D01*
X111247700Y-94438064D01*
X111684026Y-94566167D01*
X112010527Y-94629379D01*
X112099317Y-94636017D01*
X112221971Y-94636189D01*
X112363294Y-94630810D01*
X112508090Y-94620792D01*
X112641167Y-94607051D01*
X112747329Y-94590498D01*
X112779472Y-94583132D01*
X113031824Y-94493338D01*
X113253135Y-94366978D01*
X113440979Y-94205957D01*
X113592929Y-94012180D01*
X113660873Y-93891217D01*
X113749545Y-93677756D01*
X113804991Y-93458918D01*
X113830577Y-93219338D01*
X113833241Y-93103923D01*
X113810463Y-92755093D01*
X113742213Y-92395743D01*
X113630466Y-92029833D01*
X113477201Y-91661319D01*
X113284394Y-91294159D01*
X113054023Y-90932313D01*
X112788064Y-90579737D01*
X112488494Y-90240389D01*
X112316058Y-90066562D01*
X111931731Y-89722611D01*
X111535687Y-89423153D01*
X111129734Y-89169221D01*
X110715683Y-88961845D01*
X110295342Y-88802058D01*
X109922999Y-88701917D01*
X109774050Y-88677918D01*
X109599733Y-88663084D01*
X109414516Y-88657450D01*
X109232866Y-88661053D01*
X109069249Y-88673928D01*
X108938131Y-88696113D01*
X108925134Y-88699438D01*
X108770292Y-88750655D01*
X108617456Y-88818504D01*
X108475241Y-88897478D01*
X108352266Y-88982069D01*
X108257146Y-89066769D01*
X108198498Y-89146071D01*
X108188576Y-89170244D01*
X108161768Y-89222890D01*
X108115389Y-89288322D01*
X108097997Y-89309204D01*
X107999386Y-89457544D01*
X107926447Y-89645427D01*
X107879965Y-89869481D01*
X107860724Y-90126334D01*
X106525049Y-90126334D01*
X106604628Y-90031163D01*
X106959780Y-89637702D01*
X107141530Y-89446733D01*
X107258843Y-89323965D01*
X107369072Y-89205730D01*
X107465785Y-89099150D01*
X107542552Y-89011347D01*
X107592941Y-88949444D01*
X107602425Y-88936298D01*
X107796375Y-88693659D01*
X108022153Y-88488810D01*
X108278640Y-88322450D01*
X108564718Y-88195279D01*
X108879268Y-88107997D01*
X108947148Y-88095097D01*
X109148914Y-88072174D01*
X109382478Y-88066493D01*
X109633485Y-88077092D01*
G36*
X111342679Y-93145237D02*
G01*
X111413073Y-93187352D01*
X111444387Y-93231475D01*
X111458511Y-93277325D01*
X111477493Y-93361751D01*
X111499217Y-93474215D01*
X111521566Y-93604176D01*
X111530164Y-93658429D01*
X111586653Y-94023949D01*
X111535677Y-94092511D01*
X111469028Y-94145290D01*
X111380596Y-94169974D01*
X111292930Y-94160731D01*
X111284468Y-94157463D01*
X111252313Y-94131874D01*
X111223561Y-94080462D01*
X111196577Y-93997810D01*
X111169727Y-93878502D01*
X111141377Y-93717122D01*
X111130321Y-93646588D01*
X111108971Y-93504234D01*
X111095329Y-93402190D01*
X111089083Y-93331811D01*
X111089920Y-93284451D01*
X111097529Y-93251464D01*
X111111597Y-93224203D01*
X111114880Y-93219101D01*
X111178378Y-93160540D01*
X111259379Y-93136109D01*
X111342679Y-93145237D01*
G37*
X111342679Y-93145237D02*
X111413073Y-93187352D01*
X111444387Y-93231475D01*
X111458511Y-93277325D01*
X111477493Y-93361751D01*
X111499217Y-93474215D01*
X111521566Y-93604176D01*
X111530164Y-93658429D01*
X111586653Y-94023949D01*
X111535677Y-94092511D01*
X111469028Y-94145290D01*
X111380596Y-94169974D01*
X111292930Y-94160731D01*
X111284468Y-94157463D01*
X111252313Y-94131874D01*
X111223561Y-94080462D01*
X111196577Y-93997810D01*
X111169727Y-93878502D01*
X111141377Y-93717122D01*
X111130321Y-93646588D01*
X111108971Y-93504234D01*
X111095329Y-93402190D01*
X111089083Y-93331811D01*
X111089920Y-93284451D01*
X111097529Y-93251464D01*
X111111597Y-93224203D01*
X111114880Y-93219101D01*
X111178378Y-93160540D01*
X111259379Y-93136109D01*
X111342679Y-93145237D01*
G36*
X112356676Y-92812942D02*
G01*
X112391777Y-92827143D01*
X112435601Y-92856368D01*
X112493771Y-92905163D01*
X112571904Y-92978075D01*
X112675620Y-93079650D01*
X112747487Y-93151262D01*
X112867225Y-93271879D01*
X112955738Y-93363745D01*
X113017570Y-93432478D01*
X113057269Y-93483698D01*
X113079381Y-93523026D01*
X113088452Y-93556082D01*
X113089531Y-93574069D01*
X113068445Y-93658892D01*
X113014000Y-93729188D01*
X112939414Y-93770880D01*
X112899368Y-93776601D01*
X112868557Y-93770041D01*
X112828089Y-93747630D01*
X112773081Y-93705274D01*
X112698646Y-93638877D01*
X112599898Y-93544344D01*
X112476561Y-93422188D01*
X112350894Y-93295256D01*
X112257327Y-93197364D01*
X112191765Y-93123628D01*
X112150112Y-93069162D01*
X112128273Y-93029080D01*
X112122148Y-92999381D01*
X112144605Y-92919739D01*
X112202592Y-92853736D01*
X112282029Y-92814590D01*
X112324680Y-92809218D01*
X112356676Y-92812942D01*
G37*
X112356676Y-92812942D02*
X112391777Y-92827143D01*
X112435601Y-92856368D01*
X112493771Y-92905163D01*
X112571904Y-92978075D01*
X112675620Y-93079650D01*
X112747487Y-93151262D01*
X112867225Y-93271879D01*
X112955738Y-93363745D01*
X113017570Y-93432478D01*
X113057269Y-93483698D01*
X113079381Y-93523026D01*
X113088452Y-93556082D01*
X113089531Y-93574069D01*
X113068445Y-93658892D01*
X113014000Y-93729188D01*
X112939414Y-93770880D01*
X112899368Y-93776601D01*
X112868557Y-93770041D01*
X112828089Y-93747630D01*
X112773081Y-93705274D01*
X112698646Y-93638877D01*
X112599898Y-93544344D01*
X112476561Y-93422188D01*
X112350894Y-93295256D01*
X112257327Y-93197364D01*
X112191765Y-93123628D01*
X112150112Y-93069162D01*
X112128273Y-93029080D01*
X112122148Y-92999381D01*
X112144605Y-92919739D01*
X112202592Y-92853736D01*
X112282029Y-92814590D01*
X112324680Y-92809218D01*
X112356676Y-92812942D01*
G36*
X110086527Y-92402337D02*
G01*
X110151935Y-92449421D01*
X110181928Y-92506578D01*
X110193127Y-92563496D01*
X110183450Y-92621910D01*
X110148987Y-92688299D01*
X110085832Y-92769142D01*
X109990073Y-92870918D01*
X109920779Y-92939443D01*
X109824589Y-93031490D01*
X109754594Y-93093488D01*
X109702603Y-93131149D01*
X109660424Y-93150184D01*
X109619866Y-93156303D01*
X109609467Y-93156484D01*
X109530731Y-93142701D01*
X109472218Y-93094105D01*
X109469847Y-93091127D01*
X109431251Y-93032860D01*
X109415432Y-92978129D01*
X109425275Y-92920071D01*
X109463665Y-92851823D01*
X109533486Y-92766521D01*
X109637624Y-92657303D01*
X109662854Y-92631955D01*
X109764357Y-92532006D01*
X109839187Y-92463003D01*
X109894466Y-92419576D01*
X109937314Y-92396354D01*
X109974855Y-92387967D01*
X109986946Y-92387539D01*
X110086527Y-92402337D01*
G37*
X110086527Y-92402337D02*
X110151935Y-92449421D01*
X110181928Y-92506578D01*
X110193127Y-92563496D01*
X110183450Y-92621910D01*
X110148987Y-92688299D01*
X110085832Y-92769142D01*
X109990073Y-92870918D01*
X109920779Y-92939443D01*
X109824589Y-93031490D01*
X109754594Y-93093488D01*
X109702603Y-93131149D01*
X109660424Y-93150184D01*
X109619866Y-93156303D01*
X109609467Y-93156484D01*
X109530731Y-93142701D01*
X109472218Y-93094105D01*
X109469847Y-93091127D01*
X109431251Y-93032860D01*
X109415432Y-92978129D01*
X109425275Y-92920071D01*
X109463665Y-92851823D01*
X109533486Y-92766521D01*
X109637624Y-92657303D01*
X109662854Y-92631955D01*
X109764357Y-92532006D01*
X109839187Y-92463003D01*
X109894466Y-92419576D01*
X109937314Y-92396354D01*
X109974855Y-92387967D01*
X109986946Y-92387539D01*
X110086527Y-92402337D01*
G36*
X110497818Y-90410101D02*
G01*
X110725008Y-90450241D01*
X110950948Y-90532783D01*
X111170356Y-90652197D01*
X111377951Y-90802956D01*
X111568453Y-90979530D01*
X111736582Y-91176391D01*
X111877055Y-91388012D01*
X111984593Y-91608862D01*
X112053914Y-91833414D01*
X112079738Y-92056139D01*
X112079793Y-92066298D01*
X112061031Y-92267350D01*
X112004012Y-92437342D01*
X111907803Y-92577897D01*
X111771471Y-92690639D01*
X111696149Y-92733047D01*
X111613170Y-92771616D01*
X111542769Y-92794361D01*
X111465885Y-92805183D01*
X111363458Y-92807986D01*
X111330637Y-92807884D01*
X111167627Y-92798720D01*
X111026064Y-92775003D01*
X110981132Y-92762443D01*
X110728331Y-92656125D01*
X110486197Y-92507057D01*
X110261738Y-92321961D01*
X110061966Y-92107563D01*
X109893889Y-91870586D01*
X109764518Y-91617754D01*
X109749859Y-91581386D01*
X109715022Y-91482346D01*
X109694089Y-91392203D01*
X109683697Y-91291002D01*
X109680547Y-91170436D01*
X109680561Y-91167766D01*
X110075761Y-91167766D01*
X110078279Y-91272379D01*
X110089254Y-91352637D01*
X110113818Y-91429708D01*
X110157100Y-91524764D01*
X110167314Y-91545497D01*
X110302943Y-91771147D01*
X110474154Y-91978977D01*
X110671286Y-92159076D01*
X110884680Y-92301530D01*
X110924829Y-92322794D01*
X111070240Y-92381662D01*
X111218916Y-92415528D01*
X111359013Y-92423401D01*
X111478687Y-92404287D01*
X111543482Y-92374636D01*
X111626991Y-92296651D01*
X111673247Y-92193346D01*
X111685583Y-92066537D01*
X111660000Y-91880038D01*
X111591690Y-91688108D01*
X111485914Y-91497883D01*
X111347937Y-91316500D01*
X111183020Y-91151099D01*
X110996427Y-91008816D01*
X110838993Y-90918362D01*
X110733695Y-90867887D01*
X110654663Y-90836571D01*
X110584564Y-90819906D01*
X110506064Y-90813386D01*
X110431670Y-90812441D01*
X110332708Y-90813652D01*
X110268423Y-90820224D01*
X110223891Y-90836566D01*
X110184190Y-90867084D01*
X110156917Y-90893597D01*
X110115886Y-90937537D01*
X110091687Y-90977485D01*
X110079892Y-91028405D01*
X110076070Y-91105263D01*
X110075761Y-91167766D01*
X109680561Y-91167766D01*
X109681159Y-91054538D01*
X109686990Y-90971945D01*
X109701136Y-90906396D01*
X109726693Y-90841633D01*
X109753558Y-90787029D01*
X109857142Y-90635098D01*
X109992042Y-90520568D01*
X110155383Y-90444896D01*
X110344293Y-90409537D01*
X110497818Y-90410101D01*
G37*
X110497818Y-90410101D02*
X110725008Y-90450241D01*
X110950948Y-90532783D01*
X111170356Y-90652197D01*
X111377951Y-90802956D01*
X111568453Y-90979530D01*
X111736582Y-91176391D01*
X111877055Y-91388012D01*
X111984593Y-91608862D01*
X112053914Y-91833414D01*
X112079738Y-92056139D01*
X112079793Y-92066298D01*
X112061031Y-92267350D01*
X112004012Y-92437342D01*
X111907803Y-92577897D01*
X111771471Y-92690639D01*
X111696149Y-92733047D01*
X111613170Y-92771616D01*
X111542769Y-92794361D01*
X111465885Y-92805183D01*
X111363458Y-92807986D01*
X111330637Y-92807884D01*
X111167627Y-92798720D01*
X111026064Y-92775003D01*
X110981132Y-92762443D01*
X110728331Y-92656125D01*
X110486197Y-92507057D01*
X110261738Y-92321961D01*
X110061966Y-92107563D01*
X109893889Y-91870586D01*
X109764518Y-91617754D01*
X109749859Y-91581386D01*
X109715022Y-91482346D01*
X109694089Y-91392203D01*
X109683697Y-91291002D01*
X109680547Y-91170436D01*
X109680561Y-91167766D01*
X110075761Y-91167766D01*
X110078279Y-91272379D01*
X110089254Y-91352637D01*
X110113818Y-91429708D01*
X110157100Y-91524764D01*
X110167314Y-91545497D01*
X110302943Y-91771147D01*
X110474154Y-91978977D01*
X110671286Y-92159076D01*
X110884680Y-92301530D01*
X110924829Y-92322794D01*
X111070240Y-92381662D01*
X111218916Y-92415528D01*
X111359013Y-92423401D01*
X111478687Y-92404287D01*
X111543482Y-92374636D01*
X111626991Y-92296651D01*
X111673247Y-92193346D01*
X111685583Y-92066537D01*
X111660000Y-91880038D01*
X111591690Y-91688108D01*
X111485914Y-91497883D01*
X111347937Y-91316500D01*
X111183020Y-91151099D01*
X110996427Y-91008816D01*
X110838993Y-90918362D01*
X110733695Y-90867887D01*
X110654663Y-90836571D01*
X110584564Y-90819906D01*
X110506064Y-90813386D01*
X110431670Y-90812441D01*
X110332708Y-90813652D01*
X110268423Y-90820224D01*
X110223891Y-90836566D01*
X110184190Y-90867084D01*
X110156917Y-90893597D01*
X110115886Y-90937537D01*
X110091687Y-90977485D01*
X110079892Y-91028405D01*
X110076070Y-91105263D01*
X110075761Y-91167766D01*
X109680561Y-91167766D01*
X109681159Y-91054538D01*
X109686990Y-90971945D01*
X109701136Y-90906396D01*
X109726693Y-90841633D01*
X109753558Y-90787029D01*
X109857142Y-90635098D01*
X109992042Y-90520568D01*
X110155383Y-90444896D01*
X110344293Y-90409537D01*
X110497818Y-90410101D01*
G36*
X112630474Y-91647729D02*
G01*
X112740485Y-91659905D01*
X112887723Y-91682875D01*
X112995157Y-91701497D01*
X113149373Y-91731073D01*
X113260862Y-91759373D01*
X113336246Y-91790233D01*
X113382142Y-91827491D01*
X113405171Y-91874984D01*
X113411952Y-91936548D01*
X113411992Y-91943098D01*
X113400784Y-92021128D01*
X113360064Y-92076888D01*
X113346635Y-92088082D01*
X113317476Y-92109893D01*
X113289098Y-92124577D01*
X113253640Y-92131928D01*
X113203242Y-92131738D01*
X113130042Y-92123800D01*
X113026181Y-92107907D01*
X112883797Y-92083852D01*
X112829082Y-92074442D01*
X112687752Y-92049202D01*
X112586803Y-92028306D01*
X112517500Y-92009093D01*
X112471110Y-91988905D01*
X112438900Y-91965081D01*
X112426005Y-91951678D01*
X112378126Y-91869072D01*
X112379760Y-91784632D01*
X112421605Y-91708755D01*
X112453254Y-91676861D01*
X112493913Y-91656118D01*
X112550634Y-91646437D01*
X112630474Y-91647729D01*
G37*
X112630474Y-91647729D02*
X112740485Y-91659905D01*
X112887723Y-91682875D01*
X112995157Y-91701497D01*
X113149373Y-91731073D01*
X113260862Y-91759373D01*
X113336246Y-91790233D01*
X113382142Y-91827491D01*
X113405171Y-91874984D01*
X113411952Y-91936548D01*
X113411992Y-91943098D01*
X113400784Y-92021128D01*
X113360064Y-92076888D01*
X113346635Y-92088082D01*
X113317476Y-92109893D01*
X113289098Y-92124577D01*
X113253640Y-92131928D01*
X113203242Y-92131738D01*
X113130042Y-92123800D01*
X113026181Y-92107907D01*
X112883797Y-92083852D01*
X112829082Y-92074442D01*
X112687752Y-92049202D01*
X112586803Y-92028306D01*
X112517500Y-92009093D01*
X112471110Y-91988905D01*
X112438900Y-91965081D01*
X112426005Y-91951678D01*
X112378126Y-91869072D01*
X112379760Y-91784632D01*
X112421605Y-91708755D01*
X112453254Y-91676861D01*
X112493913Y-91656118D01*
X112550634Y-91646437D01*
X112630474Y-91647729D01*
G36*
X108542808Y-90975167D02*
G01*
X108653938Y-90989179D01*
X108781045Y-91008440D01*
X108815855Y-91014236D01*
X108940923Y-91035260D01*
X109048406Y-91052934D01*
X109128871Y-91065739D01*
X109172884Y-91072151D01*
X109177719Y-91072604D01*
X109217797Y-91092948D01*
X109263820Y-91141357D01*
X109302155Y-91200312D01*
X109319172Y-91252294D01*
X109319218Y-91254453D01*
X109304055Y-91316031D01*
X109267809Y-91379604D01*
X109229205Y-91419269D01*
X109183123Y-91438155D01*
X109110894Y-91442792D01*
X109087975Y-91442517D01*
X109011970Y-91437049D01*
X108902482Y-91424041D01*
X108774709Y-91405497D01*
X108655374Y-91385502D01*
X108535506Y-91361687D01*
X108431666Y-91336764D01*
X108354705Y-91313628D01*
X108315478Y-91295179D01*
X108314863Y-91294595D01*
X108283464Y-91244067D01*
X108263634Y-91183788D01*
X108269961Y-91101403D01*
X108313496Y-91026795D01*
X108382666Y-90976778D01*
X108412221Y-90967911D01*
X108458590Y-90967660D01*
X108542808Y-90975167D01*
G37*
X108542808Y-90975167D02*
X108653938Y-90989179D01*
X108781045Y-91008440D01*
X108815855Y-91014236D01*
X108940923Y-91035260D01*
X109048406Y-91052934D01*
X109128871Y-91065739D01*
X109172884Y-91072151D01*
X109177719Y-91072604D01*
X109217797Y-91092948D01*
X109263820Y-91141357D01*
X109302155Y-91200312D01*
X109319172Y-91252294D01*
X109319218Y-91254453D01*
X109304055Y-91316031D01*
X109267809Y-91379604D01*
X109229205Y-91419269D01*
X109183123Y-91438155D01*
X109110894Y-91442792D01*
X109087975Y-91442517D01*
X109011970Y-91437049D01*
X108902482Y-91424041D01*
X108774709Y-91405497D01*
X108655374Y-91385502D01*
X108535506Y-91361687D01*
X108431666Y-91336764D01*
X108354705Y-91313628D01*
X108315478Y-91295179D01*
X108314863Y-91294595D01*
X108283464Y-91244067D01*
X108263634Y-91183788D01*
X108269961Y-91101403D01*
X108313496Y-91026795D01*
X108382666Y-90976778D01*
X108412221Y-90967911D01*
X108458590Y-90967660D01*
X108542808Y-90975167D01*
G36*
X112317935Y-90169516D02*
G01*
X112384356Y-90216574D01*
X112418356Y-90275645D01*
X112432049Y-90325353D01*
X112427732Y-90375473D01*
X112401471Y-90432389D01*
X112349332Y-90502482D01*
X112267378Y-90592135D01*
X112152403Y-90707021D01*
X112037611Y-90814237D01*
X111947328Y-90885092D01*
X111875001Y-90921909D01*
X111814078Y-90927009D01*
X111758007Y-90902714D01*
X111711743Y-90863178D01*
X111660155Y-90780644D01*
X111650859Y-90723122D01*
X111655723Y-90685849D01*
X111673887Y-90645311D01*
X111710712Y-90594412D01*
X111771557Y-90526058D01*
X111861780Y-90433152D01*
X111895276Y-90399534D01*
X111996779Y-90299584D01*
X112071609Y-90230581D01*
X112126888Y-90187154D01*
X112169736Y-90163932D01*
X112207277Y-90155545D01*
X112219367Y-90155117D01*
X112317935Y-90169516D01*
G37*
X112317935Y-90169516D02*
X112384356Y-90216574D01*
X112418356Y-90275645D01*
X112432049Y-90325353D01*
X112427732Y-90375473D01*
X112401471Y-90432389D01*
X112349332Y-90502482D01*
X112267378Y-90592135D01*
X112152403Y-90707021D01*
X112037611Y-90814237D01*
X111947328Y-90885092D01*
X111875001Y-90921909D01*
X111814078Y-90927009D01*
X111758007Y-90902714D01*
X111711743Y-90863178D01*
X111660155Y-90780644D01*
X111650859Y-90723122D01*
X111655723Y-90685849D01*
X111673887Y-90645311D01*
X111710712Y-90594412D01*
X111771557Y-90526058D01*
X111861780Y-90433152D01*
X111895276Y-90399534D01*
X111996779Y-90299584D01*
X112071609Y-90230581D01*
X112126888Y-90187154D01*
X112169736Y-90163932D01*
X112207277Y-90155545D01*
X112219367Y-90155117D01*
X112317935Y-90169516D01*
G36*
X108974845Y-89438425D02*
G01*
X109009520Y-89449516D01*
X109050182Y-89473796D01*
X109102942Y-89516004D01*
X109173913Y-89580881D01*
X109269208Y-89673167D01*
X109353316Y-89756273D01*
X109468208Y-89870923D01*
X109552211Y-89957204D01*
X109610110Y-90021225D01*
X109646689Y-90069092D01*
X109666731Y-90106913D01*
X109675021Y-90140796D01*
X109676406Y-90168746D01*
X109655296Y-90260586D01*
X109596411Y-90323991D01*
X109506415Y-90352573D01*
X109483557Y-90353554D01*
X109451337Y-90349316D01*
X109415039Y-90333530D01*
X109368975Y-90301592D01*
X109307454Y-90248897D01*
X109224786Y-90170839D01*
X109115280Y-90062814D01*
X109077028Y-90024560D01*
X108958881Y-89905065D01*
X108872158Y-89814157D01*
X108812324Y-89746245D01*
X108774844Y-89695740D01*
X108755182Y-89657054D01*
X108748802Y-89624596D01*
X108748710Y-89619959D01*
X108770464Y-89530165D01*
X108829852Y-89466288D01*
X108918067Y-89436809D01*
X108940044Y-89435781D01*
X108974845Y-89438425D01*
G37*
X108974845Y-89438425D02*
X109009520Y-89449516D01*
X109050182Y-89473796D01*
X109102942Y-89516004D01*
X109173913Y-89580881D01*
X109269208Y-89673167D01*
X109353316Y-89756273D01*
X109468208Y-89870923D01*
X109552211Y-89957204D01*
X109610110Y-90021225D01*
X109646689Y-90069092D01*
X109666731Y-90106913D01*
X109675021Y-90140796D01*
X109676406Y-90168746D01*
X109655296Y-90260586D01*
X109596411Y-90323991D01*
X109506415Y-90352573D01*
X109483557Y-90353554D01*
X109451337Y-90349316D01*
X109415039Y-90333530D01*
X109368975Y-90301592D01*
X109307454Y-90248897D01*
X109224786Y-90170839D01*
X109115280Y-90062814D01*
X109077028Y-90024560D01*
X108958881Y-89905065D01*
X108872158Y-89814157D01*
X108812324Y-89746245D01*
X108774844Y-89695740D01*
X108755182Y-89657054D01*
X108748802Y-89624596D01*
X108748710Y-89619959D01*
X108770464Y-89530165D01*
X108829852Y-89466288D01*
X108918067Y-89436809D01*
X108940044Y-89435781D01*
X108974845Y-89438425D01*
G36*
X110534233Y-89155487D02*
G01*
X110604081Y-89202716D01*
X110611905Y-89212539D01*
X110636638Y-89266951D01*
X110664018Y-89361832D01*
X110691703Y-89488290D01*
X110707375Y-89574962D01*
X110734799Y-89748355D01*
X110751031Y-89880386D01*
X110756081Y-89978021D01*
X110749961Y-90048225D01*
X110732683Y-90097964D01*
X110708281Y-90130312D01*
X110634637Y-90172266D01*
X110547720Y-90177359D01*
X110466920Y-90146069D01*
X110440896Y-90123729D01*
X110417741Y-90090093D01*
X110396711Y-90037141D01*
X110375850Y-89957391D01*
X110353202Y-89843360D01*
X110326812Y-89687567D01*
X110326676Y-89686726D01*
X110301420Y-89521343D01*
X110286769Y-89397390D01*
X110283193Y-89307733D01*
X110291156Y-89245239D01*
X110311127Y-89202775D01*
X110343572Y-89173208D01*
X110360974Y-89162951D01*
X110446536Y-89140916D01*
X110534233Y-89155487D01*
G37*
X110534233Y-89155487D02*
X110604081Y-89202716D01*
X110611905Y-89212539D01*
X110636638Y-89266951D01*
X110664018Y-89361832D01*
X110691703Y-89488290D01*
X110707375Y-89574962D01*
X110734799Y-89748355D01*
X110751031Y-89880386D01*
X110756081Y-89978021D01*
X110749961Y-90048225D01*
X110732683Y-90097964D01*
X110708281Y-90130312D01*
X110634637Y-90172266D01*
X110547720Y-90177359D01*
X110466920Y-90146069D01*
X110440896Y-90123729D01*
X110417741Y-90090093D01*
X110396711Y-90037141D01*
X110375850Y-89957391D01*
X110353202Y-89843360D01*
X110326812Y-89687567D01*
X110326676Y-89686726D01*
X110301420Y-89521343D01*
X110286769Y-89397390D01*
X110283193Y-89307733D01*
X110291156Y-89245239D01*
X110311127Y-89202775D01*
X110343572Y-89173208D01*
X110360974Y-89162951D01*
X110446536Y-89140916D01*
X110534233Y-89155487D01*
D10*
%TO.C,U1*%
X100100000Y-127170000D02*
X100100000Y-134070000D01*
X97560000Y-127170000D02*
X100100000Y-127170000D01*
D12*
G36*
X96520000Y-107315000D02*
G01*
X96520000Y-108585000D01*
X97155000Y-107950000D01*
X96520000Y-107315000D01*
G37*
X96520000Y-107315000D02*
X96520000Y-108585000D01*
X97155000Y-107950000D01*
X96520000Y-107315000D01*
D10*
X121300000Y-99610000D02*
X99690000Y-99610000D01*
X123420000Y-134070000D02*
X123420000Y-101740000D01*
X97560000Y-127170000D02*
X97560000Y-101740000D01*
X100100000Y-134070000D02*
X123420000Y-134070000D01*
X121290000Y-99610000D02*
G75*
G02*
X123420000Y-101740000I0J-2130000D01*
G01*
X97560000Y-101740000D02*
G75*
G02*
X99690000Y-99610000I2130000J0D01*
G01*
%TO.C,J15*%
X167580000Y-87690000D02*
X170240000Y-87690000D01*
X167580000Y-87630000D02*
X167580000Y-87690000D01*
X170240000Y-87630000D02*
X170240000Y-87690000D01*
X167580000Y-87630000D02*
X170240000Y-87630000D01*
X167580000Y-86360000D02*
X167580000Y-85030000D01*
X167580000Y-85030000D02*
X168910000Y-85030000D01*
%TO.C,J14*%
X87690000Y-110430000D02*
X85030000Y-110430000D01*
X87690000Y-115570000D02*
X87690000Y-110430000D01*
X85030000Y-115570000D02*
X85030000Y-110430000D01*
X87690000Y-115570000D02*
X85030000Y-115570000D01*
X87690000Y-116840000D02*
X87690000Y-118170000D01*
X87690000Y-118170000D02*
X86360000Y-118170000D01*
%TO.C,J13*%
X82490000Y-108010000D02*
X85150000Y-108010000D01*
X82490000Y-107950000D02*
X82490000Y-108010000D01*
X85150000Y-107950000D02*
X85150000Y-108010000D01*
X82490000Y-107950000D02*
X85150000Y-107950000D01*
X82490000Y-106680000D02*
X82490000Y-105350000D01*
X82490000Y-105350000D02*
X83820000Y-105350000D01*
%TO.C,J12*%
X179130000Y-87690000D02*
X179130000Y-85030000D01*
X176530000Y-87690000D02*
X179130000Y-87690000D01*
X176530000Y-85030000D02*
X179130000Y-85030000D01*
X176530000Y-87690000D02*
X176530000Y-85030000D01*
X175260000Y-87690000D02*
X173930000Y-87690000D01*
X173930000Y-87690000D02*
X173930000Y-86360000D01*
%TO.C,J10*%
X94040000Y-108010000D02*
X94040000Y-105350000D01*
X91440000Y-108010000D02*
X94040000Y-108010000D01*
X91440000Y-105350000D02*
X94040000Y-105350000D01*
X91440000Y-108010000D02*
X91440000Y-105350000D01*
X90170000Y-108010000D02*
X88840000Y-108010000D01*
X88840000Y-108010000D02*
X88840000Y-106680000D01*
%TO.C,J8*%
X149860000Y-101660000D02*
X149860000Y-99000000D01*
X149860000Y-101660000D02*
X155000000Y-101660000D01*
X155000000Y-101660000D02*
X155000000Y-99000000D01*
X149860000Y-99000000D02*
X155000000Y-99000000D01*
X147260000Y-99000000D02*
X148590000Y-99000000D01*
X147260000Y-100330000D02*
X147260000Y-99000000D01*
%TO.C,U3*%
X120480000Y-85260000D02*
X120480000Y-95080000D01*
X120480000Y-95080000D02*
X118280000Y-95080000D01*
X118280000Y-95080000D02*
X118280000Y-85260000D01*
X118280000Y-85260000D02*
X120480000Y-85260000D01*
X120480000Y-87630000D02*
X118280000Y-87630000D01*
X117980000Y-90170000D02*
X117980000Y-96170000D01*
X117980000Y-96170000D02*
X155980000Y-96170000D01*
X155980000Y-96170000D02*
X155980000Y-84170000D01*
X155980000Y-84170000D02*
X117980000Y-84170000D01*
X117980000Y-90170000D02*
X117980000Y-84170000D01*
%TD*%
%TO.C,JP1*%
D12*
X163466666Y-115052380D02*
X163466666Y-115766666D01*
X163419047Y-115909523D01*
X163323809Y-116004761D01*
X163180952Y-116052380D01*
X163085714Y-116052380D01*
X163942857Y-116052380D02*
X163942857Y-115052380D01*
X164323809Y-115052380D01*
X164419047Y-115100000D01*
X164466666Y-115147619D01*
X164514285Y-115242857D01*
X164514285Y-115385714D01*
X164466666Y-115480952D01*
X164419047Y-115528571D01*
X164323809Y-115576190D01*
X163942857Y-115576190D01*
X165466666Y-116052380D02*
X164895238Y-116052380D01*
X165180952Y-116052380D02*
X165180952Y-115052380D01*
X165085714Y-115195238D01*
X164990476Y-115290476D01*
X164895238Y-115338095D01*
%TO.C,D1*%
X154122380Y-109958095D02*
X153122380Y-109958095D01*
X153122380Y-109720000D01*
X153170000Y-109577142D01*
X153265238Y-109481904D01*
X153360476Y-109434285D01*
X153550952Y-109386666D01*
X153693809Y-109386666D01*
X153884285Y-109434285D01*
X153979523Y-109481904D01*
X154074761Y-109577142D01*
X154122380Y-109720000D01*
X154122380Y-109958095D01*
X154122380Y-108434285D02*
X154122380Y-109005714D01*
X154122380Y-108720000D02*
X153122380Y-108720000D01*
X153265238Y-108815238D01*
X153360476Y-108910476D01*
X153408095Y-109005714D01*
X157852380Y-106161904D02*
X156852380Y-106161904D01*
X157852380Y-105590476D02*
X157280952Y-106019047D01*
X156852380Y-105590476D02*
X157423809Y-106161904D01*
%TO.C,H4*%
X135438095Y-92552380D02*
X135438095Y-91552380D01*
X135438095Y-92028571D02*
X136009523Y-92028571D01*
X136009523Y-92552380D02*
X136009523Y-91552380D01*
X136914285Y-91885714D02*
X136914285Y-92552380D01*
X136676190Y-91504761D02*
X136438095Y-92219047D01*
X137057142Y-92219047D01*
%TO.C,U4*%
X80663553Y-96858950D02*
X80091133Y-97431370D01*
X80057461Y-97532385D01*
X80057461Y-97599729D01*
X80091133Y-97700744D01*
X80225820Y-97835431D01*
X80326835Y-97869103D01*
X80394179Y-97869103D01*
X80495194Y-97835431D01*
X81067614Y-97263011D01*
X81471675Y-98138477D02*
X81000270Y-98609881D01*
X81572690Y-97700744D02*
X80899255Y-98037462D01*
X81336988Y-98475194D01*
X90976901Y-98818766D02*
X90234439Y-98618419D01*
X90411216Y-99384452D02*
X89545010Y-98270758D01*
X89922134Y-97893635D01*
X90057663Y-97852387D01*
X90146051Y-97858279D01*
X90275687Y-97917205D01*
X90399431Y-98076304D01*
X90434786Y-98229510D01*
X90428894Y-98329684D01*
X90375861Y-98476998D01*
X89998737Y-98854121D01*
X91884355Y-97722751D02*
X91878463Y-97822924D01*
X91778289Y-98017378D01*
X91684008Y-98111659D01*
X91501339Y-98200048D01*
X91324562Y-98188263D01*
X91194926Y-98129337D01*
X90982794Y-97964345D01*
X90859050Y-97805246D01*
X90741199Y-97545974D01*
X90705844Y-97392767D01*
X90717629Y-97192420D01*
X90817802Y-96997966D01*
X90912083Y-96903685D01*
X91094753Y-96815297D01*
X91183141Y-96821189D01*
X91430628Y-96385140D02*
X92532536Y-97263131D01*
X92102380Y-96279074D01*
X92909660Y-96886008D01*
X92279156Y-95536612D01*
X93993890Y-95801777D02*
X93522486Y-96273182D01*
X92656280Y-95159488D01*
X93993890Y-95047530D02*
X94748138Y-94293283D01*
X94871881Y-92943887D02*
X94966162Y-92849606D01*
X95101691Y-92808358D01*
X95190079Y-92814251D01*
X95319716Y-92873177D01*
X95531848Y-93038168D01*
X95738087Y-93303333D01*
X95855938Y-93562606D01*
X95891294Y-93715812D01*
X95885401Y-93815986D01*
X95832368Y-93963300D01*
X95738087Y-94057580D01*
X95602558Y-94098828D01*
X95514170Y-94092936D01*
X95384534Y-94034010D01*
X95172402Y-93869019D01*
X94966162Y-93603854D01*
X94848311Y-93344581D01*
X94812956Y-93191375D01*
X94818848Y-93091201D01*
X94871881Y-92943887D01*
X96097533Y-91718235D02*
X95626129Y-92189640D01*
X95991467Y-92767111D01*
X95997360Y-92666937D01*
X96050393Y-92519623D01*
X96286095Y-92283921D01*
X96421624Y-92242673D01*
X96510012Y-92248566D01*
X96639648Y-92307491D01*
X96845888Y-92572656D01*
X96881243Y-92725863D01*
X96875351Y-92826036D01*
X96822318Y-92973350D01*
X96586615Y-93209052D01*
X96451086Y-93250300D01*
X96362698Y-93244408D01*
X97953688Y-91841979D02*
X97388003Y-92407665D01*
X97670846Y-92124822D02*
X96804640Y-91011129D01*
X96834103Y-91264509D01*
X96822318Y-91464856D01*
X96769285Y-91612169D01*
X97936011Y-89879758D02*
X97747449Y-90068320D01*
X97694416Y-90215634D01*
X97688523Y-90315807D01*
X97717986Y-90569187D01*
X97835837Y-90828459D01*
X98165820Y-91252724D01*
X98295457Y-91311649D01*
X98383845Y-91317542D01*
X98519374Y-91276294D01*
X98707936Y-91087732D01*
X98760969Y-90940418D01*
X98766861Y-90840245D01*
X98731506Y-90687038D01*
X98525266Y-90421873D01*
X98395630Y-90362947D01*
X98307242Y-90357055D01*
X98171713Y-90398303D01*
X97983151Y-90586865D01*
X97930118Y-90734179D01*
X97924226Y-90834352D01*
X97959581Y-90987558D01*
X99951265Y-88807313D02*
X100133934Y-88718924D01*
X100222323Y-88724817D01*
X100351959Y-88783742D01*
X100475703Y-88942841D01*
X100511058Y-89096048D01*
X100505165Y-89196221D01*
X100452132Y-89343535D01*
X100075009Y-89720659D01*
X99208803Y-88606966D01*
X99538786Y-88276982D01*
X99674315Y-88235735D01*
X99762703Y-88241627D01*
X99892339Y-88300553D01*
X99974835Y-88406619D01*
X100010191Y-88559825D01*
X100004298Y-88659999D01*
X99951265Y-88807313D01*
X99621282Y-89137296D01*
X101206380Y-88589288D02*
X101070851Y-88630536D01*
X100982462Y-88624643D01*
X100852826Y-88565718D01*
X100605339Y-88247520D01*
X100569983Y-88094313D01*
X100575876Y-87994140D01*
X100628909Y-87846826D01*
X100770330Y-87705405D01*
X100905859Y-87664157D01*
X100994248Y-87670049D01*
X101123884Y-87728975D01*
X101371371Y-88047173D01*
X101406727Y-88200379D01*
X101400834Y-88300553D01*
X101347801Y-88447867D01*
X101206380Y-88589288D01*
X102384891Y-87410777D02*
X101931164Y-86827414D01*
X101801528Y-86768488D01*
X101665999Y-86809736D01*
X101477437Y-86998298D01*
X101424404Y-87145612D01*
X102343643Y-87357744D02*
X102290610Y-87505058D01*
X102054908Y-87740760D01*
X101919379Y-87782008D01*
X101789743Y-87723082D01*
X101707247Y-87617016D01*
X101671892Y-87463810D01*
X101724925Y-87316496D01*
X101960627Y-87080794D01*
X102013660Y-86933480D01*
X102856295Y-86939372D02*
X102278825Y-86196910D01*
X102443816Y-86409042D02*
X102408461Y-86255836D01*
X102414354Y-86155662D01*
X102467387Y-86008348D01*
X102561668Y-85914067D01*
X103893385Y-85902282D02*
X103027180Y-84788589D01*
X103852137Y-85849249D02*
X103799104Y-85996563D01*
X103610543Y-86185125D01*
X103475014Y-86226373D01*
X103386626Y-86220480D01*
X103256989Y-86161555D01*
X103009502Y-85843357D01*
X102974147Y-85690150D01*
X102980039Y-85589977D01*
X103033072Y-85442663D01*
X103221634Y-85254101D01*
X103357163Y-85212853D01*
%TO.C,U2*%
X167332380Y-111304523D02*
X167332380Y-112332619D01*
X167392857Y-112453571D01*
X167453333Y-112514047D01*
X167574285Y-112574523D01*
X167816190Y-112574523D01*
X167937142Y-112514047D01*
X167997619Y-112453571D01*
X168058095Y-112332619D01*
X168058095Y-111304523D01*
X168602380Y-111425476D02*
X168662857Y-111365000D01*
X168783809Y-111304523D01*
X169086190Y-111304523D01*
X169207142Y-111365000D01*
X169267619Y-111425476D01*
X169328095Y-111546428D01*
X169328095Y-111667380D01*
X169267619Y-111848809D01*
X168541904Y-112574523D01*
X169328095Y-112574523D01*
X173390476Y-113704761D02*
X173390476Y-111704761D01*
X174057142Y-113133333D01*
X174723809Y-111704761D01*
X174723809Y-113704761D01*
X175676190Y-113704761D02*
X175676190Y-111704761D01*
X175676190Y-112657142D02*
X176819047Y-112657142D01*
X176819047Y-113704761D02*
X176819047Y-111704761D01*
X177771428Y-112942857D02*
X179295238Y-112942857D01*
X180057142Y-111704761D02*
X181390476Y-111704761D01*
X180057142Y-113704761D01*
X181390476Y-113704761D01*
X183200000Y-113704761D02*
X182057142Y-113704761D01*
X182628571Y-113704761D02*
X182628571Y-111704761D01*
X182438095Y-111990476D01*
X182247619Y-112180952D01*
X182057142Y-112276190D01*
X184152380Y-113704761D02*
X184533333Y-113704761D01*
X184723809Y-113609523D01*
X184819047Y-113514285D01*
X185009523Y-113228571D01*
X185104761Y-112847619D01*
X185104761Y-112085714D01*
X185009523Y-111895238D01*
X184914285Y-111800000D01*
X184723809Y-111704761D01*
X184342857Y-111704761D01*
X184152380Y-111800000D01*
X184057142Y-111895238D01*
X183961904Y-112085714D01*
X183961904Y-112561904D01*
X184057142Y-112752380D01*
X184152380Y-112847619D01*
X184342857Y-112942857D01*
X184723809Y-112942857D01*
X184914285Y-112847619D01*
X185009523Y-112752380D01*
X185104761Y-112561904D01*
X186628571Y-112657142D02*
X186914285Y-112752380D01*
X187009523Y-112847619D01*
X187104761Y-113038095D01*
X187104761Y-113323809D01*
X187009523Y-113514285D01*
X186914285Y-113609523D01*
X186723809Y-113704761D01*
X185961904Y-113704761D01*
X185961904Y-111704761D01*
X186628571Y-111704761D01*
X186819047Y-111800000D01*
X186914285Y-111895238D01*
X187009523Y-112085714D01*
X187009523Y-112276190D01*
X186914285Y-112466666D01*
X186819047Y-112561904D01*
X186628571Y-112657142D01*
X185961904Y-112657142D01*
%TO.C,U1*%
X109728095Y-98512380D02*
X109728095Y-99321904D01*
X109775714Y-99417142D01*
X109823333Y-99464761D01*
X109918571Y-99512380D01*
X110109047Y-99512380D01*
X110204285Y-99464761D01*
X110251904Y-99417142D01*
X110299523Y-99321904D01*
X110299523Y-98512380D01*
X111299523Y-99512380D02*
X110728095Y-99512380D01*
X111013809Y-99512380D02*
X111013809Y-98512380D01*
X110918571Y-98655238D01*
X110823333Y-98750476D01*
X110728095Y-98798095D01*
X99584122Y-101774761D02*
X99810312Y-103774761D01*
X100369836Y-102346190D01*
X100572217Y-103774761D01*
X101298407Y-101774761D01*
X102584122Y-103679523D02*
X102381741Y-103774761D01*
X102000788Y-103774761D01*
X101822217Y-103679523D01*
X101750788Y-103489047D01*
X101846026Y-102727142D01*
X101965074Y-102536666D01*
X102167455Y-102441428D01*
X102548407Y-102441428D01*
X102726979Y-102536666D01*
X102798407Y-102727142D01*
X102774598Y-102917619D01*
X101798407Y-103108095D01*
X103524598Y-103774761D02*
X103774598Y-101774761D01*
X104262693Y-103203333D01*
X105107931Y-101774761D01*
X104857931Y-103774761D01*
X106096026Y-103774761D02*
X105917455Y-103679523D01*
X105834122Y-103584285D01*
X105762693Y-103393809D01*
X105834122Y-102822380D01*
X105953169Y-102631904D01*
X106060312Y-102536666D01*
X106262693Y-102441428D01*
X106548407Y-102441428D01*
X106726979Y-102536666D01*
X106810312Y-102631904D01*
X106881741Y-102822380D01*
X106810312Y-103393809D01*
X106691264Y-103584285D01*
X106584122Y-103679523D01*
X106381741Y-103774761D01*
X106096026Y-103774761D01*
X107536502Y-103679523D02*
X107715074Y-103774761D01*
X108096026Y-103774761D01*
X108298407Y-103679523D01*
X108417455Y-103489047D01*
X108429360Y-103393809D01*
X108357931Y-103203333D01*
X108179360Y-103108095D01*
X107893645Y-103108095D01*
X107715074Y-103012857D01*
X107643645Y-102822380D01*
X107655550Y-102727142D01*
X107774598Y-102536666D01*
X107976979Y-102441428D01*
X108262693Y-102441428D01*
X108441264Y-102536666D01*
X108738883Y-103965238D02*
X110262693Y-103965238D01*
X110762693Y-103774761D02*
X111012693Y-101774761D01*
X111488883Y-101774761D01*
X111762693Y-101870000D01*
X111929360Y-102060476D01*
X112000788Y-102250952D01*
X112048407Y-102631904D01*
X112012693Y-102917619D01*
X111869836Y-103298571D01*
X111750788Y-103489047D01*
X111536502Y-103679523D01*
X111238883Y-103774761D01*
X110762693Y-103774761D01*
X113810312Y-103774761D02*
X112667455Y-103774761D01*
X113238883Y-103774761D02*
X113488883Y-101774761D01*
X113262693Y-102060476D01*
X113048407Y-102250952D01*
X112846026Y-102346190D01*
X114167455Y-103965238D02*
X115691264Y-103965238D01*
X116191264Y-103774761D02*
X116357931Y-102441428D01*
X116334122Y-102631904D02*
X116441264Y-102536666D01*
X116643645Y-102441428D01*
X116929360Y-102441428D01*
X117107931Y-102536666D01*
X117179360Y-102727142D01*
X117048407Y-103774761D01*
X117179360Y-102727142D02*
X117298407Y-102536666D01*
X117500788Y-102441428D01*
X117786502Y-102441428D01*
X117965074Y-102536666D01*
X118036502Y-102727142D01*
X117905550Y-103774761D01*
X118857931Y-103774761D02*
X119024598Y-102441428D01*
X119107931Y-101774761D02*
X119000788Y-101870000D01*
X119084122Y-101965238D01*
X119191264Y-101870000D01*
X119107931Y-101774761D01*
X119084122Y-101965238D01*
X119976979Y-102441428D02*
X119810312Y-103774761D01*
X119953169Y-102631904D02*
X120060312Y-102536666D01*
X120262693Y-102441428D01*
X120548407Y-102441428D01*
X120726979Y-102536666D01*
X120798407Y-102727142D01*
X120667455Y-103774761D01*
X121619836Y-103774761D02*
X121786502Y-102441428D01*
X121869836Y-101774761D02*
X121762693Y-101870000D01*
X121846026Y-101965238D01*
X121953169Y-101870000D01*
X121869836Y-101774761D01*
X121846026Y-101965238D01*
%TO.C,H3*%
X189638095Y-118752380D02*
X189638095Y-117752380D01*
X189638095Y-118228571D02*
X190209523Y-118228571D01*
X190209523Y-118752380D02*
X190209523Y-117752380D01*
X190590476Y-117752380D02*
X191209523Y-117752380D01*
X190876190Y-118133333D01*
X191019047Y-118133333D01*
X191114285Y-118180952D01*
X191161904Y-118228571D01*
X191209523Y-118323809D01*
X191209523Y-118561904D01*
X191161904Y-118657142D01*
X191114285Y-118704761D01*
X191019047Y-118752380D01*
X190733333Y-118752380D01*
X190638095Y-118704761D01*
X190590476Y-118657142D01*
%TO.C,J15*%
X165822380Y-87169523D02*
X166536666Y-87169523D01*
X166679523Y-87217142D01*
X166774761Y-87312380D01*
X166822380Y-87455238D01*
X166822380Y-87550476D01*
X166822380Y-86169523D02*
X166822380Y-86740952D01*
X166822380Y-86455238D02*
X165822380Y-86455238D01*
X165965238Y-86550476D01*
X166060476Y-86645714D01*
X166108095Y-86740952D01*
X165822380Y-85264761D02*
X165822380Y-85740952D01*
X166298571Y-85788571D01*
X166250952Y-85740952D01*
X166203333Y-85645714D01*
X166203333Y-85407619D01*
X166250952Y-85312380D01*
X166298571Y-85264761D01*
X166393809Y-85217142D01*
X166631904Y-85217142D01*
X166727142Y-85264761D01*
X166774761Y-85312380D01*
X166822380Y-85407619D01*
X166822380Y-85645714D01*
X166774761Y-85740952D01*
X166727142Y-85788571D01*
X168410000Y-90931904D02*
X168362380Y-91027142D01*
X168362380Y-91170000D01*
X168410000Y-91312857D01*
X168505238Y-91408095D01*
X168600476Y-91455714D01*
X168790952Y-91503333D01*
X168933809Y-91503333D01*
X169124285Y-91455714D01*
X169219523Y-91408095D01*
X169314761Y-91312857D01*
X169362380Y-91170000D01*
X169362380Y-91074761D01*
X169314761Y-90931904D01*
X169267142Y-90884285D01*
X168933809Y-90884285D01*
X168933809Y-91074761D01*
X169362380Y-90455714D02*
X168362380Y-90455714D01*
X169362380Y-89884285D01*
X168362380Y-89884285D01*
X169362380Y-89408095D02*
X168362380Y-89408095D01*
X168362380Y-89170000D01*
X168410000Y-89027142D01*
X168505238Y-88931904D01*
X168600476Y-88884285D01*
X168790952Y-88836666D01*
X168933809Y-88836666D01*
X169124285Y-88884285D01*
X169219523Y-88931904D01*
X169314761Y-89027142D01*
X169362380Y-89170000D01*
X169362380Y-89408095D01*
%TO.C,J14*%
X85550476Y-118622380D02*
X85550476Y-119336666D01*
X85502857Y-119479523D01*
X85407619Y-119574761D01*
X85264761Y-119622380D01*
X85169523Y-119622380D01*
X86550476Y-119622380D02*
X85979047Y-119622380D01*
X86264761Y-119622380D02*
X86264761Y-118622380D01*
X86169523Y-118765238D01*
X86074285Y-118860476D01*
X85979047Y-118908095D01*
X87407619Y-118955714D02*
X87407619Y-119622380D01*
X87169523Y-118574761D02*
X86931428Y-119289047D01*
X87550476Y-119289047D01*
X81264285Y-116911428D02*
X82026190Y-116911428D01*
X81645238Y-117292380D02*
X81645238Y-116530476D01*
X82978571Y-116292380D02*
X82502380Y-116292380D01*
X82454761Y-116768571D01*
X82502380Y-116720952D01*
X82597619Y-116673333D01*
X82835714Y-116673333D01*
X82930952Y-116720952D01*
X82978571Y-116768571D01*
X83026190Y-116863809D01*
X83026190Y-117101904D01*
X82978571Y-117197142D01*
X82930952Y-117244761D01*
X82835714Y-117292380D01*
X82597619Y-117292380D01*
X82502380Y-117244761D01*
X82454761Y-117197142D01*
X83311904Y-116292380D02*
X83645238Y-117292380D01*
X83978571Y-116292380D01*
X80550000Y-114371428D02*
X81311904Y-114371428D01*
X80930952Y-114752380D02*
X80930952Y-113990476D01*
X81692857Y-113752380D02*
X82311904Y-113752380D01*
X81978571Y-114133333D01*
X82121428Y-114133333D01*
X82216666Y-114180952D01*
X82264285Y-114228571D01*
X82311904Y-114323809D01*
X82311904Y-114561904D01*
X82264285Y-114657142D01*
X82216666Y-114704761D01*
X82121428Y-114752380D01*
X81835714Y-114752380D01*
X81740476Y-114704761D01*
X81692857Y-114657142D01*
X82740476Y-114657142D02*
X82788095Y-114704761D01*
X82740476Y-114752380D01*
X82692857Y-114704761D01*
X82740476Y-114657142D01*
X82740476Y-114752380D01*
X83121428Y-113752380D02*
X83740476Y-113752380D01*
X83407142Y-114133333D01*
X83550000Y-114133333D01*
X83645238Y-114180952D01*
X83692857Y-114228571D01*
X83740476Y-114323809D01*
X83740476Y-114561904D01*
X83692857Y-114657142D01*
X83645238Y-114704761D01*
X83550000Y-114752380D01*
X83264285Y-114752380D01*
X83169047Y-114704761D01*
X83121428Y-114657142D01*
X84026190Y-113752380D02*
X84359523Y-114752380D01*
X84692857Y-113752380D01*
X81788095Y-111260000D02*
X81692857Y-111212380D01*
X81550000Y-111212380D01*
X81407142Y-111260000D01*
X81311904Y-111355238D01*
X81264285Y-111450476D01*
X81216666Y-111640952D01*
X81216666Y-111783809D01*
X81264285Y-111974285D01*
X81311904Y-112069523D01*
X81407142Y-112164761D01*
X81550000Y-112212380D01*
X81645238Y-112212380D01*
X81788095Y-112164761D01*
X81835714Y-112117142D01*
X81835714Y-111783809D01*
X81645238Y-111783809D01*
X82264285Y-112212380D02*
X82264285Y-111212380D01*
X82835714Y-112212380D01*
X82835714Y-111212380D01*
X83311904Y-112212380D02*
X83311904Y-111212380D01*
X83550000Y-111212380D01*
X83692857Y-111260000D01*
X83788095Y-111355238D01*
X83835714Y-111450476D01*
X83883333Y-111640952D01*
X83883333Y-111783809D01*
X83835714Y-111974285D01*
X83788095Y-112069523D01*
X83692857Y-112164761D01*
X83550000Y-112212380D01*
X83311904Y-112212380D01*
%TO.C,J13*%
X83010476Y-103802380D02*
X83010476Y-104516666D01*
X82962857Y-104659523D01*
X82867619Y-104754761D01*
X82724761Y-104802380D01*
X82629523Y-104802380D01*
X84010476Y-104802380D02*
X83439047Y-104802380D01*
X83724761Y-104802380D02*
X83724761Y-103802380D01*
X83629523Y-103945238D01*
X83534285Y-104040476D01*
X83439047Y-104088095D01*
X84343809Y-103802380D02*
X84962857Y-103802380D01*
X84629523Y-104183333D01*
X84772380Y-104183333D01*
X84867619Y-104230952D01*
X84915238Y-104278571D01*
X84962857Y-104373809D01*
X84962857Y-104611904D01*
X84915238Y-104707142D01*
X84867619Y-104754761D01*
X84772380Y-104802380D01*
X84486666Y-104802380D01*
X84391428Y-104754761D01*
X84343809Y-104707142D01*
X81732380Y-108148095D02*
X81256190Y-108481428D01*
X81732380Y-108719523D02*
X80732380Y-108719523D01*
X80732380Y-108338571D01*
X80780000Y-108243333D01*
X80827619Y-108195714D01*
X80922857Y-108148095D01*
X81065714Y-108148095D01*
X81160952Y-108195714D01*
X81208571Y-108243333D01*
X81256190Y-108338571D01*
X81256190Y-108719523D01*
X81637142Y-107148095D02*
X81684761Y-107195714D01*
X81732380Y-107338571D01*
X81732380Y-107433809D01*
X81684761Y-107576666D01*
X81589523Y-107671904D01*
X81494285Y-107719523D01*
X81303809Y-107767142D01*
X81160952Y-107767142D01*
X80970476Y-107719523D01*
X80875238Y-107671904D01*
X80780000Y-107576666D01*
X80732380Y-107433809D01*
X80732380Y-107338571D01*
X80780000Y-107195714D01*
X80827619Y-107148095D01*
X80732380Y-106814761D02*
X81732380Y-106576666D01*
X81018095Y-106386190D01*
X81732380Y-106195714D01*
X80732380Y-105957619D01*
X81732380Y-105100476D02*
X81732380Y-105576666D01*
X80732380Y-105576666D01*
X81827619Y-105005238D02*
X81827619Y-104243333D01*
X81732380Y-103862380D02*
X81684761Y-103957619D01*
X81637142Y-104005238D01*
X81541904Y-104052857D01*
X81256190Y-104052857D01*
X81160952Y-104005238D01*
X81113333Y-103957619D01*
X81065714Y-103862380D01*
X81065714Y-103719523D01*
X81113333Y-103624285D01*
X81160952Y-103576666D01*
X81256190Y-103529047D01*
X81541904Y-103529047D01*
X81637142Y-103576666D01*
X81684761Y-103624285D01*
X81732380Y-103719523D01*
X81732380Y-103862380D01*
X81065714Y-102671904D02*
X81732380Y-102671904D01*
X81065714Y-103100476D02*
X81589523Y-103100476D01*
X81684761Y-103052857D01*
X81732380Y-102957619D01*
X81732380Y-102814761D01*
X81684761Y-102719523D01*
X81637142Y-102671904D01*
X81065714Y-102338571D02*
X81065714Y-101957619D01*
X80732380Y-102195714D02*
X81589523Y-102195714D01*
X81684761Y-102148095D01*
X81732380Y-102052857D01*
X81732380Y-101957619D01*
%TO.C,J12*%
X172382380Y-87169523D02*
X173096666Y-87169523D01*
X173239523Y-87217142D01*
X173334761Y-87312380D01*
X173382380Y-87455238D01*
X173382380Y-87550476D01*
X173382380Y-86169523D02*
X173382380Y-86740952D01*
X173382380Y-86455238D02*
X172382380Y-86455238D01*
X172525238Y-86550476D01*
X172620476Y-86645714D01*
X172668095Y-86740952D01*
X172477619Y-85788571D02*
X172430000Y-85740952D01*
X172382380Y-85645714D01*
X172382380Y-85407619D01*
X172430000Y-85312380D01*
X172477619Y-85264761D01*
X172572857Y-85217142D01*
X172668095Y-85217142D01*
X172810952Y-85264761D01*
X173382380Y-85836190D01*
X173382380Y-85217142D01*
X175712380Y-94440000D02*
X174712380Y-94440000D01*
X174807619Y-94011428D02*
X174760000Y-93963809D01*
X174712380Y-93868571D01*
X174712380Y-93630476D01*
X174760000Y-93535238D01*
X174807619Y-93487619D01*
X174902857Y-93440000D01*
X174998095Y-93440000D01*
X175140952Y-93487619D01*
X175712380Y-94059047D01*
X175712380Y-93440000D01*
X175617142Y-92440000D02*
X175664761Y-92487619D01*
X175712380Y-92630476D01*
X175712380Y-92725714D01*
X175664761Y-92868571D01*
X175569523Y-92963809D01*
X175474285Y-93011428D01*
X175283809Y-93059047D01*
X175140952Y-93059047D01*
X174950476Y-93011428D01*
X174855238Y-92963809D01*
X174760000Y-92868571D01*
X174712380Y-92725714D01*
X174712380Y-92630476D01*
X174760000Y-92487619D01*
X174807619Y-92440000D01*
X175331428Y-92011428D02*
X175331428Y-91249523D01*
X175664761Y-90820952D02*
X175712380Y-90678095D01*
X175712380Y-90440000D01*
X175664761Y-90344761D01*
X175617142Y-90297142D01*
X175521904Y-90249523D01*
X175426666Y-90249523D01*
X175331428Y-90297142D01*
X175283809Y-90344761D01*
X175236190Y-90440000D01*
X175188571Y-90630476D01*
X175140952Y-90725714D01*
X175093333Y-90773333D01*
X174998095Y-90820952D01*
X174902857Y-90820952D01*
X174807619Y-90773333D01*
X174760000Y-90725714D01*
X174712380Y-90630476D01*
X174712380Y-90392380D01*
X174760000Y-90249523D01*
X175712380Y-89820952D02*
X174712380Y-89820952D01*
X174712380Y-89582857D01*
X174760000Y-89440000D01*
X174855238Y-89344761D01*
X174950476Y-89297142D01*
X175140952Y-89249523D01*
X175283809Y-89249523D01*
X175474285Y-89297142D01*
X175569523Y-89344761D01*
X175664761Y-89440000D01*
X175712380Y-89582857D01*
X175712380Y-89820952D01*
X175426666Y-88868571D02*
X175426666Y-88392380D01*
X175712380Y-88963809D02*
X174712380Y-88630476D01*
X175712380Y-88297142D01*
X179522380Y-94416190D02*
X178522380Y-94416190D01*
X178617619Y-93987619D02*
X178570000Y-93940000D01*
X178522380Y-93844761D01*
X178522380Y-93606666D01*
X178570000Y-93511428D01*
X178617619Y-93463809D01*
X178712857Y-93416190D01*
X178808095Y-93416190D01*
X178950952Y-93463809D01*
X179522380Y-94035238D01*
X179522380Y-93416190D01*
X179427142Y-92416190D02*
X179474761Y-92463809D01*
X179522380Y-92606666D01*
X179522380Y-92701904D01*
X179474761Y-92844761D01*
X179379523Y-92940000D01*
X179284285Y-92987619D01*
X179093809Y-93035238D01*
X178950952Y-93035238D01*
X178760476Y-92987619D01*
X178665238Y-92940000D01*
X178570000Y-92844761D01*
X178522380Y-92701904D01*
X178522380Y-92606666D01*
X178570000Y-92463809D01*
X178617619Y-92416190D01*
X179141428Y-91987619D02*
X179141428Y-91225714D01*
X179474761Y-90797142D02*
X179522380Y-90654285D01*
X179522380Y-90416190D01*
X179474761Y-90320952D01*
X179427142Y-90273333D01*
X179331904Y-90225714D01*
X179236666Y-90225714D01*
X179141428Y-90273333D01*
X179093809Y-90320952D01*
X179046190Y-90416190D01*
X178998571Y-90606666D01*
X178950952Y-90701904D01*
X178903333Y-90749523D01*
X178808095Y-90797142D01*
X178712857Y-90797142D01*
X178617619Y-90749523D01*
X178570000Y-90701904D01*
X178522380Y-90606666D01*
X178522380Y-90368571D01*
X178570000Y-90225714D01*
X179427142Y-89225714D02*
X179474761Y-89273333D01*
X179522380Y-89416190D01*
X179522380Y-89511428D01*
X179474761Y-89654285D01*
X179379523Y-89749523D01*
X179284285Y-89797142D01*
X179093809Y-89844761D01*
X178950952Y-89844761D01*
X178760476Y-89797142D01*
X178665238Y-89749523D01*
X178570000Y-89654285D01*
X178522380Y-89511428D01*
X178522380Y-89416190D01*
X178570000Y-89273333D01*
X178617619Y-89225714D01*
X179522380Y-88320952D02*
X179522380Y-88797142D01*
X178522380Y-88797142D01*
%TO.C,J10*%
X90630476Y-103592380D02*
X90630476Y-104306666D01*
X90582857Y-104449523D01*
X90487619Y-104544761D01*
X90344761Y-104592380D01*
X90249523Y-104592380D01*
X91630476Y-104592380D02*
X91059047Y-104592380D01*
X91344761Y-104592380D02*
X91344761Y-103592380D01*
X91249523Y-103735238D01*
X91154285Y-103830476D01*
X91059047Y-103878095D01*
X92249523Y-103592380D02*
X92344761Y-103592380D01*
X92440000Y-103640000D01*
X92487619Y-103687619D01*
X92535238Y-103782857D01*
X92582857Y-103973333D01*
X92582857Y-104211428D01*
X92535238Y-104401904D01*
X92487619Y-104497142D01*
X92440000Y-104544761D01*
X92344761Y-104592380D01*
X92249523Y-104592380D01*
X92154285Y-104544761D01*
X92106666Y-104497142D01*
X92059047Y-104401904D01*
X92011428Y-104211428D01*
X92011428Y-103973333D01*
X92059047Y-103782857D01*
X92106666Y-103687619D01*
X92154285Y-103640000D01*
X92249523Y-103592380D01*
X90622380Y-116672857D02*
X89622380Y-116672857D01*
X89622380Y-116434761D01*
X89670000Y-116291904D01*
X89765238Y-116196666D01*
X89860476Y-116149047D01*
X90050952Y-116101428D01*
X90193809Y-116101428D01*
X90384285Y-116149047D01*
X90479523Y-116196666D01*
X90574761Y-116291904D01*
X90622380Y-116434761D01*
X90622380Y-116672857D01*
X90622380Y-115149047D02*
X90622380Y-115720476D01*
X90622380Y-115434761D02*
X89622380Y-115434761D01*
X89765238Y-115530000D01*
X89860476Y-115625238D01*
X89908095Y-115720476D01*
X90622380Y-114720476D02*
X89622380Y-114720476D01*
X90336666Y-114387142D01*
X89622380Y-114053809D01*
X90622380Y-114053809D01*
X90622380Y-113577619D02*
X89955714Y-113577619D01*
X89622380Y-113577619D02*
X89670000Y-113625238D01*
X89717619Y-113577619D01*
X89670000Y-113530000D01*
X89622380Y-113577619D01*
X89717619Y-113577619D01*
X89955714Y-113101428D02*
X90622380Y-113101428D01*
X90050952Y-113101428D02*
X90003333Y-113053809D01*
X89955714Y-112958571D01*
X89955714Y-112815714D01*
X90003333Y-112720476D01*
X90098571Y-112672857D01*
X90622380Y-112672857D01*
X90622380Y-112196666D02*
X89955714Y-112196666D01*
X89622380Y-112196666D02*
X89670000Y-112244285D01*
X89717619Y-112196666D01*
X89670000Y-112149047D01*
X89622380Y-112196666D01*
X89717619Y-112196666D01*
X90241428Y-111720476D02*
X90241428Y-110958571D01*
X89622380Y-110625238D02*
X89622380Y-110053809D01*
X90622380Y-110339523D02*
X89622380Y-110339523D01*
X90622380Y-109815714D02*
X89955714Y-109291904D01*
X89955714Y-109815714D02*
X90622380Y-109291904D01*
X93162380Y-116791904D02*
X92162380Y-116791904D01*
X92162380Y-116553809D01*
X92210000Y-116410952D01*
X92305238Y-116315714D01*
X92400476Y-116268095D01*
X92590952Y-116220476D01*
X92733809Y-116220476D01*
X92924285Y-116268095D01*
X93019523Y-116315714D01*
X93114761Y-116410952D01*
X93162380Y-116553809D01*
X93162380Y-116791904D01*
X93162380Y-115268095D02*
X93162380Y-115839523D01*
X93162380Y-115553809D02*
X92162380Y-115553809D01*
X92305238Y-115649047D01*
X92400476Y-115744285D01*
X92448095Y-115839523D01*
X93162380Y-114839523D02*
X92162380Y-114839523D01*
X92876666Y-114506190D01*
X92162380Y-114172857D01*
X93162380Y-114172857D01*
X93162380Y-113696666D02*
X92495714Y-113696666D01*
X92162380Y-113696666D02*
X92210000Y-113744285D01*
X92257619Y-113696666D01*
X92210000Y-113649047D01*
X92162380Y-113696666D01*
X92257619Y-113696666D01*
X92495714Y-113220476D02*
X93162380Y-113220476D01*
X92590952Y-113220476D02*
X92543333Y-113172857D01*
X92495714Y-113077619D01*
X92495714Y-112934761D01*
X92543333Y-112839523D01*
X92638571Y-112791904D01*
X93162380Y-112791904D01*
X93162380Y-112315714D02*
X92495714Y-112315714D01*
X92162380Y-112315714D02*
X92210000Y-112363333D01*
X92257619Y-112315714D01*
X92210000Y-112268095D01*
X92162380Y-112315714D01*
X92257619Y-112315714D01*
X92781428Y-111839523D02*
X92781428Y-111077619D01*
X93162380Y-110030000D02*
X92686190Y-110363333D01*
X93162380Y-110601428D02*
X92162380Y-110601428D01*
X92162380Y-110220476D01*
X92210000Y-110125238D01*
X92257619Y-110077619D01*
X92352857Y-110030000D01*
X92495714Y-110030000D01*
X92590952Y-110077619D01*
X92638571Y-110125238D01*
X92686190Y-110220476D01*
X92686190Y-110601428D01*
X93162380Y-109696666D02*
X92495714Y-109172857D01*
X92495714Y-109696666D02*
X93162380Y-109172857D01*
%TO.C,J8*%
X145272380Y-100663333D02*
X145986666Y-100663333D01*
X146129523Y-100710952D01*
X146224761Y-100806190D01*
X146272380Y-100949047D01*
X146272380Y-101044285D01*
X145700952Y-100044285D02*
X145653333Y-100139523D01*
X145605714Y-100187142D01*
X145510476Y-100234761D01*
X145462857Y-100234761D01*
X145367619Y-100187142D01*
X145320000Y-100139523D01*
X145272380Y-100044285D01*
X145272380Y-99853809D01*
X145320000Y-99758571D01*
X145367619Y-99710952D01*
X145462857Y-99663333D01*
X145510476Y-99663333D01*
X145605714Y-99710952D01*
X145653333Y-99758571D01*
X145700952Y-99853809D01*
X145700952Y-100044285D01*
X145748571Y-100139523D01*
X145796190Y-100187142D01*
X145891428Y-100234761D01*
X146081904Y-100234761D01*
X146177142Y-100187142D01*
X146224761Y-100139523D01*
X146272380Y-100044285D01*
X146272380Y-99853809D01*
X146224761Y-99758571D01*
X146177142Y-99710952D01*
X146081904Y-99663333D01*
X145891428Y-99663333D01*
X145796190Y-99710952D01*
X145748571Y-99758571D01*
X145700952Y-99853809D01*
%TO.C,U3*%
X116732380Y-90931904D02*
X117541904Y-90931904D01*
X117637142Y-90884285D01*
X117684761Y-90836666D01*
X117732380Y-90741428D01*
X117732380Y-90550952D01*
X117684761Y-90455714D01*
X117637142Y-90408095D01*
X117541904Y-90360476D01*
X116732380Y-90360476D01*
X116732380Y-89979523D02*
X116732380Y-89360476D01*
X117113333Y-89693809D01*
X117113333Y-89550952D01*
X117160952Y-89455714D01*
X117208571Y-89408095D01*
X117303809Y-89360476D01*
X117541904Y-89360476D01*
X117637142Y-89408095D01*
X117684761Y-89455714D01*
X117732380Y-89550952D01*
X117732380Y-89836666D01*
X117684761Y-89931904D01*
X117637142Y-89979523D01*
X121406562Y-84833333D02*
X121673229Y-84833333D01*
X121798229Y-84900000D01*
X121914895Y-85033333D01*
X121948229Y-85300000D01*
X121889895Y-85766666D01*
X121789895Y-86033333D01*
X121639895Y-86166666D01*
X121498229Y-86233333D01*
X121231562Y-86233333D01*
X121106562Y-86166666D01*
X120989895Y-86033333D01*
X120956562Y-85766666D01*
X121014895Y-85300000D01*
X121114895Y-85033333D01*
X121264895Y-84900000D01*
X121406562Y-84833333D01*
X123098229Y-86233333D02*
X122431562Y-86233333D01*
X122606562Y-84833333D01*
X123656562Y-85500000D02*
X124123229Y-85500000D01*
X124231562Y-86233333D02*
X123564895Y-86233333D01*
X123739895Y-84833333D01*
X124406562Y-84833333D01*
X124831562Y-86233333D02*
X125006562Y-84833333D01*
X125339895Y-84833333D01*
X125531562Y-84900000D01*
X125648229Y-85033333D01*
X125698229Y-85166666D01*
X125731562Y-85433333D01*
X125706562Y-85633333D01*
X125606562Y-85900000D01*
X125523229Y-86033333D01*
X125373229Y-86166666D01*
X125164895Y-86233333D01*
X124831562Y-86233333D01*
X125881562Y-86366666D02*
X126948229Y-86366666D01*
X127739895Y-84833333D02*
X127873229Y-84833333D01*
X127998229Y-84900000D01*
X128056562Y-84966666D01*
X128106562Y-85100000D01*
X128139895Y-85366666D01*
X128098229Y-85700000D01*
X127998229Y-85966666D01*
X127914895Y-86100000D01*
X127839895Y-86166666D01*
X127698229Y-86233333D01*
X127564895Y-86233333D01*
X127439895Y-86166666D01*
X127381562Y-86100000D01*
X127331562Y-85966666D01*
X127298229Y-85700000D01*
X127339895Y-85366666D01*
X127439895Y-85100000D01*
X127523229Y-84966666D01*
X127598229Y-84900000D01*
X127739895Y-84833333D01*
X128648229Y-86100000D02*
X128706562Y-86166666D01*
X128631562Y-86233333D01*
X128573229Y-86166666D01*
X128648229Y-86100000D01*
X128631562Y-86233333D01*
X129364895Y-86233333D02*
X129631562Y-86233333D01*
X129773229Y-86166666D01*
X129848229Y-86100000D01*
X130006562Y-85900000D01*
X130106562Y-85633333D01*
X130173229Y-85100000D01*
X130123229Y-84966666D01*
X130064895Y-84900000D01*
X129939895Y-84833333D01*
X129673229Y-84833333D01*
X129531562Y-84900000D01*
X129456562Y-84966666D01*
X129373229Y-85100000D01*
X129331562Y-85433333D01*
X129381562Y-85566666D01*
X129439895Y-85633333D01*
X129564895Y-85700000D01*
X129831562Y-85700000D01*
X129973229Y-85633333D01*
X130048229Y-85566666D01*
X130131562Y-85433333D01*
X131364895Y-86233333D02*
X130564895Y-86233333D01*
X130964895Y-86233333D02*
X131139895Y-84833333D01*
X130981562Y-85033333D01*
X130831562Y-85166666D01*
X130689895Y-85233333D01*
X131614895Y-86366666D02*
X132681562Y-86366666D01*
X133764895Y-86233333D02*
X132964895Y-86233333D01*
X133364895Y-86233333D02*
X133539895Y-84833333D01*
X133381562Y-85033333D01*
X133231562Y-85166666D01*
X133089895Y-85233333D01*
X134456562Y-84966666D02*
X134531562Y-84900000D01*
X134673229Y-84833333D01*
X135006562Y-84833333D01*
X135131562Y-84900000D01*
X135189895Y-84966666D01*
X135239895Y-85100000D01*
X135223229Y-85233333D01*
X135131562Y-85433333D01*
X134231562Y-86233333D01*
X135098229Y-86233333D01*
X135998229Y-85433333D02*
X135873229Y-85366666D01*
X135814895Y-85300000D01*
X135764895Y-85166666D01*
X135773229Y-85100000D01*
X135856562Y-84966666D01*
X135931562Y-84900000D01*
X136073229Y-84833333D01*
X136339895Y-84833333D01*
X136464895Y-84900000D01*
X136523229Y-84966666D01*
X136573229Y-85100000D01*
X136564895Y-85166666D01*
X136481562Y-85300000D01*
X136406562Y-85366666D01*
X136264895Y-85433333D01*
X135998229Y-85433333D01*
X135856562Y-85500000D01*
X135781562Y-85566666D01*
X135698229Y-85700000D01*
X135664895Y-85966666D01*
X135714895Y-86100000D01*
X135773229Y-86166666D01*
X135898229Y-86233333D01*
X136164895Y-86233333D01*
X136306562Y-86166666D01*
X136381562Y-86100000D01*
X136464895Y-85966666D01*
X136498229Y-85700000D01*
X136448229Y-85566666D01*
X136389895Y-85500000D01*
X136264895Y-85433333D01*
X136898229Y-86233333D02*
X137748229Y-85300000D01*
X137014895Y-85300000D02*
X137631562Y-86233333D01*
X138206562Y-84833333D02*
X139073229Y-84833333D01*
X138539895Y-85366666D01*
X138739895Y-85366666D01*
X138864895Y-85433333D01*
X138923229Y-85500000D01*
X138973229Y-85633333D01*
X138931562Y-85966666D01*
X138848229Y-86100000D01*
X138773229Y-86166666D01*
X138631562Y-86233333D01*
X138231562Y-86233333D01*
X138106562Y-86166666D01*
X138048229Y-86100000D01*
X139589895Y-84966666D02*
X139664895Y-84900000D01*
X139806562Y-84833333D01*
X140139895Y-84833333D01*
X140264895Y-84900000D01*
X140323229Y-84966666D01*
X140373229Y-85100000D01*
X140356562Y-85233333D01*
X140264895Y-85433333D01*
X139364895Y-86233333D01*
X140231562Y-86233333D01*
%TO.C,U5*%
X142748095Y-106572380D02*
X142748095Y-107381904D01*
X142795714Y-107477142D01*
X142843333Y-107524761D01*
X142938571Y-107572380D01*
X143129047Y-107572380D01*
X143224285Y-107524761D01*
X143271904Y-107477142D01*
X143319523Y-107381904D01*
X143319523Y-106572380D01*
X144271904Y-106572380D02*
X143795714Y-106572380D01*
X143748095Y-107048571D01*
X143795714Y-107000952D01*
X143890952Y-106953333D01*
X144129047Y-106953333D01*
X144224285Y-107000952D01*
X144271904Y-107048571D01*
X144319523Y-107143809D01*
X144319523Y-107381904D01*
X144271904Y-107477142D01*
X144224285Y-107524761D01*
X144129047Y-107572380D01*
X143890952Y-107572380D01*
X143795714Y-107524761D01*
X143748095Y-107477142D01*
X136610000Y-112930000D02*
X136810000Y-112996666D01*
X136876666Y-113063333D01*
X136943333Y-113196666D01*
X136943333Y-113396666D01*
X136876666Y-113530000D01*
X136810000Y-113596666D01*
X136676666Y-113663333D01*
X136143333Y-113663333D01*
X136143333Y-112263333D01*
X136610000Y-112263333D01*
X136743333Y-112330000D01*
X136810000Y-112396666D01*
X136876666Y-112530000D01*
X136876666Y-112663333D01*
X136810000Y-112796666D01*
X136743333Y-112863333D01*
X136610000Y-112930000D01*
X136143333Y-112930000D01*
X137543333Y-113663333D02*
X137543333Y-112263333D01*
X138010000Y-113263333D01*
X138476666Y-112263333D01*
X138476666Y-113663333D01*
X139143333Y-112930000D02*
X139610000Y-112930000D01*
X139810000Y-113663333D02*
X139143333Y-113663333D01*
X139143333Y-112263333D01*
X139810000Y-112263333D01*
X140343333Y-112396666D02*
X140410000Y-112330000D01*
X140543333Y-112263333D01*
X140876666Y-112263333D01*
X141010000Y-112330000D01*
X141076666Y-112396666D01*
X141143333Y-112530000D01*
X141143333Y-112663333D01*
X141076666Y-112863333D01*
X140276666Y-113663333D01*
X141143333Y-113663333D01*
X141943333Y-112863333D02*
X141810000Y-112796666D01*
X141743333Y-112730000D01*
X141676666Y-112596666D01*
X141676666Y-112530000D01*
X141743333Y-112396666D01*
X141810000Y-112330000D01*
X141943333Y-112263333D01*
X142210000Y-112263333D01*
X142343333Y-112330000D01*
X142410000Y-112396666D01*
X142476666Y-112530000D01*
X142476666Y-112596666D01*
X142410000Y-112730000D01*
X142343333Y-112796666D01*
X142210000Y-112863333D01*
X141943333Y-112863333D01*
X141810000Y-112930000D01*
X141743333Y-112996666D01*
X141676666Y-113130000D01*
X141676666Y-113396666D01*
X141743333Y-113530000D01*
X141810000Y-113596666D01*
X141943333Y-113663333D01*
X142210000Y-113663333D01*
X142343333Y-113596666D01*
X142410000Y-113530000D01*
X142476666Y-113396666D01*
X142476666Y-113130000D01*
X142410000Y-112996666D01*
X142343333Y-112930000D01*
X142210000Y-112863333D01*
X143343333Y-112263333D02*
X143476666Y-112263333D01*
X143610000Y-112330000D01*
X143676666Y-112396666D01*
X143743333Y-112530000D01*
X143810000Y-112796666D01*
X143810000Y-113130000D01*
X143743333Y-113396666D01*
X143676666Y-113530000D01*
X143610000Y-113596666D01*
X143476666Y-113663333D01*
X143343333Y-113663333D01*
X143210000Y-113596666D01*
X143143333Y-113530000D01*
X143076666Y-113396666D01*
X143010000Y-113130000D01*
X143010000Y-112796666D01*
X143076666Y-112530000D01*
X143143333Y-112396666D01*
X143210000Y-112330000D01*
X143343333Y-112263333D01*
X144076666Y-113796666D02*
X145143333Y-113796666D01*
X145943333Y-112930000D02*
X146143333Y-112996666D01*
X146210000Y-113063333D01*
X146276666Y-113196666D01*
X146276666Y-113396666D01*
X146210000Y-113530000D01*
X146143333Y-113596666D01*
X146010000Y-113663333D01*
X145476666Y-113663333D01*
X145476666Y-112263333D01*
X145943333Y-112263333D01*
X146076666Y-112330000D01*
X146143333Y-112396666D01*
X146210000Y-112530000D01*
X146210000Y-112663333D01*
X146143333Y-112796666D01*
X146076666Y-112863333D01*
X145943333Y-112930000D01*
X145476666Y-112930000D01*
X147076666Y-113663333D02*
X146943333Y-113596666D01*
X146876666Y-113530000D01*
X146810000Y-113396666D01*
X146810000Y-112996666D01*
X146876666Y-112863333D01*
X146943333Y-112796666D01*
X147076666Y-112730000D01*
X147276666Y-112730000D01*
X147410000Y-112796666D01*
X147476666Y-112863333D01*
X147543333Y-112996666D01*
X147543333Y-113396666D01*
X147476666Y-113530000D01*
X147410000Y-113596666D01*
X147276666Y-113663333D01*
X147076666Y-113663333D01*
X148743333Y-113663333D02*
X148743333Y-112930000D01*
X148676666Y-112796666D01*
X148543333Y-112730000D01*
X148276666Y-112730000D01*
X148143333Y-112796666D01*
X148743333Y-113596666D02*
X148610000Y-113663333D01*
X148276666Y-113663333D01*
X148143333Y-113596666D01*
X148076666Y-113463333D01*
X148076666Y-113330000D01*
X148143333Y-113196666D01*
X148276666Y-113130000D01*
X148610000Y-113130000D01*
X148743333Y-113063333D01*
X149410000Y-113663333D02*
X149410000Y-112730000D01*
X149410000Y-112996666D02*
X149476666Y-112863333D01*
X149543333Y-112796666D01*
X149676666Y-112730000D01*
X149810000Y-112730000D01*
X150876666Y-113663333D02*
X150876666Y-112263333D01*
X150876666Y-113596666D02*
X150743333Y-113663333D01*
X150476666Y-113663333D01*
X150343333Y-113596666D01*
X150276666Y-113530000D01*
X150210000Y-113396666D01*
X150210000Y-112996666D01*
X150276666Y-112863333D01*
X150343333Y-112796666D01*
X150476666Y-112730000D01*
X150743333Y-112730000D01*
X150876666Y-112796666D01*
%TO.C,H2*%
X89408095Y-119442380D02*
X89408095Y-118442380D01*
X89408095Y-118918571D02*
X89979523Y-118918571D01*
X89979523Y-119442380D02*
X89979523Y-118442380D01*
X90408095Y-118537619D02*
X90455714Y-118490000D01*
X90550952Y-118442380D01*
X90789047Y-118442380D01*
X90884285Y-118490000D01*
X90931904Y-118537619D01*
X90979523Y-118632857D01*
X90979523Y-118728095D01*
X90931904Y-118870952D01*
X90360476Y-119442380D01*
X90979523Y-119442380D01*
%TO.C,H1*%
X130048095Y-119442380D02*
X130048095Y-118442380D01*
X130048095Y-118918571D02*
X130619523Y-118918571D01*
X130619523Y-119442380D02*
X130619523Y-118442380D01*
X131619523Y-119442380D02*
X131048095Y-119442380D01*
X131333809Y-119442380D02*
X131333809Y-118442380D01*
X131238571Y-118585238D01*
X131143333Y-118680476D01*
X131048095Y-118728095D01*
%TD*%
M02*
