<?xml version="1.0" encoding="UTF-8" standalone="no"?>
<svg
   xmlns:dc="http://purl.org/dc/elements/1.1/"
   xmlns:cc="http://creativecommons.org/ns#"
   xmlns:rdf="http://www.w3.org/1999/02/22-rdf-syntax-ns#"
   xmlns:svg="http://www.w3.org/2000/svg"
   xmlns="http://www.w3.org/2000/svg"
   xmlns:sodipodi="http://sodipodi.sourceforge.net/DTD/sodipodi-0.dtd"
   xmlns:inkscape="http://www.inkscape.org/namespaces/inkscape"
   width="128mm"
   height="64mm"
   viewBox="0 0 128 64"
   version="1.1"
   id="svg839"
   inkscape:version="1.0.1 (3bc2e813f5, 2020-09-07)"
   sodipodi:docname="logo.svg"
   inkscape:export-filename="C:\Users\Davy\logo-high-res.png"
   inkscape:export-xdpi="299.98685"
   inkscape:export-ydpi="299.98685">
  <defs
     id="defs833" />
  <sodipodi:namedview
     id="base"
     pagecolor="#ffffff"
     bordercolor="#666666"
     borderopacity="1.0"
     inkscape:pageopacity="0.0"
     inkscape:pageshadow="2"
     inkscape:zoom="0.98994949"
     inkscape:cx="274.95661"
     inkscape:cy="113.94606"
     inkscape:document-units="mm"
     inkscape:current-layer="layer1"
     inkscape:document-rotation="0"
     showgrid="false"
     inkscape:window-width="1920"
     inkscape:window-height="1137"
     inkscape:window-x="-8"
     inkscape:window-y="-8"
     inkscape:window-maximized="1" />
  <metadata
     id="metadata836">
    <rdf:RDF>
      <cc:Work
         rdf:about="">
        <dc:format>image/svg+xml</dc:format>
        <dc:type
           rdf:resource="http://purl.org/dc/dcmitype/StillImage" />
        <dc:title></dc:title>
      </cc:Work>
    </rdf:RDF>
  </metadata>
  <g
     inkscape:label="Layer 1"
     inkscape:groupmode="layer"
     id="layer1">
    <path
       fill="currentColor"
       d="M 48.976426,13.329282 C 48.750525,9.0129166 44.8767,5.776891 40.554634,5.776891 h -0.667729 c -3.764082,0 -7.429107,-1.1580137 -10.528309,-3.2951741 C 26.366286,0.41795779 22.514553,-0.48422494 18.440481,0.43648571 17.157045,0.72581156 7.9371139,3.371072 7.9428143,13.758282 c 0.00282,5.056068 2.7564307,9.463647 6.8404797,11.830274 v 5.272705 c 0,0.629959 0.510238,1.140198 1.140198,1.140198 h 1.140199 c 0.629959,0 1.1402,-0.510239 1.1402,-1.140198 v -3.8667 c 1.09459,0.2822 2.237639,0.446105 3.420595,0.446105 0.387668,0 0.761082,-0.05203 1.140199,-0.0841 v 3.504686 c 0,0.629958 0.510238,1.140198 1.140198,1.140198 h 1.140199 c 0.629959,0 1.140198,-0.51024 1.140198,-1.140198 v -4.235126 c 1.014778,-0.360588 1.986798,-0.81168 2.874728,-1.390329 3.259541,-2.124333 6.950221,-3.496135 10.841148,-3.496135 1.815767,0 1.140912,-0.0221 1.642601,-0.05559 l 5.302634,9.723042 c 0.203811,0.372706 0.591478,0.594331 1.001239,0.594331 0.09336,0 0.188132,-0.01141 0.281485,-0.03564 0.505251,-0.128271 0.858714,-0.583639 0.858714,-1.104566 0,0 0.01,-17.120084 -0.01141,-17.531981 z m -7.969988,2.139297 c -0.944228,0 -1.710299,-0.766071 -1.710299,-1.710297 0,-0.94494 0.766071,-1.710299 1.710299,-1.710299 0.944227,0 1.710298,0.765359 1.710298,1.710299 0,0.944226 -0.766071,1.710297 -1.710298,1.710297 z m 5.700993,10.920964 -2.840521,-5.207856 c 1.077487,-0.41546 2.047368,-1.040432 2.840521,-1.851398 z"
       id="path1402"
       style="fill:#90be92;fill-opacity:1;stroke-width:0.0712623"
       inkscape:export-filename="C:\Users\Davy\boot-screen.png"
       inkscape:export-xdpi="60.748791"
       inkscape:export-ydpi="60.748791" />
    <text
       xml:space="preserve"
       style="font-style:normal;font-variant:normal;font-weight:normal;font-stretch:normal;font-size:35.2778px;line-height:1.25;font-family:Grandstander;-inkscape-font-specification:Grandstander;letter-spacing:0px;word-spacing:0px;fill:#627164;fill-opacity:1;stroke:none;stroke-width:0.264583"
       x="55.587166"
       y="28.061859"
       id="text1415"
       inkscape:export-filename="C:\Users\Davy\boot-screen.png"
       inkscape:export-xdpi="60.748791"
       inkscape:export-ydpi="60.748791"><tspan
         sodipodi:role="line"
         id="tspan1413"
         x="55.587166"
         y="28.061859"
         style="font-style:normal;font-variant:normal;font-weight:normal;font-stretch:normal;font-size:35.2778px;font-family:Grandstander;-inkscape-font-specification:Grandstander;fill:#627164;fill-opacity:1;stroke-width:0.264583">Kiwi</tspan></text>
    <text
       xml:space="preserve"
       style="font-style:normal;font-variant:normal;font-weight:normal;font-stretch:normal;font-size:22.5778px;line-height:1.25;font-family:Grandstander;-inkscape-font-specification:Grandstander;text-align:center;letter-spacing:0px;word-spacing:0px;text-anchor:middle;fill:#627164;fill-opacity:1;stroke:none;stroke-width:0.264583"
       x="63.900497"
       y="53.143456"
       id="text843"
       inkscape:export-xdpi="60.748791"
       inkscape:export-ydpi="60.748791"><tspan
         sodipodi:role="line"
         id="tspan841"
         x="63.900497"
         y="53.143456"
         style="font-style:normal;font-variant:normal;font-weight:normal;font-stretch:normal;font-size:22.5778px;font-family:Grandstander;-inkscape-font-specification:Grandstander;text-align:center;text-anchor:middle;fill:#627164;fill-opacity:1;stroke-width:0.264583">air monitor</tspan></text>
    <text
       xml:space="preserve"
       style="font-style:normal;font-weight:normal;font-size:7.76111px;line-height:1.25;font-family:sans-serif;letter-spacing:0px;word-spacing:0px;fill:#90be92;fill-opacity:1;stroke:none;stroke-width:0.264583"
       x="66.085251"
       y="61.307735"
       id="text847"
       inkscape:export-xdpi="60.748791"
       inkscape:export-ydpi="60.748791"><tspan
         sodipodi:role="line"
         x="66.085251"
         y="61.307735"
         style="font-style:normal;font-variant:normal;font-weight:300;font-stretch:normal;font-size:7.76111px;font-family:Grandstander;-inkscape-font-specification:'Grandstander Light';text-align:center;text-anchor:middle;fill:#90be92;fill-opacity:1;stroke-width:0.264583"
         id="tspan849" /></text>
  </g>
</svg>
